<svg width="660" height="202" viewBox="0 0 660 202" fill="none" xmlns="http://www.w3.org/2000/svg">
<g filter="url(#filter0_b_208_4)">
<rect width="660" height="202" rx="20" fill="#FFCD1E"/>
</g>
<path d="M26.824 176.576C25.6293 176.576 24.648 176.299 23.88 175.744C23.1547 175.189 22.6853 174.443 22.472 173.504C22.3013 172.565 22.4933 171.52 23.048 170.368L39.432 134.464C40.1147 133.013 40.9253 131.968 41.864 131.328C42.8027 130.645 43.8907 130.304 45.128 130.304C46.3653 130.304 47.4533 130.645 48.392 131.328C49.3307 131.968 50.12 133.013 50.76 134.464L67.272 170.368C67.8267 171.52 68.0187 172.587 67.848 173.568C67.72 174.507 67.2933 175.253 66.568 175.808C65.8427 176.32 64.904 176.576 63.752 176.576C62.3013 176.576 61.1707 176.235 60.36 175.552C59.592 174.869 58.9093 173.803 58.312 172.352L54.472 163.456L58.44 166.208H31.752L35.72 163.456L31.944 172.352C31.304 173.845 30.6213 174.933 29.896 175.616C29.2133 176.256 28.1893 176.576 26.824 176.576ZM45 141.44L36.808 160.96L35.08 158.464H55.112L53.384 160.96L45.128 141.44H45ZM79.3635 176.576C77.7422 176.576 76.5048 176.128 75.6515 175.232C74.7982 174.336 74.3715 173.077 74.3715 171.456V135.424C74.3715 133.803 74.7982 132.544 75.6515 131.648C76.5048 130.752 77.7422 130.304 79.3635 130.304C80.9422 130.304 82.1582 130.752 83.0115 131.648C83.8648 132.544 84.2915 133.803 84.2915 135.424V171.456C84.2915 173.077 83.8648 174.336 83.0115 175.232C82.2008 176.128 80.9848 176.576 79.3635 176.576ZM117.518 176.576C115.897 176.576 114.66 176.128 113.806 175.232C112.953 174.336 112.526 173.077 112.526 171.456V135.424C112.526 133.803 112.953 132.544 113.806 131.648C114.66 130.752 115.897 130.304 117.518 130.304C119.097 130.304 120.313 130.752 121.166 131.648C122.02 132.544 122.446 133.803 122.446 135.424V148.992H143.438V135.424C143.438 133.803 143.865 132.544 144.718 131.648C145.572 130.752 146.788 130.304 148.367 130.304C149.988 130.304 151.225 130.752 152.078 131.648C152.932 132.544 153.359 133.803 153.359 135.424V171.456C153.359 173.077 152.932 174.336 152.078 175.232C151.225 176.128 149.988 176.576 148.367 176.576C146.788 176.576 145.572 176.128 144.718 175.232C143.865 174.336 143.438 173.077 143.438 171.456V157.248H122.446V171.456C122.446 173.077 122.02 174.336 121.166 175.232C120.356 176.128 119.14 176.576 117.518 176.576ZM173.856 176.704C171.211 176.704 169.013 176.213 167.264 175.232C165.515 174.251 164.213 172.779 163.36 170.816C162.549 168.811 162.144 166.336 162.144 163.392V148.928C162.144 147.307 162.549 146.091 163.36 145.28C164.213 144.469 165.408 144.064 166.944 144.064C168.48 144.064 169.675 144.469 170.528 145.28C171.381 146.091 171.808 147.307 171.808 148.928V163.648C171.808 165.525 172.192 166.933 172.96 167.872C173.728 168.768 174.944 169.216 176.608 169.216C178.443 169.216 179.936 168.576 181.088 167.296C182.283 165.973 182.88 164.245 182.88 162.112V148.928C182.88 147.307 183.285 146.091 184.096 145.28C184.949 144.469 186.144 144.064 187.68 144.064C189.259 144.064 190.453 144.469 191.264 145.28C192.117 146.091 192.544 147.307 192.544 148.928V171.648C192.544 174.933 190.987 176.576 187.872 176.576C186.336 176.576 185.163 176.149 184.352 175.296C183.541 174.443 183.136 173.227 183.136 171.648V167.36L184.096 169.856C183.157 172.032 181.813 173.717 180.064 174.912C178.315 176.107 176.245 176.704 173.856 176.704ZM220.054 176.704C217.537 176.704 215.297 176.085 213.334 174.848C211.414 173.568 210.134 171.883 209.494 169.792L210.198 167.68V171.648C210.198 173.227 209.793 174.443 208.982 175.296C208.171 176.149 206.998 176.576 205.462 176.576C203.926 176.576 202.731 176.149 201.878 175.296C201.067 174.443 200.662 173.227 200.662 171.648V135.232C200.662 133.611 201.067 132.395 201.878 131.584C202.731 130.731 203.947 130.304 205.526 130.304C207.062 130.304 208.235 130.731 209.046 131.584C209.899 132.395 210.326 133.611 210.326 135.232V150.4H209.558C210.241 148.48 211.542 146.923 213.462 145.728C215.382 144.533 217.579 143.936 220.054 143.936C222.827 143.936 225.238 144.597 227.286 145.92C229.334 147.243 230.934 149.12 232.086 151.552C233.238 153.984 233.814 156.885 233.814 160.256C233.814 163.627 233.238 166.549 232.086 169.024C230.934 171.499 229.313 173.397 227.222 174.72C225.174 176.043 222.785 176.704 220.054 176.704ZM217.174 169.472C218.539 169.472 219.734 169.131 220.758 168.448C221.825 167.765 222.635 166.763 223.19 165.44C223.787 164.075 224.086 162.347 224.086 160.256C224.086 157.141 223.446 154.859 222.166 153.408C220.886 151.915 219.222 151.168 217.174 151.168C215.809 151.168 214.593 151.488 213.526 152.128C212.502 152.768 211.691 153.771 211.094 155.136C210.497 156.459 210.198 158.165 210.198 160.256C210.198 163.371 210.838 165.696 212.118 167.232C213.398 168.725 215.083 169.472 217.174 169.472Z" fill="white"/>
<defs>
<filter id="filter0_b_208_4" x="-4" y="-4" width="668" height="210" filterUnits="userSpaceOnUse" color-interpolation-filters="sRGB">
<feFlood flood-opacity="0" result="BackgroundImageFix"/>
<feGaussianBlur in="BackgroundImageFix" stdDeviation="2"/>
<feComposite in2="SourceAlpha" operator="in" result="effect1_backgroundBlur_208_4"/>
<feBlend mode="normal" in="SourceGraphic" in2="effect1_backgroundBlur_208_4" result="shape"/>
</filter>
</defs>
</svg>
