<?xml version="1.0" encoding="UTF-8"?>
<!DOCTYPE svg PUBLIC "-//W3C//DTD SVG 1.1//EN" "http://www.w3.org/Graphics/SVG/1.1/DTD/svg11.dtd">
<svg xmlns="http://www.w3.org/2000/svg" version="1.1" width="1040px" height="1040px" style="shape-rendering:geometricPrecision; text-rendering:geometricPrecision; image-rendering:optimizeQuality; fill-rule:evenodd; clip-rule:evenodd" xmlns:xlink="http://www.w3.org/1999/xlink">
<g><path style="opacity:1" fill="#000000" d="M -0.5,-0.5 C 346.167,-0.5 692.833,-0.5 1039.5,-0.5C 1039.5,346.167 1039.5,692.833 1039.5,1039.5C 692.833,1039.5 346.167,1039.5 -0.5,1039.5C -0.5,692.833 -0.5,346.167 -0.5,-0.5 Z"/></g>
<g><path style="opacity:1" fill="#d3ebf5" d="M 119.5,331.5 C 160.167,331.5 200.833,331.5 241.5,331.5C 241.5,331.833 241.5,332.167 241.5,332.5C 201.165,332.333 160.832,332.5 120.5,333C 111.579,342.425 102.246,351.258 92.5,359.5C 101.167,350.5 109.833,341.5 118.5,332.5C 119.167,332.5 119.5,332.167 119.5,331.5 Z"/></g>
<g><path style="opacity:1" fill="#35ebeb" d="M 118.5,332.5 C 109.833,341.5 101.167,350.5 92.5,359.5C 92.3334,389.502 92.5,419.502 93,449.5C 101.833,458.333 110.667,467.167 119.5,476C 118.207,476.49 116.873,476.657 115.5,476.5C 106.187,467.521 96.854,458.521 87.5,449.5C 86.3335,419.506 86.1668,389.506 87,359.5C 87.3826,358.944 87.8826,358.611 88.5,358.5C 97.9123,350.592 106.912,342.092 115.5,333C 116.448,332.517 117.448,332.351 118.5,332.5 Z"/></g>
<g><path style="opacity:1" fill="#fbfbfc" d="M 241.5,332.5 C 242.833,332.5 244.167,332.5 245.5,332.5C 245.173,341.682 245.507,350.682 246.5,359.5C 246.5,359.833 246.5,360.167 246.5,360.5C 206.167,360.5 165.833,360.5 125.5,360.5C 125.167,360.5 124.833,360.5 124.5,360.5C 123.167,359.167 121.833,359.167 120.5,360.5C 119.506,370.319 119.173,380.319 119.5,390.5C 121.5,390.5 123.5,390.5 125.5,390.5C 154.5,390.5 183.5,390.5 212.5,390.5C 212.5,399.5 212.5,408.5 212.5,417.5C 210.901,417.232 209.568,417.566 208.5,418.5C 180.833,418.5 153.167,418.5 125.5,418.5C 125.167,418.5 124.833,418.5 124.5,418.5C 122.833,418.5 121.167,418.5 119.5,418.5C 119.5,428.5 119.5,438.5 119.5,448.5C 121.167,448.5 122.833,448.5 124.5,448.5C 165.167,448.5 205.833,448.5 246.5,448.5C 246.5,448.833 246.5,449.167 246.5,449.5C 246.5,458.5 246.5,467.5 246.5,476.5C 246.5,476.833 246.5,477.167 246.5,477.5C 202.663,477.832 158.997,477.499 115.5,476.5C 116.873,476.657 118.207,476.49 119.5,476C 110.667,467.167 101.833,458.333 93,449.5C 92.5,419.502 92.3334,389.502 92.5,359.5C 102.246,351.258 111.579,342.425 120.5,333C 160.832,332.5 201.165,332.333 241.5,332.5 Z"/></g>
<g><path style="opacity:1" fill="#fac5fa" d="M 241.5,332.5 C 241.5,332.167 241.5,331.833 241.5,331.5C 243.167,331.5 244.833,331.5 246.5,331.5C 246.5,331.833 246.5,332.167 246.5,332.5C 246.5,341.5 246.5,350.5 246.5,359.5C 245.507,350.682 245.173,341.682 245.5,332.5C 244.167,332.5 242.833,332.5 241.5,332.5 Z"/></g>
<g><path style="opacity:1" fill="#fe1bfe" d="M 246.5,332.5 C 247.833,332.5 249.167,332.5 250.5,332.5C 250.5,341.5 250.5,350.5 250.5,359.5C 249.167,359.5 247.833,359.5 246.5,359.5C 246.5,350.5 246.5,341.5 246.5,332.5 Z"/></g>
<g><path style="opacity:1" fill="#990299" d="M 246.5,332.5 C 246.5,332.167 246.5,331.833 246.5,331.5C 248.167,331.5 249.833,331.5 251.5,331.5C 251.5,341.167 251.5,350.833 251.5,360.5C 249.833,360.5 248.167,360.5 246.5,360.5C 246.5,360.167 246.5,359.833 246.5,359.5C 247.833,359.5 249.167,359.5 250.5,359.5C 250.5,350.5 250.5,341.5 250.5,332.5C 249.167,332.5 247.833,332.5 246.5,332.5 Z"/></g>
<g><path style="opacity:1" fill="#2afbfb" d="M 294.5,331.5 C 285.536,340.965 276.369,350.298 267,359.5C 266.5,398.499 266.333,437.499 266.5,476.5C 265.167,476.5 263.833,476.5 262.5,476.5C 262.5,437.167 262.5,397.833 262.5,358.5C 271.479,350.188 280.146,341.521 288.5,332.5C 290.396,331.534 292.396,331.201 294.5,331.5 Z"/></g>
<g><path style="opacity:1" fill="#fdfdfe" d="M 294.5,331.5 C 334.833,331.5 375.167,331.5 415.5,331.5C 424.464,340.965 433.631,350.298 443,359.5C 443.5,398.499 443.667,437.499 443.5,476.5C 434.167,476.5 424.833,476.5 415.5,476.5C 415.5,437.5 415.5,398.5 415.5,359.5C 413.833,359.5 412.167,359.5 410.5,359.5C 398.167,359.5 385.833,359.5 373.5,359.5C 371.901,359.232 370.568,359.566 369.5,360.5C 368.502,386.328 368.169,412.328 368.5,438.5C 359.5,438.5 350.5,438.5 341.5,438.5C 341.5,438.167 341.5,437.833 341.5,437.5C 341.5,411.5 341.5,385.5 341.5,359.5C 339.265,359.205 337.265,359.539 335.5,360.5C 323.5,360.5 311.5,360.5 299.5,360.5C 298.081,359.549 296.415,359.216 294.5,359.5C 294.5,398.5 294.5,437.5 294.5,476.5C 285.167,476.5 275.833,476.5 266.5,476.5C 266.333,437.499 266.5,398.499 267,359.5C 276.369,350.298 285.536,340.965 294.5,331.5 Z"/></g>
<g><path style="opacity:1" fill="#f32ef3" d="M 415.5,331.5 C 417.199,331.34 418.866,331.506 420.5,332C 429.369,340.702 438.036,349.535 446.5,358.5C 444.506,397.486 443.839,436.819 444.5,476.5C 444.167,476.5 443.833,476.5 443.5,476.5C 443.667,437.499 443.5,398.499 443,359.5C 433.631,350.298 424.464,340.965 415.5,331.5 Z"/></g>
<g><path style="opacity:1" fill="#29fbfb" d="M 491.5,331.5 C 482.536,340.965 473.369,350.298 464,359.5C 463.5,407.832 463.333,456.166 463.5,504.5C 462.167,504.5 460.833,504.5 459.5,504.5C 459.5,455.833 459.5,407.167 459.5,358.5C 468.479,350.188 477.146,341.521 485.5,332.5C 487.396,331.534 489.396,331.201 491.5,331.5 Z"/></g>
<g><path style="opacity:1" fill="#fcfcfd" d="M 491.5,331.5 C 522.833,331.5 554.167,331.5 585.5,331.5C 594.464,340.965 603.631,350.298 613,359.5C 613.5,389.498 613.667,419.498 613.5,449.5C 603.887,457.445 594.887,466.111 586.5,475.5C 585.662,475.842 585.328,476.508 585.5,477.5C 555.833,477.5 526.167,477.5 496.5,477.5C 494.833,476.167 493.167,476.167 491.5,477.5C 490.507,486.318 490.173,495.318 490.5,504.5C 481.5,504.5 472.5,504.5 463.5,504.5C 463.333,456.166 463.5,407.832 464,359.5C 473.369,350.298 482.536,340.965 491.5,331.5 Z"/></g>
<g><path style="opacity:1" fill="#2ff5f5" d="M 633.5,331.5 C 633.5,340.833 633.5,350.167 633.5,359.5C 631.833,359.5 630.167,359.5 628.5,359.5C 628.5,350.167 628.5,340.833 628.5,331.5C 630.167,331.5 631.833,331.5 633.5,331.5 Z"/></g>
<g><path style="opacity:1" fill="#fcfcfd" d="M 633.5,331.5 C 683.167,331.5 732.833,331.5 782.5,331.5C 782.5,341.167 782.5,350.833 782.5,360.5C 764.167,360.5 745.833,360.5 727.5,360.5C 725.833,359.167 724.167,359.167 722.5,360.5C 722.5,399.167 722.5,437.833 722.5,476.5C 713.167,476.5 703.833,476.5 694.5,476.5C 694.5,437.5 694.5,398.5 694.5,359.5C 692.833,359.5 691.167,359.5 689.5,359.5C 670.833,359.5 652.167,359.5 633.5,359.5C 633.5,350.167 633.5,340.833 633.5,331.5 Z"/></g>
<g><path style="opacity:1" fill="#993a99" d="M 782.5,331.5 C 782.833,331.5 783.167,331.5 783.5,331.5C 783.5,340.833 783.5,350.167 783.5,359.5C 784.833,359.5 786.167,359.5 787.5,359.5C 787.5,350.167 787.5,340.833 787.5,331.5C 788.494,340.986 788.827,350.652 788.5,360.5C 786.5,360.5 784.5,360.5 782.5,360.5C 782.5,350.833 782.5,341.167 782.5,331.5 Z"/></g>
<g><path style="opacity:1" fill="#fc0bfc" d="M 783.5,331.5 C 784.833,331.5 786.167,331.5 787.5,331.5C 787.5,340.833 787.5,350.167 787.5,359.5C 786.167,359.5 784.833,359.5 783.5,359.5C 783.5,350.167 783.5,340.833 783.5,331.5 Z"/></g>
<g><path style="opacity:1" fill="#276f71" d="M 830.5,331.5 C 821.5,331.5 812.5,331.5 803.5,331.5C 801.833,331.5 800.167,331.5 798.5,331.5C 798.5,351.167 798.5,370.833 798.5,390.5C 797.503,370.674 797.17,350.674 797.5,330.5C 808.679,330.172 819.679,330.505 830.5,331.5 Z"/></g>
<g><path style="opacity:1" fill="#3ff3f3" d="M 803.5,331.5 C 803.333,351.169 803.5,370.836 804,390.5C 813.403,399.4 822.237,408.734 830.5,418.5C 829.167,418.5 827.833,418.5 826.5,418.5C 816.833,409.5 807.5,400.167 798.5,390.5C 798.5,370.833 798.5,351.167 798.5,331.5C 800.167,331.5 801.833,331.5 803.5,331.5 Z"/></g>
<g><path style="opacity:1" fill="#fdfdfe" d="M 803.5,331.5 C 812.5,331.5 821.5,331.5 830.5,331.5C 830.5,351.167 830.5,370.833 830.5,390.5C 832.5,390.5 834.5,390.5 836.5,390.5C 866.167,390.5 895.833,390.5 925.5,390.5C 927.167,390.5 928.833,390.5 930.5,390.5C 930.5,370.833 930.5,351.167 930.5,331.5C 939.5,331.5 948.5,331.5 957.5,331.5C 957.667,370.835 957.5,410.168 957,449.5C 947.965,458.702 938.798,467.702 929.5,476.5C 898.5,476.5 867.5,476.5 836.5,476.5C 836.5,467.5 836.5,458.5 836.5,449.5C 836.5,449.167 836.5,448.833 836.5,448.5C 865.833,448.5 895.167,448.5 924.5,448.5C 926.223,449.807 928.057,449.807 930,448.5C 930.5,438.506 930.666,428.506 930.5,418.5C 928.833,418.5 927.167,418.5 925.5,418.5C 893.833,418.5 862.167,418.5 830.5,418.5C 822.237,408.734 813.403,399.4 804,390.5C 803.5,370.836 803.333,351.169 803.5,331.5 Z"/></g>
<g><path style="opacity:1" fill="#cd69cc" d="M 830.5,331.5 C 830.833,331.5 831.167,331.5 831.5,331.5C 831.5,350.833 831.5,370.167 831.5,389.5C 832.833,389.5 834.167,389.5 835.5,389.5C 835.5,370.167 835.5,350.833 835.5,331.5C 836.497,350.659 836.83,369.993 836.5,389.5C 836.5,389.833 836.5,390.167 836.5,390.5C 834.5,390.5 832.5,390.5 830.5,390.5C 830.5,370.833 830.5,351.167 830.5,331.5 Z"/></g>
<g><path style="opacity:1" fill="#fd08fd" d="M 831.5,331.5 C 832.833,331.5 834.167,331.5 835.5,331.5C 835.5,350.833 835.5,370.167 835.5,389.5C 834.167,389.5 832.833,389.5 831.5,389.5C 831.5,370.167 831.5,350.833 831.5,331.5 Z"/></g>
<g><path style="opacity:1" fill="#477b7d" d="M 957.5,331.5 C 948.5,331.5 939.5,331.5 930.5,331.5C 928.958,332.301 927.292,332.634 925.5,332.5C 925.5,351.833 925.5,371.167 925.5,390.5C 895.833,390.5 866.167,390.5 836.5,390.5C 836.5,390.167 836.5,389.833 836.5,389.5C 865.833,389.5 895.167,389.5 924.5,389.5C 924.5,369.833 924.5,350.167 924.5,330.5C 935.679,330.172 946.679,330.505 957.5,331.5 Z"/></g>
<g><path style="opacity:1" fill="#4bfefe" d="M 930.5,331.5 C 930.5,351.167 930.5,370.833 930.5,390.5C 928.833,390.5 927.167,390.5 925.5,390.5C 925.5,371.167 925.5,351.833 925.5,332.5C 927.292,332.634 928.958,332.301 930.5,331.5 Z"/></g>
<g><path style="opacity:1" fill="#fe02fe" d="M 958.5,332.5 C 959.5,332.5 960.5,332.5 961.5,332.5C 961.5,371.5 961.5,410.5 961.5,449.5C 961.5,450.167 961.167,450.5 960.5,450.5C 958.506,411.514 957.839,372.181 958.5,332.5 Z"/></g>
<g><path style="opacity:1" fill="#e300e3" d="M 958.5,332.5 C 958.5,332.167 958.5,331.833 958.5,331.5C 959.833,331.5 961.167,331.5 962.5,331.5C 962.832,371.004 962.499,410.337 961.5,449.5C 961.5,410.5 961.5,371.5 961.5,332.5C 960.5,332.5 959.5,332.5 958.5,332.5 Z"/></g>
<g><path style="opacity:1" fill="#01c6c6" d="M 119.5,331.5 C 119.5,332.167 119.167,332.5 118.5,332.5C 117.448,332.351 116.448,332.517 115.5,333C 106.912,342.092 97.9123,350.592 88.5,358.5C 96.9644,349.535 105.631,340.702 114.5,332C 116.134,331.506 117.801,331.34 119.5,331.5 Z"/></g>
<g><path style="opacity:1" fill="#fe00fe" d="M 446.5,358.5 C 447.167,358.5 447.5,358.833 447.5,359.5C 447.5,398.5 447.5,437.5 447.5,476.5C 446.5,476.5 445.5,476.5 444.5,476.5C 443.839,436.819 444.506,397.486 446.5,358.5 Z"/></g>
<g><path style="opacity:1" fill="#ed15ed" d="M 585.5,331.5 C 587.199,331.34 588.866,331.506 590.5,332C 599.348,341.014 608.348,349.848 617.5,358.5C 618.5,388.826 618.833,419.159 618.5,449.5C 608.754,457.742 599.421,466.575 590.5,476C 588.934,476.765 587.601,476.598 586.5,475.5C 596.113,467.555 605.113,458.889 613.5,449.5C 613.667,419.498 613.5,389.498 613,359.5C 603.631,350.298 594.464,340.965 585.5,331.5 Z"/></g>
<g><path style="opacity:1" fill="#ce6ace" d="M 120.5,360.5 C 120.5,370.167 120.5,379.833 120.5,389.5C 121.833,389.5 123.167,389.5 124.5,389.5C 124.5,379.833 124.5,370.167 124.5,360.5C 124.833,360.5 125.167,360.5 125.5,360.5C 125.5,370.5 125.5,380.5 125.5,390.5C 123.5,390.5 121.5,390.5 119.5,390.5C 119.173,380.319 119.506,370.319 120.5,360.5 Z"/></g>
<g><path style="opacity:1" fill="#fd19fd" d="M 124.5,360.5 C 124.5,370.167 124.5,379.833 124.5,389.5C 123.167,389.5 121.833,389.5 120.5,389.5C 120.5,379.833 120.5,370.167 120.5,360.5C 121.833,359.167 123.167,359.167 124.5,360.5 Z"/></g>
<g><path style="opacity:1" fill="#3caeae" d="M 262.5,358.5 C 262.5,397.833 262.5,437.167 262.5,476.5C 263.833,476.5 265.167,476.5 266.5,476.5C 275.833,476.5 285.167,476.5 294.5,476.5C 294.5,476.833 294.5,477.167 294.5,477.5C 283.5,477.5 272.5,477.5 261.5,477.5C 261.168,437.663 261.501,397.996 262.5,358.5 Z"/></g>
<g><path style="opacity:1" fill="#fe58fe" d="M 299.5,360.5 C 299.167,360.5 298.833,360.5 298.5,360.5C 297.5,360.5 296.5,360.5 295.5,360.5C 295.5,399.167 295.5,437.833 295.5,476.5C 295.167,476.5 294.833,476.5 294.5,476.5C 294.5,437.5 294.5,398.5 294.5,359.5C 296.415,359.216 298.081,359.549 299.5,360.5 Z"/></g>
<g><path style="opacity:1" fill="#fe00ff" d="M 298.5,360.5 C 298.5,399.167 298.5,437.833 298.5,476.5C 297.5,476.5 296.5,476.5 295.5,476.5C 295.5,437.833 295.5,399.167 295.5,360.5C 296.5,360.5 297.5,360.5 298.5,360.5 Z"/></g>
<g><path style="opacity:1" fill="#b300b3" d="M 298.5,360.5 C 298.833,360.5 299.167,360.5 299.5,360.5C 299.5,399.5 299.5,438.5 299.5,477.5C 297.833,477.5 296.167,477.5 294.5,477.5C 294.5,477.167 294.5,476.833 294.5,476.5C 294.833,476.5 295.167,476.5 295.5,476.5C 296.5,476.5 297.5,476.5 298.5,476.5C 298.5,437.833 298.5,399.167 298.5,360.5 Z"/></g>
<g><path style="opacity:1" fill="#027676" d="M 335.5,360.5 C 335.833,360.5 336.167,360.5 336.5,360.5C 336.5,386.167 336.5,411.833 336.5,437.5C 337.833,437.5 339.167,437.5 340.5,437.5C 340.833,437.5 341.167,437.5 341.5,437.5C 341.5,437.833 341.5,438.167 341.5,438.5C 339.5,438.5 337.5,438.5 335.5,438.5C 335.5,412.5 335.5,386.5 335.5,360.5 Z"/></g>
<g><path style="opacity:1" fill="#01fafa" d="M 336.5,360.5 C 337.833,360.5 339.167,360.5 340.5,360.5C 340.5,386.167 340.5,411.833 340.5,437.5C 339.167,437.5 337.833,437.5 336.5,437.5C 336.5,411.833 336.5,386.167 336.5,360.5 Z"/></g>
<g><path style="opacity:1" fill="#94fefe" d="M 335.5,360.5 C 337.265,359.539 339.265,359.205 341.5,359.5C 341.5,385.5 341.5,411.5 341.5,437.5C 341.167,437.5 340.833,437.5 340.5,437.5C 340.5,411.833 340.5,386.167 340.5,360.5C 339.167,360.5 337.833,360.5 336.5,360.5C 336.167,360.5 335.833,360.5 335.5,360.5 Z"/></g>
<g><path style="opacity:1" fill="#fe12ff" d="M 373.5,359.5 C 373.5,359.833 373.5,360.167 373.5,360.5C 373.5,386.167 373.5,411.833 373.5,437.5C 372.167,437.5 370.833,437.5 369.5,437.5C 369.5,411.833 369.5,386.167 369.5,360.5C 370.568,359.566 371.901,359.232 373.5,359.5 Z"/></g>
<g><path style="opacity:1" fill="#9f3d9e" d="M 369.5,360.5 C 369.5,386.167 369.5,411.833 369.5,437.5C 370.833,437.5 372.167,437.5 373.5,437.5C 373.5,411.833 373.5,386.167 373.5,360.5C 373.833,360.5 374.167,360.5 374.5,360.5C 374.5,386.5 374.5,412.5 374.5,438.5C 372.5,438.5 370.5,438.5 368.5,438.5C 368.169,412.328 368.502,386.328 369.5,360.5 Z"/></g>
<g><path style="opacity:1" fill="#336060" d="M 373.5,360.5 C 373.5,360.167 373.5,359.833 373.5,359.5C 385.833,359.5 398.167,359.5 410.5,359.5C 410.5,398.5 410.5,437.5 410.5,476.5C 412.167,476.5 413.833,476.5 415.5,476.5C 424.833,476.5 434.167,476.5 443.5,476.5C 443.5,476.833 443.5,477.167 443.5,477.5C 432.167,477.5 420.833,477.5 409.5,477.5C 409.5,438.5 409.5,399.5 409.5,360.5C 397.833,360.5 386.167,360.5 374.5,360.5C 374.167,360.5 373.833,360.5 373.5,360.5 Z"/></g>
<g><path style="opacity:1" fill="#2cf6f6" d="M 410.5,359.5 C 412.167,359.5 413.833,359.5 415.5,359.5C 415.5,398.5 415.5,437.5 415.5,476.5C 413.833,476.5 412.167,476.5 410.5,476.5C 410.5,437.5 410.5,398.5 410.5,359.5 Z"/></g>
<g><path style="opacity:1" fill="#9a009a" d="M 447.5,359.5 C 448.499,398.663 448.832,437.996 448.5,477.5C 446.833,477.5 445.167,477.5 443.5,477.5C 443.5,477.167 443.5,476.833 443.5,476.5C 443.833,476.5 444.167,476.5 444.5,476.5C 445.5,476.5 446.5,476.5 447.5,476.5C 447.5,437.5 447.5,398.5 447.5,359.5 Z"/></g>
<g><path style="opacity:1" fill="#00b6b6" d="M 459.5,358.5 C 459.5,407.167 459.5,455.833 459.5,504.5C 460.833,504.5 462.167,504.5 463.5,504.5C 463.5,504.833 463.5,505.167 463.5,505.5C 461.833,505.5 460.167,505.5 458.5,505.5C 458.168,456.33 458.501,407.33 459.5,358.5 Z"/></g>
<g><path style="opacity:1" fill="#e543e6" d="M 496.5,359.5 C 496.5,359.833 496.5,360.167 496.5,360.5C 496.5,389.833 496.5,419.167 496.5,448.5C 494.833,448.5 493.167,448.5 491.5,448.5C 491.5,418.833 491.5,389.167 491.5,359.5C 493.167,359.5 494.833,359.5 496.5,359.5 Z"/></g>
<g><path style="opacity:1" fill="#fe00ff" d="M 492.5,360.5 C 493.5,360.5 494.5,360.5 495.5,360.5C 495.5,389.5 495.5,418.5 495.5,447.5C 494.5,447.5 493.5,447.5 492.5,447.5C 492.5,418.5 492.5,389.5 492.5,360.5 Z"/></g>
<g><path style="opacity:1" fill="#000000" d="M 497.5,360.5 C 524.833,360.5 552.167,360.5 579.5,360.5C 579.5,389.5 579.5,418.5 579.5,447.5C 552.167,447.5 524.833,447.5 497.5,447.5C 497.5,418.5 497.5,389.5 497.5,360.5 Z"/></g>
<g><path style="opacity:1" fill="#346466" d="M 496.5,360.5 C 496.5,360.167 496.5,359.833 496.5,359.5C 524.5,359.5 552.5,359.5 580.5,359.5C 580.5,359.833 580.5,360.167 580.5,360.5C 580.5,389.833 580.5,419.167 580.5,448.5C 580.167,448.5 579.833,448.5 579.5,448.5C 579.5,448.167 579.5,447.833 579.5,447.5C 579.5,418.5 579.5,389.5 579.5,360.5C 552.167,360.5 524.833,360.5 497.5,360.5C 497.167,360.5 496.833,360.5 496.5,360.5 Z"/></g>
<g><path style="opacity:1" fill="#00f5f5" d="M 580.5,360.5 C 581.833,360.5 583.167,360.5 584.5,360.5C 584.5,389.833 584.5,419.167 584.5,448.5C 583.167,448.5 581.833,448.5 580.5,448.5C 580.5,419.167 580.5,389.833 580.5,360.5 Z"/></g>
<g><path style="opacity:1" fill="#79fefe" d="M 580.5,360.5 C 580.5,360.167 580.5,359.833 580.5,359.5C 582.167,359.5 583.833,359.5 585.5,359.5C 585.5,389.5 585.5,419.5 585.5,449.5C 583.585,449.784 581.919,449.451 580.5,448.5C 581.833,448.5 583.167,448.5 584.5,448.5C 584.5,419.167 584.5,389.833 584.5,360.5C 583.167,360.5 581.833,360.5 580.5,360.5 Z"/></g>
<g><path style="opacity:1" fill="#3c7273" d="M 628.5,359.5 C 630.167,359.5 631.833,359.5 633.5,359.5C 652.167,359.5 670.833,359.5 689.5,359.5C 689.5,359.833 689.5,360.167 689.5,360.5C 689.5,399.167 689.5,437.833 689.5,476.5C 690.833,476.5 692.167,476.5 693.5,476.5C 693.833,476.5 694.167,476.5 694.5,476.5C 703.833,476.5 713.167,476.5 722.5,476.5C 722.5,476.833 722.5,477.167 722.5,477.5C 711.167,477.5 699.833,477.5 688.5,477.5C 688.5,438.5 688.5,399.5 688.5,360.5C 668.326,360.83 648.326,360.497 628.5,359.5 Z"/></g>
<g><path style="opacity:1" fill="#00f8f8" d="M 689.5,360.5 C 690.833,360.5 692.167,360.5 693.5,360.5C 693.5,399.167 693.5,437.833 693.5,476.5C 692.167,476.5 690.833,476.5 689.5,476.5C 689.5,437.833 689.5,399.167 689.5,360.5 Z"/></g>
<g><path style="opacity:1" fill="#86fefe" d="M 689.5,360.5 C 689.5,360.167 689.5,359.833 689.5,359.5C 691.167,359.5 692.833,359.5 694.5,359.5C 694.5,398.5 694.5,437.5 694.5,476.5C 694.167,476.5 693.833,476.5 693.5,476.5C 693.5,437.833 693.5,399.167 693.5,360.5C 692.167,360.5 690.833,360.5 689.5,360.5 Z"/></g>
<g><path style="opacity:1" fill="#ff10ff" d="M 722.5,360.5 C 723.833,360.5 725.167,360.5 726.5,360.5C 726.5,399.167 726.5,437.833 726.5,476.5C 725.167,476.5 723.833,476.5 722.5,476.5C 722.5,437.833 722.5,399.167 722.5,360.5 Z"/></g>
<g><path style="opacity:1" fill="#830b84" d="M 722.5,360.5 C 724.167,359.167 725.833,359.167 727.5,360.5C 727.5,399.5 727.5,438.5 727.5,477.5C 725.833,477.5 724.167,477.5 722.5,477.5C 722.5,477.167 722.5,476.833 722.5,476.5C 723.833,476.5 725.167,476.5 726.5,476.5C 726.5,437.833 726.5,399.167 726.5,360.5C 725.167,360.5 723.833,360.5 722.5,360.5 Z"/></g>
<g><path style="opacity:1" fill="#f9d5f9" d="M 212.5,390.5 C 212.833,390.5 213.167,390.5 213.5,390.5C 213.5,399.5 213.5,408.5 213.5,417.5C 213.5,417.833 213.5,418.167 213.5,418.5C 211.833,418.5 210.167,418.5 208.5,418.5C 209.568,417.566 210.901,417.232 212.5,417.5C 212.5,408.5 212.5,399.5 212.5,390.5 Z"/></g>
<g><path style="opacity:1" fill="#fe22fe" d="M 213.5,390.5 C 214.833,390.5 216.167,390.5 217.5,390.5C 217.5,399.5 217.5,408.5 217.5,417.5C 216.167,417.5 214.833,417.5 213.5,417.5C 213.5,408.5 213.5,399.5 213.5,390.5 Z"/></g>
<g><path style="opacity:1" fill="#a704a7" d="M 213.5,390.5 C 214.919,389.549 216.585,389.216 218.5,389.5C 218.5,399.167 218.5,408.833 218.5,418.5C 216.833,418.5 215.167,418.5 213.5,418.5C 213.5,418.167 213.5,417.833 213.5,417.5C 214.833,417.5 216.167,417.5 217.5,417.5C 217.5,408.5 217.5,399.5 217.5,390.5C 216.167,390.5 214.833,390.5 213.5,390.5 Z"/></g>
<g><path style="opacity:1" fill="#fd3efe" d="M 124.5,418.5 C 124.5,428.5 124.5,438.5 124.5,448.5C 122.833,448.5 121.167,448.5 119.5,448.5C 119.5,438.5 119.5,428.5 119.5,418.5C 121.167,418.5 122.833,418.5 124.5,418.5 Z"/></g>
<g><path style="opacity:1" fill="#396871" d="M 826.5,418.5 C 827.833,418.5 829.167,418.5 830.5,418.5C 862.167,418.5 893.833,418.5 925.5,418.5C 925.827,428.681 925.494,438.681 924.5,448.5C 895.167,448.5 865.833,448.5 836.5,448.5C 834.833,448.5 833.167,448.5 831.5,448.5C 862.329,447.502 893.329,447.169 924.5,447.5C 924.5,438.167 924.5,428.833 924.5,419.5C 891.662,419.832 858.996,419.498 826.5,418.5 Z"/></g>
<g><path style="opacity:1" fill="#5bfefe" d="M 925.5,418.5 C 927.167,418.5 928.833,418.5 930.5,418.5C 930.666,428.506 930.5,438.506 930,448.5C 928.057,449.807 926.223,449.807 924.5,448.5C 925.494,438.681 925.827,428.681 925.5,418.5 Z"/></g>
<g><path style="opacity:1" fill="#423a53" d="M 124.5,418.5 C 124.833,418.5 125.167,418.5 125.5,418.5C 125.5,428.167 125.5,437.833 125.5,447.5C 166.003,447.168 206.337,447.501 246.5,448.5C 205.833,448.5 165.167,448.5 124.5,448.5C 124.5,438.5 124.5,428.5 124.5,418.5 Z"/></g>
<g><path style="opacity:1" fill="#392d46" d="M 496.5,360.5 C 496.833,360.5 497.167,360.5 497.5,360.5C 497.5,389.5 497.5,418.5 497.5,447.5C 524.833,447.5 552.167,447.5 579.5,447.5C 579.5,447.833 579.5,448.167 579.5,448.5C 551.833,448.5 524.167,448.5 496.5,448.5C 496.5,419.167 496.5,389.833 496.5,360.5 Z"/></g>
<g><path style="opacity:1" fill="#ff1bff" d="M 246.5,449.5 C 247.833,449.5 249.167,449.5 250.5,449.5C 250.5,458.5 250.5,467.5 250.5,476.5C 249.167,476.5 247.833,476.5 246.5,476.5C 246.5,467.5 246.5,458.5 246.5,449.5 Z"/></g>
<g><path style="opacity:1" fill="#990299" d="M 246.5,449.5 C 246.5,449.167 246.5,448.833 246.5,448.5C 248.167,448.5 249.833,448.5 251.5,448.5C 251.5,458.167 251.5,467.833 251.5,477.5C 249.833,477.5 248.167,477.5 246.5,477.5C 246.5,477.167 246.5,476.833 246.5,476.5C 247.833,476.5 249.167,476.5 250.5,476.5C 250.5,467.5 250.5,458.5 250.5,449.5C 249.167,449.5 247.833,449.5 246.5,449.5 Z"/></g>
<g><path style="opacity:1" fill="#39fffe" d="M 836.5,449.5 C 836.5,458.5 836.5,467.5 836.5,476.5C 835.167,476.5 833.833,476.5 832.5,476.5C 832.5,467.5 832.5,458.5 832.5,449.5C 833.833,449.5 835.167,449.5 836.5,449.5 Z"/></g>
<g><path style="opacity:1" fill="#03d1d1" d="M 831.5,448.5 C 833.167,448.5 834.833,448.5 836.5,448.5C 836.5,448.833 836.5,449.167 836.5,449.5C 835.167,449.5 833.833,449.5 832.5,449.5C 832.5,458.5 832.5,467.5 832.5,476.5C 831.506,467.348 831.173,458.015 831.5,448.5 Z"/></g>
<g><path style="opacity:1" fill="#f246f1" d="M 957.5,331.5 C 957.833,331.5 958.167,331.5 958.5,331.5C 958.5,331.833 958.5,332.167 958.5,332.5C 957.839,372.181 958.506,411.514 960.5,450.5C 952.167,459.167 943.833,467.833 935.5,476.5C 933.735,477.461 931.735,477.795 929.5,477.5C 929.5,477.167 929.5,476.833 929.5,476.5C 938.798,467.702 947.965,458.702 957,449.5C 957.5,410.168 957.667,370.835 957.5,331.5 Z"/></g>
<g><path style="opacity:1" fill="#4d7272" d="M 831.5,448.5 C 831.173,458.015 831.506,467.348 832.5,476.5C 833.833,476.5 835.167,476.5 836.5,476.5C 867.5,476.5 898.5,476.5 929.5,476.5C 929.5,476.833 929.5,477.167 929.5,477.5C 896.5,477.5 863.5,477.5 830.5,477.5C 830.173,467.652 830.506,457.986 831.5,448.5 Z"/></g>
<g><path style="opacity:1" fill="#3d093e" d="M 618.5,449.5 C 609.702,458.798 600.702,467.965 591.5,477C 589.527,477.495 587.527,477.662 585.5,477.5C 585.328,476.508 585.662,475.842 586.5,475.5C 587.601,476.598 588.934,476.765 590.5,476C 599.421,466.575 608.754,457.742 618.5,449.5 Z"/></g>
<g><path style="opacity:1" fill="#370a36" d="M 962.5,331.5 C 963.665,370.998 963.831,410.665 963,450.5C 954.246,459.758 945.079,468.425 935.5,476.5C 943.833,467.833 952.167,459.167 960.5,450.5C 961.167,450.5 961.5,450.167 961.5,449.5C 962.499,410.337 962.832,371.004 962.5,331.5 Z"/></g>
<g><path style="opacity:1" fill="#ff62ff" d="M 613.5,449.5 C 605.113,458.889 596.113,467.555 586.5,475.5C 594.887,466.111 603.887,457.445 613.5,449.5 Z"/></g>
<g><path style="opacity:1" fill="#fe5ffe" d="M 496.5,477.5 C 496.167,477.5 495.833,477.5 495.5,477.5C 494.5,477.5 493.5,477.5 492.5,477.5C 492.5,486.5 492.5,495.5 492.5,504.5C 492.167,504.5 491.833,504.5 491.5,504.5C 491.5,495.5 491.5,486.5 491.5,477.5C 493.167,476.167 494.833,476.167 496.5,477.5 Z"/></g>
<g><path style="opacity:1" fill="#fe00ff" d="M 495.5,477.5 C 495.5,486.5 495.5,495.5 495.5,504.5C 494.5,504.5 493.5,504.5 492.5,504.5C 492.5,495.5 492.5,486.5 492.5,477.5C 493.5,477.5 494.5,477.5 495.5,477.5 Z"/></g>
<g><path style="opacity:1" fill="#b303b3" d="M 495.5,477.5 C 495.833,477.5 496.167,477.5 496.5,477.5C 496.5,486.833 496.5,496.167 496.5,505.5C 494.833,505.5 493.167,505.5 491.5,505.5C 491.5,505.167 491.5,504.833 491.5,504.5C 491.833,504.5 492.167,504.5 492.5,504.5C 493.5,504.5 494.5,504.5 495.5,504.5C 495.5,495.5 495.5,486.5 495.5,477.5 Z"/></g>
<g><path style="opacity:1" fill="#d7d0e5" d="M 491.5,477.5 C 491.5,486.5 491.5,495.5 491.5,504.5C 491.5,504.833 491.5,505.167 491.5,505.5C 482.167,505.5 472.833,505.5 463.5,505.5C 463.5,505.167 463.5,504.833 463.5,504.5C 472.5,504.5 481.5,504.5 490.5,504.5C 490.173,495.318 490.507,486.318 491.5,477.5 Z"/></g>
<g><path style="opacity:1" fill="#d3ebf5" d="M 762.5,571.5 C 803.167,571.5 843.833,571.5 884.5,571.5C 884.5,571.833 884.5,572.167 884.5,572.5C 844.165,572.333 803.832,572.5 763.5,573C 754.579,582.425 745.246,591.258 735.5,599.5C 744.167,590.5 752.833,581.5 761.5,572.5C 762.167,572.5 762.5,572.167 762.5,571.5 Z"/></g>
<g><path style="opacity:1" fill="#fbfcfc" d="M 119.5,571.5 C 151.167,571.5 182.833,571.5 214.5,571.5C 222.742,581.246 231.575,590.579 241,599.5C 241.667,629.5 241.667,659.5 241,689.5C 231.631,698.702 222.464,708.035 213.5,717.5C 184.167,717.5 154.833,717.5 125.5,717.5C 125.167,717.5 124.833,717.5 124.5,717.5C 123.167,716.167 121.833,716.167 120.5,717.5C 119.506,726.652 119.173,735.985 119.5,745.5C 110.5,745.5 101.5,745.5 92.5,745.5C 92.3333,696.499 92.5,647.499 93,598.5C 101.702,589.965 110.202,581.298 118.5,572.5C 119.167,572.5 119.5,572.167 119.5,571.5 Z"/></g>
<g><path style="opacity:1" fill="#f12cf1" d="M 214.5,571.5 C 216.199,571.34 217.866,571.506 219.5,572C 228.702,581.035 237.702,590.202 246.5,599.5C 246.667,629.502 246.5,659.502 246,689.5C 236.964,698.368 228.131,707.368 219.5,716.5C 217.735,717.461 215.735,717.795 213.5,717.5C 222.464,708.035 231.631,698.702 241,689.5C 241.667,659.5 241.667,629.5 241,599.5C 231.575,590.579 222.742,581.246 214.5,571.5 Z"/></g>
<g><path style="opacity:1" fill="#1f7273" d="M 289.5,571.5 C 280.5,571.5 271.5,571.5 262.5,571.5C 260.833,571.5 259.167,571.5 257.5,571.5C 257.5,610.833 257.5,650.167 257.5,689.5C 256.501,650.004 256.168,610.337 256.5,570.5C 267.679,570.172 278.679,570.505 289.5,571.5 Z"/></g>
<g><path style="opacity:1" fill="#3ef9f9" d="M 262.5,571.5 C 262.333,610.835 262.5,650.168 263,689.5C 271.833,698.333 280.667,707.167 289.5,716C 288.207,716.49 286.873,716.657 285.5,716.5C 276.167,707.5 266.833,698.5 257.5,689.5C 257.5,650.167 257.5,610.833 257.5,571.5C 259.167,571.5 260.833,571.5 262.5,571.5 Z"/></g>
<g><path style="opacity:1" fill="#fbfcfc" d="M 262.5,571.5 C 271.5,571.5 280.5,571.5 289.5,571.5C 289.5,610.5 289.5,649.5 289.5,688.5C 291.167,688.5 292.833,688.5 294.5,688.5C 321.833,688.5 349.167,688.5 376.5,688.5C 377.833,688.5 379.167,688.5 380.5,688.5C 380.5,698.167 380.5,707.833 380.5,717.5C 348.662,717.832 316.996,717.498 285.5,716.5C 286.873,716.657 288.207,716.49 289.5,716C 280.667,707.167 271.833,698.333 263,689.5C 262.5,650.168 262.333,610.835 262.5,571.5 Z"/></g>
<g><path style="opacity:1" fill="#fe3bfd" d="M 289.5,571.5 C 291.167,571.5 292.833,571.5 294.5,571.5C 294.5,610.5 294.5,649.5 294.5,688.5C 292.833,688.5 291.167,688.5 289.5,688.5C 289.5,649.5 289.5,610.5 289.5,571.5 Z"/></g>
<g><path style="opacity:1" fill="#3dfcfc" d="M 427.5,572.5 C 419.202,581.298 410.702,589.965 402,598.5C 401.5,637.832 401.333,677.165 401.5,716.5C 399.833,716.5 398.167,716.5 396.5,716.5C 396.5,677.5 396.5,638.5 396.5,599.5C 396.5,598.833 396.833,598.5 397.5,598.5C 406.912,590.592 415.912,582.092 424.5,573C 425.448,572.517 426.448,572.351 427.5,572.5 Z"/></g>
<g><path style="opacity:1" fill="#fcfdfd" d="M 428.5,571.5 C 461.833,571.5 495.167,571.5 528.5,571.5C 536.742,581.246 545.575,590.579 555,599.5C 555.5,638.499 555.667,677.499 555.5,716.5C 546.5,716.5 537.5,716.5 528.5,716.5C 528.5,697.167 528.5,677.833 528.5,658.5C 526.833,658.5 525.167,658.5 523.5,658.5C 493.833,658.5 464.167,658.5 434.5,658.5C 434.167,658.5 433.833,658.5 433.5,658.5C 432.167,658.5 430.833,658.5 429.5,658.5C 428.503,677.659 428.17,696.993 428.5,716.5C 419.5,716.5 410.5,716.5 401.5,716.5C 401.333,677.165 401.5,637.832 402,598.5C 410.702,589.965 419.202,581.298 427.5,572.5C 428.167,572.5 428.5,572.167 428.5,571.5 Z"/></g>
<g><path style="opacity:1" fill="#f531f4" d="M 528.5,571.5 C 530.199,571.34 531.866,571.506 533.5,572C 542.702,581.035 551.702,590.202 560.5,599.5C 560.5,638.5 560.5,677.5 560.5,716.5C 558.833,716.5 557.167,716.5 555.5,716.5C 555.667,677.499 555.5,638.499 555,599.5C 545.575,590.579 536.742,581.246 528.5,571.5 Z"/></g>
<g><path style="opacity:1" fill="#f9fbfb" d="M 603.5,571.5 C 640.5,571.5 677.5,571.5 714.5,571.5C 714.5,580.833 714.5,590.167 714.5,599.5C 714.5,599.833 714.5,600.167 714.5,600.5C 679.5,600.5 644.5,600.5 609.5,600.5C 609.167,600.5 608.833,600.5 608.5,600.5C 607.081,599.549 605.415,599.216 603.5,599.5C 603.169,629.338 603.502,659.005 604.5,688.5C 605.833,688.5 607.167,688.5 608.5,688.5C 643.833,688.5 679.167,688.5 714.5,688.5C 714.5,688.833 714.5,689.167 714.5,689.5C 714.5,698.5 714.5,707.5 714.5,716.5C 714.5,716.833 714.5,717.167 714.5,717.5C 675.996,717.832 637.663,717.499 599.5,716.5C 600.873,716.657 602.207,716.49 603.5,716C 594.652,706.986 585.652,698.152 576.5,689.5C 575.333,659.506 575.167,629.506 576,599.5C 585.036,590.632 593.869,581.632 602.5,572.5C 603.167,572.5 603.5,572.167 603.5,571.5 Z"/></g>
<g><path style="opacity:1" fill="#fa35fa" d="M 714.5,571.5 C 716.167,571.5 717.833,571.5 719.5,571.5C 719.5,580.833 719.5,590.167 719.5,599.5C 717.833,599.5 716.167,599.5 714.5,599.5C 714.5,590.167 714.5,580.833 714.5,571.5 Z"/></g>
<g><path style="opacity:1" fill="#630163" d="M 719.5,571.5 C 720.494,580.986 720.827,590.652 720.5,600.5C 718.5,600.5 716.5,600.5 714.5,600.5C 714.5,600.167 714.5,599.833 714.5,599.5C 716.167,599.5 717.833,599.5 719.5,599.5C 719.5,590.167 719.5,580.833 719.5,571.5 Z"/></g>
<g><path style="opacity:1" fill="#35ebeb" d="M 761.5,572.5 C 752.833,581.5 744.167,590.5 735.5,599.5C 735.333,629.502 735.5,659.502 736,689.5C 744.833,698.333 753.667,707.167 762.5,716C 761.207,716.49 759.873,716.657 758.5,716.5C 749.187,707.521 739.854,698.521 730.5,689.5C 729.333,659.506 729.167,629.506 730,599.5C 730.383,598.944 730.883,598.611 731.5,598.5C 740.912,590.592 749.912,582.092 758.5,573C 759.448,572.517 760.448,572.351 761.5,572.5 Z"/></g>
<g><path style="opacity:1" fill="#fbfbfc" d="M 884.5,572.5 C 885.833,572.5 887.167,572.5 888.5,572.5C 888.173,581.682 888.507,590.682 889.5,599.5C 889.5,599.833 889.5,600.167 889.5,600.5C 849.167,600.5 808.833,600.5 768.5,600.5C 768.167,600.5 767.833,600.5 767.5,600.5C 766.167,599.167 764.833,599.167 763.5,600.5C 762.506,610.319 762.173,620.319 762.5,630.5C 764.5,630.5 766.5,630.5 768.5,630.5C 797.5,630.5 826.5,630.5 855.5,630.5C 855.5,639.5 855.5,648.5 855.5,657.5C 853.901,657.232 852.568,657.566 851.5,658.5C 823.833,658.5 796.167,658.5 768.5,658.5C 768.167,658.5 767.833,658.5 767.5,658.5C 765.833,658.5 764.167,658.5 762.5,658.5C 762.5,668.5 762.5,678.5 762.5,688.5C 764.167,688.5 765.833,688.5 767.5,688.5C 808.167,688.5 848.833,688.5 889.5,688.5C 889.5,688.833 889.5,689.167 889.5,689.5C 889.5,698.5 889.5,707.5 889.5,716.5C 889.5,716.833 889.5,717.167 889.5,717.5C 845.663,717.832 801.997,717.499 758.5,716.5C 759.873,716.657 761.207,716.49 762.5,716C 753.667,707.167 744.833,698.333 736,689.5C 735.5,659.502 735.333,629.502 735.5,599.5C 745.246,591.258 754.579,582.425 763.5,573C 803.832,572.5 844.165,572.333 884.5,572.5 Z"/></g>
<g><path style="opacity:1" fill="#fac5fa" d="M 884.5,572.5 C 884.5,572.167 884.5,571.833 884.5,571.5C 886.167,571.5 887.833,571.5 889.5,571.5C 889.5,571.833 889.5,572.167 889.5,572.5C 889.5,581.5 889.5,590.5 889.5,599.5C 888.507,590.682 888.173,581.682 888.5,572.5C 887.167,572.5 885.833,572.5 884.5,572.5 Z"/></g>
<g><path style="opacity:1" fill="#fe1bfe" d="M 889.5,572.5 C 890.833,572.5 892.167,572.5 893.5,572.5C 893.5,581.5 893.5,590.5 893.5,599.5C 892.167,599.5 890.833,599.5 889.5,599.5C 889.5,590.5 889.5,581.5 889.5,572.5 Z"/></g>
<g><path style="opacity:1" fill="#990299" d="M 889.5,572.5 C 889.5,572.167 889.5,571.833 889.5,571.5C 891.167,571.5 892.833,571.5 894.5,571.5C 894.5,581.167 894.5,590.833 894.5,600.5C 892.833,600.5 891.167,600.5 889.5,600.5C 889.5,600.167 889.5,599.833 889.5,599.5C 890.833,599.5 892.167,599.5 893.5,599.5C 893.5,590.5 893.5,581.5 893.5,572.5C 892.167,572.5 890.833,572.5 889.5,572.5 Z"/></g>
<g><path style="opacity:1" fill="#01c6c6" d="M 119.5,571.5 C 119.5,572.167 119.167,572.5 118.5,572.5C 117.448,572.351 116.448,572.517 115.5,573C 106.912,582.092 97.9123,590.592 88.5,598.5C 96.9644,589.535 105.631,580.702 114.5,572C 116.134,571.506 117.801,571.34 119.5,571.5 Z"/></g>
<g><path style="opacity:1" fill="#01c6c6" d="M 428.5,571.5 C 428.5,572.167 428.167,572.5 427.5,572.5C 426.448,572.351 425.448,572.517 424.5,573C 415.912,582.092 406.912,590.592 397.5,598.5C 405.964,589.535 414.631,580.702 423.5,572C 425.134,571.506 426.801,571.34 428.5,571.5 Z"/></g>
<g><path style="opacity:1" fill="#02c6c6" d="M 603.5,571.5 C 603.5,572.167 603.167,572.5 602.5,572.5C 601.448,572.351 600.448,572.517 599.5,573C 590.912,582.092 581.912,590.592 572.5,598.5C 580.964,589.535 589.631,580.702 598.5,572C 600.134,571.506 601.801,571.34 603.5,571.5 Z"/></g>
<g><path style="opacity:1" fill="#01c6c6" d="M 762.5,571.5 C 762.5,572.167 762.167,572.5 761.5,572.5C 760.448,572.351 759.448,572.517 758.5,573C 749.912,582.092 740.912,590.592 731.5,598.5C 739.964,589.535 748.631,580.702 757.5,572C 759.134,571.506 760.801,571.34 762.5,571.5 Z"/></g>
<g><path style="opacity:1" fill="#22e9e8" d="M 602.5,572.5 C 593.869,581.632 585.036,590.632 576,599.5C 575.167,629.506 575.333,659.506 576.5,689.5C 585.652,698.152 594.652,706.986 603.5,716C 602.207,716.49 600.873,716.657 599.5,716.5C 590.187,707.521 580.854,698.521 571.5,689.5C 570.333,659.506 570.167,629.506 571,599.5C 571.383,598.944 571.883,598.611 572.5,598.5C 581.912,590.592 590.912,582.092 599.5,573C 600.448,572.517 601.448,572.351 602.5,572.5 Z"/></g>
<g><path style="opacity:1" fill="#36e9e9" d="M 118.5,572.5 C 110.202,581.298 101.702,589.965 93,598.5C 92.5,647.499 92.3333,696.499 92.5,745.5C 90.5,745.5 88.5,745.5 86.5,745.5C 86.3333,696.832 86.5,648.166 87,599.5C 87.3826,598.944 87.8826,598.611 88.5,598.5C 97.9123,590.592 106.912,582.092 115.5,573C 116.448,572.517 117.448,572.351 118.5,572.5 Z"/></g>
<g><path style="opacity:1" fill="#fe3dfe" d="M 124.5,600.5 C 124.5,629.833 124.5,659.167 124.5,688.5C 122.833,688.5 121.167,688.5 119.5,688.5C 119.333,659.165 119.5,629.831 120,600.5C 121.616,599.199 123.116,599.199 124.5,600.5 Z"/></g>
<g><path style="opacity:1" fill="#000000" d="M 125.5,600.5 C 153.167,600.5 180.833,600.5 208.5,600.5C 208.5,629.5 208.5,658.5 208.5,687.5C 180.833,687.5 153.167,687.5 125.5,687.5C 125.5,658.5 125.5,629.5 125.5,600.5 Z"/></g>
<g><path style="opacity:1" fill="#17ecec" d="M 208.5,688.5 C 208.5,688.167 208.5,687.833 208.5,687.5C 208.5,658.5 208.5,629.5 208.5,600.5C 209.919,599.549 211.585,599.216 213.5,599.5C 213.5,629.5 213.5,659.5 213.5,689.5C 211.585,689.784 209.919,689.451 208.5,688.5 Z"/></g>
<g><path style="opacity:1" fill="#2e7c7c" d="M 396.5,599.5 C 396.5,638.5 396.5,677.5 396.5,716.5C 398.167,716.5 399.833,716.5 401.5,716.5C 410.5,716.5 419.5,716.5 428.5,716.5C 428.5,716.833 428.5,717.167 428.5,717.5C 417.5,717.5 406.5,717.5 395.5,717.5C 395.168,677.996 395.501,638.663 396.5,599.5 Z"/></g>
<g><path style="opacity:1" fill="#ce6ace" d="M 429.5,600.5 C 429.5,610.167 429.5,619.833 429.5,629.5C 430.833,629.5 432.167,629.5 433.5,629.5C 433.5,619.833 433.5,610.167 433.5,600.5C 433.833,600.5 434.167,600.5 434.5,600.5C 434.5,610.167 434.5,619.833 434.5,629.5C 434.5,629.833 434.5,630.167 434.5,630.5C 432.5,630.5 430.5,630.5 428.5,630.5C 428.173,620.319 428.506,610.319 429.5,600.5 Z"/></g>
<g><path style="opacity:1" fill="#fd19fd" d="M 433.5,600.5 C 433.5,610.167 433.5,619.833 433.5,629.5C 432.167,629.5 430.833,629.5 429.5,629.5C 429.5,619.833 429.5,610.167 429.5,600.5C 430.833,599.167 432.167,599.167 433.5,600.5 Z"/></g>
<g><path style="opacity:1" fill="#000000" d="M 434.5,600.5 C 463.833,600.5 493.167,600.5 522.5,600.5C 522.5,610.167 522.5,619.833 522.5,629.5C 493.167,629.5 463.833,629.5 434.5,629.5C 434.5,619.833 434.5,610.167 434.5,600.5 Z"/></g>
<g><path style="opacity:1" fill="#5afefe" d="M 522.5,600.5 C 524.265,599.539 526.265,599.205 528.5,599.5C 528.5,609.833 528.5,620.167 528.5,630.5C 526.833,630.5 525.167,630.5 523.5,630.5C 523.827,620.319 523.494,610.319 522.5,600.5 Z"/></g>
<g><path style="opacity:1" fill="#5d005d" d="M 560.5,599.5 C 561.499,638.663 561.832,677.996 561.5,717.5C 559.5,717.5 557.5,717.5 555.5,717.5C 555.5,717.167 555.5,716.833 555.5,716.5C 557.167,716.5 558.833,716.5 560.5,716.5C 560.5,677.5 560.5,638.5 560.5,599.5 Z"/></g>
<g><path style="opacity:1" fill="#fd6ffe" d="M 608.5,600.5 C 608.167,600.5 607.833,600.5 607.5,600.5C 606.5,600.5 605.5,600.5 604.5,600.5C 604.5,629.5 604.5,658.5 604.5,687.5C 604.5,687.833 604.5,688.167 604.5,688.5C 603.502,659.005 603.169,629.338 603.5,599.5C 605.415,599.216 607.081,599.549 608.5,600.5 Z"/></g>
<g><path style="opacity:1" fill="#fe00ff" d="M 607.5,600.5 C 607.5,629.5 607.5,658.5 607.5,687.5C 606.5,687.5 605.5,687.5 604.5,687.5C 604.5,658.5 604.5,629.5 604.5,600.5C 605.5,600.5 606.5,600.5 607.5,600.5 Z"/></g>
<g><path style="opacity:1" fill="#d806d9" d="M 607.5,600.5 C 607.833,600.5 608.167,600.5 608.5,600.5C 608.5,629.833 608.5,659.167 608.5,688.5C 607.167,688.5 605.833,688.5 604.5,688.5C 604.5,688.167 604.5,687.833 604.5,687.5C 605.5,687.5 606.5,687.5 607.5,687.5C 607.5,658.5 607.5,629.5 607.5,600.5 Z"/></g>
<g><path style="opacity:1" fill="#ce6ace" d="M 763.5,600.5 C 763.5,610.167 763.5,619.833 763.5,629.5C 764.833,629.5 766.167,629.5 767.5,629.5C 767.5,619.833 767.5,610.167 767.5,600.5C 767.833,600.5 768.167,600.5 768.5,600.5C 768.5,610.5 768.5,620.5 768.5,630.5C 766.5,630.5 764.5,630.5 762.5,630.5C 762.173,620.319 762.506,610.319 763.5,600.5 Z"/></g>
<g><path style="opacity:1" fill="#fd19fd" d="M 767.5,600.5 C 767.5,610.167 767.5,619.833 767.5,629.5C 766.167,629.5 764.833,629.5 763.5,629.5C 763.5,619.833 763.5,610.167 763.5,600.5C 764.833,599.167 766.167,599.167 767.5,600.5 Z"/></g>
<g><path style="opacity:1" fill="#5f7676" d="M 522.5,600.5 C 523.494,610.319 523.827,620.319 523.5,630.5C 493.833,630.5 464.167,630.5 434.5,630.5C 434.5,630.167 434.5,629.833 434.5,629.5C 463.833,629.5 493.167,629.5 522.5,629.5C 522.5,619.833 522.5,610.167 522.5,600.5 Z"/></g>
<g><path style="opacity:1" fill="#f9d5f9" d="M 855.5,630.5 C 855.833,630.5 856.167,630.5 856.5,630.5C 856.5,639.5 856.5,648.5 856.5,657.5C 856.5,657.833 856.5,658.167 856.5,658.5C 854.833,658.5 853.167,658.5 851.5,658.5C 852.568,657.566 853.901,657.232 855.5,657.5C 855.5,648.5 855.5,639.5 855.5,630.5 Z"/></g>
<g><path style="opacity:1" fill="#fe22fe" d="M 856.5,630.5 C 857.833,630.5 859.167,630.5 860.5,630.5C 860.5,639.5 860.5,648.5 860.5,657.5C 859.167,657.5 857.833,657.5 856.5,657.5C 856.5,648.5 856.5,639.5 856.5,630.5 Z"/></g>
<g><path style="opacity:1" fill="#a704a7" d="M 856.5,630.5 C 857.919,629.549 859.585,629.216 861.5,629.5C 861.5,639.167 861.5,648.833 861.5,658.5C 859.833,658.5 858.167,658.5 856.5,658.5C 856.5,658.167 856.5,657.833 856.5,657.5C 857.833,657.5 859.167,657.5 860.5,657.5C 860.5,648.5 860.5,639.5 860.5,630.5C 859.167,630.5 857.833,630.5 856.5,630.5 Z"/></g>
<g><path style="opacity:1" fill="#9b3b9b" d="M 429.5,658.5 C 429.5,677.833 429.5,697.167 429.5,716.5C 430.833,716.5 432.167,716.5 433.5,716.5C 433.5,697.167 433.5,677.833 433.5,658.5C 433.833,658.5 434.167,658.5 434.5,658.5C 434.5,658.833 434.5,659.167 434.5,659.5C 434.5,678.833 434.5,698.167 434.5,717.5C 432.5,717.5 430.5,717.5 428.5,717.5C 428.5,717.167 428.5,716.833 428.5,716.5C 428.17,696.993 428.503,677.659 429.5,658.5 Z"/></g>
<g><path style="opacity:1" fill="#fd0dfd" d="M 429.5,658.5 C 430.833,658.5 432.167,658.5 433.5,658.5C 433.5,677.833 433.5,697.167 433.5,716.5C 432.167,716.5 430.833,716.5 429.5,716.5C 429.5,697.167 429.5,677.833 429.5,658.5 Z"/></g>
<g><path style="opacity:1" fill="#447e84" d="M 434.5,659.5 C 434.5,659.167 434.5,658.833 434.5,658.5C 464.167,658.5 493.833,658.5 523.5,658.5C 523.5,677.833 523.5,697.167 523.5,716.5C 525.167,716.5 526.833,716.5 528.5,716.5C 537.5,716.5 546.5,716.5 555.5,716.5C 555.5,716.833 555.5,717.167 555.5,717.5C 544.5,717.5 533.5,717.5 522.5,717.5C 522.5,698.167 522.5,678.833 522.5,659.5C 493.167,659.5 463.833,659.5 434.5,659.5 Z"/></g>
<g><path style="opacity:1" fill="#4afefe" d="M 523.5,658.5 C 525.167,658.5 526.833,658.5 528.5,658.5C 528.5,677.833 528.5,697.167 528.5,716.5C 526.833,716.5 525.167,716.5 523.5,716.5C 523.5,697.167 523.5,677.833 523.5,658.5 Z"/></g>
<g><path style="opacity:1" fill="#fd3efe" d="M 767.5,658.5 C 767.5,668.5 767.5,678.5 767.5,688.5C 765.833,688.5 764.167,688.5 762.5,688.5C 762.5,678.5 762.5,668.5 762.5,658.5C 764.167,658.5 765.833,658.5 767.5,658.5 Z"/></g>
<g><path style="opacity:1" fill="#4c3559" d="M 124.5,600.5 C 124.833,600.5 125.167,600.5 125.5,600.5C 125.5,629.5 125.5,658.5 125.5,687.5C 153.167,687.5 180.833,687.5 208.5,687.5C 208.5,687.833 208.5,688.167 208.5,688.5C 180.5,688.5 152.5,688.5 124.5,688.5C 124.5,659.167 124.5,629.833 124.5,600.5 Z"/></g>
<g><path style="opacity:1" fill="#4d335a" d="M 294.5,571.5 C 295.499,609.996 295.832,648.663 295.5,687.5C 322.672,687.169 349.672,687.502 376.5,688.5C 349.167,688.5 321.833,688.5 294.5,688.5C 294.5,649.5 294.5,610.5 294.5,571.5 Z"/></g>
<g><path style="opacity:1" fill="#42324f" d="M 608.5,600.5 C 608.833,600.5 609.167,600.5 609.5,600.5C 609.5,629.5 609.5,658.5 609.5,687.5C 644.671,687.168 679.671,687.502 714.5,688.5C 679.167,688.5 643.833,688.5 608.5,688.5C 608.5,659.167 608.5,629.833 608.5,600.5 Z"/></g>
<g><path style="opacity:1" fill="#423a53" d="M 767.5,658.5 C 767.833,658.5 768.167,658.5 768.5,658.5C 768.5,668.167 768.5,677.833 768.5,687.5C 809.003,687.168 849.337,687.501 889.5,688.5C 848.833,688.5 808.167,688.5 767.5,688.5C 767.5,678.5 767.5,668.5 767.5,658.5 Z"/></g>
<g><path style="opacity:1" fill="#983497" d="M 380.5,688.5 C 382.5,688.5 384.5,688.5 386.5,688.5C 386.5,698.167 386.5,707.833 386.5,717.5C 384.5,717.5 382.5,717.5 380.5,717.5C 380.5,707.833 380.5,698.167 380.5,688.5 Z"/></g>
<g><path style="opacity:1" fill="#fd07fd" d="M 381.5,689.5 C 382.833,689.5 384.167,689.5 385.5,689.5C 385.5,698.5 385.5,707.5 385.5,716.5C 384.167,716.5 382.833,716.5 381.5,716.5C 381.5,707.5 381.5,698.5 381.5,689.5 Z"/></g>
<g><path style="opacity:1" fill="#fc35fc" d="M 714.5,689.5 C 716.167,689.5 717.833,689.5 719.5,689.5C 719.5,698.5 719.5,707.5 719.5,716.5C 717.833,716.5 716.167,716.5 714.5,716.5C 714.5,707.5 714.5,698.5 714.5,689.5 Z"/></g>
<g><path style="opacity:1" fill="#6d036d" d="M 714.5,689.5 C 714.5,689.167 714.5,688.833 714.5,688.5C 716.5,688.5 718.5,688.5 720.5,688.5C 720.5,698.167 720.5,707.833 720.5,717.5C 718.5,717.5 716.5,717.5 714.5,717.5C 714.5,717.167 714.5,716.833 714.5,716.5C 716.167,716.5 717.833,716.5 719.5,716.5C 719.5,707.5 719.5,698.5 719.5,689.5C 717.833,689.5 716.167,689.5 714.5,689.5 Z"/></g>
<g><path style="opacity:1" fill="#ff1bff" d="M 889.5,689.5 C 890.833,689.5 892.167,689.5 893.5,689.5C 893.5,698.5 893.5,707.5 893.5,716.5C 892.167,716.5 890.833,716.5 889.5,716.5C 889.5,707.5 889.5,698.5 889.5,689.5 Z"/></g>
<g><path style="opacity:1" fill="#990299" d="M 889.5,689.5 C 889.5,689.167 889.5,688.833 889.5,688.5C 891.167,688.5 892.833,688.5 894.5,688.5C 894.5,698.167 894.5,707.833 894.5,717.5C 892.833,717.5 891.167,717.5 889.5,717.5C 889.5,717.167 889.5,716.833 889.5,716.5C 890.833,716.5 892.167,716.5 893.5,716.5C 893.5,707.5 893.5,698.5 893.5,689.5C 892.167,689.5 890.833,689.5 889.5,689.5 Z"/></g>
<g><path style="opacity:1" fill="#320a32" d="M 246.5,599.5 C 247.664,629.664 247.831,659.997 247,690.5C 238.246,699.758 229.079,708.425 219.5,716.5C 228.131,707.368 236.964,698.368 246,689.5C 246.5,659.502 246.667,629.502 246.5,599.5 Z"/></g>
<g><path style="opacity:1" fill="#fe1afd" d="M 124.5,717.5 C 124.5,726.5 124.5,735.5 124.5,744.5C 123.167,744.5 121.833,744.5 120.5,744.5C 120.5,735.5 120.5,726.5 120.5,717.5C 121.833,716.167 123.167,716.167 124.5,717.5 Z"/></g>
<g><path style="opacity:1" fill="#9d399c" d="M 120.5,717.5 C 120.5,726.5 120.5,735.5 120.5,744.5C 121.833,744.5 123.167,744.5 124.5,744.5C 124.5,735.5 124.5,726.5 124.5,717.5C 124.833,717.5 125.167,717.5 125.5,717.5C 125.5,726.833 125.5,736.167 125.5,745.5C 123.5,745.5 121.5,745.5 119.5,745.5C 119.173,735.985 119.506,726.652 120.5,717.5 Z"/></g>
</svg>
