<svg width="660" height="223" viewBox="0 0 660 223" fill="none" xmlns="http://www.w3.org/2000/svg">
<g filter="url(#filter0_b_201_13)">
<rect width="660" height="202" rx="20" fill="#00CFBC"/>
</g>
<path d="M39.472 183.704C35.0347 183.704 31.1307 182.744 27.76 180.824C24.432 178.861 21.8293 176.131 19.952 172.632C18.1173 169.133 17.2 165.059 17.2 160.408C17.2 156.867 17.712 153.688 18.736 150.872C19.8027 148.013 21.3173 145.581 23.28 143.576C25.2427 141.528 27.5893 139.949 30.32 138.84C33.0933 137.731 36.144 137.176 39.472 137.176C43.9947 137.176 47.92 138.136 51.248 140.056C54.576 141.976 57.1573 144.685 58.992 148.184C60.8693 151.64 61.808 155.693 61.808 160.344C61.808 163.885 61.2747 167.085 60.208 169.944C59.1413 172.803 57.6267 175.256 55.664 177.304C53.7013 179.352 51.3547 180.931 48.624 182.04C45.8933 183.149 42.8427 183.704 39.472 183.704ZM39.472 175.256C41.9893 175.256 44.1227 174.68 45.872 173.528C47.664 172.333 49.0293 170.627 49.968 168.408C50.9493 166.147 51.44 163.48 51.44 160.408C51.44 155.715 50.3947 152.088 48.304 149.528C46.2133 146.925 43.2693 145.624 39.472 145.624C36.9973 145.624 34.864 146.2 33.072 147.352C31.28 148.504 29.9147 150.189 28.976 152.408C28.0373 154.627 27.568 157.293 27.568 160.408C27.568 165.059 28.6133 168.707 30.704 171.352C32.7947 173.955 35.7173 175.256 39.472 175.256ZM80.8735 183.704C78.2282 183.704 76.0308 183.213 74.2815 182.232C72.5322 181.251 71.2308 179.779 70.3775 177.816C69.5668 175.811 69.1615 173.336 69.1615 170.392V155.928C69.1615 154.307 69.5668 153.091 70.3775 152.28C71.2308 151.469 72.4255 151.064 73.9615 151.064C75.4975 151.064 76.6922 151.469 77.5455 152.28C78.3988 153.091 78.8255 154.307 78.8255 155.928V170.648C78.8255 172.525 79.2095 173.933 79.9775 174.872C80.7455 175.768 81.9615 176.216 83.6255 176.216C85.4602 176.216 86.9535 175.576 88.1055 174.296C89.3002 172.973 89.8975 171.245 89.8975 169.112V155.928C89.8975 154.307 90.3028 153.091 91.1135 152.28C91.9668 151.469 93.1615 151.064 94.6975 151.064C96.2762 151.064 97.4708 151.469 98.2815 152.28C99.1348 153.091 99.5615 154.307 99.5615 155.928V178.648C99.5615 181.933 98.0042 183.576 94.8895 183.576C93.3535 183.576 92.1802 183.149 91.3695 182.296C90.5588 181.443 90.1535 180.227 90.1535 178.648V174.36L91.1135 176.856C90.1748 179.032 88.8308 180.717 87.0815 181.912C85.3322 183.107 83.2628 183.704 80.8735 183.704ZM112.671 183.576C111.05 183.576 109.813 183.149 108.959 182.296C108.106 181.443 107.679 180.227 107.679 178.648V155.928C107.679 154.349 108.085 153.155 108.895 152.344C109.749 151.491 110.922 151.064 112.415 151.064C113.951 151.064 115.125 151.491 115.935 152.344C116.746 153.155 117.151 154.349 117.151 155.928V159.256H116.511C117.023 156.696 118.154 154.712 119.903 153.304C121.653 151.896 123.914 151.107 126.688 150.936C127.754 150.851 128.565 151.128 129.119 151.768C129.717 152.365 130.037 153.368 130.08 154.776C130.165 156.099 129.888 157.144 129.247 157.912C128.65 158.68 127.626 159.149 126.175 159.32L124.703 159.448C122.271 159.661 120.458 160.365 119.263 161.56C118.111 162.755 117.535 164.483 117.535 166.744V178.648C117.535 180.227 117.109 181.443 116.255 182.296C115.445 183.149 114.25 183.576 112.671 183.576ZM159.225 183C157.561 183 156.281 182.552 155.385 181.656C154.489 180.76 154.041 179.48 154.041 177.816V143.064C154.041 141.4 154.489 140.12 155.385 139.224C156.281 138.328 157.561 137.88 159.225 137.88H171.705C179.428 137.88 185.38 139.843 189.562 143.768C193.785 147.651 195.897 153.197 195.897 160.408C195.897 164.035 195.343 167.256 194.234 170.072C193.167 172.845 191.609 175.192 189.562 177.112C187.513 179.032 184.996 180.504 182.009 181.528C179.023 182.509 175.588 183 171.705 183H159.225ZM163.961 174.872H171.129C173.561 174.872 175.673 174.573 177.465 173.976C179.257 173.379 180.751 172.483 181.945 171.288C183.14 170.093 184.036 168.6 184.633 166.808C185.231 164.973 185.529 162.84 185.529 160.408C185.529 155.544 184.313 151.939 181.882 149.592C179.492 147.203 175.908 146.008 171.129 146.008H163.961V174.872ZM208.276 183.512C206.697 183.512 205.481 183.064 204.628 182.168C203.817 181.229 203.412 179.928 203.412 178.264V156.376C203.412 154.669 203.817 153.368 204.628 152.472C205.481 151.533 206.697 151.064 208.276 151.064C209.812 151.064 210.985 151.533 211.796 152.472C212.649 153.368 213.076 154.669 213.076 156.376V178.264C213.076 179.928 212.671 181.229 211.86 182.168C211.049 183.064 209.855 183.512 208.276 183.512ZM208.276 145.816C206.484 145.816 205.097 145.411 204.116 144.6C203.177 143.747 202.708 142.552 202.708 141.016C202.708 139.437 203.177 138.243 204.116 137.432C205.097 136.579 206.484 136.152 208.276 136.152C210.068 136.152 211.433 136.579 212.372 137.432C213.311 138.243 213.78 139.437 213.78 141.016C213.78 142.552 213.311 143.747 212.372 144.6C211.433 145.411 210.068 145.816 208.276 145.816ZM233.209 183.704C231.332 183.704 229.39 183.533 227.385 183.192C225.422 182.851 223.63 182.275 222.009 181.464C221.156 181.037 220.537 180.504 220.153 179.864C219.812 179.181 219.662 178.499 219.705 177.816C219.748 177.133 219.961 176.515 220.345 175.96C220.772 175.405 221.305 175.043 221.945 174.872C222.628 174.659 223.374 174.723 224.185 175.064C225.934 175.789 227.534 176.301 228.985 176.6C230.436 176.899 231.865 177.048 233.273 177.048C235.108 177.048 236.43 176.771 237.241 176.216C238.094 175.619 238.521 174.851 238.521 173.912C238.521 173.059 238.244 172.419 237.689 171.992C237.134 171.565 236.324 171.267 235.257 171.096L228.537 169.88C225.892 169.411 223.844 168.451 222.393 167C220.985 165.507 220.281 163.608 220.281 161.304C220.281 159.171 220.878 157.336 222.073 155.8C223.268 154.221 224.91 153.027 227.001 152.216C229.134 151.363 231.545 150.936 234.233 150.936C236.153 150.936 237.924 151.107 239.545 151.448C241.166 151.789 242.724 152.344 244.217 153.112C244.985 153.496 245.518 154.008 245.817 154.648C246.158 155.288 246.265 155.949 246.137 156.632C246.052 157.315 245.796 157.933 245.369 158.488C244.942 159.043 244.388 159.405 243.705 159.576C243.065 159.747 242.318 159.661 241.465 159.32C240.1 158.68 238.841 158.232 237.689 157.976C236.537 157.677 235.428 157.528 234.361 157.528C232.441 157.528 231.054 157.848 230.201 158.488C229.348 159.085 228.921 159.853 228.921 160.792C228.921 161.517 229.156 162.136 229.625 162.648C230.137 163.117 230.905 163.437 231.929 163.608L238.649 164.824C241.422 165.293 243.534 166.232 244.985 167.64C246.436 169.005 247.161 170.883 247.161 173.272C247.161 176.515 245.881 179.075 243.321 180.952C240.804 182.787 237.433 183.704 233.209 183.704ZM268.613 183.704C265.2 183.704 262.213 183.043 259.653 181.72C257.136 180.355 255.194 178.435 253.829 175.96C252.464 173.485 251.781 170.563 251.781 167.192C251.781 164.675 252.165 162.413 252.933 160.408C253.701 158.403 254.81 156.696 256.261 155.288C257.754 153.88 259.546 152.813 261.637 152.088C263.728 151.32 266.053 150.936 268.613 150.936C269.936 150.936 271.344 151.107 272.837 151.448C274.33 151.747 275.802 152.28 277.253 153.048C278.106 153.432 278.682 153.987 278.981 154.712C279.322 155.395 279.45 156.12 279.365 156.888C279.28 157.613 279.002 158.275 278.533 158.872C278.106 159.427 277.552 159.811 276.869 160.024C276.186 160.195 275.418 160.067 274.565 159.64C273.754 159.171 272.901 158.829 272.005 158.616C271.152 158.403 270.341 158.296 269.573 158.296C268.293 158.296 267.162 158.509 266.181 158.936C265.2 159.32 264.368 159.896 263.685 160.664C263.045 161.389 262.533 162.307 262.149 163.416C261.808 164.525 261.637 165.805 261.637 167.256C261.637 170.072 262.32 172.291 263.685 173.912C265.093 175.491 267.056 176.28 269.573 176.28C270.341 176.28 271.152 176.195 272.005 176.024C272.858 175.811 273.712 175.469 274.565 175C275.418 174.573 276.186 174.467 276.869 174.68C277.552 174.893 278.085 175.299 278.469 175.896C278.896 176.451 279.13 177.112 279.173 177.88C279.258 178.605 279.13 179.331 278.789 180.056C278.49 180.739 277.936 181.272 277.125 181.656C275.674 182.381 274.224 182.893 272.773 183.192C271.322 183.533 269.936 183.704 268.613 183.704ZM298.998 183.704C295.628 183.704 292.684 183.043 290.166 181.72C287.692 180.397 285.772 178.499 284.406 176.024C283.041 173.549 282.358 170.627 282.358 167.256C282.358 164.739 282.742 162.477 283.51 160.472C284.278 158.467 285.388 156.76 286.838 155.352C288.332 153.901 290.102 152.813 292.15 152.088C294.198 151.32 296.481 150.936 298.998 150.936C302.369 150.936 305.292 151.597 307.766 152.92C310.284 154.243 312.225 156.12 313.59 158.552C314.998 160.984 315.702 163.885 315.702 167.256C315.702 169.816 315.297 172.099 314.486 174.104C313.718 176.109 312.609 177.837 311.158 179.288C309.708 180.739 307.937 181.848 305.846 182.616C303.798 183.341 301.516 183.704 298.998 183.704ZM298.998 176.472C300.406 176.472 301.622 176.131 302.646 175.448C303.67 174.765 304.481 173.763 305.078 172.44C305.676 171.075 305.974 169.347 305.974 167.256C305.974 164.141 305.334 161.859 304.054 160.408C302.774 158.915 301.089 158.168 298.998 158.168C297.633 158.168 296.417 158.488 295.35 159.128C294.326 159.768 293.516 160.771 292.918 162.136C292.364 163.459 292.086 165.165 292.086 167.256C292.086 170.371 292.726 172.696 294.006 174.232C295.286 175.725 296.95 176.472 298.998 176.472ZM327.214 183.576C325.593 183.576 324.355 183.149 323.502 182.296C322.649 181.443 322.222 180.227 322.222 178.648V155.928C322.222 154.349 322.627 153.155 323.438 152.344C324.291 151.491 325.465 151.064 326.958 151.064C328.494 151.064 329.667 151.491 330.478 152.344C331.289 153.155 331.694 154.349 331.694 155.928V159.256H331.054C331.566 156.696 332.697 154.712 334.446 153.304C336.195 151.896 338.457 151.107 341.23 150.936C342.297 150.851 343.107 151.128 343.662 151.768C344.259 152.365 344.579 153.368 344.622 154.776C344.707 156.099 344.43 157.144 343.79 157.912C343.193 158.68 342.169 159.149 340.718 159.32L339.246 159.448C336.814 159.661 335.001 160.365 333.806 161.56C332.654 162.755 332.078 164.483 332.078 166.744V178.648C332.078 180.227 331.651 181.443 330.798 182.296C329.987 183.149 328.793 183.576 327.214 183.576ZM360.898 183.704C358.168 183.704 355.757 183.043 353.666 181.72C351.618 180.397 350.018 178.499 348.866 176.024C347.714 173.549 347.138 170.627 347.138 167.256C347.138 163.885 347.714 160.984 348.866 158.552C350.018 156.12 351.618 154.243 353.666 152.92C355.757 151.597 358.168 150.936 360.898 150.936C363.373 150.936 365.549 151.533 367.426 152.728C369.346 153.923 370.648 155.48 371.33 157.4H370.626V142.232C370.626 140.611 371.032 139.395 371.842 138.584C372.653 137.731 373.848 137.304 375.426 137.304C376.962 137.304 378.157 137.731 379.01 138.584C379.864 139.395 380.29 140.611 380.29 142.232V178.648C380.29 180.227 379.864 181.443 379.01 182.296C378.2 183.149 377.026 183.576 375.49 183.576C373.954 183.576 372.76 183.149 371.906 182.296C371.096 181.443 370.69 180.227 370.69 178.648V174.296L371.394 176.792C370.797 178.883 369.517 180.568 367.554 181.848C365.634 183.085 363.416 183.704 360.898 183.704ZM363.778 176.472C365.186 176.472 366.402 176.131 367.426 175.448C368.45 174.765 369.261 173.763 369.858 172.44C370.456 171.075 370.754 169.347 370.754 167.256C370.754 164.141 370.114 161.859 368.834 160.408C367.554 158.915 365.869 158.168 363.778 158.168C362.413 158.168 361.197 158.488 360.13 159.128C359.106 159.768 358.296 160.771 357.698 162.136C357.144 163.459 356.866 165.165 356.866 167.256C356.866 170.371 357.506 172.696 358.786 174.232C360.066 175.725 361.73 176.472 363.778 176.472Z" fill="white"/>
<defs>
<filter id="filter0_b_201_13" x="-4" y="-4" width="668" height="210" filterUnits="userSpaceOnUse" color-interpolation-filters="sRGB">
<feFlood flood-opacity="0" result="BackgroundImageFix"/>
<feGaussianBlur in="BackgroundImageFix" stdDeviation="2"/>
<feComposite in2="SourceAlpha" operator="in" result="effect1_backgroundBlur_201_13"/>
<feBlend mode="normal" in="SourceGraphic" in2="effect1_backgroundBlur_201_13" result="shape"/>
</filter>
</defs>
</svg>
