<svg width="89" height="89" viewBox="0 0 89 89" fill="none" xmlns="http://www.w3.org/2000/svg">
<g clip-path="url(#clip0_119_5)">
<path fill-rule="evenodd" clip-rule="evenodd" d="M47.6597 18.4261C46.4997 15.5567 42.4371 15.5566 41.2771 18.4261L27.0186 53.6971C25.8281 56.642 28.9217 59.4904 31.7585 58.0614L43.2895 52.2525C44.0311 51.879 44.9058 51.879 45.6473 52.2525L57.1783 58.0614C60.0151 59.4904 63.1087 56.6421 61.9182 53.6971L47.6597 18.4261ZM36.4185 16.462C39.3445 9.22384 49.5923 9.22382 52.5183 16.4619L66.7768 51.733C69.7798 59.1615 61.9764 66.3465 54.8205 62.7417L44.4684 57.5267L34.1163 62.7417C26.9605 66.3465 19.157 59.1615 22.16 51.733L36.4185 16.462Z" fill="white"/>
</g>
<defs>
<clipPath id="clip0_119_5">
<rect width="62.8878" height="62.8878" fill="white" transform="translate(0 44.4684) rotate(-45)"/>
</clipPath>
</defs>
</svg>
