<svg width="660" height="202" viewBox="0 0 660 202" fill="none" xmlns="http://www.w3.org/2000/svg">
<g filter="url(#filter0_b_201_9)">
<rect width="660" height="202" rx="20" fill="#F83F04"/>
</g>
<path d="M39.7297 183.044C37.9377 183.044 36.1031 182.895 34.2257 182.596C32.3911 182.34 30.6204 181.956 28.9137 181.444C27.2497 180.932 25.7564 180.292 24.4337 179.524C23.4951 179.012 22.8337 178.351 22.4497 177.54C22.0657 176.687 21.9164 175.834 22.0017 174.98C22.1297 174.127 22.4497 173.38 22.9617 172.74C23.5164 172.058 24.1991 171.631 25.0097 171.46C25.8631 171.247 26.8017 171.396 27.8257 171.908C29.5751 172.89 31.4737 173.615 33.5217 174.084C35.6124 174.554 37.6817 174.788 39.7297 174.788C42.8444 174.788 45.0631 174.319 46.3857 173.38C47.7084 172.399 48.3697 171.183 48.3697 169.732C48.3697 168.495 47.9004 167.514 46.9617 166.788C46.0231 166.063 44.3804 165.444 42.0337 164.932L34.8017 163.396C30.7057 162.543 27.6551 161.092 25.6497 159.044C23.6871 156.954 22.7057 154.223 22.7057 150.852C22.7057 148.719 23.1537 146.778 24.0497 145.028C24.9457 143.279 26.2044 141.764 27.8257 140.484C29.4471 139.204 31.3671 138.223 33.5857 137.54C35.8471 136.858 38.3217 136.516 41.0097 136.516C43.3991 136.516 45.7457 136.815 48.0497 137.412C50.3537 137.967 52.3804 138.799 54.1297 139.908C54.9831 140.42 55.5591 141.082 55.8577 141.892C56.1991 142.66 56.3057 143.45 56.1777 144.26C56.0924 145.028 55.7724 145.711 55.2177 146.308C54.7057 146.906 54.0444 147.29 53.2337 147.46C52.4231 147.631 51.4417 147.439 50.2897 146.884C48.8817 146.159 47.3884 145.626 45.8097 145.284C44.2311 144.943 42.6097 144.772 40.9457 144.772C39.1537 144.772 37.6177 145.007 36.3377 145.476C35.1004 145.946 34.1404 146.607 33.4577 147.46C32.8177 148.314 32.4977 149.295 32.4977 150.404C32.4977 151.642 32.9457 152.644 33.8417 153.412C34.7377 154.18 36.2951 154.799 38.5137 155.268L45.7457 156.804C49.9271 157.7 53.0417 159.151 55.0897 161.156C57.1377 163.119 58.1617 165.722 58.1617 168.964C58.1617 171.098 57.7351 173.039 56.8817 174.788C56.0284 176.495 54.7911 177.967 53.1697 179.204C51.5484 180.442 49.6071 181.402 47.3457 182.084C45.0844 182.724 42.5457 183.044 39.7297 183.044ZM80.7297 183.044C77.0177 183.044 73.8177 182.383 71.1297 181.06C68.4844 179.695 66.4364 177.796 64.9857 175.364C63.5777 172.89 62.8737 169.988 62.8737 166.66C62.8737 163.418 63.5564 160.58 64.9217 158.148C66.2871 155.674 68.1857 153.754 70.6177 152.388C73.0924 150.98 75.8871 150.276 79.0017 150.276C81.2631 150.276 83.3111 150.66 85.1457 151.428C86.9804 152.154 88.5591 153.22 89.8817 154.628C91.2044 155.994 92.2071 157.679 92.8897 159.684C93.5724 161.647 93.9137 163.844 93.9137 166.276C93.9137 167.087 93.6577 167.706 93.1457 168.132C92.6337 168.516 91.8871 168.708 90.9057 168.708H70.8097V163.716H86.9377L85.9137 164.612C85.9137 162.863 85.6577 161.412 85.1457 160.26C84.6337 159.066 83.8871 158.17 82.9057 157.572C81.9671 156.975 80.7937 156.676 79.3857 156.676C77.8071 156.676 76.4631 157.039 75.3537 157.764C74.2444 158.49 73.3911 159.535 72.7937 160.9C72.1964 162.266 71.8977 163.908 71.8977 165.828V166.34C71.8977 169.583 72.6444 171.972 74.1377 173.508C75.6737 175.044 77.9351 175.812 80.9217 175.812C81.9457 175.812 83.1191 175.684 84.4417 175.428C85.7644 175.172 87.0017 174.767 88.1537 174.212C89.1351 173.743 90.0097 173.594 90.7777 173.764C91.5457 173.892 92.1431 174.234 92.5697 174.788C92.9964 175.343 93.2311 175.983 93.2737 176.708C93.3591 177.434 93.2097 178.159 92.8257 178.884C92.4417 179.567 91.8017 180.143 90.9057 180.612C89.4551 181.423 87.8124 182.02 85.9777 182.404C84.1857 182.831 82.4364 183.044 80.7297 183.044ZM115.411 183.044C112.467 183.044 109.993 182.554 107.987 181.572C106.025 180.591 104.553 179.162 103.571 177.284C102.633 175.407 102.163 173.039 102.163 170.18V158.148H99.4752C98.2806 158.148 97.3419 157.828 96.6592 157.188C96.0192 156.548 95.6992 155.674 95.6992 154.564C95.6992 153.37 96.0192 152.474 96.6592 151.876C97.3419 151.236 98.2806 150.916 99.4752 150.916H102.163V146.052C102.163 144.431 102.59 143.215 103.443 142.404C104.297 141.551 105.491 141.124 107.027 141.124C108.606 141.124 109.801 141.551 110.611 142.404C111.422 143.215 111.827 144.431 111.827 146.052V150.916H117.907C119.102 150.916 120.019 151.236 120.659 151.876C121.299 152.474 121.619 153.37 121.619 154.564C121.619 155.674 121.299 156.548 120.659 157.188C120.019 157.828 119.102 158.148 117.907 158.148H111.827V169.796C111.827 171.588 112.233 172.932 113.043 173.828C113.897 174.724 115.241 175.172 117.075 175.172C117.715 175.172 118.313 175.108 118.867 174.98C119.422 174.852 119.934 174.767 120.403 174.724C121.001 174.682 121.491 174.874 121.875 175.3C122.259 175.684 122.451 176.559 122.451 177.924C122.451 178.948 122.281 179.844 121.939 180.612C121.598 181.38 121.001 181.935 120.147 182.276C119.593 182.49 118.825 182.66 117.843 182.788C116.905 182.959 116.094 183.044 115.411 183.044ZM139.614 183.044C136.67 183.044 134.195 182.554 132.19 181.572C130.227 180.591 128.755 179.162 127.774 177.284C126.835 175.407 126.366 173.039 126.366 170.18V158.148H123.678C122.483 158.148 121.544 157.828 120.862 157.188C120.222 156.548 119.902 155.674 119.902 154.564C119.902 153.37 120.222 152.474 120.862 151.876C121.544 151.236 122.483 150.916 123.678 150.916H126.366V146.052C126.366 144.431 126.792 143.215 127.646 142.404C128.499 141.551 129.694 141.124 131.23 141.124C132.808 141.124 134.003 141.551 134.814 142.404C135.624 143.215 136.03 144.431 136.03 146.052V150.916H142.11C143.304 150.916 144.222 151.236 144.862 151.876C145.502 152.474 145.822 153.37 145.822 154.564C145.822 155.674 145.502 156.548 144.862 157.188C144.222 157.828 143.304 158.148 142.11 158.148H136.03V169.796C136.03 171.588 136.435 172.932 137.246 173.828C138.099 174.724 139.443 175.172 141.278 175.172C141.918 175.172 142.515 175.108 143.07 174.98C143.624 174.852 144.136 174.767 144.606 174.724C145.203 174.682 145.694 174.874 146.078 175.3C146.462 175.684 146.654 176.559 146.654 177.924C146.654 178.948 146.483 179.844 146.142 180.612C145.8 181.38 145.203 181.935 144.35 182.276C143.795 182.49 143.027 182.66 142.046 182.788C141.107 182.959 140.296 183.044 139.614 183.044ZM156.569 182.852C154.99 182.852 153.774 182.404 152.921 181.508C152.11 180.57 151.705 179.268 151.705 177.604V155.716C151.705 154.01 152.11 152.708 152.921 151.812C153.774 150.874 154.99 150.404 156.569 150.404C158.105 150.404 159.278 150.874 160.089 151.812C160.942 152.708 161.369 154.01 161.369 155.716V177.604C161.369 179.268 160.963 180.57 160.153 181.508C159.342 182.404 158.147 182.852 156.569 182.852ZM156.569 145.156C154.777 145.156 153.39 144.751 152.409 143.94C151.47 143.087 151.001 141.892 151.001 140.356C151.001 138.778 151.47 137.583 152.409 136.772C153.39 135.919 154.777 135.492 156.569 135.492C158.361 135.492 159.726 135.919 160.665 136.772C161.603 137.583 162.073 138.778 162.073 140.356C162.073 141.892 161.603 143.087 160.665 143.94C159.726 144.751 158.361 145.156 156.569 145.156ZM174.334 182.916C172.755 182.916 171.539 182.49 170.686 181.636C169.875 180.783 169.47 179.567 169.47 177.988V155.268C169.47 153.69 169.875 152.495 170.686 151.684C171.539 150.831 172.712 150.404 174.206 150.404C175.742 150.404 176.915 150.831 177.726 151.684C178.536 152.495 178.942 153.69 178.942 155.268V158.916L178.238 156.804C179.219 154.714 180.67 153.114 182.59 152.004C184.552 150.852 186.771 150.276 189.246 150.276C191.763 150.276 193.832 150.767 195.454 151.748C197.075 152.687 198.291 154.138 199.102 156.1C199.912 158.02 200.318 160.474 200.318 163.46V177.988C200.318 179.567 199.891 180.783 199.038 181.636C198.227 182.49 197.032 182.916 195.454 182.916C193.918 182.916 192.723 182.49 191.87 181.636C191.059 180.783 190.654 179.567 190.654 177.988V163.908C190.654 161.732 190.248 160.175 189.438 159.236C188.67 158.255 187.475 157.764 185.854 157.764C183.806 157.764 182.163 158.404 180.926 159.684C179.731 160.964 179.134 162.671 179.134 164.804V177.988C179.134 181.274 177.534 182.916 174.334 182.916ZM223.276 194.564C220.972 194.564 218.754 194.372 216.62 193.988C214.53 193.604 212.674 193.028 211.052 192.26C210.071 191.834 209.367 191.279 208.94 190.596C208.556 189.914 208.386 189.188 208.428 188.42C208.514 187.652 208.77 186.97 209.196 186.372C209.666 185.775 210.242 185.348 210.924 185.092C211.607 184.879 212.332 184.943 213.1 185.284C214.978 186.138 216.706 186.692 218.284 186.948C219.906 187.204 221.292 187.332 222.444 187.332C225.175 187.332 227.223 186.714 228.588 185.476C229.954 184.239 230.636 182.34 230.636 179.78V174.916H231.212C230.572 176.879 229.25 178.479 227.244 179.716C225.239 180.954 223.02 181.572 220.588 181.572C217.772 181.572 215.319 180.932 213.228 179.652C211.138 178.33 209.516 176.495 208.364 174.148C207.212 171.759 206.636 169.007 206.636 165.892C206.636 163.546 206.956 161.412 207.596 159.492C208.279 157.572 209.218 155.93 210.412 154.564C211.65 153.199 213.122 152.154 214.828 151.428C216.578 150.66 218.498 150.276 220.588 150.276C223.106 150.276 225.324 150.895 227.244 152.132C229.207 153.327 230.508 154.906 231.148 156.868L230.508 158.916V155.268C230.508 153.69 230.914 152.495 231.724 151.684C232.578 150.831 233.772 150.404 235.308 150.404C236.844 150.404 238.018 150.831 238.828 151.684C239.639 152.495 240.044 153.69 240.044 155.268V178.692C240.044 183.94 238.594 187.887 235.692 190.532C232.834 193.22 228.695 194.564 223.276 194.564ZM223.468 174.34C224.919 174.34 226.156 173.999 227.18 173.316C228.247 172.634 229.079 171.674 229.676 170.436C230.274 169.156 230.572 167.642 230.572 165.892C230.572 163.247 229.911 161.199 228.588 159.748C227.308 158.255 225.602 157.508 223.468 157.508C222.018 157.508 220.759 157.85 219.692 158.532C218.626 159.172 217.794 160.132 217.196 161.412C216.642 162.65 216.364 164.143 216.364 165.892C216.364 168.538 217.004 170.607 218.284 172.1C219.564 173.594 221.292 174.34 223.468 174.34ZM260.219 183.044C258.342 183.044 256.401 182.874 254.395 182.532C252.433 182.191 250.641 181.615 249.019 180.804C248.166 180.378 247.547 179.844 247.163 179.204C246.822 178.522 246.673 177.839 246.715 177.156C246.758 176.474 246.971 175.855 247.355 175.3C247.782 174.746 248.315 174.383 248.955 174.212C249.638 173.999 250.385 174.063 251.195 174.404C252.945 175.13 254.545 175.642 255.995 175.94C257.446 176.239 258.875 176.388 260.283 176.388C262.118 176.388 263.441 176.111 264.251 175.556C265.105 174.959 265.531 174.191 265.531 173.252C265.531 172.399 265.254 171.759 264.699 171.332C264.145 170.906 263.334 170.607 262.267 170.436L255.547 169.22C252.902 168.751 250.854 167.791 249.403 166.34C247.995 164.847 247.291 162.948 247.291 160.644C247.291 158.511 247.889 156.676 249.083 155.14C250.278 153.562 251.921 152.367 254.011 151.556C256.145 150.703 258.555 150.276 261.243 150.276C263.163 150.276 264.934 150.447 266.555 150.788C268.177 151.13 269.734 151.684 271.227 152.452C271.995 152.836 272.529 153.348 272.827 153.988C273.169 154.628 273.275 155.29 273.147 155.972C273.062 156.655 272.806 157.274 272.379 157.828C271.953 158.383 271.398 158.746 270.715 158.916C270.075 159.087 269.329 159.002 268.475 158.66C267.11 158.02 265.851 157.572 264.699 157.316C263.547 157.018 262.438 156.868 261.371 156.868C259.451 156.868 258.065 157.188 257.211 157.828C256.358 158.426 255.931 159.194 255.931 160.132C255.931 160.858 256.166 161.476 256.635 161.988C257.147 162.458 257.915 162.778 258.939 162.948L265.659 164.164C268.433 164.634 270.545 165.572 271.995 166.98C273.446 168.346 274.171 170.223 274.171 172.612C274.171 175.855 272.891 178.415 270.331 180.292C267.814 182.127 264.443 183.044 260.219 183.044Z" fill="white"/>
<defs>
<filter id="filter0_b_201_9" x="-4" y="-4" width="668" height="210" filterUnits="userSpaceOnUse" color-interpolation-filters="sRGB">
<feFlood flood-opacity="0" result="BackgroundImageFix"/>
<feGaussianBlur in="BackgroundImageFix" stdDeviation="2"/>
<feComposite in2="SourceAlpha" operator="in" result="effect1_backgroundBlur_201_9"/>
<feBlend mode="normal" in="SourceGraphic" in2="effect1_backgroundBlur_201_9" result="shape"/>
</filter>
</defs>
</svg>
