<svg width="75" height="75" viewBox="0 0 75 75" fill="none" xmlns="http://www.w3.org/2000/svg">
<path fill-rule="evenodd" clip-rule="evenodd" d="M31.8842 12.7797C34.2518 8.23987 40.7482 8.23988 43.1159 12.7797L49.42 24.8675C49.4325 24.8915 49.4559 24.908 49.4828 24.9117L63.2756 26.8083C68.5788 27.5376 70.642 34.1089 66.7072 37.7385L56.9585 46.731C56.9374 46.7504 56.9278 46.7792 56.9329 46.8074L59.2649 59.6743C60.1944 64.8026 54.8778 68.796 50.2116 66.4745L37.5373 60.169C37.5138 60.1573 37.4862 60.1573 37.4628 60.169L24.7885 66.4745C20.1223 68.796 14.8057 64.8026 15.7351 59.6743L18.0672 46.8074C18.0723 46.7792 18.0626 46.7504 18.0416 46.731L8.29291 37.7385C4.35811 34.1089 6.42124 27.5376 11.7245 26.8083L25.5173 24.9117C25.5441 24.908 25.5675 24.8915 25.5801 24.8675L31.8842 12.7797ZM37.4483 15.635C37.4482 15.6352 37.4393 15.644 37.4258 15.6698L31.1217 27.7576C30.1729 29.577 28.4015 30.8239 26.3687 31.1034L12.5759 33.0001C12.5584 33.0025 12.5471 33.0053 12.5408 33.0071C12.5373 33.0082 12.5348 33.009 12.5332 33.0096C12.533 33.0097 12.5328 33.0098 12.5326 33.0099C12.5289 33.0139 12.5166 33.0289 12.5075 33.0579C12.4984 33.0869 12.4999 33.1062 12.5006 33.1117C12.5015 33.113 12.5031 33.1153 12.5058 33.1187C12.5099 33.1237 12.5176 33.1325 12.5306 33.1445L22.2792 42.1369C23.8725 43.6067 24.6036 45.7891 24.217 47.922L21.8849 60.789C21.882 60.8049 21.8812 60.8157 21.881 60.8219C21.8808 60.828 21.8811 60.8312 21.8812 60.832C21.8813 60.8328 21.8813 60.8326 21.8811 60.8319C21.881 60.8312 21.8808 60.8309 21.8809 60.8311C21.8816 60.8327 21.8904 60.8508 21.917 60.8708C21.9436 60.8908 21.9635 60.8942 21.9652 60.8944C21.9655 60.8945 21.9651 60.8944 21.9644 60.8944C21.9637 60.8945 21.9635 60.8945 21.9643 60.8944C21.9649 60.8943 21.9668 60.8939 21.9701 60.893C21.9712 60.8926 21.9726 60.8922 21.9741 60.8917C21.9799 60.8898 21.99 60.886 22.0046 60.8788L34.6788 54.5733C36.4558 53.6892 38.5443 53.6892 40.3212 54.5733L52.9955 60.8788C53.01 60.886 53.0202 60.8898 53.026 60.8917C53.029 60.8927 53.0313 60.8933 53.0329 60.8937C53.0344 60.8941 53.0354 60.8943 53.0357 60.8944C53.0366 60.8945 53.0364 60.8944 53.0357 60.8944C53.035 60.8944 53.0346 60.8945 53.0349 60.8944C53.0366 60.8942 53.0565 60.8908 53.083 60.8708C53.1096 60.8508 53.1185 60.8327 53.1192 60.8311C53.1193 60.8309 53.1191 60.8312 53.1189 60.8319C53.1187 60.8326 53.1188 60.8328 53.1189 60.832C53.1189 60.8312 53.1193 60.828 53.119 60.8219C53.1188 60.8157 53.118 60.8049 53.1151 60.789L50.7831 47.922C50.3965 45.7891 51.1275 43.6067 52.7208 42.137L62.4695 33.1445C62.4825 33.1325 62.4902 33.1237 62.4943 33.1187C62.4967 33.1156 62.4983 33.1134 62.4992 33.112L62.4993 33.1127L62.4992 33.1131L62.4992 33.1132C62.4992 33.1132 62.4993 33.1126 62.4994 33.1117C62.4999 33.111 62.5001 33.1105 62.5002 33.1104C62.5005 33.1099 62.5002 33.1103 62.4998 33.1114L62.4992 33.112C62.4993 33.1119 62.4994 33.1118 62.4994 33.1117C62.5002 33.1062 62.5017 33.0869 62.4926 33.0579C62.4835 33.0289 62.4712 33.0139 62.4675 33.0099C62.4683 33.0102 62.4687 33.0104 62.4689 33.0105C62.4694 33.0107 62.4689 33.0105 62.4679 33.0099L62.4668 33.0091C62.4665 33.0089 62.4664 33.0087 62.4664 33.0088C62.4664 33.0088 62.4668 33.0092 62.4675 33.0099C62.466 33.0093 62.4633 33.0083 62.4592 33.0071C62.453 33.0053 62.4417 33.0025 62.4242 33.0001L48.6314 31.1034C46.5986 30.8239 44.8272 29.577 43.8784 27.7576L37.5742 15.6698C37.5608 15.644 37.5519 15.6352 37.5518 15.635C37.5511 15.6343 37.5516 15.6347 37.5515 15.6347C37.5493 15.6335 37.5318 15.6248 37.5 15.6248C37.4683 15.6248 37.4507 15.6335 37.4486 15.6347C37.4485 15.6347 37.449 15.6343 37.4483 15.635Z" fill="white"/>
</svg>
