<svg width="660" height="202" viewBox="0 0 660 202" fill="none" xmlns="http://www.w3.org/2000/svg">
<g filter="url(#filter0_b_201_4)">
<rect width="660" height="202" rx="20" fill="#1E34FF"/>
</g>
<path d="M41.672 176.704C39.88 176.704 38.0453 176.555 36.168 176.256C34.3333 176 32.5627 175.616 30.856 175.104C29.192 174.592 27.6987 173.952 26.376 173.184C25.4373 172.672 24.776 172.011 24.392 171.2C24.008 170.347 23.8587 169.493 23.944 168.64C24.072 167.787 24.392 167.04 24.904 166.4C25.4587 165.717 26.1413 165.291 26.952 165.12C27.8053 164.907 28.744 165.056 29.768 165.568C31.5173 166.549 33.416 167.275 35.464 167.744C37.5547 168.213 39.624 168.448 41.672 168.448C44.7867 168.448 47.0053 167.979 48.328 167.04C49.6507 166.059 50.312 164.843 50.312 163.392C50.312 162.155 49.8427 161.173 48.904 160.448C47.9653 159.723 46.3227 159.104 43.976 158.592L36.744 157.056C32.648 156.203 29.5973 154.752 27.592 152.704C25.6293 150.613 24.648 147.883 24.648 144.512C24.648 142.379 25.096 140.437 25.992 138.688C26.888 136.939 28.1467 135.424 29.768 134.144C31.3893 132.864 33.3093 131.883 35.528 131.2C37.7893 130.517 40.264 130.176 42.952 130.176C45.3413 130.176 47.688 130.475 49.992 131.072C52.296 131.627 54.3227 132.459 56.072 133.568C56.9253 134.08 57.5013 134.741 57.8 135.552C58.1413 136.32 58.248 137.109 58.12 137.92C58.0347 138.688 57.7147 139.371 57.16 139.968C56.648 140.565 55.9867 140.949 55.176 141.12C54.3653 141.291 53.384 141.099 52.232 140.544C50.824 139.819 49.3307 139.285 47.752 138.944C46.1733 138.603 44.552 138.432 42.888 138.432C41.096 138.432 39.56 138.667 38.28 139.136C37.0427 139.605 36.0827 140.267 35.4 141.12C34.76 141.973 34.44 142.955 34.44 144.064C34.44 145.301 34.888 146.304 35.784 147.072C36.68 147.84 38.2373 148.459 40.456 148.928L47.688 150.464C51.8693 151.36 54.984 152.811 57.032 154.816C59.08 156.779 60.104 159.381 60.104 162.624C60.104 164.757 59.6773 166.699 58.824 168.448C57.9707 170.155 56.7333 171.627 55.112 172.864C53.4907 174.101 51.5493 175.061 49.288 175.744C47.0267 176.384 44.488 176.704 41.672 176.704ZM81.3385 176.704C78.3945 176.704 75.9198 176.213 73.9145 175.232C71.9518 174.251 70.4798 172.821 69.4985 170.944C68.5598 169.067 68.0905 166.699 68.0905 163.84V151.808H65.4025C64.2078 151.808 63.2692 151.488 62.5865 150.848C61.9465 150.208 61.6265 149.333 61.6265 148.224C61.6265 147.029 61.9465 146.133 62.5865 145.536C63.2692 144.896 64.2078 144.576 65.4025 144.576H68.0905V139.712C68.0905 138.091 68.5172 136.875 69.3705 136.064C70.2238 135.211 71.4185 134.784 72.9545 134.784C74.5332 134.784 75.7278 135.211 76.5385 136.064C77.3492 136.875 77.7545 138.091 77.7545 139.712V144.576H83.8345C85.0292 144.576 85.9465 144.896 86.5865 145.536C87.2265 146.133 87.5465 147.029 87.5465 148.224C87.5465 149.333 87.2265 150.208 86.5865 150.848C85.9465 151.488 85.0292 151.808 83.8345 151.808H77.7545V163.456C77.7545 165.248 78.1598 166.592 78.9705 167.488C79.8238 168.384 81.1678 168.832 83.0025 168.832C83.6425 168.832 84.2398 168.768 84.7945 168.64C85.3492 168.512 85.8612 168.427 86.3305 168.384C86.9278 168.341 87.4185 168.533 87.8025 168.96C88.1865 169.344 88.3785 170.219 88.3785 171.584C88.3785 172.608 88.2078 173.504 87.8665 174.272C87.5252 175.04 86.9278 175.595 86.0745 175.936C85.5198 176.149 84.7518 176.32 83.7705 176.448C82.8318 176.619 82.0212 176.704 81.3385 176.704ZM103.053 176.704C100.749 176.704 98.6802 176.256 96.8455 175.36C95.0108 174.464 93.5815 173.248 92.5575 171.712C91.5335 170.176 91.0215 168.448 91.0215 166.528C91.0215 164.224 91.6188 162.411 92.8135 161.088C94.0082 159.723 95.9495 158.763 98.6375 158.208C101.325 157.611 104.888 157.312 109.326 157.312H112.718V162.304H109.389C107.213 162.304 105.443 162.432 104.077 162.688C102.755 162.901 101.795 163.285 101.197 163.84C100.643 164.395 100.365 165.163 100.365 166.144C100.365 167.339 100.771 168.32 101.581 169.088C102.435 169.856 103.651 170.24 105.229 170.24C106.467 170.24 107.555 169.963 108.493 169.408C109.475 168.811 110.243 168.021 110.798 167.04C111.352 166.016 111.629 164.864 111.629 163.584V156.224C111.629 154.347 111.203 153.024 110.35 152.256C109.496 151.445 108.045 151.04 105.997 151.04C104.845 151.04 103.587 151.189 102.221 151.488C100.899 151.744 99.4268 152.192 97.8055 152.832C96.8668 153.259 96.0348 153.365 95.3095 153.152C94.5842 152.896 94.0295 152.469 93.6455 151.872C93.2615 151.232 93.0695 150.549 93.0695 149.824C93.0695 149.056 93.2828 148.331 93.7095 147.648C94.1362 146.923 94.8402 146.389 95.8215 146.048C97.8268 145.237 99.7042 144.683 101.453 144.384C103.245 144.085 104.888 143.936 106.382 143.936C109.667 143.936 112.355 144.427 114.445 145.408C116.579 146.347 118.179 147.819 119.246 149.824C120.312 151.787 120.846 154.325 120.846 157.44V171.648C120.846 173.227 120.462 174.443 119.694 175.296C118.926 176.149 117.816 176.576 116.365 176.576C114.915 176.576 113.784 176.149 112.973 175.296C112.206 174.443 111.822 173.227 111.822 171.648V169.28L112.27 169.664C112.014 171.115 111.459 172.373 110.605 173.44C109.795 174.464 108.749 175.275 107.469 175.872C106.189 176.427 104.717 176.704 103.053 176.704ZM133.686 176.576C132.065 176.576 130.828 176.149 129.974 175.296C129.121 174.443 128.694 173.227 128.694 171.648V148.928C128.694 147.349 129.1 146.155 129.91 145.344C130.764 144.491 131.937 144.064 133.43 144.064C134.966 144.064 136.14 144.491 136.95 145.344C137.761 146.155 138.166 147.349 138.166 148.928V152.256H137.526C138.038 149.696 139.169 147.712 140.918 146.304C142.668 144.896 144.929 144.107 147.702 143.936C148.769 143.851 149.58 144.128 150.134 144.768C150.732 145.365 151.052 146.368 151.094 147.776C151.18 149.099 150.902 150.144 150.262 150.912C149.665 151.68 148.641 152.149 147.19 152.32L145.718 152.448C143.286 152.661 141.473 153.365 140.278 154.56C139.126 155.755 138.55 157.483 138.55 159.744V171.648C138.55 173.227 138.124 174.443 137.27 175.296C136.46 176.149 135.265 176.576 133.686 176.576ZM173.008 176.704C170.064 176.704 167.59 176.213 165.584 175.232C163.622 174.251 162.15 172.821 161.168 170.944C160.23 169.067 159.76 166.699 159.76 163.84V151.808H157.072C155.878 151.808 154.939 151.488 154.256 150.848C153.616 150.208 153.296 149.333 153.296 148.224C153.296 147.029 153.616 146.133 154.256 145.536C154.939 144.896 155.878 144.576 157.072 144.576H159.76V139.712C159.76 138.091 160.187 136.875 161.04 136.064C161.894 135.211 163.088 134.784 164.624 134.784C166.203 134.784 167.398 135.211 168.208 136.064C169.019 136.875 169.424 138.091 169.424 139.712V144.576H175.504C176.699 144.576 177.616 144.896 178.256 145.536C178.896 146.133 179.216 147.029 179.216 148.224C179.216 149.333 178.896 150.208 178.256 150.848C177.616 151.488 176.699 151.808 175.504 151.808H169.424V163.456C169.424 165.248 169.83 166.592 170.64 167.488C171.494 168.384 172.838 168.832 174.672 168.832C175.312 168.832 175.91 168.768 176.464 168.64C177.019 168.512 177.531 168.427 178 168.384C178.598 168.341 179.088 168.533 179.472 168.96C179.856 169.344 180.048 170.219 180.048 171.584C180.048 172.608 179.878 173.504 179.536 174.272C179.195 175.04 178.598 175.595 177.744 175.936C177.19 176.149 176.422 176.32 175.44 176.448C174.502 176.619 173.691 176.704 173.008 176.704ZM219.574 176.704C217.782 176.704 215.948 176.555 214.07 176.256C212.236 176 210.465 175.616 208.758 175.104C207.094 174.592 205.601 173.952 204.278 173.184C203.34 172.672 202.678 172.011 202.294 171.2C201.91 170.347 201.761 169.493 201.846 168.64C201.974 167.787 202.294 167.04 202.806 166.4C203.361 165.717 204.044 165.291 204.854 165.12C205.708 164.907 206.646 165.056 207.67 165.568C209.42 166.549 211.318 167.275 213.366 167.744C215.457 168.213 217.526 168.448 219.574 168.448C222.689 168.448 224.908 167.979 226.23 167.04C227.553 166.059 228.214 164.843 228.214 163.392C228.214 162.155 227.745 161.173 226.806 160.448C225.868 159.723 224.225 159.104 221.878 158.592L214.646 157.056C210.55 156.203 207.5 154.752 205.494 152.704C203.532 150.613 202.55 147.883 202.55 144.512C202.55 142.379 202.998 140.437 203.894 138.688C204.79 136.939 206.049 135.424 207.67 134.144C209.292 132.864 211.212 131.883 213.43 131.2C215.692 130.517 218.166 130.176 220.854 130.176C223.244 130.176 225.59 130.475 227.894 131.072C230.198 131.627 232.225 132.459 233.974 133.568C234.828 134.08 235.404 134.741 235.702 135.552C236.044 136.32 236.15 137.109 236.022 137.92C235.937 138.688 235.617 139.371 235.062 139.968C234.55 140.565 233.889 140.949 233.078 141.12C232.268 141.291 231.286 141.099 230.134 140.544C228.726 139.819 227.233 139.285 225.654 138.944C224.076 138.603 222.454 138.432 220.79 138.432C218.998 138.432 217.462 138.667 216.182 139.136C214.945 139.605 213.985 140.267 213.302 141.12C212.662 141.973 212.342 142.955 212.342 144.064C212.342 145.301 212.79 146.304 213.686 147.072C214.582 147.84 216.14 148.459 218.358 148.928L225.59 150.464C229.772 151.36 232.886 152.811 234.934 154.816C236.982 156.779 238.006 159.381 238.006 162.624C238.006 164.757 237.58 166.699 236.726 168.448C235.873 170.155 234.636 171.627 233.014 172.864C231.393 174.101 229.452 175.061 227.19 175.744C224.929 176.384 222.39 176.704 219.574 176.704ZM259.241 176.704C256.297 176.704 253.822 176.213 251.817 175.232C249.854 174.251 248.382 172.821 247.401 170.944C246.462 169.067 245.993 166.699 245.993 163.84V151.808H243.305C242.11 151.808 241.172 151.488 240.489 150.848C239.849 150.208 239.529 149.333 239.529 148.224C239.529 147.029 239.849 146.133 240.489 145.536C241.172 144.896 242.11 144.576 243.305 144.576H245.993V139.712C245.993 138.091 246.42 136.875 247.273 136.064C248.126 135.211 249.321 134.784 250.857 134.784C252.436 134.784 253.63 135.211 254.441 136.064C255.252 136.875 255.657 138.091 255.657 139.712V144.576H261.737C262.932 144.576 263.849 144.896 264.489 145.536C265.129 146.133 265.449 147.029 265.449 148.224C265.449 149.333 265.129 150.208 264.489 150.848C263.849 151.488 262.932 151.808 261.737 151.808H255.657V163.456C255.657 165.248 256.062 166.592 256.873 167.488C257.726 168.384 259.07 168.832 260.905 168.832C261.545 168.832 262.142 168.768 262.697 168.64C263.252 168.512 263.764 168.427 264.233 168.384C264.83 168.341 265.321 168.533 265.705 168.96C266.089 169.344 266.281 170.219 266.281 171.584C266.281 172.608 266.11 173.504 265.769 174.272C265.428 175.04 264.83 175.595 263.977 175.936C263.422 176.149 262.654 176.32 261.673 176.448C260.734 176.619 259.924 176.704 259.241 176.704ZM281.916 176.704C279.271 176.704 277.073 176.213 275.324 175.232C273.575 174.251 272.273 172.779 271.42 170.816C270.609 168.811 270.204 166.336 270.204 163.392V148.928C270.204 147.307 270.609 146.091 271.42 145.28C272.273 144.469 273.468 144.064 275.004 144.064C276.54 144.064 277.735 144.469 278.588 145.28C279.441 146.091 279.868 147.307 279.868 148.928V163.648C279.868 165.525 280.252 166.933 281.02 167.872C281.788 168.768 283.004 169.216 284.668 169.216C286.503 169.216 287.996 168.576 289.148 167.296C290.343 165.973 290.94 164.245 290.94 162.112V148.928C290.94 147.307 291.345 146.091 292.156 145.28C293.009 144.469 294.204 144.064 295.74 144.064C297.319 144.064 298.513 144.469 299.324 145.28C300.177 146.091 300.604 147.307 300.604 148.928V171.648C300.604 174.933 299.047 176.576 295.932 176.576C294.396 176.576 293.223 176.149 292.412 175.296C291.601 174.443 291.196 173.227 291.196 171.648V167.36L292.156 169.856C291.217 172.032 289.873 173.717 288.124 174.912C286.375 176.107 284.305 176.704 281.916 176.704ZM320.946 176.704C318.215 176.704 315.805 176.043 313.714 174.72C311.666 173.397 310.066 171.499 308.914 169.024C307.762 166.549 307.186 163.627 307.186 160.256C307.186 156.885 307.762 153.984 308.914 151.552C310.066 149.12 311.666 147.243 313.714 145.92C315.805 144.597 318.215 143.936 320.946 143.936C323.421 143.936 325.597 144.533 327.474 145.728C329.394 146.923 330.695 148.48 331.378 150.4H330.674V135.232C330.674 133.611 331.079 132.395 331.89 131.584C332.701 130.731 333.895 130.304 335.474 130.304C337.01 130.304 338.205 130.731 339.058 131.584C339.911 132.395 340.338 133.611 340.338 135.232V171.648C340.338 173.227 339.911 174.443 339.058 175.296C338.247 176.149 337.074 176.576 335.538 176.576C334.002 176.576 332.807 176.149 331.954 175.296C331.143 174.443 330.738 173.227 330.738 171.648V167.296L331.442 169.792C330.845 171.883 329.565 173.568 327.602 174.848C325.682 176.085 323.463 176.704 320.946 176.704ZM323.826 169.472C325.234 169.472 326.45 169.131 327.474 168.448C328.498 167.765 329.309 166.763 329.906 165.44C330.503 164.075 330.802 162.347 330.802 160.256C330.802 157.141 330.162 154.859 328.882 153.408C327.602 151.915 325.917 151.168 323.826 151.168C322.461 151.168 321.245 151.488 320.178 152.128C319.154 152.768 318.343 153.771 317.746 155.136C317.191 156.459 316.914 158.165 316.914 160.256C316.914 163.371 317.554 165.696 318.834 167.232C320.114 168.725 321.778 169.472 323.826 169.472ZM353.288 176.512C351.71 176.512 350.494 176.064 349.64 175.168C348.83 174.229 348.424 172.928 348.424 171.264V149.376C348.424 147.669 348.83 146.368 349.64 145.472C350.494 144.533 351.71 144.064 353.288 144.064C354.824 144.064 355.998 144.533 356.808 145.472C357.662 146.368 358.088 147.669 358.088 149.376V171.264C358.088 172.928 357.683 174.229 356.872 175.168C356.062 176.064 354.867 176.512 353.288 176.512ZM353.288 138.816C351.496 138.816 350.11 138.411 349.128 137.6C348.19 136.747 347.72 135.552 347.72 134.016C347.72 132.437 348.19 131.243 349.128 130.432C350.11 129.579 351.496 129.152 353.288 129.152C355.08 129.152 356.446 129.579 357.384 130.432C358.323 131.243 358.792 132.437 358.792 134.016C358.792 135.552 358.323 136.747 357.384 137.6C356.446 138.411 355.08 138.816 353.288 138.816ZM381.294 176.704C377.923 176.704 374.979 176.043 372.462 174.72C369.987 173.397 368.067 171.499 366.702 169.024C365.336 166.549 364.654 163.627 364.654 160.256C364.654 157.739 365.038 155.477 365.806 153.472C366.574 151.467 367.683 149.76 369.134 148.352C370.627 146.901 372.398 145.813 374.446 145.088C376.494 144.32 378.776 143.936 381.294 143.936C384.664 143.936 387.587 144.597 390.062 145.92C392.579 147.243 394.52 149.12 395.886 151.552C397.294 153.984 397.998 156.885 397.998 160.256C397.998 162.816 397.592 165.099 396.782 167.104C396.014 169.109 394.904 170.837 393.454 172.288C392.003 173.739 390.232 174.848 388.142 175.616C386.094 176.341 383.811 176.704 381.294 176.704ZM381.294 169.472C382.702 169.472 383.918 169.131 384.942 168.448C385.966 167.765 386.776 166.763 387.374 165.44C387.971 164.075 388.27 162.347 388.27 160.256C388.27 157.141 387.63 154.859 386.35 153.408C385.07 151.915 383.384 151.168 381.294 151.168C379.928 151.168 378.712 151.488 377.646 152.128C376.622 152.768 375.811 153.771 375.214 155.136C374.659 156.459 374.382 158.165 374.382 160.256C374.382 163.371 375.022 165.696 376.302 167.232C377.582 168.725 379.246 169.472 381.294 169.472Z" fill="white"/>
<defs>
<filter id="filter0_b_201_4" x="-4" y="-4" width="668" height="210" filterUnits="userSpaceOnUse" color-interpolation-filters="sRGB">
<feFlood flood-opacity="0" result="BackgroundImageFix"/>
<feGaussianBlur in="BackgroundImageFix" stdDeviation="2"/>
<feComposite in2="SourceAlpha" operator="in" result="effect1_backgroundBlur_201_4"/>
<feBlend mode="normal" in="SourceGraphic" in2="effect1_backgroundBlur_201_4" result="shape"/>
</filter>
</defs>
</svg>
