<svg width="660" height="202" viewBox="0 0 660 202" fill="none" xmlns="http://www.w3.org/2000/svg">
<g filter="url(#filter0_b_213_4)">
<rect width="660" height="202" rx="20" fill="#FF63FF"/>
</g>
<path d="M44.288 185.576C42.6667 185.576 41.4293 185.128 40.576 184.232C39.7227 183.336 39.296 182.077 39.296 180.456V148.072H27.968C26.6453 148.072 25.6213 147.709 24.896 146.984C24.1707 146.259 23.808 145.256 23.808 143.976C23.808 142.653 24.1707 141.651 24.896 140.968C25.6213 140.243 26.6453 139.88 27.968 139.88H60.544C61.8667 139.88 62.8907 140.243 63.616 140.968C64.3413 141.651 64.704 142.653 64.704 143.976C64.704 145.256 64.3413 146.259 63.616 146.984C62.8907 147.709 61.8667 148.072 60.544 148.072H49.216V180.456C49.216 182.077 48.7893 183.336 47.936 184.232C47.1253 185.128 45.9093 185.576 44.288 185.576ZM78.831 185.704C75.4603 185.704 72.5163 185.043 69.999 183.72C67.5243 182.397 65.6043 180.499 64.239 178.024C62.8737 175.549 62.191 172.627 62.191 169.256C62.191 166.739 62.575 164.477 63.343 162.472C64.111 160.467 65.2203 158.76 66.671 157.352C68.1643 155.901 69.935 154.813 71.983 154.088C74.031 153.32 76.3137 152.936 78.831 152.936C82.2017 152.936 85.1243 153.597 87.599 154.92C90.1163 156.243 92.0577 158.12 93.423 160.552C94.831 162.984 95.535 165.885 95.535 169.256C95.535 171.816 95.1297 174.099 94.319 176.104C93.551 178.109 92.4417 179.837 90.991 181.288C89.5403 182.739 87.7697 183.848 85.679 184.616C83.631 185.341 81.3483 185.704 78.831 185.704ZM78.831 178.472C80.239 178.472 81.455 178.131 82.479 177.448C83.503 176.765 84.3137 175.763 84.911 174.44C85.5083 173.075 85.807 171.347 85.807 169.256C85.807 166.141 85.167 163.859 83.887 162.408C82.607 160.915 80.9217 160.168 78.831 160.168C77.4657 160.168 76.2497 160.488 75.183 161.128C74.159 161.768 73.3483 162.771 72.751 164.136C72.1963 165.459 71.919 167.165 71.919 169.256C71.919 172.371 72.559 174.696 73.839 176.232C75.119 177.725 76.783 178.472 78.831 178.472ZM106.918 197.096C105.34 197.096 104.124 196.669 103.27 195.816C102.46 195.005 102.054 193.789 102.054 192.168V157.928C102.054 156.349 102.46 155.155 103.27 154.344C104.124 153.491 105.297 153.064 106.79 153.064C108.369 153.064 109.564 153.491 110.374 154.344C111.185 155.155 111.59 156.349 111.59 157.928V162.28L110.886 159.784C111.526 157.736 112.806 156.093 114.726 154.856C116.689 153.576 118.929 152.936 121.447 152.936C124.177 152.936 126.566 153.597 128.615 154.92C130.705 156.243 132.326 158.12 133.479 160.552C134.631 162.984 135.207 165.885 135.207 169.256C135.207 172.627 134.631 175.549 133.479 178.024C132.326 180.499 130.727 182.397 128.679 183.72C126.631 185.043 124.22 185.704 121.447 185.704C118.972 185.704 116.774 185.107 114.854 183.912C112.934 182.675 111.633 181.075 110.95 179.112H111.718V192.168C111.718 193.789 111.292 195.005 110.438 195.816C109.628 196.669 108.454 197.096 106.918 197.096ZM118.566 178.472C119.932 178.472 121.126 178.131 122.15 177.448C123.217 176.765 124.028 175.763 124.583 174.44C125.18 173.075 125.479 171.347 125.479 169.256C125.479 166.141 124.839 163.859 123.559 162.408C122.279 160.915 120.615 160.168 118.566 160.168C117.201 160.168 115.985 160.488 114.918 161.128C113.894 161.768 113.084 162.771 112.486 164.136C111.889 165.459 111.59 167.165 111.59 169.256C111.59 172.371 112.23 174.696 113.51 176.232C114.791 177.725 116.476 178.472 118.566 178.472ZM166.288 185C164.624 185 163.344 184.552 162.448 183.656C161.552 182.76 161.104 181.48 161.104 179.816V145.064C161.104 143.4 161.552 142.12 162.448 141.224C163.344 140.328 164.624 139.88 166.288 139.88H178.768C186.491 139.88 192.443 141.843 196.624 145.768C200.848 149.651 202.96 155.197 202.96 162.408C202.96 166.035 202.405 169.256 201.296 172.072C200.229 174.845 198.672 177.192 196.624 179.112C194.576 181.032 192.059 182.504 189.072 183.528C186.085 184.509 182.651 185 178.768 185H166.288ZM171.024 176.872H178.192C180.624 176.872 182.736 176.573 184.528 175.976C186.32 175.379 187.813 174.483 189.008 173.288C190.203 172.093 191.099 170.6 191.696 168.808C192.293 166.973 192.592 164.84 192.592 162.408C192.592 157.544 191.376 153.939 188.944 151.592C186.555 149.203 182.971 148.008 178.192 148.008H171.024V176.872ZM215.338 185.512C213.76 185.512 212.544 185.064 211.69 184.168C210.88 183.229 210.474 181.928 210.474 180.264V158.376C210.474 156.669 210.88 155.368 211.69 154.472C212.544 153.533 213.76 153.064 215.338 153.064C216.874 153.064 218.048 153.533 218.858 154.472C219.712 155.368 220.138 156.669 220.138 158.376V180.264C220.138 181.928 219.733 183.229 218.922 184.168C218.112 185.064 216.917 185.512 215.338 185.512ZM215.338 147.816C213.546 147.816 212.16 147.411 211.178 146.6C210.24 145.747 209.77 144.552 209.77 143.016C209.77 141.437 210.24 140.243 211.178 139.432C212.16 138.579 213.546 138.152 215.338 138.152C217.13 138.152 218.496 138.579 219.434 139.432C220.373 140.243 220.842 141.437 220.842 143.016C220.842 144.552 220.373 145.747 219.434 146.6C218.496 147.411 217.13 147.816 215.338 147.816ZM240.271 185.704C238.394 185.704 236.453 185.533 234.447 185.192C232.485 184.851 230.693 184.275 229.071 183.464C228.218 183.037 227.599 182.504 227.215 181.864C226.874 181.181 226.725 180.499 226.767 179.816C226.81 179.133 227.023 178.515 227.407 177.96C227.834 177.405 228.367 177.043 229.007 176.872C229.69 176.659 230.437 176.723 231.247 177.064C232.997 177.789 234.597 178.301 236.047 178.6C237.498 178.899 238.927 179.048 240.335 179.048C242.17 179.048 243.493 178.771 244.303 178.216C245.157 177.619 245.583 176.851 245.583 175.912C245.583 175.059 245.306 174.419 244.751 173.992C244.197 173.565 243.386 173.267 242.319 173.096L235.599 171.88C232.954 171.411 230.906 170.451 229.455 169C228.047 167.507 227.343 165.608 227.343 163.304C227.343 161.171 227.941 159.336 229.135 157.8C230.33 156.221 231.973 155.027 234.063 154.216C236.197 153.363 238.607 152.936 241.295 152.936C243.215 152.936 244.986 153.107 246.607 153.448C248.229 153.789 249.786 154.344 251.279 155.112C252.047 155.496 252.581 156.008 252.879 156.648C253.221 157.288 253.327 157.949 253.199 158.632C253.114 159.315 252.858 159.933 252.431 160.488C252.005 161.043 251.45 161.405 250.767 161.576C250.127 161.747 249.381 161.661 248.527 161.32C247.162 160.68 245.903 160.232 244.751 159.976C243.599 159.677 242.49 159.528 241.423 159.528C239.503 159.528 238.117 159.848 237.263 160.488C236.41 161.085 235.983 161.853 235.983 162.792C235.983 163.517 236.218 164.136 236.687 164.648C237.199 165.117 237.967 165.437 238.991 165.608L245.711 166.824C248.485 167.293 250.597 168.232 252.047 169.64C253.498 171.005 254.223 172.883 254.223 175.272C254.223 178.515 252.943 181.075 250.383 182.952C247.866 184.787 244.495 185.704 240.271 185.704ZM264.155 171.624C263.089 171.624 262.171 171.261 261.403 170.536C260.678 169.811 260.315 168.915 260.315 167.848C260.315 166.739 260.678 165.821 261.403 165.096C262.171 164.371 263.089 164.008 264.155 164.008H277.339C278.406 164.008 279.302 164.371 280.027 165.096C280.795 165.821 281.179 166.739 281.179 167.848C281.179 168.915 280.795 169.811 280.027 170.536C279.302 171.261 278.406 171.624 277.339 171.624H264.155ZM301.676 185.704C299.799 185.704 297.858 185.533 295.852 185.192C293.89 184.851 292.098 184.275 290.476 183.464C289.623 183.037 289.004 182.504 288.62 181.864C288.279 181.181 288.13 180.499 288.172 179.816C288.215 179.133 288.428 178.515 288.812 177.96C289.239 177.405 289.772 177.043 290.412 176.872C291.095 176.659 291.842 176.723 292.652 177.064C294.402 177.789 296.002 178.301 297.452 178.6C298.903 178.899 300.332 179.048 301.74 179.048C303.575 179.048 304.898 178.771 305.708 178.216C306.562 177.619 306.988 176.851 306.988 175.912C306.988 175.059 306.711 174.419 306.156 173.992C305.602 173.565 304.791 173.267 303.724 173.096L297.004 171.88C294.359 171.411 292.311 170.451 290.86 169C289.452 167.507 288.748 165.608 288.748 163.304C288.748 161.171 289.346 159.336 290.54 157.8C291.735 156.221 293.378 155.027 295.468 154.216C297.602 153.363 300.012 152.936 302.7 152.936C304.62 152.936 306.391 153.107 308.012 153.448C309.634 153.789 311.191 154.344 312.684 155.112C313.452 155.496 313.986 156.008 314.284 156.648C314.626 157.288 314.732 157.949 314.604 158.632C314.519 159.315 314.263 159.933 313.836 160.488C313.41 161.043 312.855 161.405 312.172 161.576C311.532 161.747 310.786 161.661 309.932 161.32C308.567 160.68 307.308 160.232 306.156 159.976C305.004 159.677 303.895 159.528 302.828 159.528C300.908 159.528 299.522 159.848 298.668 160.488C297.815 161.085 297.388 161.853 297.388 162.792C297.388 163.517 297.623 164.136 298.092 164.648C298.604 165.117 299.372 165.437 300.396 165.608L307.116 166.824C309.89 167.293 312.002 168.232 313.452 169.64C314.903 171.005 315.628 172.883 315.628 175.272C315.628 178.515 314.348 181.075 311.788 182.952C309.271 184.787 305.9 185.704 301.676 185.704ZM338.105 185.704C334.393 185.704 331.193 185.043 328.505 183.72C325.859 182.355 323.811 180.456 322.361 178.024C320.953 175.549 320.249 172.648 320.249 169.32C320.249 166.077 320.931 163.24 322.297 160.808C323.662 158.333 325.561 156.413 327.993 155.048C330.467 153.64 333.262 152.936 336.377 152.936C338.638 152.936 340.686 153.32 342.521 154.088C344.355 154.813 345.934 155.88 347.257 157.288C348.579 158.653 349.582 160.339 350.265 162.344C350.947 164.307 351.289 166.504 351.289 168.936C351.289 169.747 351.033 170.365 350.521 170.792C350.009 171.176 349.262 171.368 348.281 171.368H328.185V166.376H344.313L343.289 167.272C343.289 165.523 343.033 164.072 342.521 162.92C342.009 161.725 341.262 160.829 340.281 160.232C339.342 159.635 338.169 159.336 336.761 159.336C335.182 159.336 333.838 159.699 332.729 160.424C331.619 161.149 330.766 162.195 330.169 163.56C329.571 164.925 329.273 166.568 329.273 168.488V169C329.273 172.243 330.019 174.632 331.513 176.168C333.049 177.704 335.31 178.472 338.297 178.472C339.321 178.472 340.494 178.344 341.817 178.088C343.139 177.832 344.377 177.427 345.529 176.872C346.51 176.403 347.385 176.253 348.153 176.424C348.921 176.552 349.518 176.893 349.945 177.448C350.371 178.003 350.606 178.643 350.649 179.368C350.734 180.093 350.585 180.819 350.201 181.544C349.817 182.227 349.177 182.803 348.281 183.272C346.83 184.083 345.187 184.68 343.353 185.064C341.561 185.491 339.811 185.704 338.105 185.704ZM362.541 185.576C360.92 185.576 359.683 185.149 358.829 184.296C357.976 183.443 357.549 182.227 357.549 180.648V157.928C357.549 156.349 357.955 155.155 358.765 154.344C359.619 153.491 360.792 153.064 362.285 153.064C363.821 153.064 364.995 153.491 365.805 154.344C366.616 155.155 367.021 156.349 367.021 157.928V161.256H366.381C366.893 158.696 368.024 156.712 369.773 155.304C371.523 153.896 373.784 153.107 376.557 152.936C377.624 152.851 378.435 153.128 378.989 153.768C379.587 154.365 379.907 155.368 379.949 156.776C380.035 158.099 379.757 159.144 379.117 159.912C378.52 160.68 377.496 161.149 376.045 161.32L374.573 161.448C372.141 161.661 370.328 162.365 369.133 163.56C367.981 164.755 367.405 166.483 367.405 168.744V180.648C367.405 182.227 366.979 183.443 366.125 184.296C365.315 185.149 364.12 185.576 362.541 185.576ZM399.814 185.576C398.577 185.576 397.489 185.256 396.55 184.616C395.611 183.933 394.865 182.931 394.31 181.608L384.646 159.336C384.177 158.227 384.006 157.203 384.134 156.264C384.262 155.283 384.71 154.515 385.478 153.96C386.289 153.363 387.398 153.064 388.806 153.064C389.958 153.064 390.897 153.341 391.622 153.896C392.347 154.408 392.987 155.411 393.542 156.904L401.094 176.104H399.046L406.918 156.84C407.515 155.389 408.177 154.408 408.902 153.896C409.627 153.341 410.63 153.064 411.91 153.064C413.019 153.064 413.894 153.363 414.534 153.96C415.217 154.515 415.622 155.261 415.75 156.2C415.921 157.139 415.75 158.163 415.238 159.272L405.382 181.608C404.827 182.973 404.081 183.976 403.142 184.616C402.246 185.256 401.137 185.576 399.814 185.576ZM436.899 185.704C433.187 185.704 429.987 185.043 427.299 183.72C424.654 182.355 422.606 180.456 421.155 178.024C419.747 175.549 419.043 172.648 419.043 169.32C419.043 166.077 419.726 163.24 421.091 160.808C422.457 158.333 424.355 156.413 426.787 155.048C429.262 153.64 432.057 152.936 435.171 152.936C437.433 152.936 439.481 153.32 441.315 154.088C443.15 154.813 444.729 155.88 446.051 157.288C447.374 158.653 448.377 160.339 449.059 162.344C449.742 164.307 450.083 166.504 450.083 168.936C450.083 169.747 449.827 170.365 449.315 170.792C448.803 171.176 448.057 171.368 447.075 171.368H426.979V166.376H443.107L442.083 167.272C442.083 165.523 441.827 164.072 441.315 162.92C440.803 161.725 440.057 160.829 439.075 160.232C438.137 159.635 436.963 159.336 435.555 159.336C433.977 159.336 432.633 159.699 431.523 160.424C430.414 161.149 429.561 162.195 428.963 163.56C428.366 164.925 428.067 166.568 428.067 168.488V169C428.067 172.243 428.814 174.632 430.307 176.168C431.843 177.704 434.105 178.472 437.091 178.472C438.115 178.472 439.289 178.344 440.611 178.088C441.934 177.832 443.171 177.427 444.323 176.872C445.305 176.403 446.179 176.253 446.947 176.424C447.715 176.552 448.313 176.893 448.739 177.448C449.166 178.003 449.401 178.643 449.443 179.368C449.529 180.093 449.379 180.819 448.995 181.544C448.611 182.227 447.971 182.803 447.075 183.272C445.625 184.083 443.982 184.68 442.147 185.064C440.355 185.491 438.606 185.704 436.899 185.704ZM461.337 185.576C459.715 185.576 458.478 185.149 457.625 184.296C456.771 183.443 456.345 182.227 456.345 180.648V157.928C456.345 156.349 456.75 155.155 457.561 154.344C458.414 153.491 459.587 153.064 461.081 153.064C462.617 153.064 463.79 153.491 464.601 154.344C465.411 155.155 465.817 156.349 465.817 157.928V161.256H465.177C465.689 158.696 466.819 156.712 468.569 155.304C470.318 153.896 472.579 153.107 475.353 152.936C476.419 152.851 477.23 153.128 477.785 153.768C478.382 154.365 478.702 155.368 478.745 156.776C478.83 158.099 478.553 159.144 477.913 159.912C477.315 160.68 476.291 161.149 474.841 161.32L473.369 161.448C470.937 161.661 469.123 162.365 467.929 163.56C466.777 164.755 466.201 166.483 466.201 168.744V180.648C466.201 182.227 465.774 183.443 464.921 184.296C464.11 185.149 462.915 185.576 461.337 185.576ZM495.079 185.704C493.202 185.704 491.26 185.533 489.255 185.192C487.292 184.851 485.5 184.275 483.879 183.464C483.026 183.037 482.407 182.504 482.023 181.864C481.682 181.181 481.532 180.499 481.575 179.816C481.618 179.133 481.831 178.515 482.215 177.96C482.642 177.405 483.175 177.043 483.815 176.872C484.498 176.659 485.244 176.723 486.055 177.064C487.804 177.789 489.404 178.301 490.855 178.6C492.306 178.899 493.735 179.048 495.143 179.048C496.978 179.048 498.3 178.771 499.111 178.216C499.964 177.619 500.391 176.851 500.391 175.912C500.391 175.059 500.114 174.419 499.559 173.992C499.004 173.565 498.194 173.267 497.127 173.096L490.407 171.88C487.762 171.411 485.714 170.451 484.263 169C482.855 167.507 482.151 165.608 482.151 163.304C482.151 161.171 482.748 159.336 483.943 157.8C485.138 156.221 486.78 155.027 488.871 154.216C491.004 153.363 493.415 152.936 496.103 152.936C498.023 152.936 499.794 153.107 501.415 153.448C503.036 153.789 504.594 154.344 506.087 155.112C506.855 155.496 507.388 156.008 507.687 156.648C508.028 157.288 508.135 157.949 508.007 158.632C507.922 159.315 507.666 159.933 507.239 160.488C506.812 161.043 506.258 161.405 505.575 161.576C504.935 161.747 504.188 161.661 503.335 161.32C501.97 160.68 500.711 160.232 499.559 159.976C498.407 159.677 497.298 159.528 496.231 159.528C494.311 159.528 492.924 159.848 492.071 160.488C491.218 161.085 490.791 161.853 490.791 162.792C490.791 163.517 491.026 164.136 491.495 164.648C492.007 165.117 492.775 165.437 493.799 165.608L500.519 166.824C503.292 167.293 505.404 168.232 506.855 169.64C508.306 171.005 509.031 172.883 509.031 175.272C509.031 178.515 507.751 181.075 505.191 182.952C502.674 184.787 499.303 185.704 495.079 185.704Z" fill="white"/>
<defs>
<filter id="filter0_b_213_4" x="-4" y="-4" width="668" height="210" filterUnits="userSpaceOnUse" color-interpolation-filters="sRGB">
<feFlood flood-opacity="0" result="BackgroundImageFix"/>
<feGaussianBlur in="BackgroundImageFix" stdDeviation="2"/>
<feComposite in2="SourceAlpha" operator="in" result="effect1_backgroundBlur_213_4"/>
<feBlend mode="normal" in="SourceGraphic" in2="effect1_backgroundBlur_213_4" result="shape"/>
</filter>
</defs>
</svg>
