<?xml version="1.0" encoding="UTF-8"?>
<!DOCTYPE svg PUBLIC "-//W3C//DTD SVG 1.1//EN" "http://www.w3.org/Graphics/SVG/1.1/DTD/svg11.dtd">
<svg xmlns="http://www.w3.org/2000/svg" version="1.1" width="1420px" height="176px" style="shape-rendering:geometricPrecision; text-rendering:geometricPrecision; image-rendering:optimizeQuality; fill-rule:evenodd; clip-rule:evenodd" xmlns:xlink="http://www.w3.org/1999/xlink">
<g><path style="opacity:0.593" fill="#62677e" d="M 406.5,20.5 C 405.791,19.596 404.791,19.2627 403.5,19.5C 398.833,19.5 394.167,19.5 389.5,19.5C 388.833,19.5 388.167,19.5 387.5,19.5C 386.833,19.5 386.5,19.8333 386.5,20.5C 385.957,20.44 385.624,20.1067 385.5,19.5C 392.833,18.1667 400.167,18.1667 407.5,19.5C 407.376,20.1067 407.043,20.44 406.5,20.5 Z"/></g>
<g><path style="opacity:0.852" fill="#0aa2a2" d="M 387.5,19.5 C 386.897,24.6186 387.564,29.2853 389.5,33.5C 389.5,33.8333 389.5,34.1667 389.5,34.5C 388.022,34.762 386.689,34.4287 385.5,33.5C 386.439,29.2351 386.772,24.9017 386.5,20.5C 386.5,19.8333 386.833,19.5 387.5,19.5 Z"/></g>
<g><path style="opacity:1" fill="#29fffe" d="M 387.5,19.5 C 388.167,19.5 388.833,19.5 389.5,19.5C 389.5,24.1667 389.5,28.8333 389.5,33.5C 387.564,29.2853 386.897,24.6186 387.5,19.5 Z"/></g>
<g><path style="opacity:0.998" fill="#f8fafa" d="M 389.5,19.5 C 394.167,19.5 398.833,19.5 403.5,19.5C 403.5,24.5 403.5,29.5 403.5,34.5C 398.833,34.5 394.167,34.5 389.5,34.5C 389.5,34.1667 389.5,33.8333 389.5,33.5C 389.5,28.8333 389.5,24.1667 389.5,19.5 Z"/></g>
<g><path style="opacity:0.982" fill="#d944d8" d="M 403.5,19.5 C 404.791,19.2627 405.791,19.596 406.5,20.5C 406.731,24.8645 407.064,29.0312 407.5,33C 406.437,34.1882 405.103,34.6882 403.5,34.5C 403.5,29.5 403.5,24.5 403.5,19.5 Z"/></g>
<g><path style="opacity:0.307" fill="#32686e" d="M 621.5,18.5 C 621.5,18.8333 621.5,19.1667 621.5,19.5C 616.5,19.5 611.5,19.5 606.5,19.5C 605.195,21.3972 604.529,23.7305 604.5,26.5C 604.529,29.2695 605.195,31.6028 606.5,33.5C 606.5,33.8333 606.5,34.1667 606.5,34.5C 605.5,34.5 604.5,34.5 603.5,34.5C 603.5,29.1667 603.5,23.8333 603.5,18.5C 609.5,18.5 615.5,18.5 621.5,18.5 Z"/></g>
<g><path style="opacity:1" fill="#0dfffe" d="M 606.5,19.5 C 606.5,24.1667 606.5,28.8333 606.5,33.5C 605.195,31.6028 604.529,29.2695 604.5,26.5C 604.529,23.7305 605.195,21.3972 606.5,19.5 Z"/></g>
<g><path style="opacity:1" fill="#f6f8fa" d="M 606.5,19.5 C 611.5,19.5 616.5,19.5 621.5,19.5C 621.5,24.1667 621.5,28.8333 621.5,33.5C 621.5,33.8333 621.5,34.1667 621.5,34.5C 616.5,34.5 611.5,34.5 606.5,34.5C 606.5,34.1667 606.5,33.8333 606.5,33.5C 606.5,28.8333 606.5,24.1667 606.5,19.5 Z"/></g>
<g><path style="opacity:0.93" fill="#ff02ff" d="M 621.5,19.5 C 622.805,21.3972 623.471,23.7305 623.5,26.5C 623.471,29.2695 622.805,31.6028 621.5,33.5C 621.5,28.8333 621.5,24.1667 621.5,19.5 Z"/></g>
<g><path style="opacity:0.347" fill="#7c007c" d="M 621.5,19.5 C 621.5,19.1667 621.5,18.8333 621.5,18.5C 622.5,18.5 623.5,18.5 624.5,18.5C 624.5,23.8333 624.5,29.1667 624.5,34.5C 623.5,34.5 622.5,34.5 621.5,34.5C 621.5,34.1667 621.5,33.8333 621.5,33.5C 622.805,31.6028 623.471,29.2695 623.5,26.5C 623.471,23.7305 622.805,21.3972 621.5,19.5 Z"/></g>
<g><path style="opacity:0.156" fill="#2c555b" d="M 930.5,18.5 C 930.5,18.8333 930.5,19.1667 930.5,19.5C 925.5,19.5 920.5,19.5 915.5,19.5C 913.564,23.7147 912.897,28.3814 913.5,33.5C 913.5,33.8333 913.5,34.1667 913.5,34.5C 912.512,29.3595 912.179,24.0262 912.5,18.5C 918.5,18.5 924.5,18.5 930.5,18.5 Z"/></g>
<g><path style="opacity:1" fill="#05fafa" d="M 915.5,19.5 C 916.103,24.6186 915.436,29.2853 913.5,33.5C 912.897,28.3814 913.564,23.7147 915.5,19.5 Z"/></g>
<g><path style="opacity:0.998" fill="#f4f9fa" d="M 915.5,19.5 C 920.5,19.5 925.5,19.5 930.5,19.5C 930.5,24.1667 930.5,28.8333 930.5,33.5C 930.5,33.8333 930.5,34.1667 930.5,34.5C 924.833,34.5 919.167,34.5 913.5,34.5C 913.5,34.1667 913.5,33.8333 913.5,33.5C 915.436,29.2853 916.103,24.6186 915.5,19.5 Z"/></g>
<g><path style="opacity:0.978" fill="#ff0fff" d="M 930.5,19.5 C 931.805,21.3972 932.471,23.7305 932.5,26.5C 932.471,29.2695 931.805,31.6028 930.5,33.5C 930.5,28.8333 930.5,24.1667 930.5,19.5 Z"/></g>
<g><path style="opacity:0.211" fill="#720172" d="M 930.5,19.5 C 930.5,19.1667 930.5,18.8333 930.5,18.5C 931.5,18.5 932.5,18.5 933.5,18.5C 933.5,23.8333 933.5,29.1667 933.5,34.5C 932.5,34.5 931.5,34.5 930.5,34.5C 930.5,34.1667 930.5,33.8333 930.5,33.5C 931.805,31.6028 932.471,29.2695 932.5,26.5C 932.471,23.7305 931.805,21.3972 930.5,19.5 Z"/></g>
<g><path style="opacity:0.715" fill="#4d6a73" d="M 1220.5,33.5 C 1220.5,33.8333 1220.5,34.1667 1220.5,34.5C 1215.5,34.5 1210.5,34.5 1205.5,34.5C 1203.51,59.478 1202.84,84.8113 1203.5,110.5C 1202.5,85.0054 1202.17,59.3388 1202.5,33.5C 1208.07,32.9968 1214.07,32.9968 1220.5,33.5 Z"/></g>
<g><path style="opacity:0.995" fill="#0ef5f5" d="M 1205.5,34.5 C 1205.33,59.8355 1205.5,85.1689 1206,110.5C 1211.04,115.369 1215.87,120.369 1220.5,125.5C 1213.97,121.645 1208.3,116.645 1203.5,110.5C 1202.84,84.8113 1203.51,59.478 1205.5,34.5 Z"/></g>
<g><path style="opacity:0.999" fill="#fcfdfe" d="M 1205.5,34.5 C 1210.5,34.5 1215.5,34.5 1220.5,34.5C 1220.5,39.1667 1220.5,43.8333 1220.5,48.5C 1236.66,49.4964 1252.99,49.8298 1269.5,49.5C 1274.5,54.1667 1279.5,58.8333 1284.5,63.5C 1284.67,79.1702 1284.5,94.8369 1284,110.5C 1278.96,115.369 1274.13,120.369 1269.5,125.5C 1253.17,125.5 1236.83,125.5 1220.5,125.5C 1215.87,120.369 1211.04,115.369 1206,110.5C 1205.5,85.1689 1205.33,59.8355 1205.5,34.5 Z M 1223.5,64.5 C 1237.83,64.5 1252.17,64.5 1266.5,64.5C 1266.5,79.5 1266.5,94.5 1266.5,109.5C 1252.17,109.5 1237.83,109.5 1223.5,109.5C 1224.63,94.4237 1224.63,79.4237 1223.5,64.5 Z"/></g>
<g><path style="opacity:0.948" fill="#fe18ff" d="M 1220.5,34.5 C 1222.44,38.7147 1223.1,43.3814 1222.5,48.5C 1221.83,48.5 1221.17,48.5 1220.5,48.5C 1220.5,43.8333 1220.5,39.1667 1220.5,34.5 Z"/></g>
<g><path style="opacity:0.215" fill="#6c136c" d="M 1220.5,34.5 C 1220.5,34.1667 1220.5,33.8333 1220.5,33.5C 1221.83,33.5 1223.17,33.5 1224.5,33.5C 1224.77,38.263 1224.44,42.9296 1223.5,47.5C 1223.5,48.1667 1223.17,48.5 1222.5,48.5C 1223.1,43.3814 1222.44,38.7147 1220.5,34.5 Z"/></g>
<g><path style="opacity:0.004" fill="#000000" d="M 1106.5,47.5 C 1107.39,46.2241 1108.39,46.2241 1109.5,47.5C 1108.77,48.087 1107.77,48.087 1106.5,47.5 Z"/></g>
<g><path style="opacity:0.004" fill="#000000" d="M 1198.5,48.5 C 1198.82,46.9519 1199.82,46.2852 1201.5,46.5C 1201.8,48.604 1201.47,50.604 1200.5,52.5C 1199.29,51.7261 1199.29,50.8928 1200.5,50C 1199.96,49.2828 1199.29,48.7828 1198.5,48.5 Z"/></g>
<g><path style="opacity:0.004" fill="#000000" d="M 430.5,47.5 C 431.598,48.6009 431.765,49.9343 431,51.5C 430.51,50.2068 430.343,48.8734 430.5,47.5 Z"/></g>
<g><path style="opacity:0.784" fill="#737b88" d="M 205.5,48.5 C 205.5,48.8333 205.5,49.1667 205.5,49.5C 184.167,49.5 162.833,49.5 141.5,49.5C 140.5,49.5 139.5,49.5 138.5,49.5C 138.918,48.7784 139.584,48.2784 140.5,48C 162.21,47.1888 183.876,47.3555 205.5,48.5 Z"/></g>
<g><path style="opacity:0.789" fill="#6f7885" d="M 283.5,48.5 C 283.5,48.8333 283.5,49.1667 283.5,49.5C 265.833,49.5 248.167,49.5 230.5,49.5C 229.5,49.5 228.5,49.5 227.5,49.5C 227.811,48.5222 228.478,47.8555 229.5,47.5C 247.368,47.1748 265.368,47.5082 283.5,48.5 Z"/></g>
<g><path style="opacity:0.797" fill="#737b88" d="M 425.5,48.5 C 425.5,48.8333 425.5,49.1667 425.5,49.5C 406.167,49.5 386.833,49.5 367.5,49.5C 366.833,49.5 366.167,49.5 365.5,49.5C 365.5,48.8333 365.833,48.5 366.5,48.5C 386.264,47.1748 405.931,47.1748 425.5,48.5 Z"/></g>
<g><path style="opacity:0.791" fill="#747b89" d="M 514.5,48.5 C 514.5,48.8333 514.5,49.1667 514.5,49.5C 488.5,49.5 462.5,49.5 436.5,49.5C 436.5,49.1667 436.5,48.8333 436.5,48.5C 462.402,47.1728 488.402,47.1728 514.5,48.5 Z"/></g>
<g><path style="opacity:0.033" fill="#27222a" d="M 517.5,48.5 C 518.488,53.6405 518.821,58.9738 518.5,64.5C 507.5,64.5 496.5,64.5 485.5,64.5C 485.5,64.1667 485.5,63.8333 485.5,63.5C 495.167,63.5 504.833,63.5 514.5,63.5C 515.5,63.5 516.5,63.5 517.5,63.5C 517.5,58.5 517.5,53.5 517.5,48.5 Z"/></g>
<g><path style="opacity:0.799" fill="#7b7b8d" d="M 643.5,48.5 C 643.5,48.8333 643.5,49.1667 643.5,49.5C 643.5,54.1667 643.5,58.8333 643.5,63.5C 643.5,63.8333 643.5,64.1667 643.5,64.5C 637.167,64.5 630.833,64.5 624.5,64.5C 624.5,64.1667 624.5,63.8333 624.5,63.5C 630.5,63.5 636.5,63.5 642.5,63.5C 642.5,58.8333 642.5,54.1667 642.5,49.5C 623.5,49.5 604.5,49.5 585.5,49.5C 584.833,49.5 584.167,49.5 583.5,49.5C 583.5,49.1667 583.5,48.8333 583.5,48.5C 603.5,47.1667 623.5,47.1667 643.5,48.5 Z"/></g>
<g><path style="opacity:0.787" fill="#717a87" d="M 732.5,48.5 C 732.5,48.8333 732.5,49.1667 732.5,49.5C 710.833,49.5 689.167,49.5 667.5,49.5C 666.5,49.5 665.5,49.5 664.5,49.5C 664.918,48.7784 665.584,48.2784 666.5,48C 688.543,47.1885 710.543,47.3551 732.5,48.5 Z"/></g>
<g><path style="opacity:0.789" fill="#747a88" d="M 814.5,48.5 C 832.693,47.1997 851.027,47.1997 869.5,48.5C 869.5,48.8333 869.5,49.1667 869.5,49.5C 851.833,49.5 834.167,49.5 816.5,49.5C 816.158,48.6618 815.492,48.3284 814.5,48.5 Z"/></g>
<g><path style="opacity:0.796" fill="#767888" d="M 952.5,48.5 C 952.5,48.8333 952.5,49.1667 952.5,49.5C 951.897,54.6186 952.564,59.2853 954.5,63.5C 947.687,64.4912 940.687,64.8245 933.5,64.5C 933.5,64.1667 933.5,63.8333 933.5,63.5C 939.5,63.5 945.5,63.5 951.5,63.5C 951.5,58.8333 951.5,54.1667 951.5,49.5C 932.5,49.5 913.5,49.5 894.5,49.5C 893.209,49.2627 892.209,49.596 891.5,50.5C 890.287,49.5029 890.454,48.5029 892,47.5C 911.787,47.2181 931.954,47.5515 952.5,48.5 Z"/></g>
<g><path style="opacity:0.032" fill="#010e0e" d="M 1020.5,48.5 C 1020.5,48.8333 1020.5,49.1667 1020.5,49.5C 1019.5,74.6612 1019.17,99.9945 1019.5,125.5C 1018.34,100.003 1018.17,74.3366 1019,48.5C 1019.69,47.2617 1020.19,47.2617 1020.5,48.5 Z"/></g>
<g><path style="opacity:0.788" fill="#717a86" d="M 1036.5,48.5 C 1032.03,49.4861 1027.36,49.8195 1022.5,49.5C 1021.83,49.5 1021.17,49.5 1020.5,49.5C 1020.5,49.1667 1020.5,48.8333 1020.5,48.5C 1025.69,47.4126 1031.02,47.4126 1036.5,48.5 Z"/></g>
<g><path style="opacity:0.781" fill="#737985" d="M 1128.5,48.5 C 1128.5,48.8333 1128.5,49.1667 1128.5,49.5C 1123.83,49.5 1119.17,49.5 1114.5,49.5C 1114.5,49.1667 1114.5,48.8333 1114.5,48.5C 1118.89,47.3223 1123.56,47.3223 1128.5,48.5 Z"/></g>
<g><path style="opacity:0.78" fill="#777b8b" d="M 1223.5,47.5 C 1238.7,47.1917 1254.04,47.5251 1269.5,48.5C 1269.5,48.8333 1269.5,49.1667 1269.5,49.5C 1252.99,49.8298 1236.66,49.4964 1220.5,48.5C 1221.17,48.5 1221.83,48.5 1222.5,48.5C 1223.17,48.5 1223.5,48.1667 1223.5,47.5 Z"/></g>
<g><path style="opacity:1" fill="#f9f9fa" d="M 141.5,49.5 C 162.833,49.5 184.167,49.5 205.5,49.5C 205.5,54.1667 205.5,58.8333 205.5,63.5C 185.167,63.5 164.833,63.5 144.5,63.5C 143.5,63.5 142.5,63.5 141.5,63.5C 141.5,68.8333 141.5,74.1667 141.5,79.5C 142.5,79.5 143.5,79.5 144.5,79.5C 161.265,78.1763 177.931,78.1763 194.5,79.5C 193.448,79.3505 192.448,79.5172 191.5,80C 196,84.5 200.5,89 205,93.5C 205.667,99.1667 205.667,104.833 205,110.5C 200.242,115.416 195.742,120.416 191.5,125.5C 170.167,125.5 148.833,125.5 127.5,125.5C 127.5,120.5 127.5,115.5 127.5,110.5C 147.833,110.5 168.167,110.5 188.5,110.5C 189.5,110.5 190.5,110.5 191.5,110.5C 191.5,105.167 191.5,99.8333 191.5,94.5C 190.5,94.5 189.5,94.5 188.5,94.5C 172.83,94.6666 157.163,94.4999 141.5,94C 137,89.5 132.5,85 128,80.5C 127.333,74.8333 127.333,69.1667 128,63.5C 132.703,58.9645 137.203,54.2979 141.5,49.5 Z"/></g>
<g><path style="opacity:1" fill="#fdfdfd" d="M 230.5,49.5 C 248.167,49.5 265.833,49.5 283.5,49.5C 287.833,54.5 292.5,59.1667 297.5,63.5C 297.667,79.1702 297.5,94.8369 297,110.5C 291.963,115.369 287.13,120.369 282.5,125.5C 265.167,125.5 247.833,125.5 230.5,125.5C 226.561,119.892 221.894,114.892 216.5,110.5C 216.333,94.8298 216.5,79.1631 217,63.5C 221.703,58.9645 226.203,54.2979 230.5,49.5 Z M 233.5,64.5 C 248.833,64.5 264.167,64.5 279.5,64.5C 279.5,79.5 279.5,94.5 279.5,109.5C 264.167,109.5 248.833,109.5 233.5,109.5C 234.833,94.5 234.833,79.5 233.5,64.5 Z"/></g>
<g><path style="opacity:0.945" fill="#cb31ca" d="M 283.5,48.5 C 285.433,48.7286 287.1,49.5619 288.5,51C 292.042,54.7052 295.376,58.5385 298.5,62.5C 297.833,62.5 297.5,62.8333 297.5,63.5C 292.5,59.1667 287.833,54.5 283.5,49.5C 283.5,49.1667 283.5,48.8333 283.5,48.5 Z"/></g>
<g><path style="opacity:1" fill="#16fefe" d="M 365.5,49.5 C 366.167,49.5 366.833,49.5 367.5,49.5C 367.5,54.1667 367.5,58.8333 367.5,63.5C 365.564,59.2853 364.897,54.6186 365.5,49.5 Z"/></g>
<g><path style="opacity:0.999" fill="#f9f8f9" d="M 367.5,49.5 C 386.833,49.5 406.167,49.5 425.5,49.5C 425.181,54.3633 425.514,59.03 426.5,63.5C 427.167,63.5 427.833,63.5 428.5,63.5C 421.352,64.4916 414.019,64.825 406.5,64.5C 406.44,63.9569 406.107,63.6236 405.5,63.5C 404.167,79.1667 404.167,94.8333 405.5,110.5C 406.107,110.376 406.44,110.043 406.5,109.5C 413.354,109.176 420.021,109.509 426.5,110.5C 425.513,115.305 425.179,120.305 425.5,125.5C 406.167,125.5 386.833,125.5 367.5,125.5C 367.5,125.167 367.5,124.833 367.5,124.5C 367.5,119.833 367.5,115.167 367.5,110.5C 373.833,110.5 380.167,110.5 386.5,110.5C 387.5,110.5 388.5,110.5 389.5,110.5C 389.5,94.8333 389.5,79.1667 389.5,63.5C 388.5,63.5 387.5,63.5 386.5,63.5C 380.167,63.5 373.833,63.5 367.5,63.5C 367.5,58.8333 367.5,54.1667 367.5,49.5 Z"/></g>
<g><path style="opacity:0.007" fill="#010001" d="M 428.5,49.5 C 431.167,53.5 431.167,57.5 428.5,61.5C 428.5,57.5 428.5,53.5 428.5,49.5 Z"/></g>
<g><path style="opacity:1" fill="#fbfbfb" d="M 436.5,49.5 C 462.5,49.5 488.5,49.5 514.5,49.5C 514.5,54.1667 514.5,58.8333 514.5,63.5C 504.833,63.5 495.167,63.5 485.5,63.5C 484.5,63.5 483.5,63.5 482.5,63.5C 482.5,84.1667 482.5,104.833 482.5,125.5C 477.833,125.5 473.167,125.5 468.5,125.5C 468.5,104.833 468.5,84.1667 468.5,63.5C 467.209,63.2627 466.209,63.596 465.5,64.5C 454.654,64.8278 443.987,64.4944 433.5,63.5C 434.5,63.5 435.5,63.5 436.5,63.5C 436.5,58.8333 436.5,54.1667 436.5,49.5 Z"/></g>
<g><path style="opacity:1" fill="#53f9f9" d="M 583.5,49.5 C 584.167,49.5 584.833,49.5 585.5,49.5C 585.5,54.1667 585.5,58.8333 585.5,63.5C 584.5,63.5 583.5,63.5 582.5,63.5C 582.181,58.6367 582.514,53.97 583.5,49.5 Z"/></g>
<g><path style="opacity:1" fill="#fefeff" d="M 585.5,49.5 C 604.5,49.5 623.5,49.5 642.5,49.5C 642.5,54.1667 642.5,58.8333 642.5,63.5C 636.5,63.5 630.5,63.5 624.5,63.5C 623.5,63.5 622.5,63.5 621.5,63.5C 621.5,79.1667 621.5,94.8333 621.5,110.5C 622.5,110.5 623.5,110.5 624.5,110.5C 630.5,110.5 636.5,110.5 642.5,110.5C 642.5,115.167 642.5,119.833 642.5,124.5C 623.5,124.5 604.5,124.5 585.5,124.5C 585.5,119.833 585.5,115.167 585.5,110.5C 591.833,110.5 598.167,110.5 604.5,110.5C 605.831,103.03 606.498,95.1963 606.5,87C 606.498,78.8037 605.831,70.9703 604.5,63.5C 598.167,63.5 591.833,63.5 585.5,63.5C 585.5,58.8333 585.5,54.1667 585.5,49.5 Z"/></g>
<g><path style="opacity:0.744" fill="#fc02fc" d="M 643.5,49.5 C 644.805,51.3972 645.471,53.7305 645.5,56.5C 645.471,59.2695 644.805,61.6028 643.5,63.5C 643.5,58.8333 643.5,54.1667 643.5,49.5 Z"/></g>
<g><path style="opacity:0.999" fill="#fcfcfd" d="M 667.5,49.5 C 689.167,49.5 710.833,49.5 732.5,49.5C 732.5,54.1667 732.5,58.8333 732.5,63.5C 711.833,63.5 691.167,63.5 670.5,63.5C 669.188,65.7432 668.522,68.4098 668.5,71.5C 668.522,74.5902 669.188,77.2568 670.5,79.5C 686.167,79.5 701.833,79.5 717.5,79.5C 722.167,84.8333 727.167,89.8333 732.5,94.5C 732.666,99.8437 732.499,105.177 732,110.5C 731.283,111.044 730.783,111.711 730.5,112.5C 725.833,116.5 721.5,120.833 717.5,125.5C 696.167,125.5 674.833,125.5 653.5,125.5C 653.5,120.5 653.5,115.5 653.5,110.5C 674.167,110.5 694.833,110.5 715.5,110.5C 716.812,108.257 717.478,105.59 717.5,102.5C 717.478,99.4098 716.812,96.7432 715.5,94.5C 699.833,94.5 684.167,94.5 668.5,94.5C 663.87,89.3687 659.037,84.3687 654,79.5C 653.333,74.1667 653.333,68.8333 654,63.5C 658.703,58.9645 663.203,54.2979 667.5,49.5 Z"/></g>
<g><path style="opacity:0.997" fill="#e000e0" d="M 732.5,49.5 C 733.833,49.5 734.5,50.1667 734.5,51.5C 735.226,55.6795 735.226,59.6795 734.5,63.5C 733.833,63.5 733.167,63.5 732.5,63.5C 732.5,58.8333 732.5,54.1667 732.5,49.5 Z"/></g>
<g><path style="opacity:0.043" fill="#570057" d="M 732.5,49.5 C 732.5,49.1667 732.5,48.8333 732.5,48.5C 733.5,48.5 734.5,48.5 735.5,48.5C 735.737,49.791 735.404,50.791 734.5,51.5C 734.5,50.1667 733.833,49.5 732.5,49.5 Z"/></g>
<g><path style="opacity:1" fill="#fdfcfe" d="M 816.5,49.5 C 834.167,49.5 851.833,49.5 869.5,49.5C 873.833,54.5 878.5,59.1667 883.5,63.5C 883.5,83.8333 883.5,104.167 883.5,124.5C 883.5,124.833 883.5,125.167 883.5,125.5C 878.833,125.5 874.167,125.5 869.5,125.5C 869.5,115.167 869.5,104.833 869.5,94.5C 868.5,94.5 867.5,94.5 866.5,94.5C 850.833,94.5 835.167,94.5 819.5,94.5C 817.525,104.446 816.858,114.779 817.5,125.5C 812.5,125.5 807.5,125.5 802.5,125.5C 802.333,104.831 802.5,84.164 803,63.5C 807.703,58.9645 812.203,54.2979 816.5,49.5 Z M 819.5,65.5 C 819.5,65.1667 819.5,64.8333 819.5,64.5C 834.833,64.5 850.167,64.5 865.5,64.5C 865.5,69.1667 865.5,73.8333 865.5,78.5C 850.5,78.5 835.5,78.5 820.5,78.5C 820.818,73.9677 820.485,69.6344 819.5,65.5 Z"/></g>
<g><path style="opacity:0.999" fill="#fcfdfd" d="M 894.5,49.5 C 913.5,49.5 932.5,49.5 951.5,49.5C 951.5,54.1667 951.5,58.8333 951.5,63.5C 945.5,63.5 939.5,63.5 933.5,63.5C 932.5,63.5 931.5,63.5 930.5,63.5C 930.5,79.1667 930.5,94.8333 930.5,110.5C 931.5,110.5 932.5,110.5 933.5,110.5C 939.5,110.5 945.5,110.5 951.5,110.5C 951.5,115.5 951.5,120.5 951.5,125.5C 932.5,125.5 913.5,125.5 894.5,125.5C 894.5,120.5 894.5,115.5 894.5,110.5C 900.833,110.5 907.167,110.5 913.5,110.5C 914.831,103.03 915.498,95.1963 915.5,87C 915.498,78.8037 914.831,70.9703 913.5,63.5C 907.167,63.5 900.833,63.5 894.5,63.5C 894.5,58.8333 894.5,54.1667 894.5,49.5 Z"/></g>
<g><path style="opacity:1" fill="#fa10fa" d="M 952.5,49.5 C 954.436,53.7147 955.103,58.3814 954.5,63.5C 952.564,59.2853 951.897,54.6186 952.5,49.5 Z"/></g>
<g><path style="opacity:0.157" fill="#530053" d="M 952.5,49.5 C 952.5,49.1667 952.5,48.8333 952.5,48.5C 953.5,48.5 954.5,48.5 955.5,48.5C 955.821,53.6946 955.487,58.6946 954.5,63.5C 955.103,58.3814 954.436,53.7147 952.5,49.5 Z"/></g>
<g><path style="opacity:0.999" fill="#fbfafc" d="M 1103.5,48.5 C 1103.5,73.8333 1103.5,99.1667 1103.5,124.5C 1103.5,124.833 1103.5,125.167 1103.5,125.5C 1098.83,125.5 1094.17,125.5 1089.5,125.5C 1089.83,114.986 1089.49,104.653 1088.5,94.5C 1087.83,94.5 1087.17,94.5 1086.5,94.5C 1070.83,94.5 1055.17,94.5 1039.5,94.5C 1037.52,104.446 1036.86,114.779 1037.5,125.5C 1032.5,125.5 1027.5,125.5 1022.5,125.5C 1022.5,125.167 1022.5,124.833 1022.5,124.5C 1022.5,99.5 1022.5,74.5 1022.5,49.5C 1027.36,49.8195 1032.03,49.4861 1036.5,48.5C 1036.83,48.5 1037.17,48.5 1037.5,48.5C 1036.86,59.2208 1037.52,69.5541 1039.5,79.5C 1055.17,79.5 1070.83,79.5 1086.5,79.5C 1087.5,79.5 1088.5,79.5 1089.5,79.5C 1089.5,69.5 1089.5,59.5 1089.5,49.5C 1088.5,49.5 1087.5,49.5 1086.5,49.5C 1086.5,49.1667 1086.5,48.8333 1086.5,48.5C 1092.32,47.3486 1097.98,47.3486 1103.5,48.5 Z"/></g>
<g><path style="opacity:1" fill="#51fcfc" d="M 1086.5,49.5 C 1087.5,49.5 1088.5,49.5 1089.5,49.5C 1089.5,59.5 1089.5,69.5 1089.5,79.5C 1088.5,79.5 1087.5,79.5 1086.5,79.5C 1086.5,69.5 1086.5,59.5 1086.5,49.5 Z"/></g>
<g><path style="opacity:0.204" fill="#fe1bfe" d="M 1103.5,48.5 C 1104.17,48.5 1104.83,48.5 1105.5,48.5C 1106.16,74.1887 1105.49,99.522 1103.5,124.5C 1103.5,99.1667 1103.5,73.8333 1103.5,48.5 Z"/></g>
<g><path style="opacity:0.999" fill="#fcfdfd" d="M 1114.5,49.5 C 1119.17,49.5 1123.83,49.5 1128.5,49.5C 1128.5,69.8333 1128.5,90.1667 1128.5,110.5C 1129.5,110.5 1130.5,110.5 1131.5,110.5C 1146.83,110.5 1162.17,110.5 1177.5,110.5C 1177.83,110.5 1178.17,110.5 1178.5,110.5C 1180.49,90.5275 1181.15,70.1941 1180.5,49.5C 1185.17,49.5 1189.83,49.5 1194.5,49.5C 1194.5,69.8333 1194.5,90.1667 1194.5,110.5C 1193.83,111.5 1193.17,112.5 1192.5,113.5C 1188.17,117.167 1184.17,121.167 1180.5,125.5C 1163.17,125.5 1145.83,125.5 1128.5,125.5C 1124.2,120.702 1119.7,116.035 1115,111.5C 1114.5,90.836 1114.33,70.1694 1114.5,49.5 Z"/></g>
<g><path style="opacity:0.046" fill="#1b161f" d="M 1177.5,109.5 C 1177.5,109.833 1177.5,110.167 1177.5,110.5C 1162.17,110.5 1146.83,110.5 1131.5,110.5C 1131.82,89.7577 1131.49,69.091 1130.5,48.5C 1130.81,47.2617 1131.31,47.2617 1132,48.5C 1132.5,68.8306 1132.67,89.1639 1132.5,109.5C 1147.5,109.5 1162.5,109.5 1177.5,109.5 Z"/></g>
<g><path style="opacity:1" fill="#09fffe" d="M 1180.5,49.5 C 1181.15,70.1941 1180.49,90.5275 1178.5,110.5C 1177.85,89.8059 1178.51,69.4725 1180.5,49.5 Z"/></g>
<g><path style="opacity:0.276" fill="#fd07fd" d="M 1195.5,49.5 C 1197.49,69.4725 1198.15,89.8059 1197.5,110.5C 1196.83,111.833 1195.83,112.833 1194.5,113.5C 1193.83,113.5 1193.17,113.5 1192.5,113.5C 1193.17,112.5 1193.83,111.5 1194.5,110.5C 1195.5,90.3402 1195.83,70.0069 1195.5,49.5 Z"/></g>
<g><path style="opacity:0.636" fill="#cd21cd" d="M 205.5,48.5 C 206.978,48.238 208.311,48.5713 209.5,49.5C 208.574,53.0938 208.241,56.7604 208.5,60.5C 208.5,61.5 208.5,62.5 208.5,63.5C 207.5,63.5 206.5,63.5 205.5,63.5C 205.5,58.8333 205.5,54.1667 205.5,49.5C 205.5,49.1667 205.5,48.8333 205.5,48.5 Z"/></g>
<g><path style="opacity:0.92" fill="#e267e2" d="M 428.5,49.5 C 426.564,53.7147 425.897,58.3814 426.5,63.5C 425.514,59.03 425.181,54.3633 425.5,49.5C 425.5,49.1667 425.5,48.8333 425.5,48.5C 426.496,48.5858 427.329,48.2524 428,47.5C 428.464,48.0944 428.631,48.7611 428.5,49.5 Z"/></g>
<g><path style="opacity:0.945" fill="#df00df" d="M 428.5,49.5 C 428.5,53.5 428.5,57.5 428.5,61.5C 428.5,62.1667 428.5,62.8333 428.5,63.5C 427.833,63.5 427.167,63.5 426.5,63.5C 425.897,58.3814 426.564,53.7147 428.5,49.5 Z"/></g>
<g><path style="opacity:1" fill="#41f3f3" d="M 436.5,48.5 C 436.5,48.8333 436.5,49.1667 436.5,49.5C 436.5,54.1667 436.5,58.8333 436.5,63.5C 435.5,63.5 434.5,63.5 433.5,63.5C 433.5,62.8333 433.5,62.1667 433.5,61.5C 433.5,58.8333 433.5,56.1667 433.5,53.5C 433.5,51.8333 433.5,50.1667 433.5,48.5C 434.5,48.5 435.5,48.5 436.5,48.5 Z"/></g>
<g><path style="opacity:0.598" fill="#dc31dc" d="M 514.5,48.5 C 515.5,48.5 516.5,48.5 517.5,48.5C 517.5,53.5 517.5,58.5 517.5,63.5C 516.5,63.5 515.5,63.5 514.5,63.5C 514.5,58.8333 514.5,54.1667 514.5,49.5C 514.5,49.1667 514.5,48.8333 514.5,48.5 Z"/></g>
<g><path style="opacity:0.135" fill="#4c034c" d="M 643.5,49.5 C 643.5,49.1667 643.5,48.8333 643.5,48.5C 644.5,48.5 645.5,48.5 646.5,48.5C 646.181,53.3633 646.514,58.03 647.5,62.5C 646.713,64.1042 645.38,64.7709 643.5,64.5C 643.5,64.1667 643.5,63.8333 643.5,63.5C 644.805,61.6028 645.471,59.2695 645.5,56.5C 645.471,53.7305 644.805,51.3972 643.5,49.5 Z"/></g>
<g><path style="opacity:1" fill="#41eded" d="M 894.5,49.5 C 894.5,54.1667 894.5,58.8333 894.5,63.5C 893.5,63.5 892.5,63.5 891.5,63.5C 891.5,59.1667 891.5,54.8333 891.5,50.5C 892.209,49.596 893.209,49.2627 894.5,49.5 Z"/></g>
<g><path style="opacity:0.88" fill="#00bbbb" d="M 1020.5,49.5 C 1019.84,74.8557 1020.51,99.8557 1022.5,124.5C 1022.5,124.833 1022.5,125.167 1022.5,125.5C 1021.5,125.5 1020.5,125.5 1019.5,125.5C 1019.17,99.9945 1019.5,74.6612 1020.5,49.5 Z"/></g>
<g><path style="opacity:1" fill="#26fffe" d="M 1020.5,49.5 C 1021.17,49.5 1021.83,49.5 1022.5,49.5C 1022.5,74.5 1022.5,99.5 1022.5,124.5C 1020.51,99.8557 1019.84,74.8557 1020.5,49.5 Z"/></g>
<g><path style="opacity:0.561" fill="#ec01ed" d="M 1037.5,48.5 C 1038.17,48.5 1038.83,48.5 1039.5,48.5C 1039.5,58.8333 1039.5,69.1667 1039.5,79.5C 1037.52,69.5541 1036.86,59.2208 1037.5,48.5 Z"/></g>
<g><path style="opacity:0.089" fill="#760e76" d="M 1106.5,47.5 C 1106.4,72.1544 1106.73,96.8211 1107.5,121.5C 1107.45,124.189 1106.12,125.523 1103.5,125.5C 1103.5,125.167 1103.5,124.833 1103.5,124.5C 1105.49,99.522 1106.16,74.1887 1105.5,48.5C 1105.5,47.8333 1105.83,47.5 1106.5,47.5 Z"/></g>
<g><path style="opacity:0.808" fill="#0c9595" d="M 1114.5,48.5 C 1114.5,48.8333 1114.5,49.1667 1114.5,49.5C 1112.51,69.8063 1111.84,90.473 1112.5,111.5C 1111.83,111.5 1111.5,111.167 1111.5,110.5C 1111.5,105.5 1111.5,100.5 1111.5,95.5C 1110.6,80.1751 1110.43,64.8417 1111,49.5C 1112.01,48.6634 1113.18,48.33 1114.5,48.5 Z"/></g>
<g><path style="opacity:0.978" fill="#5df9f9" d="M 1114.5,49.5 C 1114.33,70.1694 1114.5,90.836 1115,111.5C 1119.7,116.035 1124.2,120.702 1128.5,125.5C 1122.3,121.981 1116.97,117.314 1112.5,111.5C 1111.84,90.473 1112.51,69.8063 1114.5,49.5 Z"/></g>
<g><path style="opacity:0.919" fill="#eb40eb" d="M 1128.5,48.5 C 1129.17,48.5 1129.83,48.5 1130.5,48.5C 1131.49,69.091 1131.82,89.7577 1131.5,110.5C 1130.5,110.5 1129.5,110.5 1128.5,110.5C 1128.5,90.1667 1128.5,69.8333 1128.5,49.5C 1128.5,49.1667 1128.5,48.8333 1128.5,48.5 Z"/></g>
<g><path style="opacity:0.252" fill="#015d5d" d="M 1180.5,48.5 C 1180.5,48.8333 1180.5,49.1667 1180.5,49.5C 1178.51,69.4725 1177.85,89.8059 1178.5,110.5C 1178.17,110.5 1177.83,110.5 1177.5,110.5C 1177.5,110.167 1177.5,109.833 1177.5,109.5C 1177.33,88.8306 1177.5,68.164 1178,47.5C 1178.67,48.2524 1179.5,48.5858 1180.5,48.5 Z"/></g>
<g><path style="opacity:0.944" fill="#cebed3" d="M 1195.5,48.5 C 1195.5,48.8333 1195.5,49.1667 1195.5,49.5C 1195.83,70.0069 1195.5,90.3402 1194.5,110.5C 1194.5,90.1667 1194.5,69.8333 1194.5,49.5C 1189.83,49.5 1185.17,49.5 1180.5,49.5C 1180.5,49.1667 1180.5,48.8333 1180.5,48.5C 1185.6,47.2001 1190.6,47.2001 1195.5,48.5 Z"/></g>
<g><path style="opacity:0.09" fill="#540054" d="M 1198.5,48.5 C 1198.83,69.3401 1198.5,90.0067 1197.5,110.5C 1198.15,89.8059 1197.49,69.4725 1195.5,49.5C 1195.5,49.1667 1195.5,48.8333 1195.5,48.5C 1196.5,47.1667 1197.5,47.1667 1198.5,48.5 Z"/></g>
<g><path style="opacity:0.006" fill="#000000" d="M 433.5,53.5 C 433.5,56.1667 433.5,58.8333 433.5,61.5C 430.941,58.9102 430.941,56.2435 433.5,53.5 Z"/></g>
<g><path style="opacity:0.004" fill="#000000" d="M 1200.5,54.5 C 1201.64,57.6399 1201.81,60.9733 1201,64.5C 1200.5,61.1832 1200.33,57.8499 1200.5,54.5 Z"/></g>
<g><path style="opacity:0.004" fill="#000000" d="M 647.5,62.5 C 647.351,61.448 647.517,60.448 648,59.5C 648.74,60.7494 648.573,61.7494 647.5,62.5 Z"/></g>
<g><path style="opacity:0.302" fill="#43494d" d="M 208.5,60.5 C 209.249,61.531 209.915,62.6976 210.5,64C 188.503,64.5 166.503,64.6666 144.5,64.5C 144.5,64.1667 144.5,63.8333 144.5,63.5C 164.833,63.5 185.167,63.5 205.5,63.5C 206.5,63.5 207.5,63.5 208.5,63.5C 208.5,62.5 208.5,61.5 208.5,60.5 Z"/></g>
<g><path style="opacity:0.309" fill="#3a5c5c" d="M 366.5,48.5 C 365.833,48.5 365.5,48.8333 365.5,49.5C 364.897,54.6186 365.564,59.2853 367.5,63.5C 373.833,63.5 380.167,63.5 386.5,63.5C 386.5,63.8333 386.5,64.1667 386.5,64.5C 379.167,64.5 371.833,64.5 364.5,64.5C 364.171,58.7945 364.505,53.1278 365.5,47.5C 366.107,47.6236 366.44,47.9569 366.5,48.5 Z"/></g>
<g><path style="opacity:0.004" fill="#000000" d="M 430.5,63.5 C 431.833,64.1667 431.833,64.1667 430.5,63.5 Z"/></g>
<g><path style="opacity:1" fill="#2ae9e9" d="M 814.5,48.5 C 815.492,48.3284 816.158,48.6618 816.5,49.5C 812.203,54.2979 807.703,58.9645 803,63.5C 802.5,84.164 802.333,104.831 802.5,125.5C 801.5,125.5 800.5,125.5 799.5,125.5C 799.333,104.497 799.5,83.4974 800,62.5C 804.702,57.6301 809.535,52.9634 814.5,48.5 Z"/></g>
<g><path style="opacity:0.297" fill="#3e4f50" d="M 819.5,64.5 C 819.5,64.1667 819.5,63.8333 819.5,63.5C 835.167,63.5 850.833,63.5 866.5,63.5C 866.5,68.8333 866.5,74.1667 866.5,79.5C 866.167,79.5 865.833,79.5 865.5,79.5C 865.5,79.1667 865.5,78.8333 865.5,78.5C 865.5,73.8333 865.5,69.1667 865.5,64.5C 850.167,64.5 834.833,64.5 819.5,64.5 Z"/></g>
<g><path style="opacity:0.811" fill="#ff2aff" d="M 883.5,124.5 C 883.5,104.167 883.5,83.8333 883.5,63.5C 883.81,62.2617 884.31,62.2617 885,63.5C 885.167,73.6667 885.333,83.8333 885.5,94C 885.499,104.523 884.832,114.689 883.5,124.5 Z"/></g>
<g><path style="opacity:0.997" fill="#49c3c5" d="M 138.5,49.5 C 139.5,49.5 140.5,49.5 141.5,49.5C 137.203,54.2979 132.703,58.9645 128,63.5C 127.333,69.1667 127.333,74.8333 128,80.5C 132.5,85 137,89.5 141.5,94C 157.163,94.4999 172.83,94.6666 188.5,94.5C 188.5,94.8333 188.5,95.1667 188.5,95.5C 172.163,95.6666 155.83,95.4999 139.5,95C 134.468,89.6335 129.135,84.6335 123.5,80C 124.31,74.2488 124.81,68.4155 125,62.5C 129.369,57.9633 133.869,53.6299 138.5,49.5 Z"/></g>
<g><path style="opacity:0.78" fill="#e839e8" d="M 144.5,63.5 C 144.5,63.8333 144.5,64.1667 144.5,64.5C 144.852,69.5931 144.852,74.5931 144.5,79.5C 143.5,79.5 142.5,79.5 141.5,79.5C 141.5,74.1667 141.5,68.8333 141.5,63.5C 142.5,63.5 143.5,63.5 144.5,63.5 Z"/></g>
<g><path style="opacity:0.997" fill="#45f6f6" d="M 227.5,49.5 C 228.5,49.5 229.5,49.5 230.5,49.5C 226.203,54.2979 221.703,58.9645 217,63.5C 216.5,79.1631 216.333,94.8298 216.5,110.5C 215.169,103.03 214.502,95.1963 214.5,87C 214.529,78.4548 214.862,69.9548 215.5,61.5C 219.167,57.1667 223.167,53.1667 227.5,49.5 Z"/></g>
<g><path style="opacity:0.378" fill="#bc33bc" d="M 233.5,63.5 C 233.5,63.8333 233.5,64.1667 233.5,64.5C 234.833,79.5 234.833,94.5 233.5,109.5C 233.5,109.833 233.5,110.167 233.5,110.5C 232.5,110.5 231.5,110.5 230.5,110.5C 230.5,94.8333 230.5,79.1667 230.5,63.5C 231.5,63.5 232.5,63.5 233.5,63.5 Z"/></g>
<g><path style="opacity:1" fill="#06fffe" d="M 280.5,63.5 C 281.831,70.9703 282.498,78.8037 282.5,87C 282.498,95.1963 281.831,103.03 280.5,110.5C 280.5,94.8333 280.5,79.1667 280.5,63.5 Z"/></g>
<g><path style="opacity:0.951" fill="#d918d9" d="M 298.5,62.5 C 299.831,70.3049 300.498,78.4716 300.5,87C 300.167,95.1667 299.833,103.333 299.5,111.5C 294.833,115.5 290.5,119.833 286.5,124.5C 285.311,125.429 283.978,125.762 282.5,125.5C 287.13,120.369 291.963,115.369 297,110.5C 297.5,94.8369 297.667,79.1702 297.5,63.5C 297.5,62.8333 297.833,62.5 298.5,62.5 Z"/></g>
<g><path style="opacity:1" fill="#33f7f7" d="M 468.5,125.5 C 467.127,125.657 465.793,125.49 464.5,125C 465.493,104.909 465.827,84.7425 465.5,64.5C 466.209,63.596 467.209,63.2627 468.5,63.5C 468.5,84.1667 468.5,104.833 468.5,125.5 Z"/></g>
<g><path style="opacity:0.698" fill="#f03ff0" d="M 485.5,63.5 C 485.5,63.8333 485.5,64.1667 485.5,64.5C 485.5,84.8333 485.5,105.167 485.5,125.5C 484.5,125.5 483.5,125.5 482.5,125.5C 482.5,104.833 482.5,84.1667 482.5,63.5C 483.5,63.5 484.5,63.5 485.5,63.5 Z"/></g>
<g><path style="opacity:0.398" fill="#f013f2" d="M 819.5,63.5 C 819.5,63.8333 819.5,64.1667 819.5,64.5C 819.5,64.8333 819.5,65.1667 819.5,65.5C 819.5,70.1667 819.5,74.8333 819.5,79.5C 818.188,77.2568 817.522,74.5902 817.5,71.5C 817.522,68.4098 818.188,65.7432 819.5,63.5 Z"/></g>
<g><path style="opacity:0.996" fill="#59fffe" d="M 866.5,63.5 C 867.5,63.5 868.5,63.5 869.5,63.5C 869.5,68.8333 869.5,74.1667 869.5,79.5C 868.5,79.5 867.5,79.5 866.5,79.5C 866.5,74.1667 866.5,68.8333 866.5,63.5 Z"/></g>
<g><path style="opacity:0.998" fill="#f825f8" d="M 1286.5,111.5 C 1281.85,115.479 1277.52,119.812 1273.5,124.5C 1272.31,125.429 1270.98,125.762 1269.5,125.5C 1274.13,120.369 1278.96,115.369 1284,110.5C 1284.5,94.8369 1284.67,79.1702 1284.5,63.5C 1284.81,62.2617 1285.31,62.2617 1286,63.5C 1286.5,79.4965 1286.67,95.4965 1286.5,111.5 Z"/></g>
<g><path style="opacity:0.243" fill="#9c109d" d="M 1269.5,49.5 C 1269.5,49.1667 1269.5,48.8333 1269.5,48.5C 1270.87,48.3433 1272.21,48.51 1273.5,49C 1278,53.5 1282.5,58 1287,62.5C 1287.83,79.0052 1287.66,95.3385 1286.5,111.5C 1286.67,95.4965 1286.5,79.4965 1286,63.5C 1285.31,62.2617 1284.81,62.2617 1284.5,63.5C 1279.5,58.8333 1274.5,54.1667 1269.5,49.5 Z"/></g>
<g><path style="opacity:0.377" fill="#315a5d" d="M 233.5,64.5 C 233.5,64.1667 233.5,63.8333 233.5,63.5C 249.167,63.5 264.833,63.5 280.5,63.5C 280.5,79.1667 280.5,94.8333 280.5,110.5C 264.833,110.5 249.167,110.5 233.5,110.5C 233.5,110.167 233.5,109.833 233.5,109.5C 248.833,109.5 264.167,109.5 279.5,109.5C 279.5,94.5 279.5,79.5 279.5,64.5C 264.167,64.5 248.833,64.5 233.5,64.5 Z"/></g>
<g><path style="opacity:0.999" fill="#23ecec" d="M 386.5,63.5 C 387.5,63.5 388.5,63.5 389.5,63.5C 389.5,79.1667 389.5,94.8333 389.5,110.5C 388.5,110.5 387.5,110.5 386.5,110.5C 386.5,110.167 386.5,109.833 386.5,109.5C 386.5,94.5 386.5,79.5 386.5,64.5C 386.5,64.1667 386.5,63.8333 386.5,63.5 Z"/></g>
<g><path style="opacity:0.729" fill="#db07db" d="M 406.5,64.5 C 406.591,79.4986 406.591,94.4986 406.5,109.5C 406.44,110.043 406.107,110.376 405.5,110.5C 404.167,94.8333 404.167,79.1667 405.5,63.5C 406.107,63.6236 406.44,63.9569 406.5,64.5 Z"/></g>
<g><path style="opacity:0.234" fill="#1b4b4c" d="M 583.5,48.5 C 583.5,48.8333 583.5,49.1667 583.5,49.5C 582.514,53.97 582.181,58.6367 582.5,63.5C 583.5,63.5 584.5,63.5 585.5,63.5C 591.833,63.5 598.167,63.5 604.5,63.5C 604.5,79.1667 604.5,94.8333 604.5,110.5C 598.167,110.5 591.833,110.5 585.5,110.5C 584.5,110.5 583.5,110.5 582.5,110.5C 582.5,115.5 582.5,120.5 582.5,125.5C 581.512,120.36 581.179,115.026 581.5,109.5C 588.833,109.5 596.167,109.5 603.5,109.5C 603.5,94.5 603.5,79.5 603.5,64.5C 596.167,64.5 588.833,64.5 581.5,64.5C 581.334,59.1563 581.501,53.8229 582,48.5C 582.69,47.2617 583.19,47.2617 583.5,48.5 Z"/></g>
<g><path style="opacity:1" fill="#12fffe" d="M 604.5,63.5 C 605.831,70.9703 606.498,78.8037 606.5,87C 606.498,95.1963 605.831,103.03 604.5,110.5C 604.5,94.8333 604.5,79.1667 604.5,63.5 Z"/></g>
<g><path style="opacity:0.73" fill="#df08df" d="M 624.5,63.5 C 624.5,63.8333 624.5,64.1667 624.5,64.5C 624.5,79.5 624.5,94.5 624.5,109.5C 624.5,109.833 624.5,110.167 624.5,110.5C 623.5,110.5 622.5,110.5 621.5,110.5C 621.5,94.8333 621.5,79.1667 621.5,63.5C 622.5,63.5 623.5,63.5 624.5,63.5 Z"/></g>
<g><path style="opacity:0.962" fill="#fd29ff" d="M 670.5,63.5 C 670.5,68.8333 670.5,74.1667 670.5,79.5C 669.188,77.2568 668.522,74.5902 668.5,71.5C 668.522,68.4098 669.188,65.7432 670.5,63.5 Z"/></g>
<g><path style="opacity:0.108" fill="#4c2e50" d="M 670.5,63.5 C 691.167,63.5 711.833,63.5 732.5,63.5C 733.167,63.5 733.833,63.5 734.5,63.5C 713.673,64.4973 692.673,64.8306 671.5,64.5C 671.5,69.1667 671.5,73.8333 671.5,78.5C 687.009,78.1705 702.342,78.5038 717.5,79.5C 701.833,79.5 686.167,79.5 670.5,79.5C 670.5,74.1667 670.5,68.8333 670.5,63.5 Z"/></g>
<g><path style="opacity:0.344" fill="#a017a0" d="M 869.5,48.5 C 870.552,48.3505 871.552,48.5172 872.5,49C 877,53.5 881.5,58 886,62.5C 886.45,83.4905 886.95,104.324 887.5,125C 886.207,125.49 884.873,125.657 883.5,125.5C 883.5,125.167 883.5,124.833 883.5,124.5C 884.832,114.689 885.499,104.523 885.5,94C 885.333,83.8333 885.167,73.6667 885,63.5C 884.31,62.2617 883.81,62.2617 883.5,63.5C 878.5,59.1667 873.833,54.5 869.5,49.5C 869.5,49.1667 869.5,48.8333 869.5,48.5 Z"/></g>
<g><path style="opacity:0.15" fill="#1e4042" d="M 891.5,63.5 C 892.5,63.5 893.5,63.5 894.5,63.5C 900.833,63.5 907.167,63.5 913.5,63.5C 913.5,79.1667 913.5,94.8333 913.5,110.5C 907.167,110.5 900.833,110.5 894.5,110.5C 893.5,110.5 892.5,110.5 891.5,110.5C 898.313,109.509 905.313,109.175 912.5,109.5C 912.5,94.5 912.5,79.5 912.5,64.5C 904.14,64.8312 895.807,64.4979 887.5,63.5C 888.865,60.8753 890.198,60.8753 891.5,63.5 Z"/></g>
<g><path style="opacity:1" fill="#0dfafa" d="M 913.5,63.5 C 914.831,70.9703 915.498,78.8037 915.5,87C 915.498,95.1963 914.831,103.03 913.5,110.5C 913.5,94.8333 913.5,79.1667 913.5,63.5 Z"/></g>
<g><path style="opacity:0.952" fill="#db16dc" d="M 933.5,63.5 C 933.5,63.8333 933.5,64.1667 933.5,64.5C 933.5,79.5 933.5,94.5 933.5,109.5C 933.5,109.833 933.5,110.167 933.5,110.5C 932.5,110.5 931.5,110.5 930.5,110.5C 930.5,94.8333 930.5,79.1667 930.5,63.5C 931.5,63.5 932.5,63.5 933.5,63.5 Z"/></g>
<g><path style="opacity:0.989" fill="#bc1fbc" d="M 1223.5,63.5 C 1223.5,63.8333 1223.5,64.1667 1223.5,64.5C 1224.63,79.4237 1224.63,94.4237 1223.5,109.5C 1223.5,109.833 1223.5,110.167 1223.5,110.5C 1222.5,110.5 1221.5,110.5 1220.5,110.5C 1220.5,94.8333 1220.5,79.1667 1220.5,63.5C 1221.5,63.5 1222.5,63.5 1223.5,63.5 Z"/></g>
<g><path style="opacity:0.195" fill="#2b4b4e" d="M 1223.5,64.5 C 1223.5,64.1667 1223.5,63.8333 1223.5,63.5C 1238.17,63.5 1252.83,63.5 1267.5,63.5C 1267.5,79.1667 1267.5,94.8333 1267.5,110.5C 1252.83,110.5 1238.17,110.5 1223.5,110.5C 1223.5,110.167 1223.5,109.833 1223.5,109.5C 1237.83,109.5 1252.17,109.5 1266.5,109.5C 1266.5,94.5 1266.5,79.5 1266.5,64.5C 1252.17,64.5 1237.83,64.5 1223.5,64.5 Z"/></g>
<g><path style="opacity:1" fill="#12fffe" d="M 1267.5,63.5 C 1268.83,70.9703 1269.5,78.8037 1269.5,87C 1269.5,95.1963 1268.83,103.03 1267.5,110.5C 1267.5,94.8333 1267.5,79.1667 1267.5,63.5 Z"/></g>
<g><path style="opacity:0.004" fill="#000606" d="M 1111.5,95.5 C 1111.5,100.5 1111.5,105.5 1111.5,110.5C 1110.5,110.5 1109.5,110.5 1108.5,110.5C 1108.33,99.495 1108.5,88.495 1109,77.5C 1109.33,87.8333 1109.67,98.1667 1110,108.5C 1110.18,103.981 1110.68,99.6472 1111.5,95.5 Z"/></g>
<g><path style="opacity:0.004" fill="#000000" d="M 1200.5,77.5 C 1201.66,88.3255 1201.83,99.3255 1201,110.5C 1199.98,109.4 1199.48,108.067 1199.5,106.5C 1200.14,96.8106 1200.47,87.1439 1200.5,77.5 Z"/></g>
<g><path style="opacity:0.086" fill="#1a1a21" d="M 819.5,65.5 C 820.485,69.6344 820.818,73.9677 820.5,78.5C 835.5,78.5 850.5,78.5 865.5,78.5C 865.5,78.8333 865.5,79.1667 865.5,79.5C 850.167,79.5 834.833,79.5 819.5,79.5C 819.5,74.8333 819.5,70.1667 819.5,65.5 Z"/></g>
<g><path style="opacity:0.078" fill="#1e242c" d="M 1086.5,48.5 C 1086.5,48.8333 1086.5,49.1667 1086.5,49.5C 1086.5,59.5 1086.5,69.5 1086.5,79.5C 1070.83,79.5 1055.17,79.5 1039.5,79.5C 1039.5,69.1667 1039.5,58.8333 1039.5,48.5C 1040.49,58.3194 1040.83,68.3194 1040.5,78.5C 1055.5,78.5 1070.5,78.5 1085.5,78.5C 1085.17,67.7494 1085.5,57.7494 1086.5,48.5 Z"/></g>
<g><path style="opacity:1" fill="#2dcfcf" d="M 664.5,49.5 C 665.5,49.5 666.5,49.5 667.5,49.5C 663.203,54.2979 658.703,58.9645 654,63.5C 653.333,68.8333 653.333,74.1667 654,79.5C 659.037,84.3687 663.87,89.3687 668.5,94.5C 667.833,94.5 667.167,94.5 666.5,94.5C 660.925,90.4325 655.759,85.7659 651,80.5C 650.17,74.4724 650.336,68.4724 651.5,62.5C 655.881,58.1186 660.215,53.7853 664.5,49.5 Z"/></g>
<g><path style="opacity:0.498" fill="#b732b7" d="M 733.5,93.5 C 732.833,93.5 732.5,93.8333 732.5,94.5C 727.167,89.8333 722.167,84.8333 717.5,79.5C 718.423,78.6971 719.423,78.5304 720.5,79C 725.411,83.4062 729.745,88.2395 733.5,93.5 Z"/></g>
<g><path style="opacity:0.149" fill="#450f45" d="M 196.5,81.5 C 197.906,81.9731 198.573,82.9731 198.5,84.5C 197.094,84.0269 196.427,83.0269 196.5,81.5 Z"/></g>
<g><path style="opacity:0.169" fill="#450f44" d="M 199.5,84.5 C 200.906,84.9731 201.573,85.9731 201.5,87.5C 200.094,87.0269 199.427,86.0269 199.5,84.5 Z"/></g>
<g><path style="opacity:0.38" fill="#dc20dc" d="M 194.5,79.5 C 195.167,80.1667 195.833,80.8333 196.5,81.5C 196.427,83.0269 197.094,84.0269 198.5,84.5C 198.833,84.5 199.167,84.5 199.5,84.5C 199.427,86.0269 200.094,87.0269 201.5,87.5C 203.481,89.1436 205.481,90.8103 207.5,92.5C 208.413,98.4406 208.746,104.441 208.5,110.5C 203.698,116.645 198.031,121.645 191.5,125.5C 195.742,120.416 200.242,115.416 205,110.5C 205.667,104.833 205.667,99.1667 205,93.5C 200.5,89 196,84.5 191.5,80C 192.448,79.5172 193.448,79.3505 194.5,79.5 Z"/></g>
<g><path style="opacity:0.984" fill="#e609e6" d="M 733.5,93.5 C 734.289,93.7828 734.956,94.2828 735.5,95C 734.215,99.6229 734.215,104.29 735.5,109C 734.685,110.98 733.352,112.48 731.5,113.5C 731.5,112.833 731.167,112.5 730.5,112.5C 730.783,111.711 731.283,111.044 732,110.5C 732.499,105.177 732.666,99.8437 732.5,94.5C 732.5,93.8333 732.833,93.5 733.5,93.5 Z"/></g>
<g><path style="opacity:0.062" fill="#1b031b" d="M 207.5,92.5 C 208.117,92.6107 208.617,92.944 209,93.5C 209.818,99.3487 209.652,105.015 208.5,110.5C 208.746,104.441 208.413,98.4406 207.5,92.5 Z"/></g>
<g><path style="opacity:0.945" fill="#61eeee" d="M 188.5,94.5 C 189.5,94.5 190.5,94.5 191.5,94.5C 191.5,99.8333 191.5,105.167 191.5,110.5C 190.5,110.5 189.5,110.5 188.5,110.5C 188.5,110.167 188.5,109.833 188.5,109.5C 188.291,104.984 188.291,100.317 188.5,95.5C 188.5,95.1667 188.5,94.8333 188.5,94.5 Z"/></g>
<g><path style="opacity:0.797" fill="#b80bb8" d="M 819.5,94.5 C 819.5,94.8333 819.5,95.1667 819.5,95.5C 820.474,105.418 820.807,115.418 820.5,125.5C 819.5,125.5 818.5,125.5 817.5,125.5C 816.858,114.779 817.525,104.446 819.5,94.5 Z"/></g>
<g><path style="opacity:1" fill="#57fcfc" d="M 866.5,94.5 C 867.5,94.5 868.5,94.5 869.5,94.5C 869.5,104.833 869.5,115.167 869.5,125.5C 868.5,125.5 867.5,125.5 866.5,125.5C 866.5,115.167 866.5,104.833 866.5,94.5 Z"/></g>
<g><path style="opacity:0.66" fill="#b905ba" d="M 1039.5,94.5 C 1039.5,94.8333 1039.5,95.1667 1039.5,95.5C 1040.47,105.418 1040.81,115.418 1040.5,125.5C 1039.5,125.5 1038.5,125.5 1037.5,125.5C 1036.86,114.779 1037.52,104.446 1039.5,94.5 Z"/></g>
<g><path style="opacity:1" fill="#02fbfb" d="M 1086.5,94.5 C 1087.17,94.5 1087.83,94.5 1088.5,94.5C 1089.14,104.889 1088.47,114.889 1086.5,124.5C 1086.5,114.5 1086.5,104.5 1086.5,94.5 Z"/></g>
<g><path style="opacity:0.421" fill="#326067" d="M 666.5,94.5 C 667.167,94.5 667.833,94.5 668.5,94.5C 684.167,94.5 699.833,94.5 715.5,94.5C 715.5,99.8333 715.5,105.167 715.5,110.5C 694.833,110.5 674.167,110.5 653.5,110.5C 651.558,115.056 650.892,120.056 651.5,125.5C 650.549,124.081 650.216,122.415 650.5,120.5C 650.5,117.5 650.5,114.5 650.5,111.5C 671.474,109.511 692.807,108.844 714.5,109.5C 714.5,104.833 714.5,100.167 714.5,95.5C 698.325,95.8297 682.325,95.4964 666.5,94.5 Z"/></g>
<g><path style="opacity:0.965" fill="#18fffe" d="M 715.5,94.5 C 716.812,96.7432 717.478,99.4098 717.5,102.5C 717.478,105.59 716.812,108.257 715.5,110.5C 715.5,105.167 715.5,99.8333 715.5,94.5 Z"/></g>
<g><path style="opacity:0.134" fill="#1c4146" d="M 819.5,95.5 C 819.5,95.1667 819.5,94.8333 819.5,94.5C 835.167,94.5 850.833,94.5 866.5,94.5C 866.5,104.833 866.5,115.167 866.5,125.5C 865.506,115.681 865.173,105.681 865.5,95.5C 850.167,95.5 834.833,95.5 819.5,95.5 Z"/></g>
<g><path style="opacity:0.181" fill="#204d52" d="M 1039.5,95.5 C 1039.5,95.1667 1039.5,94.8333 1039.5,94.5C 1055.17,94.5 1070.83,94.5 1086.5,94.5C 1086.5,104.5 1086.5,114.5 1086.5,124.5C 1086.5,124.833 1086.5,125.167 1086.5,125.5C 1085.51,115.681 1085.17,105.681 1085.5,95.5C 1070.17,95.5 1054.83,95.5 1039.5,95.5 Z"/></g>
<g><path style="opacity:0.987" fill="#9bf8f8" d="M 1088.5,94.5 C 1089.49,104.653 1089.83,114.986 1089.5,125.5C 1088.5,125.5 1087.5,125.5 1086.5,125.5C 1086.5,125.167 1086.5,124.833 1086.5,124.5C 1088.47,114.889 1089.14,104.889 1088.5,94.5 Z"/></g>
<g><path style="opacity:0.238" fill="#30353f" d="M 188.5,109.5 C 188.5,109.833 188.5,110.167 188.5,110.5C 168.167,110.5 147.833,110.5 127.5,110.5C 126.5,110.5 125.5,110.5 124.5,110.5C 124.5,111.5 124.5,112.5 124.5,113.5C 122.348,112.923 122.015,111.756 123.5,110C 145.164,109.5 166.831,109.333 188.5,109.5 Z"/></g>
<g><path style="opacity:0.004" fill="#000000" d="M 888.5,109.5 C 889.525,109.897 889.692,110.563 889,111.5C 888.536,110.906 888.369,110.239 888.5,109.5 Z"/></g>
<g><path style="opacity:0.452" fill="#296a6e" d="M 386.5,109.5 C 386.5,109.833 386.5,110.167 386.5,110.5C 380.167,110.5 373.833,110.5 367.5,110.5C 366.195,112.397 365.529,114.731 365.5,117.5C 365.529,120.269 366.195,122.603 367.5,124.5C 367.5,124.833 367.5,125.167 367.5,125.5C 366.5,125.5 365.5,125.5 364.5,125.5C 364.5,120.167 364.5,114.833 364.5,109.5C 371.833,109.5 379.167,109.5 386.5,109.5 Z"/></g>
<g><path style="opacity:1" fill="#16fffe" d="M 367.5,110.5 C 367.5,115.167 367.5,119.833 367.5,124.5C 366.195,122.603 365.529,120.269 365.5,117.5C 365.529,114.731 366.195,112.397 367.5,110.5 Z"/></g>
<g><path style="opacity:0.897" fill="#dd34dd" d="M 425.5,125.5 C 425.179,120.305 425.513,115.305 426.5,110.5C 427.117,110.389 427.617,110.056 428,109.5C 428.499,114.823 428.666,120.156 428.5,125.5C 427.5,125.5 426.5,125.5 425.5,125.5 Z"/></g>
<g><path style="opacity:1" fill="#51f0f0" d="M 585.5,110.5 C 585.5,115.167 585.5,119.833 585.5,124.5C 585.5,124.833 585.5,125.167 585.5,125.5C 584.5,125.5 583.5,125.5 582.5,125.5C 582.5,120.5 582.5,115.5 582.5,110.5C 583.5,110.5 584.5,110.5 585.5,110.5 Z"/></g>
<g><path style="opacity:0.899" fill="#f703f7" d="M 643.5,110.5 C 645.442,115.056 646.108,120.056 645.5,125.5C 644.833,125.5 644.167,125.5 643.5,125.5C 643.5,120.5 643.5,115.5 643.5,110.5 Z"/></g>
<g><path style="opacity:0.151" fill="#441b46" d="M 624.5,110.5 C 624.5,110.167 624.5,109.833 624.5,109.5C 631.833,109.5 639.167,109.5 646.5,109.5C 646.179,114.695 646.513,119.695 647.5,124.5C 647.158,125.338 646.492,125.672 645.5,125.5C 646.108,120.056 645.442,115.056 643.5,110.5C 643.167,110.5 642.833,110.5 642.5,110.5C 636.5,110.5 630.5,110.5 624.5,110.5 Z"/></g>
<g><path style="opacity:1" fill="#11f9f9" d="M 653.5,110.5 C 653.5,115.5 653.5,120.5 653.5,125.5C 652.833,125.5 652.167,125.5 651.5,125.5C 650.892,120.056 651.558,115.056 653.5,110.5 Z"/></g>
<g><path style="opacity:0.994" fill="#5be7e7" d="M 891.5,110.5 C 892.5,110.5 893.5,110.5 894.5,110.5C 894.5,115.5 894.5,120.5 894.5,125.5C 893.127,125.657 891.793,125.49 890.5,125C 890.395,120.208 890.728,115.375 891.5,110.5 Z"/></g>
<g><path style="opacity:0.949" fill="#ac88b1" d="M 933.5,110.5 C 933.5,110.167 933.5,109.833 933.5,109.5C 940.687,109.175 947.687,109.509 954.5,110.5C 952.558,115.056 951.892,120.056 952.5,125.5C 952.167,125.5 951.833,125.5 951.5,125.5C 951.5,120.5 951.5,115.5 951.5,110.5C 945.5,110.5 939.5,110.5 933.5,110.5 Z"/></g>
<g><path style="opacity:1" fill="#c808c8" d="M 954.5,110.5 C 955.487,115.305 955.821,120.305 955.5,125.5C 954.5,125.5 953.5,125.5 952.5,125.5C 951.892,120.056 952.558,115.056 954.5,110.5 Z"/></g>
<g><path style="opacity:1" fill="#3ce1e1" d="M 127.5,110.5 C 127.5,115.5 127.5,120.5 127.5,125.5C 126.5,125.5 125.5,125.5 124.5,125.5C 124.5,121.5 124.5,117.5 124.5,113.5C 124.5,112.5 124.5,111.5 124.5,110.5C 125.5,110.5 126.5,110.5 127.5,110.5 Z"/></g>
<g><path style="opacity:0.007" fill="#000000" d="M 650.5,111.5 C 650.5,114.5 650.5,117.5 650.5,120.5C 648.859,118.797 647.859,116.63 647.5,114C 648.078,112.583 649.078,111.75 650.5,111.5 Z"/></g>
<g><path style="opacity:1" fill="#33c7c7" d="M 215.5,61.5 C 214.862,69.9548 214.529,78.4548 214.5,87C 214.502,95.1963 215.169,103.03 216.5,110.5C 221.894,114.892 226.561,119.892 230.5,125.5C 229.448,125.649 228.448,125.483 227.5,125C 222.318,119.985 217.318,114.819 212.5,109.5C 212.997,94.7484 212.997,80.0817 212.5,65.5C 212.754,63.5828 213.754,62.2495 215.5,61.5 Z"/></g>
<g><path style="opacity:0.875" fill="#b527b5" d="M 730.5,112.5 C 731.167,112.5 731.5,112.833 731.5,113.5C 728.321,119.354 723.654,123.354 717.5,125.5C 721.5,120.833 725.833,116.5 730.5,112.5 Z"/></g>
<g><path style="opacity:0.796" fill="#bf29bf" d="M 1192.5,113.5 C 1193.17,113.5 1193.83,113.5 1194.5,113.5C 1191.72,117.782 1188.39,121.616 1184.5,125C 1183.21,125.49 1181.87,125.657 1180.5,125.5C 1184.17,121.167 1188.17,117.167 1192.5,113.5 Z"/></g>
<g><path style="opacity:0.004" fill="#000000" d="M 888.5,122.5 C 889.525,122.897 889.692,123.563 889,124.5C 888.536,123.906 888.369,123.239 888.5,122.5 Z"/></g>
<g><path style="opacity:0.004" fill="#000000" d="M 647.5,124.5 C 647.897,123.475 648.563,123.308 649.5,124C 648.906,124.464 648.239,124.631 647.5,124.5 Z"/></g>
<g><path style="opacity:0.736" fill="#c4b6c4" d="M 642.5,110.5 C 642.833,110.5 643.167,110.5 643.5,110.5C 643.5,115.5 643.5,120.5 643.5,125.5C 624.167,125.5 604.833,125.5 585.5,125.5C 585.5,125.167 585.5,124.833 585.5,124.5C 604.5,124.5 623.5,124.5 642.5,124.5C 642.5,119.833 642.5,115.167 642.5,110.5 Z"/></g>
</svg>
