<?xml version="1.0" encoding="UTF-8"?>
<!DOCTYPE svg PUBLIC "-//W3C//DTD SVG 1.1//EN" "http://www.w3.org/Graphics/SVG/1.1/DTD/svg11.dtd">
<svg xmlns="http://www.w3.org/2000/svg" version="1.1" width="1260px" height="198px" style="shape-rendering:geometricPrecision; text-rendering:geometricPrecision; image-rendering:optimizeQuality; fill-rule:evenodd; clip-rule:evenodd" xmlns:xlink="http://www.w3.org/1999/xlink">
<g><path style="opacity:0.213" fill="#313238" d="M 278.5,34.5 C 285.344,33.1812 292.344,33.1812 299.5,34.5C 299.376,35.1067 299.043,35.44 298.5,35.5C 297.791,34.596 296.791,34.2627 295.5,34.5C 290.833,34.5 286.167,34.5 281.5,34.5C 280.833,34.5 280.167,34.5 279.5,34.5C 279.167,34.5 278.833,34.5 278.5,34.5 Z"/></g>
<g><path style="opacity:1" fill="#1afefe" d="M 279.5,34.5 C 280.167,34.5 280.833,34.5 281.5,34.5C 281.5,39.1667 281.5,43.8333 281.5,48.5C 279.564,44.2853 278.897,39.6186 279.5,34.5 Z"/></g>
<g><path style="opacity:0.999" fill="#fdfefe" d="M 281.5,34.5 C 286.167,34.5 290.833,34.5 295.5,34.5C 295.5,39.1667 295.5,43.8333 295.5,48.5C 290.833,48.5 286.167,48.5 281.5,48.5C 281.5,43.8333 281.5,39.1667 281.5,34.5 Z"/></g>
<g><path style="opacity:0.368" fill="#396b73" d="M 278.5,34.5 C 278.833,34.5 279.167,34.5 279.5,34.5C 278.897,39.6186 279.564,44.2853 281.5,48.5C 286.167,48.5 290.833,48.5 295.5,48.5C 296.5,48.5 297.5,48.5 298.5,48.5C 292.021,49.4907 285.354,49.824 278.5,49.5C 278.5,44.5 278.5,39.5 278.5,34.5 Z"/></g>
<g><path style="opacity:0.995" fill="#ee3fed" d="M 295.5,34.5 C 296.791,34.2627 297.791,34.596 298.5,35.5C 298.5,39.8333 298.5,44.1667 298.5,48.5C 297.5,48.5 296.5,48.5 295.5,48.5C 295.5,43.8333 295.5,39.1667 295.5,34.5 Z"/></g>
<g><path style="opacity:1" fill="#2cfffe" d="M 414.5,47.5 C 414.5,52.1667 414.5,56.8333 414.5,61.5C 413.195,59.6028 412.529,57.2695 412.5,54.5C 412.529,51.7305 413.195,49.3972 414.5,47.5 Z"/></g>
<g><path style="opacity:0.999" fill="#fefffe" d="M 414.5,47.5 C 419.167,47.5 423.833,47.5 428.5,47.5C 428.5,52.1667 428.5,56.8333 428.5,61.5C 423.833,61.5 419.167,61.5 414.5,61.5C 414.5,56.8333 414.5,52.1667 414.5,47.5 Z"/></g>
<g><path style="opacity:0.929" fill="#f22bf2" d="M 428.5,47.5 C 429.5,47.5 430.5,47.5 431.5,47.5C 431.5,52.1667 431.5,56.8333 431.5,61.5C 430.5,61.5 429.5,61.5 428.5,61.5C 428.5,56.8333 428.5,52.1667 428.5,47.5 Z"/></g>
<g><path style="opacity:0.408" fill="#355157" d="M 431.5,47.5 C 430.5,47.5 429.5,47.5 428.5,47.5C 423.833,47.5 419.167,47.5 414.5,47.5C 413.195,49.3972 412.529,51.7305 412.5,54.5C 412.529,57.2695 413.195,59.6028 414.5,61.5C 419.167,61.5 423.833,61.5 428.5,61.5C 429.5,61.5 430.5,61.5 431.5,61.5C 428.351,62.1651 425.018,62.4984 421.5,62.5C 417.651,62.6323 413.984,62.1323 410.5,61C 411.286,56.3003 411.619,51.6336 411.5,47C 418.346,46.1794 425.013,46.346 431.5,47.5 Z"/></g>
<g><path style="opacity:0.16" fill="#004c4c" d="M 1154.5,48.5 C 1154.18,73.9078 1154.51,99.2411 1155.5,124.5C 1154.17,112.185 1153.5,99.5181 1153.5,86.5C 1153.5,73.6622 1153.83,60.9955 1154.5,48.5 Z"/></g>
<g><path style="opacity:1" fill="#11f5f5" d="M 1154.5,48.5 C 1155.17,48.5 1155.83,48.5 1156.5,48.5C 1156.17,73.6722 1156.5,98.6722 1157.5,123.5C 1161.63,128.131 1165.96,132.631 1170.5,137C 1169.91,137.464 1169.24,137.631 1168.5,137.5C 1163.83,133.5 1159.5,129.167 1155.5,124.5C 1154.51,99.2411 1154.18,73.9078 1154.5,48.5 Z"/></g>
<g><path style="opacity:0.999" fill="#faf9fa" d="M 1170.5,48.5 C 1170.83,48.5 1171.17,48.5 1171.5,48.5C 1170.89,53.9443 1171.56,58.9443 1173.5,63.5C 1188.83,63.5 1204.17,63.5 1219.5,63.5C 1223.8,68.2979 1228.3,72.9645 1233,77.5C 1233.67,92.8333 1233.67,108.167 1233,123.5C 1228.5,128 1224,132.5 1219.5,137C 1220.09,137.464 1220.76,137.631 1221.5,137.5C 1203.83,138.833 1186.17,138.833 1168.5,137.5C 1169.24,137.631 1169.91,137.464 1170.5,137C 1165.96,132.631 1161.63,128.131 1157.5,123.5C 1157.5,98.8333 1157.5,74.1667 1157.5,49.5C 1162.03,49.8182 1166.37,49.4849 1170.5,48.5 Z M 1173.5,79.5 C 1173.5,79.1667 1173.5,78.8333 1173.5,78.5C 1187.83,78.5 1202.17,78.5 1216.5,78.5C 1216.39,93.2673 1216.39,107.934 1216.5,122.5C 1202.5,122.5 1188.5,122.5 1174.5,122.5C 1174.83,107.99 1174.5,93.6569 1173.5,79.5 Z"/></g>
<g><path style="opacity:0.571" fill="#f516f7" d="M 1171.5,48.5 C 1172.17,48.5 1172.83,48.5 1173.5,48.5C 1173.5,53.5 1173.5,58.5 1173.5,63.5C 1171.56,58.9443 1170.89,53.9443 1171.5,48.5 Z"/></g>
<g><path style="opacity:0.992" fill="#c3f7f8" d="M 1156.5,48.5 C 1161.17,48.5 1165.83,48.5 1170.5,48.5C 1166.37,49.4849 1162.03,49.8182 1157.5,49.5C 1157.5,74.1667 1157.5,98.8333 1157.5,123.5C 1156.5,98.6722 1156.17,73.6722 1156.5,48.5 Z"/></g>
<g><path style="opacity:0.004" fill="#000000" d="M 1061.5,61.5 C 1062.53,61.8966 1062.69,62.5632 1062,63.5C 1061.54,62.9056 1061.37,62.2389 1061.5,61.5 Z"/></g>
<g><path style="opacity:0.34" fill="#414f55" d="M 317.5,62.5 C 317.5,62.8333 317.5,63.1667 317.5,63.5C 298.5,63.5 279.5,63.5 260.5,63.5C 259.833,63.5 259.167,63.5 258.5,63.5C 257.523,66.2869 257.19,69.2869 257.5,72.5C 256.521,69.3752 256.187,66.0419 256.5,62.5C 276.833,62.5 297.167,62.5 317.5,62.5 Z"/></g>
<g><path style="opacity:0.34" fill="#50666e" d="M 404.5,62.5 C 404.5,62.8333 404.5,63.1667 404.5,63.5C 378.833,63.5 353.167,63.5 327.5,63.5C 326.195,65.3972 325.529,67.7305 325.5,70.5C 325.529,73.2695 326.195,75.6028 327.5,77.5C 337.167,77.5 346.833,77.5 356.5,77.5C 356.5,77.8333 356.5,78.1667 356.5,78.5C 356.167,78.5 355.833,78.5 355.5,78.5C 345.167,78.5 334.833,78.5 324.5,78.5C 324.5,73.1667 324.5,67.8333 324.5,62.5C 351.167,62.5 377.833,62.5 404.5,62.5 Z"/></g>
<g><path style="opacity:0.345" fill="#49575f" d="M 824.5,63.5 C 823.5,63.5 822.5,63.5 821.5,63.5C 800.833,63.5 780.167,63.5 759.5,63.5C 758.167,63.8333 756.833,64.1667 755.5,64.5C 755.611,63.8826 755.944,63.3826 756.5,63C 779.906,62.1727 802.573,62.3394 824.5,63.5 Z"/></g>
<g><path style="opacity:0.004" fill="#000000" d="M 826.5,62.5 C 827.376,62.3691 828.043,62.7025 828.5,63.5C 827.011,68.6459 826.344,68.3125 826.5,62.5 Z"/></g>
<g><path style="opacity:0.004" fill="#000000" d="M 1150.5,62.5 C 1152.08,63.0024 1152.58,64.0024 1152,65.5C 1150.96,64.7562 1150.46,63.7562 1150.5,62.5 Z"/></g>
<g><path style="opacity:0.34" fill="#4a4758" d="M 1173.5,48.5 C 1174.49,52.97 1174.82,57.6367 1174.5,62.5C 1190.68,62.1703 1206.68,62.5036 1222.5,63.5C 1221.5,63.5 1220.5,63.5 1219.5,63.5C 1204.17,63.5 1188.83,63.5 1173.5,63.5C 1173.5,58.5 1173.5,53.5 1173.5,48.5 Z"/></g>
<g><path style="opacity:0.999" fill="#f9f9fa" d="M 39.5,63.5 C 60.5,63.5 81.5,63.5 102.5,63.5C 102.5,68.1667 102.5,72.8333 102.5,77.5C 82.5,77.5 62.5,77.5 42.5,77.5C 41.5,77.5 40.5,77.5 39.5,77.5C 39.5,82.8333 39.5,88.1667 39.5,93.5C 40.791,93.7373 41.791,93.404 42.5,92.5C 58.6754,92.1703 74.6754,92.5036 90.5,93.5C 89.7611,93.369 89.0944,93.5357 88.5,94C 93,98.5 97.5,103 102,107.5C 102.667,112.833 102.667,118.167 102,123.5C 97.2967,128.035 92.7967,132.702 88.5,137.5C 67.5,137.5 46.5,137.5 25.5,137.5C 25.5,132.833 25.5,128.167 25.5,123.5C 45.5,123.5 65.5,123.5 85.5,123.5C 86.8117,121.257 87.4783,118.59 87.5,115.5C 87.1667,112.833 86.8333,110.167 86.5,107.5C 85.8933,107.624 85.56,107.957 85.5,108.5C 69.3246,108.83 53.3246,108.496 37.5,107.5C 38.2389,107.631 38.9056,107.464 39.5,107C 35,102.5 30.5,98 26,93.5C 25.3333,88.1667 25.3333,82.8333 26,77.5C 30.7033,72.9645 35.2033,68.2979 39.5,63.5 Z"/></g>
<g><path style="opacity:0.064" fill="#554662" d="M 37.5,63.5 C 59.9939,62.5025 82.6605,62.1692 105.5,62.5C 105.5,67.8333 105.5,73.1667 105.5,78.5C 84.5,78.5 63.5,78.5 42.5,78.5C 42.5,78.1667 42.5,77.8333 42.5,77.5C 62.5,77.5 82.5,77.5 102.5,77.5C 103.805,75.6028 104.471,73.2695 104.5,70.5C 104.471,67.7305 103.805,65.3972 102.5,63.5C 81.5,63.5 60.5,63.5 39.5,63.5C 38.8333,63.5 38.1667,63.5 37.5,63.5 Z"/></g>
<g><path style="opacity:1" fill="#f9f9fa" d="M 124.5,63.5 C 143.167,62.1667 161.833,62.1667 180.5,63.5C 178.972,63.5173 178.472,64.184 179,65.5C 183,69.5 187,73.5 191,77.5C 191.667,93.1667 191.667,108.833 191,124.5C 186.63,128.702 182.463,133.036 178.5,137.5C 161.167,137.5 143.833,137.5 126.5,137.5C 122.203,132.702 117.703,128.035 113,123.5C 112.333,108.167 112.333,92.8333 113,77.5C 117.5,73 122,68.5 126.5,64C 125.906,63.5357 125.239,63.369 124.5,63.5 Z M 129.5,78.5 C 144.5,78.5 159.5,78.5 174.5,78.5C 174.5,93.1667 174.5,107.833 174.5,122.5C 159.5,122.5 144.5,122.5 129.5,122.5C 130.751,107.599 130.751,92.9326 129.5,78.5 Z"/></g>
<g><path style="opacity:0.999" fill="#fcfdfe" d="M 260.5,63.5 C 279.5,63.5 298.5,63.5 317.5,63.5C 317.5,68.1667 317.5,72.8333 317.5,77.5C 317.5,77.8333 317.5,78.1667 317.5,78.5C 311.167,78.5 304.833,78.5 298.5,78.5C 297.811,77.2264 296.977,77.2264 296,78.5C 295.5,93.4963 295.333,108.496 295.5,123.5C 296.5,123.5 297.5,123.5 298.5,123.5C 304.5,123.5 310.5,123.5 316.5,123.5C 316.5,128.167 316.5,132.833 316.5,137.5C 297.833,137.5 279.167,137.5 260.5,137.5C 260.5,132.833 260.5,128.167 260.5,123.5C 266.833,123.5 273.167,123.5 279.5,123.5C 280.831,116.197 281.498,108.53 281.5,100.5C 281.498,92.4697 280.831,84.803 279.5,77.5C 273.167,77.5 266.833,77.5 260.5,77.5C 260.5,72.8333 260.5,68.1667 260.5,63.5 Z"/></g>
<g><path style="opacity:0.109" fill="#3a023a" d="M 317.5,63.5 C 317.5,63.1667 317.5,62.8333 317.5,62.5C 318.5,62.5 319.5,62.5 320.5,62.5C 320.5,67.8333 320.5,73.1667 320.5,78.5C 319.5,78.5 318.5,78.5 317.5,78.5C 317.5,78.1667 317.5,77.8333 317.5,77.5C 318.805,75.6028 319.471,73.2695 319.5,70.5C 319.471,67.7305 318.805,65.3972 317.5,63.5 Z"/></g>
<g><path style="opacity:0.004" fill="#000000" d="M 322.5,63.5 C 323.598,64.6009 323.765,65.9343 323,67.5C 322.51,66.2068 322.343,64.8734 322.5,63.5 Z"/></g>
<g><path style="opacity:1" fill="#fbfcfd" d="M 327.5,63.5 C 353.167,63.5 378.833,63.5 404.5,63.5C 403.897,68.6186 404.564,73.2853 406.5,77.5C 396.347,78.4942 386.014,78.8276 375.5,78.5C 374.811,77.2264 373.977,77.2264 373,78.5C 372.5,98.1638 372.333,117.831 372.5,137.5C 367.833,137.5 363.167,137.5 358.5,137.5C 359.155,117.139 358.488,97.1387 356.5,77.5C 346.833,77.5 337.167,77.5 327.5,77.5C 327.5,72.8333 327.5,68.1667 327.5,63.5 Z"/></g>
<g><path style="opacity:0.999" fill="#f8f8f9" d="M 515.5,63.5 C 515.5,68.5 515.5,73.5 515.5,78.5C 495.833,78.5 476.167,78.5 456.5,78.5C 456.167,78.5 455.833,78.5 455.5,78.5C 455.44,77.9569 455.107,77.6236 454.5,77.5C 454.167,80.1667 453.833,82.8333 453.5,85.5C 453.522,88.5902 454.188,91.2568 455.5,93.5C 470.833,93.5 486.167,93.5 501.5,93.5C 505.797,98.2979 510.297,102.965 515,107.5C 515.499,112.823 515.666,118.156 515.5,123.5C 511.37,128.131 507.037,132.631 502.5,137C 503.094,137.464 503.761,137.631 504.5,137.5C 481.264,138.827 458.597,138.827 436.5,137.5C 437.5,137.5 438.5,137.5 439.5,137.5C 439.5,132.833 439.5,128.167 439.5,123.5C 459.5,123.5 479.5,123.5 499.5,123.5C 500.812,121.257 501.478,118.59 501.5,115.5C 501.478,112.41 500.812,109.743 499.5,107.5C 483.833,107.5 468.167,107.5 452.5,107.5C 448.537,103.036 444.37,98.7022 440,94.5C 439.333,88.8333 439.333,83.1667 440,77.5C 444.473,73.027 448.973,68.527 453.5,64C 474.164,63.5 494.831,63.3334 515.5,63.5 Z"/></g>
<g><path style="opacity:0.999" fill="#f9f8f9" d="M 631.5,63.5 C 636.167,63.5 640.833,63.5 645.5,63.5C 645.5,83.5 645.5,103.5 645.5,123.5C 640.106,127.892 635.439,132.892 631.5,138.5C 614.658,138.83 597.992,138.497 581.5,137.5C 582.5,137.5 583.5,137.5 584.5,137.5C 584.5,132.833 584.5,128.167 584.5,123.5C 599.167,123.5 613.833,123.5 628.5,123.5C 629.5,123.5 630.5,123.5 631.5,123.5C 631.5,103.5 631.5,83.5 631.5,63.5 Z"/></g>
<g><path style="opacity:0.999" fill="#fdfeff" d="M 655.5,63.5 C 660.167,63.5 664.833,63.5 669.5,63.5C 668.845,83.8613 669.512,103.861 671.5,123.5C 671.833,123.5 672.167,123.5 672.5,123.5C 687.833,123.5 703.167,123.5 718.5,123.5C 720.488,103.861 721.155,83.8613 720.5,63.5C 725.167,63.5 729.833,63.5 734.5,63.5C 734.667,83.8361 734.5,104.169 734,124.5C 729.63,128.702 725.463,133.036 721.5,137.5C 704.163,137.667 686.83,137.5 669.5,137C 664.965,132.297 660.298,127.797 655.5,123.5C 655.5,103.5 655.5,83.5 655.5,63.5 Z"/></g>
<g><path style="opacity:0.999" fill="#fbfcfd" d="M 832.5,63.5 C 857.833,63.5 883.167,63.5 908.5,63.5C 908.5,68.1667 908.5,72.8333 908.5,77.5C 899.167,77.5 889.833,77.5 880.5,77.5C 879.5,77.5 878.5,77.5 877.5,77.5C 877.5,97.5 877.5,117.5 877.5,137.5C 872.833,137.5 868.167,137.5 863.5,137.5C 863.5,117.5 863.5,97.5 863.5,77.5C 862.209,77.2627 861.209,77.596 860.5,78.5C 849.986,78.8276 839.653,78.4942 829.5,77.5C 830.5,77.5 831.5,77.5 832.5,77.5C 832.5,72.8333 832.5,68.1667 832.5,63.5 Z"/></g>
<g><path style="opacity:0.999" fill="#fefeff" d="M 977.5,63.5 C 982.167,63.5 986.833,63.5 991.5,63.5C 991.5,73.5 991.5,83.5 991.5,93.5C 992.5,93.5 993.5,93.5 994.5,93.5C 1009.83,93.5 1025.17,93.5 1040.5,93.5C 1042.47,83.8893 1043.14,73.8893 1042.5,63.5C 1047.17,63.5 1051.83,63.5 1056.5,63.5C 1056.5,88.1667 1056.5,112.833 1056.5,137.5C 1051.83,137.5 1047.17,137.5 1042.5,137.5C 1043.14,127.111 1042.47,117.111 1040.5,107.5C 1025.17,107.5 1009.83,107.5 994.5,107.5C 993.5,107.5 992.5,107.5 991.5,107.5C 991.5,117.5 991.5,127.5 991.5,137.5C 986.833,137.5 982.167,137.5 977.5,137.5C 977.5,112.833 977.5,88.1667 977.5,63.5 Z"/></g>
<g><path style="opacity:0.998" fill="#fefeff" d="M 1067.5,63.5 C 1072.17,63.5 1076.83,63.5 1081.5,63.5C 1080.85,83.8613 1081.51,103.861 1083.5,123.5C 1083.83,123.5 1084.17,123.5 1084.5,123.5C 1099.83,123.5 1115.17,123.5 1130.5,123.5C 1132.49,103.861 1133.15,83.8613 1132.5,63.5C 1137.17,63.5 1141.83,63.5 1146.5,63.5C 1146.5,83.5 1146.5,103.5 1146.5,123.5C 1141.5,127.833 1136.83,132.5 1132.5,137.5C 1115.5,137.667 1098.5,137.5 1081.5,137C 1076.96,132.297 1072.3,127.797 1067.5,123.5C 1067.5,103.5 1067.5,83.5 1067.5,63.5 Z"/></g>
<g><path style="opacity:0.709" fill="#fb02fb" d="M 102.5,63.5 C 103.805,65.3972 104.471,67.7305 104.5,70.5C 104.471,73.2695 103.805,75.6028 102.5,77.5C 102.5,72.8333 102.5,68.1667 102.5,63.5 Z"/></g>
<g><path style="opacity:1" fill="#3ffefe" d="M 258.5,63.5 C 259.167,63.5 259.833,63.5 260.5,63.5C 260.5,68.1667 260.5,72.8333 260.5,77.5C 258.564,73.2853 257.897,68.6186 258.5,63.5 Z"/></g>
<g><path style="opacity:0.671" fill="#fe05fe" d="M 317.5,63.5 C 318.805,65.3972 319.471,67.7305 319.5,70.5C 319.471,73.2695 318.805,75.6028 317.5,77.5C 317.5,72.8333 317.5,68.1667 317.5,63.5 Z"/></g>
<g><path style="opacity:1" fill="#2dfefe" d="M 327.5,63.5 C 327.5,68.1667 327.5,72.8333 327.5,77.5C 326.195,75.6028 325.529,73.2695 325.5,70.5C 325.529,67.7305 326.195,65.3972 327.5,63.5 Z"/></g>
<g><path style="opacity:0.996" fill="#fb00fb" d="M 404.5,63.5 C 406.436,67.7147 407.103,72.3814 406.5,77.5C 404.564,73.2853 403.897,68.6186 404.5,63.5 Z"/></g>
<g><path style="opacity:0.106" fill="#1d363a" d="M 645.5,62.5 C 645.5,62.8333 645.5,63.1667 645.5,63.5C 640.833,63.5 636.167,63.5 631.5,63.5C 630.5,63.5 629.5,63.5 628.5,63.5C 628.5,83.5 628.5,103.5 628.5,123.5C 613.833,123.5 599.167,123.5 584.5,123.5C 583.5,123.5 582.5,123.5 581.5,123.5C 596.658,122.504 611.991,122.17 627.5,122.5C 627.5,102.5 627.5,82.5 627.5,62.5C 633.5,62.5 639.5,62.5 645.5,62.5 Z"/></g>
<g><path style="opacity:1" fill="#4bf8f8" d="M 631.5,63.5 C 631.5,83.5 631.5,103.5 631.5,123.5C 630.5,123.5 629.5,123.5 628.5,123.5C 628.5,103.5 628.5,83.5 628.5,63.5C 629.5,63.5 630.5,63.5 631.5,63.5 Z"/></g>
<g><path style="opacity:0.573" fill="#fe0bfe" d="M 645.5,63.5 C 647.488,83.1387 648.155,103.139 647.5,123.5C 646.833,123.5 646.167,123.5 645.5,123.5C 645.5,103.5 645.5,83.5 645.5,63.5 Z"/></g>
<g><path style="opacity:0.171" fill="#5c015c" d="M 645.5,63.5 C 645.5,63.1667 645.5,62.8333 645.5,62.5C 646.5,62.5 647.5,62.5 648.5,62.5C 648.831,83.3401 648.497,104.007 647.5,124.5C 647.5,124.167 647.5,123.833 647.5,123.5C 648.155,103.139 647.488,83.1387 645.5,63.5 Z"/></g>
<g><path style="opacity:0.248" fill="#226b6e" d="M 672.5,63.5 C 672.167,63.5 671.833,63.5 671.5,63.5C 670.833,63.5 670.167,63.5 669.5,63.5C 664.833,63.5 660.167,63.5 655.5,63.5C 653.512,83.1387 652.845,103.139 653.5,123.5C 653.5,123.833 653.5,124.167 653.5,124.5C 652.503,104.007 652.169,83.3401 652.5,62.5C 659.354,62.176 666.021,62.5093 672.5,63.5 Z"/></g>
<g><path style="opacity:0.999" fill="#1efefe" d="M 655.5,63.5 C 655.5,83.5 655.5,103.5 655.5,123.5C 654.833,123.5 654.167,123.5 653.5,123.5C 652.845,103.139 653.512,83.1387 655.5,63.5 Z"/></g>
<g><path style="opacity:0.973" fill="#ff4efe" d="M 669.5,63.5 C 670.167,63.5 670.833,63.5 671.5,63.5C 671.5,83.5 671.5,103.5 671.5,123.5C 669.512,103.861 668.845,83.8613 669.5,63.5 Z"/></g>
<g><path style="opacity:0.33" fill="#2d6064" d="M 734.5,62.5 C 734.5,62.8333 734.5,63.1667 734.5,63.5C 729.833,63.5 725.167,63.5 720.5,63.5C 718.512,83.1387 717.845,103.139 718.5,123.5C 703.167,123.5 687.833,123.5 672.5,123.5C 672.5,123.167 672.5,122.833 672.5,122.5C 687.5,122.5 702.5,122.5 717.5,122.5C 717.5,102.5 717.5,82.5 717.5,62.5C 723.167,62.5 728.833,62.5 734.5,62.5 Z"/></g>
<g><path style="opacity:1" fill="#1dfefe" d="M 720.5,63.5 C 721.155,83.8613 720.488,103.861 718.5,123.5C 717.845,103.139 718.512,83.1387 720.5,63.5 Z"/></g>
<g><path style="opacity:0.043" fill="#210021" d="M 734.5,63.5 C 734.5,63.1667 734.5,62.8333 734.5,62.5C 735.833,62.5 737.167,62.5 738.5,62.5C 738.83,83.0069 738.497,103.34 737.5,123.5C 737.5,103.5 737.5,83.5 737.5,63.5C 736.5,63.5 735.5,63.5 734.5,63.5 Z"/></g>
<g><path style="opacity:0.999" fill="#f8f8f9" d="M 759.5,63.5 C 780.167,63.5 800.833,63.5 821.5,63.5C 821.5,68.1667 821.5,72.8333 821.5,77.5C 822.5,77.5 823.5,77.5 824.5,77.5C 804.576,78.4992 783.909,78.8325 762.5,78.5C 761.791,77.596 760.791,77.2627 759.5,77.5C 759.5,82.8333 759.5,88.1667 759.5,93.5C 760.791,93.7373 761.791,93.404 762.5,92.5C 778.675,92.1703 794.675,92.5036 810.5,93.5C 809.448,93.3505 808.448,93.5172 807.5,94C 812.301,97.799 816.801,101.966 821,106.5C 821.667,112.5 821.667,118.5 821,124.5C 816.63,128.702 812.463,133.036 808.5,137.5C 787.5,137.5 766.5,137.5 745.5,137.5C 745.5,132.833 745.5,128.167 745.5,123.5C 765.5,123.5 785.5,123.5 805.5,123.5C 806.812,121.257 807.478,118.59 807.5,115.5C 807.478,112.41 806.812,109.743 805.5,107.5C 790.167,107.5 774.833,107.5 759.5,107.5C 755.521,102.854 751.188,98.521 746.5,94.5C 745.337,88.8625 745.17,83.1959 746,77.5C 750.703,72.9645 755.203,68.2979 759.5,63.5 Z"/></g>
<g><path style="opacity:1" fill="#25efef" d="M 829.5,63.5 C 830.5,63.5 831.5,63.5 832.5,63.5C 832.5,68.1667 832.5,72.8333 832.5,77.5C 831.5,77.5 830.5,77.5 829.5,77.5C 829.5,72.8333 829.5,68.1667 829.5,63.5 Z"/></g>
<g><path style="opacity:0.659" fill="#fa4af9" d="M 908.5,63.5 C 909.5,63.5 910.5,63.5 911.5,63.5C 911.5,68.1667 911.5,72.8333 911.5,77.5C 910.5,77.5 909.5,77.5 908.5,77.5C 908.5,72.8333 908.5,68.1667 908.5,63.5 Z"/></g>
<g><path style="opacity:0.079" fill="#443950" d="M 829.5,63.5 C 856.995,62.5021 884.662,62.1687 912.5,62.5C 912.5,67.8333 912.5,73.1667 912.5,78.5C 901.833,78.5 891.167,78.5 880.5,78.5C 880.5,78.1667 880.5,77.8333 880.5,77.5C 889.833,77.5 899.167,77.5 908.5,77.5C 909.5,77.5 910.5,77.5 911.5,77.5C 911.5,72.8333 911.5,68.1667 911.5,63.5C 910.5,63.5 909.5,63.5 908.5,63.5C 883.167,63.5 857.833,63.5 832.5,63.5C 831.5,63.5 830.5,63.5 829.5,63.5 Z"/></g>
<g><path style="opacity:0.371" fill="#2b6466" d="M 994.5,63.5 C 993.5,63.5 992.5,63.5 991.5,63.5C 986.833,63.5 982.167,63.5 977.5,63.5C 976.168,75.4814 975.501,87.8148 975.5,100.5C 975.501,113.185 976.168,125.519 977.5,137.5C 982.167,137.5 986.833,137.5 991.5,137.5C 991.833,137.5 992.167,137.5 992.5,137.5C 993.167,137.5 993.833,137.5 994.5,137.5C 988.021,138.491 981.354,138.824 974.5,138.5C 974.5,113.167 974.5,87.8333 974.5,62.5C 981.354,62.176 988.021,62.5093 994.5,63.5 Z"/></g>
<g><path style="opacity:1" fill="#21fefe" d="M 977.5,63.5 C 977.5,88.1667 977.5,112.833 977.5,137.5C 976.168,125.519 975.501,113.185 975.5,100.5C 975.501,87.8148 976.168,75.4814 977.5,63.5 Z"/></g>
<g><path style="opacity:1" fill="#25fefe" d="M 1042.5,63.5 C 1043.14,73.8893 1042.47,83.8893 1040.5,93.5C 1039.86,83.1107 1040.53,73.1107 1042.5,63.5 Z"/></g>
<g><path style="opacity:0.134" fill="#e932e9" d="M 1056.5,63.5 C 1057.5,63.5 1058.5,63.5 1059.5,63.5C 1059.54,88.3328 1059.54,112.999 1059.5,137.5C 1058.5,137.5 1057.5,137.5 1056.5,137.5C 1056.5,112.833 1056.5,88.1667 1056.5,63.5 Z"/></g>
<g><path style="opacity:1" fill="#49a8a9" d="M 1081.5,62.5 C 1081.5,62.8333 1081.5,63.1667 1081.5,63.5C 1076.83,63.5 1072.17,63.5 1067.5,63.5C 1066.17,73.1436 1065.5,83.1436 1065.5,93.5C 1065.5,103.856 1066.17,113.856 1067.5,123.5C 1072.3,127.797 1076.96,132.297 1081.5,137C 1098.5,137.5 1115.5,137.667 1132.5,137.5C 1133.17,137.5 1133.83,137.5 1134.5,137.5C 1116,138.662 1097.34,138.829 1078.5,138C 1074,133.5 1069.5,129 1065,124.5C 1064.5,103.836 1064.33,83.1694 1064.5,62.5C 1070.17,62.5 1075.83,62.5 1081.5,62.5 Z"/></g>
<g><path style="opacity:1" fill="#38fefe" d="M 1067.5,63.5 C 1067.5,83.5 1067.5,103.5 1067.5,123.5C 1066.17,113.856 1065.5,103.856 1065.5,93.5C 1065.5,83.1436 1066.17,73.1436 1067.5,63.5 Z"/></g>
<g><path style="opacity:0.622" fill="#fe15fe" d="M 1081.5,63.5 C 1083.49,83.1387 1084.15,103.139 1083.5,123.5C 1081.51,103.861 1080.85,83.8613 1081.5,63.5 Z"/></g>
<g><path style="opacity:0.216" fill="#710271" d="M 1081.5,63.5 C 1081.5,63.1667 1081.5,62.8333 1081.5,62.5C 1082.5,62.5 1083.5,62.5 1084.5,62.5C 1084.5,82.5 1084.5,102.5 1084.5,122.5C 1084.5,122.833 1084.5,123.167 1084.5,123.5C 1084.17,123.5 1083.83,123.5 1083.5,123.5C 1084.15,103.139 1083.49,83.1387 1081.5,63.5 Z"/></g>
<g><path style="opacity:0.204" fill="#fe15fe" d="M 1146.5,63.5 C 1148.49,83.1387 1149.15,103.139 1148.5,123.5C 1147.83,123.5 1147.17,123.5 1146.5,123.5C 1146.5,103.5 1146.5,83.5 1146.5,63.5 Z"/></g>
<g><path style="opacity:0.08" fill="#700170" d="M 1146.5,63.5 C 1146.5,63.1667 1146.5,62.8333 1146.5,62.5C 1147.5,62.5 1148.5,62.5 1149.5,62.5C 1149.83,83.3401 1149.5,104.007 1148.5,124.5C 1148.5,124.167 1148.5,123.833 1148.5,123.5C 1149.15,103.139 1148.49,83.1387 1146.5,63.5 Z"/></g>
<g><path style="opacity:0.081" fill="#4e004e" d="M 404.5,63.5 C 404.5,63.1667 404.5,62.8333 404.5,62.5C 405.5,62.5 406.5,62.5 407.5,62.5C 407.821,67.6946 407.487,72.6946 406.5,77.5C 407.103,72.3814 406.436,67.7147 404.5,63.5 Z"/></g>
<g><path style="opacity:0.707" fill="#d62ad6" d="M 515.5,63.5 C 516.5,63.5 517.5,63.5 518.5,63.5C 518.5,68.5 518.5,73.5 518.5,78.5C 517.5,78.5 516.5,78.5 515.5,78.5C 515.5,73.5 515.5,68.5 515.5,63.5 Z"/></g>
<g><path style="opacity:0.795" fill="#d503d5" d="M 671.5,63.5 C 671.833,63.5 672.167,63.5 672.5,63.5C 672.542,83.3454 672.542,103.012 672.5,122.5C 672.5,122.833 672.5,123.167 672.5,123.5C 672.167,123.5 671.833,123.5 671.5,123.5C 671.5,103.5 671.5,83.5 671.5,63.5 Z"/></g>
<g><path style="opacity:0.282" fill="#e638e6" d="M 734.5,63.5 C 735.5,63.5 736.5,63.5 737.5,63.5C 737.5,83.5 737.5,103.5 737.5,123.5C 733.167,128.5 728.5,133.167 723.5,137.5C 722.833,137.5 722.167,137.5 721.5,137.5C 725.463,133.036 729.63,128.702 734,124.5C 734.5,104.169 734.667,83.8361 734.5,63.5 Z"/></g>
<g><path style="opacity:0.826" fill="#f23ef2" d="M 821.5,63.5 C 822.5,63.5 823.5,63.5 824.5,63.5C 824.5,68.1667 824.5,72.8333 824.5,77.5C 823.5,77.5 822.5,77.5 821.5,77.5C 821.5,72.8333 821.5,68.1667 821.5,63.5 Z"/></g>
<g><path style="opacity:0.694" fill="#eb32eb" d="M 991.5,63.5 C 992.5,63.5 993.5,63.5 994.5,63.5C 994.5,73.1667 994.5,82.8333 994.5,92.5C 994.5,92.8333 994.5,93.1667 994.5,93.5C 993.5,93.5 992.5,93.5 991.5,93.5C 991.5,83.5 991.5,73.5 991.5,63.5 Z"/></g>
<g><path style="opacity:0.316" fill="#305658" d="M 1059.5,63.5 C 1058.5,63.5 1057.5,63.5 1056.5,63.5C 1051.83,63.5 1047.17,63.5 1042.5,63.5C 1040.53,73.1107 1039.86,83.1107 1040.5,93.5C 1025.17,93.5 1009.83,93.5 994.5,93.5C 994.5,93.1667 994.5,92.8333 994.5,92.5C 1009.5,92.5 1024.5,92.5 1039.5,92.5C 1039.5,82.5 1039.5,72.5 1039.5,62.5C 1046.35,62.176 1053.02,62.5093 1059.5,63.5 Z"/></g>
<g><path style="opacity:0.983" fill="#398487" d="M 1146.5,62.5 C 1146.5,62.8333 1146.5,63.1667 1146.5,63.5C 1141.83,63.5 1137.17,63.5 1132.5,63.5C 1130.51,83.1387 1129.85,103.139 1130.5,123.5C 1115.17,123.5 1099.83,123.5 1084.5,123.5C 1084.5,123.167 1084.5,122.833 1084.5,122.5C 1099.5,122.5 1114.5,122.5 1129.5,122.5C 1129.06,102.524 1129.06,82.5236 1129.5,62.5C 1135.17,62.5 1140.83,62.5 1146.5,62.5 Z"/></g>
<g><path style="opacity:0.991" fill="#4cfefe" d="M 1132.5,63.5 C 1133.15,83.8613 1132.49,103.861 1130.5,123.5C 1129.85,103.139 1130.51,83.1387 1132.5,63.5 Z"/></g>
<g><path style="opacity:0.004" fill="#000000" d="M 649.5,67.5 C 651.465,67.9483 651.798,68.9483 650.5,70.5C 649.614,69.675 649.281,68.675 649.5,67.5 Z"/></g>
<g><path style="opacity:0.004" fill="#000000" d="M 1061.5,70.5 C 1062.61,71.9464 1062.78,73.6131 1062,75.5C 1061.51,73.8659 1061.34,72.1992 1061.5,70.5 Z"/></g>
<g><path style="opacity:0.004" fill="#000000" d="M 826.5,73.5 C 827.598,74.6009 827.765,75.9343 827,77.5C 826.51,76.2068 826.343,74.8734 826.5,73.5 Z"/></g>
<g><path style="opacity:1" fill="#1edddd" d="M 124.5,63.5 C 125.239,63.369 125.906,63.5357 126.5,64C 122,68.5 117.5,73 113,77.5C 112.333,92.8333 112.333,108.167 113,123.5C 117.703,128.035 122.203,132.702 126.5,137.5C 125.167,137.167 123.833,136.833 122.5,136.5C 118.557,132.295 114.39,128.295 110,124.5C 109.167,108.49 109.334,92.4896 110.5,76.5C 115.187,72.1449 119.854,67.8115 124.5,63.5 Z"/></g>
<g><path style="opacity:0.387" fill="#056a6a" d="M 24.5,76.5 C 23.5447,82.4093 23.2114,88.4093 23.5,94.5C 22.7109,94.2172 22.0442,93.7172 21.5,93C 21.8224,87.1549 22.8224,81.6549 24.5,76.5 Z"/></g>
<g><path style="opacity:1" fill="#3adfdf" d="M 37.5,63.5 C 38.1667,63.5 38.8333,63.5 39.5,63.5C 35.2033,68.2979 30.7033,72.9645 26,77.5C 25.3333,82.8333 25.3333,88.1667 26,93.5C 30.5,98 35,102.5 39.5,107C 38.9056,107.464 38.2389,107.631 37.5,107.5C 32.226,103.895 27.5593,99.562 23.5,94.5C 23.2114,88.4093 23.5447,82.4093 24.5,76.5C 28.1939,71.4728 32.5272,67.1395 37.5,63.5 Z"/></g>
<g><path style="opacity:0.182" fill="#d133d2" d="M 42.5,77.5 C 42.5,77.8333 42.5,78.1667 42.5,78.5C 42.7916,83.291 42.7916,87.9576 42.5,92.5C 41.791,93.404 40.791,93.7373 39.5,93.5C 39.5,88.1667 39.5,82.8333 39.5,77.5C 40.5,77.5 41.5,77.5 42.5,77.5 Z"/></g>
<g><path style="opacity:0.404" fill="#b01ab0" d="M 129.5,78.5 C 130.751,92.9326 130.751,107.599 129.5,122.5C 129.5,122.833 129.5,123.167 129.5,123.5C 128.833,123.5 128.167,123.5 127.5,123.5C 126.85,108.129 127.516,93.1294 129.5,78.5 Z"/></g>
<g><path style="opacity:0.963" fill="#e335e2" d="M 180.5,63.5 C 185.131,67.6299 189.631,71.9633 194,76.5C 194.667,92.5 194.667,108.5 194,124.5C 189.574,129.434 184.74,133.767 179.5,137.5C 179.167,137.5 178.833,137.5 178.5,137.5C 182.463,133.036 186.63,128.702 191,124.5C 191.667,108.833 191.667,93.1667 191,77.5C 187,73.5 183,69.5 179,65.5C 178.472,64.184 178.972,63.5173 180.5,63.5 Z"/></g>
<g><path style="opacity:0.809" fill="#ed42ed" d="M 298.5,78.5 C 298.5,93.1667 298.5,107.833 298.5,122.5C 298.5,122.833 298.5,123.167 298.5,123.5C 297.5,123.5 296.5,123.5 295.5,123.5C 295.333,108.496 295.5,93.4963 296,78.5C 296.977,77.2264 297.811,77.2264 298.5,78.5 Z"/></g>
<g><path style="opacity:0.35" fill="#236364" d="M 355.5,78.5 C 355.833,78.5 356.167,78.5 356.5,78.5C 355.846,98.5284 356.512,118.195 358.5,137.5C 363.167,137.5 367.833,137.5 372.5,137.5C 373.5,137.5 374.5,137.5 375.5,137.5C 372.351,138.165 369.018,138.498 365.5,138.5C 361.651,138.632 357.984,138.132 354.5,137C 355.493,117.576 355.826,98.0761 355.5,78.5 Z"/></g>
<g><path style="opacity:0.747" fill="#dc00dc" d="M 880.5,78.5 C 880.5,98.1667 880.5,117.833 880.5,137.5C 879.833,137.5 879.167,137.5 878.5,137.5C 877.846,117.472 878.512,97.8049 880.5,78.5 Z"/></g>
<g><path style="opacity:1" fill="#07bdbd" d="M 1216.5,78.5 C 1217.5,93.324 1217.83,108.324 1217.5,123.5C 1217.17,123.5 1216.83,123.5 1216.5,123.5C 1216.5,123.167 1216.5,122.833 1216.5,122.5C 1216.39,107.934 1216.39,93.2673 1216.5,78.5 Z"/></g>
<g><path style="opacity:0.783" fill="#fc7efe" d="M 129.5,78.5 C 127.516,93.1294 126.85,108.129 127.5,123.5C 126.504,108.342 126.17,93.0091 126.5,77.5C 127.791,77.2627 128.791,77.596 129.5,78.5 Z"/></g>
<g><path style="opacity:1" fill="#21fefe" d="M 174.5,78.5 C 175.209,77.596 176.209,77.2627 177.5,77.5C 178.151,93.2031 177.484,108.536 175.5,123.5C 175.829,108.324 175.496,93.324 174.5,78.5 Z"/></g>
<g><path style="opacity:0.357" fill="#2f6e72" d="M 258.5,63.5 C 257.897,68.6186 258.564,73.2853 260.5,77.5C 266.833,77.5 273.167,77.5 279.5,77.5C 279.5,92.8333 279.5,108.167 279.5,123.5C 273.167,123.5 266.833,123.5 260.5,123.5C 259.5,123.5 258.5,123.5 257.5,123.5C 263.742,122.501 270.742,122.167 278.5,122.5C 278.5,107.833 278.5,93.1667 278.5,78.5C 271.492,78.6663 264.492,78.4996 257.5,78C 257.146,76.3745 257.146,74.5412 257.5,72.5C 257.19,69.2869 257.523,66.2869 258.5,63.5 Z"/></g>
<g><path style="opacity:1" fill="#20fffe" d="M 279.5,77.5 C 280.831,84.803 281.498,92.4697 281.5,100.5C 281.498,108.53 280.831,116.197 279.5,123.5C 279.5,108.167 279.5,92.8333 279.5,77.5 Z"/></g>
<g><path style="opacity:1" fill="#0cfffe" d="M 356.5,77.5 C 358.488,97.1387 359.155,117.139 358.5,137.5C 356.512,118.195 355.846,98.5284 356.5,78.5C 356.5,78.1667 356.5,77.8333 356.5,77.5 Z"/></g>
<g><path style="opacity:0.739" fill="#cb3dcb" d="M 375.5,78.5 C 376.745,98.4298 376.745,118.096 375.5,137.5C 374.5,137.5 373.5,137.5 372.5,137.5C 372.333,117.831 372.5,98.1638 373,78.5C 373.977,77.2264 374.811,77.2264 375.5,78.5 Z"/></g>
<g><path style="opacity:0.985" fill="#57bec0" d="M 518.5,63.5 C 517.5,63.5 516.5,63.5 515.5,63.5C 494.831,63.3334 474.164,63.5 453.5,64C 448.973,68.527 444.473,73.027 440,77.5C 439.333,83.1667 439.333,88.8333 440,94.5C 444.37,98.7022 448.537,103.036 452.5,107.5C 451.833,107.5 451.167,107.5 450.5,107.5C 445.869,103.37 441.369,99.0367 437,94.5C 436.333,88.5 436.333,82.5 437,76.5C 441.5,72 446,67.5 450.5,63C 473.906,62.1727 496.573,62.3394 518.5,63.5 Z"/></g>
<g><path style="opacity:0.39" fill="#fc2bff" d="M 455.5,78.5 C 455.5,83.5 455.5,88.5 455.5,93.5C 454.188,91.2568 453.522,88.5902 453.5,85.5C 453.833,82.8333 454.167,80.1667 454.5,77.5C 455.107,77.6236 455.44,77.9569 455.5,78.5 Z"/></g>
<g><path style="opacity:0.358" fill="#e12ae3" d="M 762.5,78.5 C 761.296,83.1561 761.296,87.8228 762.5,92.5C 761.791,93.404 760.791,93.7373 759.5,93.5C 759.5,88.1667 759.5,82.8333 759.5,77.5C 760.791,77.2627 761.791,77.596 762.5,78.5 Z"/></g>
<g><path style="opacity:1" fill="#2efefe" d="M 860.5,78.5 C 861.209,77.596 862.209,77.2627 863.5,77.5C 863.5,97.5 863.5,117.5 863.5,137.5C 861.837,118.021 860.837,98.3546 860.5,78.5 Z"/></g>
<g><path style="opacity:0.88" fill="#fd76fe" d="M 880.5,77.5 C 880.5,77.8333 880.5,78.1667 880.5,78.5C 878.512,97.8049 877.846,117.472 878.5,137.5C 878.167,137.5 877.833,137.5 877.5,137.5C 877.5,117.5 877.5,97.5 877.5,77.5C 878.5,77.5 879.5,77.5 880.5,77.5 Z"/></g>
<g><path style="opacity:0.748" fill="#fd0ffe" d="M 1173.5,78.5 C 1173.5,78.8333 1173.5,79.1667 1173.5,79.5C 1173.5,94.1667 1173.5,108.833 1173.5,123.5C 1172.17,116.197 1171.5,108.53 1171.5,100.5C 1171.83,92.8333 1172.17,85.1667 1172.5,77.5C 1173.11,77.6236 1173.44,77.9569 1173.5,78.5 Z"/></g>
<g><path style="opacity:0.992" fill="#5afefe" d="M 1216.5,78.5 C 1217.21,77.596 1218.21,77.2627 1219.5,77.5C 1220.15,93.2031 1219.48,108.536 1217.5,123.5C 1217.83,108.324 1217.5,93.324 1216.5,78.5 Z"/></g>
<g><path style="opacity:0.964" fill="#f234f2" d="M 1219.5,63.5 C 1220.5,63.5 1221.5,63.5 1222.5,63.5C 1226.5,68.1667 1230.83,72.5 1235.5,76.5C 1235.5,92.5 1235.5,108.5 1235.5,124.5C 1230.86,128.805 1226.19,133.139 1221.5,137.5C 1220.76,137.631 1220.09,137.464 1219.5,137C 1224,132.5 1228.5,128 1233,123.5C 1233.67,108.167 1233.67,92.8333 1233,77.5C 1228.3,72.9645 1223.8,68.2979 1219.5,63.5 Z"/></g>
<g><path style="opacity:0.435" fill="#5d125c" d="M 1235.5,76.5 C 1236.53,77.9117 1237.2,79.5784 1237.5,81.5C 1237.45,94.9431 1237.45,108.443 1237.5,122C 1236.93,122.995 1236.27,123.828 1235.5,124.5C 1235.5,108.5 1235.5,92.5 1235.5,76.5 Z"/></g>
<g><path style="opacity:0.004" fill="#000000" d="M 1061.5,84.5 C 1062.66,92.9901 1062.82,101.657 1062,110.5C 1061.5,101.84 1061.33,93.1731 1061.5,84.5 Z"/></g>
<g><path style="opacity:0.221" fill="#433546" d="M 455.5,78.5 C 455.833,78.5 456.167,78.5 456.5,78.5C 456.5,83.1667 456.5,87.8333 456.5,92.5C 472.675,92.1703 488.675,92.5036 504.5,93.5C 503.5,93.5 502.5,93.5 501.5,93.5C 486.167,93.5 470.833,93.5 455.5,93.5C 455.5,88.5 455.5,83.5 455.5,78.5 Z"/></g>
<g><path style="opacity:1" fill="#4ad4d4" d="M 759.5,63.5 C 755.203,68.2979 750.703,72.9645 746,77.5C 745.17,83.1959 745.337,88.8625 746.5,94.5C 751.188,98.521 755.521,102.854 759.5,107.5C 758.5,107.5 757.5,107.5 756.5,107.5C 751.869,103.37 747.369,99.0367 743,94.5C 742.333,88.5 742.333,82.5 743,76.5C 747.036,72.2964 751.202,68.2964 755.5,64.5C 756.833,64.1667 758.167,63.8333 759.5,63.5 Z"/></g>
<g><path style="opacity:0.521" fill="#526572" d="M 450.5,107.5 C 451.167,107.5 451.833,107.5 452.5,107.5C 468.167,107.5 483.833,107.5 499.5,107.5C 499.5,112.833 499.5,118.167 499.5,123.5C 479.5,123.5 459.5,123.5 439.5,123.5C 438.5,123.5 437.5,123.5 436.5,123.5C 456.993,122.503 477.66,122.169 498.5,122.5C 498.5,117.833 498.5,113.167 498.5,108.5C 482.325,108.83 466.325,108.496 450.5,107.5 Z"/></g>
<g><path style="opacity:0.733" fill="#1afafa" d="M 85.5,123.5 C 85.5,123.167 85.5,122.833 85.5,122.5C 85.5,117.833 85.5,113.167 85.5,108.5C 85.56,107.957 85.8933,107.624 86.5,107.5C 86.8333,110.167 87.1667,112.833 87.5,115.5C 87.4783,118.59 86.8117,121.257 85.5,123.5 Z"/></g>
<g><path style="opacity:0.41" fill="#ce0fce" d="M 90.5,93.5 C 95.4646,97.9634 100.298,102.63 105,107.5C 105.788,113.22 105.621,118.886 104.5,124.5C 100.441,129.562 95.774,133.895 90.5,137.5C 89.8333,137.5 89.1667,137.5 88.5,137.5C 92.7967,132.702 97.2967,128.035 102,123.5C 102.667,118.167 102.667,112.833 102,107.5C 97.5,103 93,98.5 88.5,94C 89.0944,93.5357 89.7611,93.369 90.5,93.5 Z"/></g>
<g><path style="opacity:0.785" fill="#ec47eb" d="M 501.5,93.5 C 502.5,93.5 503.5,93.5 504.5,93.5C 509.194,97.5271 513.527,101.86 517.5,106.5C 518.117,112.598 517.45,118.265 515.5,123.5C 515.666,118.156 515.499,112.823 515,107.5C 510.297,102.965 505.797,98.2979 501.5,93.5 Z"/></g>
<g><path style="opacity:0.975" fill="#26fffe" d="M 805.5,107.5 C 806.812,109.743 807.478,112.41 807.5,115.5C 807.478,118.59 806.812,121.257 805.5,123.5C 805.5,118.167 805.5,112.833 805.5,107.5 Z"/></g>
<g><path style="opacity:0.738" fill="#e500e5" d="M 994.5,108.5 C 994.5,118.167 994.5,127.833 994.5,137.5C 993.833,137.5 993.167,137.5 992.5,137.5C 991.86,127.442 992.527,117.775 994.5,108.5 Z"/></g>
<g><path style="opacity:0.31" fill="#3d6167" d="M 994.5,108.5 C 994.5,108.167 994.5,107.833 994.5,107.5C 1009.83,107.5 1025.17,107.5 1040.5,107.5C 1039.86,117.889 1040.53,127.889 1042.5,137.5C 1047.17,137.5 1051.83,137.5 1056.5,137.5C 1057.5,137.5 1058.5,137.5 1059.5,137.5C 1052.77,138.827 1045.93,138.827 1039,137.5C 1039.24,127.856 1039.41,118.189 1039.5,108.5C 1024.5,108.5 1009.5,108.5 994.5,108.5 Z"/></g>
<g><path style="opacity:0.98" fill="#35fffe" d="M 499.5,107.5 C 500.812,109.743 501.478,112.41 501.5,115.5C 501.478,118.59 500.812,121.257 499.5,123.5C 499.5,118.167 499.5,112.833 499.5,107.5 Z"/></g>
<g><path style="opacity:0.934" fill="#db29da" d="M 810.5,93.5 C 815.631,98.1302 820.631,102.963 825.5,108C 824.691,113.417 824.191,118.917 824,124.5C 819.631,129.037 815.131,133.37 810.5,137.5C 809.833,137.5 809.167,137.5 808.5,137.5C 812.463,133.036 816.63,128.702 821,124.5C 821.667,118.5 821.667,112.5 821,106.5C 816.801,101.966 812.301,97.799 807.5,94C 808.448,93.5172 809.448,93.3505 810.5,93.5 Z"/></g>
<g><path style="opacity:0.851" fill="#fc70fe" d="M 994.5,107.5 C 994.5,107.833 994.5,108.167 994.5,108.5C 992.527,117.775 991.86,127.442 992.5,137.5C 992.167,137.5 991.833,137.5 991.5,137.5C 991.5,127.5 991.5,117.5 991.5,107.5C 992.5,107.5 993.5,107.5 994.5,107.5 Z"/></g>
<g><path style="opacity:1" fill="#29fffe" d="M 1040.5,107.5 C 1042.47,117.111 1043.14,127.111 1042.5,137.5C 1040.53,127.889 1039.86,117.889 1040.5,107.5 Z"/></g>
<g><path style="opacity:0.261" fill="#38565e" d="M 174.5,78.5 C 175.496,93.324 175.829,108.324 175.5,123.5C 160.167,123.5 144.833,123.5 129.5,123.5C 129.5,123.167 129.5,122.833 129.5,122.5C 144.5,122.5 159.5,122.5 174.5,122.5C 174.5,107.833 174.5,93.1667 174.5,78.5 Z"/></g>
<g><path style="opacity:0.266" fill="#44515d" d="M 756.5,107.5 C 757.5,107.5 758.5,107.5 759.5,107.5C 774.833,107.5 790.167,107.5 805.5,107.5C 805.5,112.833 805.5,118.167 805.5,123.5C 785.5,123.5 765.5,123.5 745.5,123.5C 744.5,123.5 743.5,123.5 742.5,123.5C 762.993,122.503 783.66,122.169 804.5,122.5C 804.5,117.833 804.5,113.167 804.5,108.5C 788.325,108.83 772.325,108.496 756.5,107.5 Z"/></g>
<g><path style="opacity:0.26" fill="#3c2d45" d="M 1173.5,79.5 C 1174.5,93.6569 1174.83,107.99 1174.5,122.5C 1188.5,122.5 1202.5,122.5 1216.5,122.5C 1216.5,122.833 1216.5,123.167 1216.5,123.5C 1202.17,123.5 1187.83,123.5 1173.5,123.5C 1173.5,108.833 1173.5,94.1667 1173.5,79.5 Z"/></g>
<g><path style="opacity:0.389" fill="#3b575b" d="M 85.5,122.5 C 85.5,122.833 85.5,123.167 85.5,123.5C 65.5,123.5 45.5,123.5 25.5,123.5C 24.1952,125.397 23.5286,127.731 23.5,130.5C 23.5286,133.269 24.1952,135.603 25.5,137.5C 46.5,137.5 67.5,137.5 88.5,137.5C 89.1667,137.5 89.8333,137.5 90.5,137.5C 68.0061,138.497 45.3395,138.831 22.5,138.5C 22.5,133.167 22.5,127.833 22.5,122.5C 43.5,122.5 64.5,122.5 85.5,122.5 Z"/></g>
<g><path style="opacity:1" fill="#35fffe" d="M 25.5,123.5 C 25.5,128.167 25.5,132.833 25.5,137.5C 24.1952,135.603 23.5286,133.269 23.5,130.5C 23.5286,127.731 24.1952,125.397 25.5,123.5 Z"/></g>
<g><path style="opacity:1" fill="#22e9e9" d="M 257.5,123.5 C 258.5,123.5 259.5,123.5 260.5,123.5C 260.5,128.167 260.5,132.833 260.5,137.5C 259.209,137.737 258.209,137.404 257.5,136.5C 257.5,132.167 257.5,127.833 257.5,123.5 Z"/></g>
<g><path style="opacity:0.898" fill="#b088b5" d="M 298.5,123.5 C 298.5,123.167 298.5,122.833 298.5,122.5C 305.687,122.175 312.687,122.509 319.5,123.5C 317.564,127.715 316.897,132.381 317.5,137.5C 317.167,137.5 316.833,137.5 316.5,137.5C 316.5,132.833 316.5,128.167 316.5,123.5C 310.5,123.5 304.5,123.5 298.5,123.5 Z"/></g>
<g><path style="opacity:0.905" fill="#ff02ff" d="M 319.5,123.5 C 320.103,128.619 319.436,133.285 317.5,137.5C 316.897,132.381 317.564,127.715 319.5,123.5 Z"/></g>
<g><path style="opacity:0.052" fill="#3c013c" d="M 319.5,123.5 C 320.487,128.305 320.821,133.305 320.5,138.5C 319.5,138.5 318.5,138.5 317.5,138.5C 317.5,138.167 317.5,137.833 317.5,137.5C 319.436,133.285 320.103,128.619 319.5,123.5 Z"/></g>
<g><path style="opacity:1" fill="#48f4f4" d="M 436.5,123.5 C 437.5,123.5 438.5,123.5 439.5,123.5C 439.5,128.167 439.5,132.833 439.5,137.5C 438.5,137.5 437.5,137.5 436.5,137.5C 436.5,132.833 436.5,128.167 436.5,123.5 Z"/></g>
<g><path style="opacity:1" fill="#1ae9e9" d="M 581.5,123.5 C 582.5,123.5 583.5,123.5 584.5,123.5C 584.5,128.167 584.5,132.833 584.5,137.5C 583.5,137.5 582.5,137.5 581.5,137.5C 581.5,132.833 581.5,128.167 581.5,123.5 Z"/></g>
<g><path style="opacity:1" fill="#34ebeb" d="M 742.5,123.5 C 743.5,123.5 744.5,123.5 745.5,123.5C 745.5,128.167 745.5,132.833 745.5,137.5C 744.209,137.737 743.209,137.404 742.5,136.5C 742.5,132.167 742.5,127.833 742.5,123.5 Z"/></g>
<g><path style="opacity:1" fill="#4b999a" d="M 653.5,124.5 C 653.5,124.167 653.5,123.833 653.5,123.5C 654.167,123.5 654.833,123.5 655.5,123.5C 660.298,127.797 664.965,132.297 669.5,137C 686.83,137.5 704.163,137.667 721.5,137.5C 722.167,137.5 722.833,137.5 723.5,137.5C 704.671,138.662 685.671,138.829 666.5,138C 661.936,133.605 657.602,129.105 653.5,124.5 Z"/></g>
<g><path style="opacity:0.753" fill="#b224b2" d="M 645.5,123.5 C 646.167,123.5 646.833,123.5 647.5,123.5C 647.5,123.833 647.5,124.167 647.5,124.5C 643.06,130.278 637.727,134.945 631.5,138.5C 635.439,132.892 640.106,127.892 645.5,123.5 Z"/></g>
<g><path style="opacity:0.635" fill="#b803b8" d="M 517.5,106.5 C 518.187,111.9 518.854,117.4 519.5,123C 514.631,128.037 509.631,132.87 504.5,137.5C 503.761,137.631 503.094,137.464 502.5,137C 507.037,132.631 511.37,128.131 515.5,123.5C 517.45,118.265 518.117,112.598 517.5,106.5 Z"/></g>
<g><path style="opacity:0.984" fill="#db3edb" d="M 1146.5,123.5 C 1147.17,123.5 1147.83,123.5 1148.5,123.5C 1148.5,123.833 1148.5,124.167 1148.5,124.5C 1143.92,128.815 1139.25,133.148 1134.5,137.5C 1133.83,137.5 1133.17,137.5 1132.5,137.5C 1136.83,132.5 1141.5,127.833 1146.5,123.5 Z"/></g>
<g><path style="opacity:0.295" fill="#515355" d="M 122.5,136.5 C 123.833,136.833 125.167,137.167 126.5,137.5C 143.833,137.5 161.167,137.5 178.5,137.5C 178.833,137.5 179.167,137.5 179.5,137.5C 161.005,138.662 142.338,138.829 123.5,138C 122.944,137.617 122.611,137.117 122.5,136.5 Z"/></g>
<g><path style="opacity:0.296" fill="#505252" d="M 257.5,136.5 C 258.209,137.404 259.209,137.737 260.5,137.5C 279.167,137.5 297.833,137.5 316.5,137.5C 316.833,137.5 317.167,137.5 317.5,137.5C 317.5,137.833 317.5,138.167 317.5,138.5C 297.156,138.833 276.822,138.5 256.5,137.5C 256.624,136.893 256.957,136.56 257.5,136.5 Z"/></g>
<g><path style="opacity:0.296" fill="#515052" d="M 742.5,136.5 C 743.209,137.404 744.209,137.737 745.5,137.5C 766.5,137.5 787.5,137.5 808.5,137.5C 809.167,137.5 809.833,137.5 810.5,137.5C 787.663,138.829 764.663,138.829 741.5,137.5C 741.624,136.893 741.957,136.56 742.5,136.5 Z"/></g>
<g><path style="opacity:0.302" fill="#43676b" d="M 860.5,78.5 C 860.837,98.3546 861.837,118.021 863.5,137.5C 868.167,137.5 872.833,137.5 877.5,137.5C 877.833,137.5 878.167,137.5 878.5,137.5C 879.167,137.5 879.833,137.5 880.5,137.5C 874.021,138.491 867.354,138.824 860.5,138.5C 860.5,118.5 860.5,98.5 860.5,78.5 Z"/></g>
</svg>
