<?xml version="1.0" encoding="UTF-8"?>
<!DOCTYPE svg PUBLIC "-//W3C//DTD SVG 1.1//EN" "http://www.w3.org/Graphics/SVG/1.1/DTD/svg11.dtd">
<svg xmlns="http://www.w3.org/2000/svg" version="1.1" width="1264px" height="197px" style="shape-rendering:geometricPrecision; text-rendering:geometricPrecision; image-rendering:optimizeQuality; fill-rule:evenodd; clip-rule:evenodd" xmlns:xlink="http://www.w3.org/1999/xlink">
<g><path style="opacity:0.479" fill="#627174" d="M 662.5,20.5 C 662.5,20.8333 662.5,21.1667 662.5,21.5C 656.833,21.5 651.167,21.5 645.5,21.5C 644.209,21.2627 643.209,21.596 642.5,22.5C 641.957,22.44 641.624,22.1067 641.5,21.5C 648.468,20.503 655.468,20.1697 662.5,20.5 Z"/></g>
<g><path style="opacity:1" fill="#1de0e0" d="M 645.5,21.5 C 645.5,26.8333 645.5,32.1667 645.5,37.5C 644.5,37.5 643.5,37.5 642.5,37.5C 641.902,32.44 641.902,27.44 642.5,22.5C 643.209,21.596 644.209,21.2627 645.5,21.5 Z"/></g>
<g><path style="opacity:1" fill="#f5f4f6" d="M 645.5,21.5 C 651.167,21.5 656.833,21.5 662.5,21.5C 662.5,26.8333 662.5,32.1667 662.5,37.5C 662.5,37.8333 662.5,38.1667 662.5,38.5C 655.074,38.8327 648.408,38.4994 642.5,37.5C 643.5,37.5 644.5,37.5 645.5,37.5C 645.5,32.1667 645.5,26.8333 645.5,21.5 Z"/></g>
<g><path style="opacity:0.978" fill="#ff01ff" d="M 662.5,21.5 C 663.812,23.7432 664.478,26.4098 664.5,29.5C 664.478,32.5902 663.812,35.2568 662.5,37.5C 662.5,32.1667 662.5,26.8333 662.5,21.5 Z"/></g>
<g><path style="opacity:0.758" fill="#900d90" d="M 662.5,21.5 C 662.5,21.1667 662.5,20.8333 662.5,20.5C 663.833,20.5 665.167,20.5 666.5,20.5C 665.352,26.0529 665.352,31.5529 666.5,37C 665.437,38.1882 664.103,38.6882 662.5,38.5C 662.5,38.1667 662.5,37.8333 662.5,37.5C 663.812,35.2568 664.478,32.5902 664.5,29.5C 664.478,26.4098 663.812,23.7432 662.5,21.5 Z"/></g>
<g><path style="opacity:0.611" fill="#666970" d="M 608.5,37.5 C 608.5,37.8333 608.5,38.1667 608.5,38.5C 603.167,38.5 597.833,38.5 592.5,38.5C 592.5,38.1667 592.5,37.8333 592.5,37.5C 597.664,36.6476 602.997,36.6476 608.5,37.5 Z"/></g>
<g><path style="opacity:1" fill="#49fefe" d="M 592.5,38.5 C 592.5,44.1667 592.5,49.8333 592.5,55.5C 591.167,55.5 589.833,55.5 588.5,55.5C 588.5,55.1667 588.5,54.8333 588.5,54.5C 589.488,49.3595 589.821,44.0262 589.5,38.5C 590.5,38.5 591.5,38.5 592.5,38.5 Z"/></g>
<g><path style="opacity:1" fill="#fafafb" d="M 592.5,38.5 C 597.833,38.5 603.167,38.5 608.5,38.5C 608.667,67.5019 608.5,96.5019 608,125.5C 602.833,130.667 597.667,135.833 592.5,141C 593.448,141.483 594.448,141.649 595.5,141.5C 574.5,142.833 553.5,142.833 532.5,141.5C 533.552,141.649 534.552,141.483 535.5,141C 530.333,135.833 525.167,130.667 520,125.5C 519.5,107.503 519.333,89.5031 519.5,71.5C 525.167,66.5 530.5,61.1667 535.5,55.5C 553.167,55.5 570.833,55.5 588.5,55.5C 589.833,55.5 591.167,55.5 592.5,55.5C 592.5,49.8333 592.5,44.1667 592.5,38.5 Z M 539.5,72.5 C 555.833,72.5 572.167,72.5 588.5,72.5C 588.5,89.8333 588.5,107.167 588.5,124.5C 572.653,123.97 556.653,123.97 540.5,124.5C 539.515,107.244 539.181,89.9102 539.5,72.5 Z"/></g>
<g><path style="opacity:0.977" fill="#fe00fe" d="M 609.5,38.5 C 610.833,38.5 611.5,39.1667 611.5,40.5C 611.5,43.5 611.5,46.5 611.5,49.5C 611.5,58.8333 611.5,68.1667 611.5,77.5C 611.5,83.8333 611.5,90.1667 611.5,96.5C 611.827,106.348 611.494,116.014 610.5,125.5C 609.502,96.6715 609.169,67.6715 609.5,38.5 Z"/></g>
<g><path style="opacity:0.086" fill="#4d084d" d="M 608.5,38.5 C 608.5,38.1667 608.5,37.8333 608.5,37.5C 609.833,37.5 611.167,37.5 612.5,37.5C 612.737,38.791 612.404,39.791 611.5,40.5C 611.5,39.1667 610.833,38.5 609.5,38.5C 609.167,38.5 608.833,38.5 608.5,38.5 Z"/></g>
<g><path style="opacity:0.373" fill="#077c7c" d="M 592.5,37.5 C 592.5,37.8333 592.5,38.1667 592.5,38.5C 591.5,38.5 590.5,38.5 589.5,38.5C 589.821,44.0262 589.488,49.3595 588.5,54.5C 588.805,49.2384 588.471,44.0717 587.5,39C 588.905,37.7308 590.571,37.2308 592.5,37.5 Z"/></g>
<g><path style="opacity:0.034" fill="#380238" d="M 611.5,49.5 C 612.266,51.6843 612.933,54.0177 613.5,56.5C 612.191,60.6976 612.191,64.8643 613.5,69C 612.872,71.9386 612.205,74.7719 611.5,77.5C 611.5,68.1667 611.5,58.8333 611.5,49.5 Z"/></g>
<g><path style="opacity:0.012" fill="#070007" d="M 991.5,54.5 C 992.209,53.596 993.209,53.2627 994.5,53.5C 994.737,54.791 994.404,55.791 993.5,56.5C 993.5,55.1667 992.833,54.5 991.5,54.5 Z"/></g>
<g><path style="opacity:0.055" fill="#0a0d12" d="M 1181.5,54.5 C 1180.5,54.5 1179.5,54.5 1178.5,54.5C 1172.83,54.5 1167.17,54.5 1161.5,54.5C 1159.82,54.2852 1158.82,54.9519 1158.5,56.5C 1157.6,55.791 1157.26,54.791 1157.5,53.5C 1166.25,53.1676 1174.25,53.5009 1181.5,54.5 Z"/></g>
<g><path style="opacity:0.782" fill="#6d7985" d="M 211.5,54.5 C 211.5,54.8333 211.5,55.1667 211.5,55.5C 186.167,55.5 160.833,55.5 135.5,55.5C 134.5,55.5 133.5,55.5 132.5,55.5C 132.611,54.8826 132.944,54.3826 133.5,54C 159.572,53.1767 185.572,53.3434 211.5,54.5 Z"/></g>
<g><path style="opacity:0.784" fill="#6c7883" d="M 395.5,54.5 C 395.5,54.8333 395.5,55.1667 395.5,55.5C 375.5,55.5 355.5,55.5 335.5,55.5C 334.5,55.5 333.5,55.5 332.5,55.5C 332.369,54.7611 332.536,54.0944 333,53.5C 353.7,53.1791 374.534,53.5124 395.5,54.5 Z"/></g>
<g><path style="opacity:0.779" fill="#6d7a85" d="M 588.5,54.5 C 588.5,54.8333 588.5,55.1667 588.5,55.5C 570.833,55.5 553.167,55.5 535.5,55.5C 534.5,55.5 533.5,55.5 532.5,55.5C 532.369,54.7611 532.536,54.0944 533,53.5C 551.368,53.1807 569.868,53.5141 588.5,54.5 Z"/></g>
<g><path style="opacity:0.784" fill="#6f7985" d="M 687.5,54.5 C 687.5,54.8333 687.5,55.1667 687.5,55.5C 687.167,55.5 686.833,55.5 686.5,55.5C 664.5,55.5 642.5,55.5 620.5,55.5C 620.5,55.1667 620.5,54.8333 620.5,54.5C 642.736,53.1738 665.069,53.1738 687.5,54.5 Z"/></g>
<g><path style="opacity:0.784" fill="#6c7783" d="M 777.5,54.5 C 776.508,54.3284 775.842,54.6618 775.5,55.5C 755.5,55.5 735.5,55.5 715.5,55.5C 714.5,55.5 713.5,55.5 712.5,55.5C 712.369,54.6236 712.702,53.9569 713.5,53.5C 734.828,53.1888 756.161,53.5221 777.5,54.5 Z"/></g>
<g><path style="opacity:1" fill="#f8f9fa" d="M 106.5,54.5 C 106.833,54.5 107.167,54.5 107.5,54.5C 107.5,54.8333 107.5,55.1667 107.5,55.5C 107.5,60.8333 107.5,66.1667 107.5,71.5C 107.5,71.8333 107.5,72.1667 107.5,72.5C 86.5,72.5 65.5,72.5 44.5,72.5C 44.1667,72.5 43.8333,72.5 43.5,72.5C 42.791,71.596 41.791,71.2627 40.5,71.5C 40.5,94.8333 40.5,118.167 40.5,141.5C 35.1667,141.5 29.8333,141.5 24.5,141.5C 24.3334,118.164 24.5,94.831 25,71.5C 30.3697,66.298 35.5364,60.9647 40.5,55.5C 62.327,54.5026 84.327,54.1693 106.5,54.5 Z"/></g>
<g><path style="opacity:0.631" fill="#fe0afe" d="M 107.5,55.5 C 108.812,57.7432 109.478,60.4098 109.5,63.5C 109.478,66.5902 108.812,69.2568 107.5,71.5C 107.5,66.1667 107.5,60.8333 107.5,55.5 Z"/></g>
<g><path style="opacity:1" fill="#fcfcfd" d="M 135.5,55.5 C 160.833,55.5 186.167,55.5 211.5,55.5C 211.5,60.8333 211.5,66.1667 211.5,71.5C 211.5,71.8333 211.5,72.1667 211.5,72.5C 187.5,72.5 163.5,72.5 139.5,72.5C 138.791,71.596 137.791,71.2627 136.5,71.5C 136.5,77.5 136.5,83.5 136.5,89.5C 137.209,90.404 138.209,90.7373 139.5,90.5C 156.833,90.5 174.167,90.5 191.5,90.5C 191.5,95.8333 191.5,101.167 191.5,106.5C 174.167,106.5 156.833,106.5 139.5,106.5C 138.209,106.263 137.209,106.596 136.5,107.5C 135.883,113.598 136.55,119.265 138.5,124.5C 138.833,124.5 139.167,124.5 139.5,124.5C 163.328,125.498 187.328,125.831 211.5,125.5C 211.5,130.833 211.5,136.167 211.5,141.5C 186.167,141.5 160.833,141.5 135.5,141.5C 130.167,135.833 124.833,130.167 119.5,124.5C 119.5,106.833 119.5,89.1667 119.5,71.5C 125.167,66.5 130.5,61.1667 135.5,55.5 Z"/></g>
<g><path style="opacity:0.73" fill="#fc00fc" d="M 214.5,55.5 C 215.113,61.2709 214.446,66.6042 212.5,71.5C 211.887,65.7291 212.554,60.3958 214.5,55.5 Z"/></g>
<g><path style="opacity:0.083" fill="#390339" d="M 211.5,72.5 C 211.5,72.1667 211.5,71.8333 211.5,71.5C 211.833,71.5 212.167,71.5 212.5,71.5C 214.446,66.6042 215.113,61.2709 214.5,55.5C 214.5,55.1667 214.5,54.8333 214.5,54.5C 215.5,59.7383 215.833,65.7383 215.5,72.5C 214.167,72.5 212.833,72.5 211.5,72.5 Z"/></g>
<g><path style="opacity:1" fill="#f7f9fa" d="M 306.5,54.5 C 306.178,60.358 306.511,66.0247 307.5,71.5C 307.5,71.8333 307.5,72.1667 307.5,72.5C 286.167,72.5 264.833,72.5 243.5,72.5C 242.5,71.1667 241.5,71.1667 240.5,72.5C 239.847,90.1989 240.514,107.532 242.5,124.5C 242.833,124.5 243.167,124.5 243.5,124.5C 264.5,124.5 285.5,124.5 306.5,124.5C 306.5,130.167 306.5,135.833 306.5,141.5C 284.5,141.5 262.5,141.5 240.5,141.5C 234.895,136.397 229.395,131.064 224,125.5C 223.333,107.5 223.333,89.5 224,71.5C 229.37,66.298 234.536,60.9647 239.5,55.5C 261.758,54.5113 284.092,54.1779 306.5,54.5 Z"/></g>
<g><path style="opacity:0.942" fill="#fe01fe" d="M 309.5,55.5 C 310.113,61.2709 309.446,66.6042 307.5,71.5C 306.887,65.7291 307.554,60.3958 309.5,55.5 Z"/></g>
<g><path style="opacity:0.2" fill="#690469" d="M 307.5,72.5 C 307.5,72.1667 307.5,71.8333 307.5,71.5C 309.446,66.6042 310.113,61.2709 309.5,55.5C 309.5,55.1667 309.5,54.8333 309.5,54.5C 310.224,59.6592 310.891,65.4926 311.5,72C 310.207,72.49 308.873,72.6567 307.5,72.5 Z"/></g>
<g><path style="opacity:1" fill="#fcfbfc" d="M 335.5,55.5 C 355.5,55.5 375.5,55.5 395.5,55.5C 400.5,61.1667 405.833,66.5 411.5,71.5C 411.667,89.5031 411.5,107.503 411,125.5C 405.833,130.667 400.667,135.833 395.5,141C 396.448,141.483 397.448,141.649 398.5,141.5C 376.5,142.833 354.5,142.833 332.5,141.5C 333.552,141.649 334.552,141.483 335.5,141C 330.333,135.833 325.167,130.667 320,125.5C 319.333,107.5 319.333,89.5 320,71.5C 325.37,66.298 330.536,60.9647 335.5,55.5 Z M 339.5,72.5 C 356.833,72.5 374.167,72.5 391.5,72.5C 391.5,89.8333 391.5,107.167 391.5,124.5C 374.456,124.307 357.123,124.307 339.5,124.5C 339.5,107.167 339.5,89.8333 339.5,72.5 Z"/></g>
<g><path style="opacity:1" fill="#f5f7f9" d="M 506.5,54.5 C 506.833,54.5 507.167,54.5 507.5,54.5C 507.5,54.8333 507.5,55.1667 507.5,55.5C 507.5,60.8333 507.5,66.1667 507.5,71.5C 507.5,71.8333 507.5,72.1667 507.5,72.5C 486.167,72.5 464.833,72.5 443.5,72.5C 442.791,71.596 441.791,71.2627 440.5,71.5C 440.5,94.8333 440.5,118.167 440.5,141.5C 441.5,141.5 442.5,141.5 443.5,141.5C 435.833,142.833 428.167,142.833 420.5,141.5C 421.5,141.5 422.5,141.5 423.5,141.5C 423.333,118.164 423.5,94.831 424,71.5C 429.37,66.298 434.536,60.9647 439.5,55.5C 461.758,54.5113 484.092,54.1779 506.5,54.5 Z"/></g>
<g><path style="opacity:0.707" fill="#fe05fe" d="M 507.5,55.5 C 508.812,57.7432 509.478,60.4098 509.5,63.5C 509.478,66.5902 508.812,69.2568 507.5,71.5C 507.5,66.1667 507.5,60.8333 507.5,55.5 Z"/></g>
<g><path style="opacity:0.284" fill="#840383" d="M 507.5,72.5 C 507.5,72.1667 507.5,71.8333 507.5,71.5C 508.812,69.2568 509.478,66.5902 509.5,63.5C 509.478,60.4098 508.812,57.7432 507.5,55.5C 507.5,55.1667 507.5,54.8333 507.5,54.5C 508.496,54.5858 509.329,54.2524 510,53.5C 510.5,59.8246 510.666,66.1579 510.5,72.5C 509.5,72.5 508.5,72.5 507.5,72.5 Z"/></g>
<g><path style="opacity:1" fill="#12fefe" d="M 620.5,55.5 C 620.5,60.8333 620.5,66.1667 620.5,71.5C 619.188,69.2568 618.522,66.5902 618.5,63.5C 618.522,60.4098 619.188,57.7432 620.5,55.5 Z"/></g>
<g><path style="opacity:0.999" fill="#fefefe" d="M 620.5,55.5 C 642.5,55.5 664.5,55.5 686.5,55.5C 686.5,60.8333 686.5,66.1667 686.5,71.5C 679.5,71.5 672.5,71.5 665.5,71.5C 664.209,71.2627 663.209,71.596 662.5,72.5C 662.5,89.8333 662.5,107.167 662.5,124.5C 670.316,125.492 678.316,125.826 686.5,125.5C 686.5,130.833 686.5,136.167 686.5,141.5C 664.5,141.5 642.5,141.5 620.5,141.5C 620.5,136.167 620.5,130.833 620.5,125.5C 627.833,125.5 635.167,125.5 642.5,125.5C 643.5,125.5 644.5,125.5 645.5,125.5C 645.5,107.5 645.5,89.5 645.5,71.5C 644.5,71.5 643.5,71.5 642.5,71.5C 635.167,71.5 627.833,71.5 620.5,71.5C 620.5,66.1667 620.5,60.8333 620.5,55.5 Z"/></g>
<g><path style="opacity:0.78" fill="#fe00fe" d="M 687.5,55.5 C 688.812,57.7432 689.478,60.4098 689.5,63.5C 689.478,66.5902 688.812,69.2568 687.5,71.5C 687.5,66.1667 687.5,60.8333 687.5,55.5 Z"/></g>
<g><path style="opacity:1" fill="#fefefe" d="M 715.5,55.5 C 735.5,55.5 755.5,55.5 775.5,55.5C 780.137,60.9689 785.303,65.9689 791,70.5C 791.5,94.1643 791.667,117.831 791.5,141.5C 786.167,141.5 780.833,141.5 775.5,141.5C 775.5,118.167 775.5,94.8333 775.5,71.5C 774.5,71.5 773.5,71.5 772.5,71.5C 754.5,71.5 736.5,71.5 718.5,71.5C 717.504,71.4142 716.671,71.7476 716,72.5C 715.5,95.4976 715.333,118.498 715.5,141.5C 710.167,141.5 704.833,141.5 699.5,141.5C 699.333,118.164 699.5,94.831 700,71.5C 705.37,66.298 710.536,60.9647 715.5,55.5 Z"/></g>
<g><path style="opacity:0.204" fill="#440f43" d="M 778.5,54.5 C 781.243,56.2393 783.243,58.5726 784.5,61.5C 781.757,59.7607 779.757,57.4274 778.5,54.5 Z"/></g>
<g><path style="opacity:0.999" fill="#fafcfd" d="M 876.5,54.5 C 876.833,54.5 877.167,54.5 877.5,54.5C 881.773,60.4422 886.773,65.7756 892.5,70.5C 893.658,100.095 893.825,129.762 893,159.5C 887.63,164.702 882.464,170.035 877.5,175.5C 858.5,175.5 839.5,175.5 820.5,175.5C 820.5,170.167 820.5,164.833 820.5,159.5C 820.5,159.167 820.5,158.833 820.5,158.5C 838.5,158.5 856.5,158.5 874.5,158.5C 875.814,156.085 876.481,153.252 876.5,150C 876.481,146.748 875.814,143.915 874.5,141.5C 856.5,141.5 838.5,141.5 820.5,141.5C 816.167,136.5 811.5,131.833 806.5,127.5C 806.189,126.522 805.522,125.855 804.5,125.5C 803.334,107.509 803.167,89.5093 804,71.5C 809.37,66.298 814.536,60.9647 819.5,55.5C 838.424,54.5133 857.424,54.18 876.5,54.5 Z M 823.5,72.5 C 840.167,72.5 856.833,72.5 873.5,72.5C 873.5,89.8333 873.5,107.167 873.5,124.5C 856.932,123.357 840.265,123.357 823.5,124.5C 823.548,107.346 823.548,90.0122 823.5,72.5 Z"/></g>
<g><path style="opacity:0.827" fill="#c82bc8" d="M 894.5,69.5 C 893.508,69.3284 892.842,69.6618 892.5,70.5C 886.773,65.7756 881.773,60.4422 877.5,54.5C 877.897,53.475 878.563,53.3083 879.5,54C 884.703,59.0354 889.703,64.202 894.5,69.5 Z"/></g>
<g><path style="opacity:1" fill="#208484" d="M 990.5,54.5 C 984.642,54.1778 978.975,54.5111 973.5,55.5C 972.168,66.8137 971.501,78.4803 971.5,90.5C 971.667,102.167 971.833,113.833 972,125.5C 972.383,124.944 972.883,124.611 973.5,124.5C 978.833,130.167 984.167,135.833 989.5,141.5C 988.167,141.167 986.833,140.833 985.5,140.5C 980.229,135.731 975.062,130.731 970,125.5C 969.333,101.833 969.333,78.1667 970,54.5C 976.932,53.1735 983.765,53.1735 990.5,54.5 Z"/></g>
<g><path style="opacity:1" fill="#22fffe" d="M 973.5,55.5 C 973.5,78.5 973.5,101.5 973.5,124.5C 972.883,124.611 972.383,124.944 972,125.5C 971.833,113.833 971.667,102.167 971.5,90.5C 971.501,78.4803 972.168,66.8137 973.5,55.5 Z"/></g>
<g><path style="opacity:0.999" fill="#fdfefe" d="M 973.5,55.5 C 978.833,55.5 984.167,55.5 989.5,55.5C 989.169,78.6727 989.502,101.673 990.5,124.5C 1008.33,125.497 1026.33,125.83 1044.5,125.5C 1044.5,130.833 1044.5,136.167 1044.5,141.5C 1026.17,141.5 1007.83,141.5 989.5,141.5C 984.167,135.833 978.833,130.167 973.5,124.5C 973.5,101.5 973.5,78.5 973.5,55.5 Z"/></g>
<g><path style="opacity:0.959" fill="#f0d4f4" d="M 973.5,55.5 C 978.975,54.5111 984.642,54.1778 990.5,54.5C 990.5,54.8333 990.5,55.1667 990.5,55.5C 990.5,78.5 990.5,101.5 990.5,124.5C 989.502,101.673 989.169,78.6727 989.5,55.5C 984.167,55.5 978.833,55.5 973.5,55.5 Z"/></g>
<g><path style="opacity:0.613" fill="#fe09ff" d="M 990.5,55.5 C 992.49,78.1424 993.156,101.142 992.5,124.5C 991.833,124.5 991.167,124.5 990.5,124.5C 990.5,101.5 990.5,78.5 990.5,55.5 Z"/></g>
<g><path style="opacity:0.999" fill="#fcfdfe" d="M 1133.5,54.5 C 1138.11,60.7762 1143.44,66.4428 1149.5,71.5C 1149.5,89.1667 1149.5,106.833 1149.5,124.5C 1144.17,130.167 1138.83,135.833 1133.5,141.5C 1113.5,141.667 1093.5,141.5 1073.5,141C 1068.24,135.236 1062.58,130.069 1056.5,125.5C 1056.33,107.497 1056.5,89.4969 1057,71.5C 1062.37,66.298 1067.54,60.9647 1072.5,55.5C 1092.76,54.5124 1113.09,54.1791 1133.5,54.5 Z M 1076.5,72.5 C 1094.17,72.5 1111.83,72.5 1129.5,72.5C 1129.5,89.8333 1129.5,107.167 1129.5,124.5C 1111.71,123.265 1094.05,123.265 1076.5,124.5C 1076.61,107.201 1076.61,89.8674 1076.5,72.5 Z"/></g>
<g><path style="opacity:1" fill="#17fffe" d="M 1161.5,55.5 C 1161.5,78.5 1161.5,101.5 1161.5,124.5C 1160.88,124.611 1160.38,124.944 1160,125.5C 1159.83,113.833 1159.67,102.167 1159.5,90.5C 1159.5,78.4803 1160.17,66.8137 1161.5,55.5 Z"/></g>
<g><path style="opacity:0.999" fill="#fefefe" d="M 1161.5,55.5 C 1166.83,55.5 1172.17,55.5 1177.5,55.5C 1177.17,78.6727 1177.5,101.673 1178.5,124.5C 1196.33,125.497 1214.33,125.83 1232.5,125.5C 1232.5,130.833 1232.5,136.167 1232.5,141.5C 1214.16,141.667 1195.83,141.5 1177.5,141C 1171.96,135.631 1166.63,130.131 1161.5,124.5C 1161.5,101.5 1161.5,78.5 1161.5,55.5 Z"/></g>
<g><path style="opacity:0.565" fill="#fe05ff" d="M 1178.5,55.5 C 1180.49,78.1424 1181.16,101.142 1180.5,124.5C 1179.83,124.5 1179.17,124.5 1178.5,124.5C 1178.5,101.5 1178.5,78.5 1178.5,55.5 Z"/></g>
<g><path style="opacity:0.336" fill="#a803a8" d="M 1178.5,55.5 C 1178.5,55.1667 1178.5,54.8333 1178.5,54.5C 1179.5,54.5 1180.5,54.5 1181.5,54.5C 1181.55,77.7265 1181.55,101.06 1181.5,124.5C 1181.17,124.5 1180.83,124.5 1180.5,124.5C 1181.16,101.142 1180.49,78.1424 1178.5,55.5 Z"/></g>
<g><path style="opacity:0.507" fill="#711271" d="M 107.5,72.5 C 107.5,72.1667 107.5,71.8333 107.5,71.5C 108.812,69.2568 109.478,66.5902 109.5,63.5C 109.478,60.4098 108.812,57.7432 107.5,55.5C 107.5,55.1667 107.5,54.8333 107.5,54.5C 108.847,53.8288 110.014,53.8288 111,54.5C 111.499,60.4908 111.666,66.4908 111.5,72.5C 110.167,72.5 108.833,72.5 107.5,72.5 Z"/></g>
<g><path style="opacity:0.824" fill="#ef64ef" d="M 211.5,54.5 C 212.5,54.5 213.5,54.5 214.5,54.5C 214.5,54.8333 214.5,55.1667 214.5,55.5C 212.554,60.3958 211.887,65.7291 212.5,71.5C 212.167,71.5 211.833,71.5 211.5,71.5C 211.5,66.1667 211.5,60.8333 211.5,55.5C 211.5,55.1667 211.5,54.8333 211.5,54.5 Z"/></g>
<g><path style="opacity:0.92" fill="#f49df4" d="M 306.5,54.5 C 307.5,54.5 308.5,54.5 309.5,54.5C 309.5,54.8333 309.5,55.1667 309.5,55.5C 307.554,60.3958 306.887,65.7291 307.5,71.5C 306.511,66.0247 306.178,60.358 306.5,54.5 Z"/></g>
<g><path style="opacity:0.836" fill="#459a9f" d="M 620.5,54.5 C 620.5,54.8333 620.5,55.1667 620.5,55.5C 619.188,57.7432 618.522,60.4098 618.5,63.5C 618.522,66.5902 619.188,69.2568 620.5,71.5C 627.833,71.5 635.167,71.5 642.5,71.5C 642.5,71.8333 642.5,72.1667 642.5,72.5C 634.167,72.5 625.833,72.5 617.5,72.5C 617.334,66.1579 617.5,59.8246 618,53.5C 618.671,54.2524 619.504,54.5858 620.5,54.5 Z"/></g>
<g><path style="opacity:0.311" fill="#8c038c" d="M 687.5,72.5 C 687.5,72.1667 687.5,71.8333 687.5,71.5C 688.812,69.2568 689.478,66.5902 689.5,63.5C 689.478,60.4098 688.812,57.7432 687.5,55.5C 687.5,55.1667 687.5,54.8333 687.5,54.5C 688.496,54.5858 689.329,54.2524 690,53.5C 690.5,59.8246 690.666,66.1579 690.5,72.5C 689.5,72.5 688.5,72.5 687.5,72.5 Z"/></g>
<g><path style="opacity:0.543" fill="#951495" d="M 990.5,55.5 C 990.5,55.1667 990.5,54.8333 990.5,54.5C 990.833,54.5 991.167,54.5 991.5,54.5C 992.833,54.5 993.5,55.1667 993.5,56.5C 994.703,75.1052 994.703,93.7718 993.5,112.5C 993.817,116.702 993.483,120.702 992.5,124.5C 993.156,101.142 992.49,78.1424 990.5,55.5 Z"/></g>
<g><path style="opacity:1" fill="#3aa1a1" d="M 1161.5,54.5 C 1161.5,54.8333 1161.5,55.1667 1161.5,55.5C 1160.17,66.8137 1159.5,78.4803 1159.5,90.5C 1159.67,102.167 1159.83,113.833 1160,125.5C 1160.38,124.944 1160.88,124.611 1161.5,124.5C 1166.63,130.131 1171.96,135.631 1177.5,141C 1195.83,141.5 1214.16,141.667 1232.5,141.5C 1232.5,141.833 1232.5,142.167 1232.5,142.5C 1213.16,142.667 1193.83,142.5 1174.5,142C 1169,136.5 1163.5,131 1158,125.5C 1158.36,102.497 1158.53,79.4971 1158.5,56.5C 1158.82,54.9519 1159.82,54.2852 1161.5,54.5 Z"/></g>
<g><path style="opacity:0.942" fill="#f0d0f4" d="M 1161.5,55.5 C 1161.5,55.1667 1161.5,54.8333 1161.5,54.5C 1167.17,54.5 1172.83,54.5 1178.5,54.5C 1178.5,54.8333 1178.5,55.1667 1178.5,55.5C 1178.5,78.5 1178.5,101.5 1178.5,124.5C 1177.5,101.673 1177.17,78.6727 1177.5,55.5C 1172.17,55.5 1166.83,55.5 1161.5,55.5 Z"/></g>
<g><path style="opacity:0.945" fill="#174c4e" d="M 506.5,54.5 C 484.092,54.1779 461.758,54.5113 439.5,55.5C 435.5,58.5 431.5,61.5 427.5,64.5C 430.629,60.8691 433.963,57.3691 437.5,54C 460.67,53.1703 483.67,53.337 506.5,54.5 Z"/></g>
<g><path style="opacity:1" fill="#43dcdc" d="M 532.5,55.5 C 533.5,55.5 534.5,55.5 535.5,55.5C 530.5,61.1667 525.167,66.5 519.5,71.5C 519.158,70.6618 518.492,70.3284 517.5,70.5C 521.833,64.8333 526.833,59.8333 532.5,55.5 Z"/></g>
<g><path style="opacity:0.965" fill="#174d4f" d="M 306.5,54.5 C 284.092,54.1779 261.758,54.5113 239.5,55.5C 233.5,60.5 227.5,65.5 221.5,70.5C 226.63,64.8686 231.964,59.3686 237.5,54C 260.67,53.1703 283.67,53.337 306.5,54.5 Z"/></g>
<g><path style="opacity:0.478" fill="#125656" d="M 707.5,60.5 C 705.833,62.8333 703.833,64.8333 701.5,66.5C 702.5,63.5 704.5,61.5 707.5,60.5 Z"/></g>
<g><path style="opacity:1" fill="#48fffe" d="M 40.5,55.5 C 35.5364,60.9647 30.3697,66.298 25,71.5C 24.5,94.831 24.3334,118.164 24.5,141.5C 23.5,141.5 22.5,141.5 21.5,141.5C 21.3334,118.164 21.5,94.831 22,71.5C 27.1667,66.3333 32.3333,61.1667 37.5,56C 38.448,55.5172 39.448,55.3505 40.5,55.5 Z"/></g>
<g><path style="opacity:1" fill="#4af5f5" d="M 332.5,55.5 C 333.5,55.5 334.5,55.5 335.5,55.5C 330.536,60.9647 325.37,66.298 320,71.5C 319.333,89.5 319.333,107.5 320,125.5C 325.167,130.667 330.333,135.833 335.5,141C 334.552,141.483 333.552,141.649 332.5,141.5C 327.167,136.833 322.167,131.833 317.5,126.5C 316.167,107.833 316.167,89.1667 317.5,70.5C 322.167,65.1667 327.167,60.1667 332.5,55.5 Z"/></g>
<g><path style="opacity:0.479" fill="#fe1cfe" d="M 395.5,55.5 C 396.552,55.3505 397.552,55.5172 398.5,56C 403.667,61.1667 408.833,66.3333 414,71.5C 414.829,89.6714 414.662,107.671 413.5,125.5C 412.833,107.5 412.167,89.5 411.5,71.5C 405.833,66.5 400.5,61.1667 395.5,55.5 Z"/></g>
<g><path style="opacity:0.986" fill="#05e7e7" d="M 439.5,55.5 C 434.536,60.9647 429.37,66.298 424,71.5C 423.5,94.831 423.333,118.164 423.5,141.5C 422.5,141.5 421.5,141.5 420.5,141.5C 420.333,117.831 420.5,94.1643 421,70.5C 423.037,68.2941 425.203,66.2941 427.5,64.5C 431.5,61.5 435.5,58.5 439.5,55.5 Z"/></g>
<g><path style="opacity:1" fill="#39f7f7" d="M 517.5,70.5 C 518.492,70.3284 519.158,70.6618 519.5,71.5C 519.333,89.5031 519.5,107.503 520,125.5C 525.167,130.667 530.333,135.833 535.5,141C 534.552,141.483 533.552,141.649 532.5,141.5C 526.833,136.5 521.5,131.167 516.5,125.5C 516.18,107.09 516.514,88.7569 517.5,70.5 Z"/></g>
<g><path style="opacity:1" fill="#39fcfc" d="M 712.5,55.5 C 713.5,55.5 714.5,55.5 715.5,55.5C 710.536,60.9647 705.37,66.298 700,71.5C 699.5,94.831 699.333,118.164 699.5,141.5C 698.5,141.5 697.5,141.5 696.5,141.5C 696.177,117.759 696.511,94.0918 697.5,70.5C 698.5,68.8333 699.833,67.5 701.5,66.5C 703.833,64.8333 705.833,62.8333 707.5,60.5C 708.833,58.5 710.5,56.8333 712.5,55.5 Z"/></g>
<g><path style="opacity:0.106" fill="#f73df7" d="M 777.5,54.5 C 777.833,54.5 778.167,54.5 778.5,54.5C 779.757,57.4274 781.757,59.7607 784.5,61.5C 784.833,61.5 785.167,61.5 785.5,61.5C 787.725,65.2347 790.558,68.568 794,71.5C 794.5,81.828 794.666,92.1613 794.5,102.5C 794.743,115.684 794.743,128.684 794.5,141.5C 793.5,141.5 792.5,141.5 791.5,141.5C 791.667,117.831 791.5,94.1643 791,70.5C 785.303,65.9689 780.137,60.9689 775.5,55.5C 775.842,54.6618 776.508,54.3284 777.5,54.5 Z"/></g>
<g><path style="opacity:1" fill="#0afefe" d="M 1072.5,55.5 C 1067.54,60.9647 1062.37,66.298 1057,71.5C 1056.5,89.4969 1056.33,107.497 1056.5,125.5C 1055.83,125.5 1055.17,125.5 1054.5,125.5C 1054.33,107.497 1054.5,89.4969 1055,71.5C 1060.42,65.5694 1066.26,60.2361 1072.5,55.5 Z"/></g>
<g><path style="opacity:0.537" fill="#655770" d="M 686.5,55.5 C 686.833,55.5 687.167,55.5 687.5,55.5C 687.5,60.8333 687.5,66.1667 687.5,71.5C 687.5,71.8333 687.5,72.1667 687.5,72.5C 680.5,72.5 673.5,72.5 666.5,72.5C 666.5,89.8333 666.5,107.167 666.5,124.5C 666.167,124.5 665.833,124.5 665.5,124.5C 665.5,106.833 665.5,89.1667 665.5,71.5C 672.5,71.5 679.5,71.5 686.5,71.5C 686.5,66.1667 686.5,60.8333 686.5,55.5 Z"/></g>
<g><path style="opacity:0.162" fill="#ff1aff" d="M 1149.5,124.5 C 1149.5,106.833 1149.5,89.1667 1149.5,71.5C 1149.81,70.2617 1150.31,70.2617 1151,71.5C 1151.67,89.5 1151.67,107.5 1151,125.5C 1150.62,124.944 1150.12,124.611 1149.5,124.5 Z"/></g>
<g><path style="opacity:0.004" fill="#000000" d="M 1155.5,71.5 C 1156.63,73.9664 1156.8,76.633 1156,79.5C 1155.76,77.236 1155.26,75.0693 1154.5,73C 1155.06,72.6174 1155.39,72.1174 1155.5,71.5 Z"/></g>
<g><path style="opacity:0.936" fill="#fd75fe" d="M 43.5,72.5 C 41.5103,95.1424 40.8436,118.142 41.5,141.5C 41.1667,141.5 40.8333,141.5 40.5,141.5C 40.5,118.167 40.5,94.8333 40.5,71.5C 41.791,71.2627 42.791,71.596 43.5,72.5 Z"/></g>
<g><path style="opacity:0.958" fill="#cb00cb" d="M 43.5,72.5 C 43.8333,72.5 44.1667,72.5 44.5,72.5C 44.8308,95.6727 44.4975,118.673 43.5,141.5C 42.8333,141.5 42.1667,141.5 41.5,141.5C 40.8436,118.142 41.5103,95.1424 43.5,72.5 Z"/></g>
<g><path style="opacity:0.916" fill="#1dc3c3" d="M 132.5,55.5 C 133.5,55.5 134.5,55.5 135.5,55.5C 130.5,61.1667 125.167,66.5 119.5,71.5C 118.168,80.141 117.502,89.141 117.5,98.5C 117.667,107.5 117.833,116.5 118,125.5C 118.383,124.944 118.883,124.611 119.5,124.5C 124.833,130.167 130.167,135.833 135.5,141.5C 134.5,141.5 133.5,141.5 132.5,141.5C 126.122,136.123 120.455,130.123 115.5,123.5C 116.638,106.238 116.804,88.905 116,71.5C 121.369,65.9637 126.869,60.6303 132.5,55.5 Z"/></g>
<g><path style="opacity:1" fill="#2ffffe" d="M 119.5,71.5 C 119.5,89.1667 119.5,106.833 119.5,124.5C 118.883,124.611 118.383,124.944 118,125.5C 117.833,116.5 117.667,107.5 117.5,98.5C 117.502,89.141 118.168,80.141 119.5,71.5 Z"/></g>
<g><path style="opacity:0.079" fill="#f019f2" d="M 139.5,72.5 C 138.849,74.8257 138.182,77.1591 137.5,79.5C 137.728,81.2073 138.062,82.874 138.5,84.5C 138.923,86.7812 138.256,88.4479 136.5,89.5C 136.5,83.5 136.5,77.5 136.5,71.5C 137.791,71.2627 138.791,71.596 139.5,72.5 Z"/></g>
<g><path style="opacity:1" fill="#1ef8f8" d="M 239.5,55.5 C 234.536,60.9647 229.37,66.298 224,71.5C 223.333,89.5 223.333,107.5 224,125.5C 229.395,131.064 234.895,136.397 240.5,141.5C 239.5,141.5 238.5,141.5 237.5,141.5C 232.167,136.833 227.167,131.833 222.5,126.5C 221.514,107.91 221.18,89.243 221.5,70.5C 227.5,65.5 233.5,60.5 239.5,55.5 Z"/></g>
<g><path style="opacity:0.404" fill="#8b188c" d="M 240.5,72.5 C 241.5,71.1667 242.5,71.1667 243.5,72.5C 244.821,89.8631 244.821,107.196 243.5,124.5C 243.167,124.5 242.833,124.5 242.5,124.5C 243.153,106.801 242.486,89.4678 240.5,72.5 Z"/></g>
<g><path style="opacity:0.262" fill="#015b5b" d="M 317.5,70.5 C 316.167,89.1667 316.167,107.833 317.5,126.5C 316.168,117.525 315.502,108.191 315.5,98.5C 315.502,88.8086 316.168,79.4752 317.5,70.5 Z"/></g>
<g><path style="opacity:0.628" fill="#fd65ff" d="M 338.5,71.5 C 338.5,71.8333 338.5,72.1667 338.5,72.5C 336.514,89.4678 335.847,106.801 336.5,124.5C 336.167,124.5 335.833,124.5 335.5,124.5C 335.5,106.833 335.5,89.1667 335.5,71.5C 336.5,71.5 337.5,71.5 338.5,71.5 Z"/></g>
<g><path style="opacity:0.351" fill="#fe00ff" d="M 338.5,72.5 C 339.153,90.1989 338.486,107.532 336.5,124.5C 335.847,106.801 336.514,89.4678 338.5,72.5 Z"/></g>
<g><path style="opacity:0.407" fill="#3c7a7f" d="M 338.5,72.5 C 338.5,72.1667 338.5,71.8333 338.5,71.5C 356.5,71.5 374.5,71.5 392.5,71.5C 392.5,89.1667 392.5,106.833 392.5,124.5C 392.167,124.5 391.833,124.5 391.5,124.5C 391.5,107.167 391.5,89.8333 391.5,72.5C 374.167,72.5 356.833,72.5 339.5,72.5C 339.167,72.5 338.833,72.5 338.5,72.5 Z"/></g>
<g><path style="opacity:1" fill="#54fffe" d="M 392.5,71.5 C 393.5,71.5 394.5,71.5 395.5,71.5C 395.667,89.1698 395.5,106.836 395,124.5C 394.329,125.252 393.496,125.586 392.5,125.5C 392.5,125.167 392.5,124.833 392.5,124.5C 392.5,106.833 392.5,89.1667 392.5,71.5 Z"/></g>
<g><path style="opacity:0.123" fill="#4e064d" d="M 413.5,126.5 C 413.5,126.167 413.5,125.833 413.5,125.5C 414.662,107.671 414.829,89.6714 414,71.5C 408.833,66.3333 403.667,61.1667 398.5,56C 397.552,55.5172 396.552,55.3505 395.5,55.5C 395.5,55.1667 395.5,54.8333 395.5,54.5C 396.789,53.4991 398.122,53.6658 399.5,55C 404.667,60.1667 409.833,65.3333 415,70.5C 415.167,79.8333 415.333,89.1667 415.5,98.5C 415.498,108.191 414.832,117.525 413.5,126.5 Z"/></g>
<g><path style="opacity:0.336" fill="#006a6a" d="M 517.5,70.5 C 516.514,88.7569 516.18,107.09 516.5,125.5C 515.834,116.506 515.5,107.34 515.5,98C 515.502,88.4748 516.168,79.3081 517.5,70.5 Z"/></g>
<g><path style="opacity:0.277" fill="#ff41ff" d="M 538.5,72.5 C 538.5,89.8333 538.5,107.167 538.5,124.5C 537.833,124.5 537.167,124.5 536.5,124.5C 535.338,107.338 535.171,90.0049 536,72.5C 536.977,71.2264 537.811,71.2264 538.5,72.5 Z"/></g>
<g><path style="opacity:0.084" fill="#4e014e" d="M 538.5,72.5 C 538.833,72.5 539.167,72.5 539.5,72.5C 539.181,89.9102 539.515,107.244 540.5,124.5C 539.833,124.5 539.167,124.5 538.5,124.5C 538.5,107.167 538.5,89.8333 538.5,72.5 Z"/></g>
<g><path style="opacity:1" fill="#0bfefe" d="M 588.5,72.5 C 589.209,71.596 590.209,71.2627 591.5,71.5C 591.833,89.1792 591.5,106.846 590.5,124.5C 589.833,107.005 589.167,89.6714 588.5,72.5 Z"/></g>
<g><path style="opacity:1" fill="#61d3d3" d="M 591.5,71.5 C 592.497,89.3256 592.83,107.326 592.5,125.5C 591.167,125.5 589.833,125.5 588.5,125.5C 588.5,125.167 588.5,124.833 588.5,124.5C 588.5,107.167 588.5,89.8333 588.5,72.5C 589.167,89.6714 589.833,107.005 590.5,124.5C 591.5,106.846 591.833,89.1792 591.5,71.5 Z"/></g>
<g><path style="opacity:0.304" fill="#fe01ff" d="M 662.5,72.5 C 664.486,89.4678 665.153,106.801 664.5,124.5C 663.833,124.5 663.167,124.5 662.5,124.5C 662.5,107.167 662.5,89.8333 662.5,72.5 Z"/></g>
<g><path style="opacity:0.309" fill="#1f6161" d="M 697.5,70.5 C 696.511,94.0918 696.177,117.759 696.5,141.5C 697.5,141.5 698.5,141.5 699.5,141.5C 704.833,141.5 710.167,141.5 715.5,141.5C 715.5,141.833 715.5,142.167 715.5,142.5C 708.833,142.5 702.167,142.5 695.5,142.5C 694.843,118.143 695.51,94.1434 697.5,70.5 Z"/></g>
<g><path style="opacity:0.848" fill="#ff48ff" d="M 718.5,71.5 C 718.5,71.8333 718.5,72.1667 718.5,72.5C 718.5,95.5 718.5,118.5 718.5,141.5C 717.5,141.5 716.5,141.5 715.5,141.5C 715.333,118.498 715.5,95.4976 716,72.5C 716.671,71.7476 717.504,71.4142 718.5,71.5 Z"/></g>
<g><path style="opacity:1" fill="#39fffe" d="M 772.5,71.5 C 773.5,71.5 774.5,71.5 775.5,71.5C 775.5,94.8333 775.5,118.167 775.5,141.5C 774.5,141.5 773.5,141.5 772.5,141.5C 772.5,118.167 772.5,94.8333 772.5,71.5 Z"/></g>
<g><path style="opacity:1" fill="#16fefe" d="M 819.5,55.5 C 814.536,60.9647 809.37,66.298 804,71.5C 803.167,89.5093 803.334,107.509 804.5,125.5C 805.522,125.855 806.189,126.522 806.5,127.5C 805.167,127.167 803.833,126.833 802.5,126.5C 801.348,108.24 801.181,89.9068 802,71.5C 807.424,65.5694 813.258,60.2361 819.5,55.5 Z"/></g>
<g><path style="opacity:0.74" fill="#fd54fe" d="M 823.5,72.5 C 821.514,89.4678 820.847,106.801 821.5,124.5C 821.167,124.5 820.833,124.5 820.5,124.5C 820.5,106.833 820.5,89.1667 820.5,71.5C 821.791,71.2627 822.791,71.596 823.5,72.5 Z"/></g>
<g><path style="opacity:0.804" fill="#ec00ec" d="M 823.5,72.5 C 823.548,90.0122 823.548,107.346 823.5,124.5C 822.833,124.5 822.167,124.5 821.5,124.5C 820.847,106.801 821.514,89.4678 823.5,72.5 Z"/></g>
<g><path style="opacity:1" fill="#1ae4e4" d="M 873.5,125.5 C 873.5,125.167 873.5,124.833 873.5,124.5C 873.5,107.167 873.5,89.8333 873.5,72.5C 874.209,71.596 875.209,71.2627 876.5,71.5C 876.5,89.5 876.5,107.5 876.5,125.5C 875.5,125.5 874.5,125.5 873.5,125.5 Z"/></g>
<g><path style="opacity:0.968" fill="#c71fc7" d="M 894.5,69.5 C 895.458,69.9528 896.292,70.6195 897,71.5C 897.667,100.5 897.667,129.5 897,158.5C 891.298,164.37 885.465,170.036 879.5,175.5C 878.833,175.5 878.167,175.5 877.5,175.5C 882.464,170.035 887.63,164.702 893,159.5C 893.825,129.762 893.658,100.095 892.5,70.5C 892.842,69.6618 893.508,69.3284 894.5,69.5 Z"/></g>
<g><path style="opacity:0.522" fill="#165e5f" d="M 1135.5,54.5 C 1134.83,54.5 1134.17,54.5 1133.5,54.5C 1113.09,54.1791 1092.76,54.5124 1072.5,55.5C 1066.26,60.2361 1060.42,65.5694 1055,71.5C 1054.5,89.4969 1054.33,107.497 1054.5,125.5C 1053.34,107.338 1053.17,89.0046 1054,70.5C 1059.5,65 1065,59.5 1070.5,54C 1092.34,53.1705 1114,53.3372 1135.5,54.5 Z"/></g>
<g><path style="opacity:0.764" fill="#d624d6" d="M 1076.5,71.5 C 1076.5,71.8333 1076.5,72.1667 1076.5,72.5C 1076.61,89.8674 1076.61,107.201 1076.5,124.5C 1075.5,124.5 1074.5,124.5 1073.5,124.5C 1073.5,106.833 1073.5,89.1667 1073.5,71.5C 1074.5,71.5 1075.5,71.5 1076.5,71.5 Z"/></g>
<g><path style="opacity:0.627" fill="#449398" d="M 1076.5,72.5 C 1076.5,72.1667 1076.5,71.8333 1076.5,71.5C 1094.5,71.5 1112.5,71.5 1130.5,71.5C 1130.83,89.3412 1130.5,107.008 1129.5,124.5C 1129.5,107.167 1129.5,89.8333 1129.5,72.5C 1111.83,72.5 1094.17,72.5 1076.5,72.5 Z"/></g>
<g><path style="opacity:1" fill="#1afefe" d="M 1130.5,71.5 C 1132.49,89.1356 1133.15,107.136 1132.5,125.5C 1131.5,125.5 1130.5,125.5 1129.5,125.5C 1129.5,125.167 1129.5,124.833 1129.5,124.5C 1130.5,107.008 1130.83,89.3412 1130.5,71.5 Z"/></g>
<g><path style="opacity:0.437" fill="#205658" d="M 106.5,54.5 C 84.327,54.1693 62.327,54.5026 40.5,55.5C 39.448,55.3505 38.448,55.5172 37.5,56C 32.3333,61.1667 27.1667,66.3333 22,71.5C 21.5,94.831 21.3334,118.164 21.5,141.5C 22.5,141.5 23.5,141.5 24.5,141.5C 29.8333,141.5 35.1667,141.5 40.5,141.5C 40.8333,141.5 41.1667,141.5 41.5,141.5C 42.1667,141.5 42.8333,141.5 43.5,141.5C 36.0182,142.492 28.3516,142.825 20.5,142.5C 20.3334,118.498 20.5,94.4977 21,70.5C 26.5,65 32,59.5 37.5,54C 60.6703,53.1703 83.6703,53.337 106.5,54.5 Z"/></g>
<g><path style="opacity:0.661" fill="#01a8a8" d="M 221.5,70.5 C 221.18,89.243 221.514,107.91 222.5,126.5C 221.168,117.525 220.502,108.191 220.5,98.5C 220.5,88.9939 220.834,79.6606 221.5,70.5 Z"/></g>
<g><path style="opacity:0.46" fill="#fe22ff" d="M 240.5,72.5 C 242.486,89.4678 243.153,106.801 242.5,124.5C 240.514,107.532 239.847,90.1989 240.5,72.5 Z"/></g>
<g><path style="opacity:0.718" fill="#d128d2" d="M 443.5,72.5 C 444.599,95.4638 444.599,118.464 443.5,141.5C 442.5,141.5 441.5,141.5 440.5,141.5C 440.5,118.167 440.5,94.8333 440.5,71.5C 441.791,71.2627 442.791,71.596 443.5,72.5 Z"/></g>
<g><path style="opacity:1" fill="#24f4f4" d="M 642.5,71.5 C 643.5,71.5 644.5,71.5 645.5,71.5C 645.5,89.5 645.5,107.5 645.5,125.5C 644.5,125.5 643.5,125.5 642.5,125.5C 642.5,125.167 642.5,124.833 642.5,124.5C 642.5,107.167 642.5,89.8333 642.5,72.5C 642.5,72.1667 642.5,71.8333 642.5,71.5 Z"/></g>
<g><path style="opacity:0.337" fill="#c314c4" d="M 662.5,72.5 C 663.209,71.596 664.209,71.2627 665.5,71.5C 665.5,89.1667 665.5,106.833 665.5,124.5C 665.167,124.5 664.833,124.5 664.5,124.5C 665.153,106.801 664.486,89.4678 662.5,72.5 Z"/></g>
<g><path style="opacity:0.195" fill="#640164" d="M 718.5,72.5 C 718.833,72.5 719.167,72.5 719.5,72.5C 719.5,95.8333 719.5,119.167 719.5,142.5C 718.167,142.5 716.833,142.5 715.5,142.5C 715.5,142.167 715.5,141.833 715.5,141.5C 716.5,141.5 717.5,141.5 718.5,141.5C 718.5,118.5 718.5,95.5 718.5,72.5 Z"/></g>
<g><path style="opacity:0.331" fill="#3d6f74" d="M 718.5,72.5 C 718.5,72.1667 718.5,71.8333 718.5,71.5C 736.5,71.5 754.5,71.5 772.5,71.5C 772.5,94.8333 772.5,118.167 772.5,141.5C 773.5,141.5 774.5,141.5 775.5,141.5C 780.833,141.5 786.167,141.5 791.5,141.5C 792.5,141.5 793.5,141.5 794.5,141.5C 787.018,142.492 779.352,142.825 771.5,142.5C 771.5,119.167 771.5,95.8333 771.5,72.5C 754.167,72.5 736.833,72.5 719.5,72.5C 719.167,72.5 718.833,72.5 718.5,72.5 Z"/></g>
<g><path style="opacity:0.032" fill="#4c054b" d="M 785.5,61.5 C 788.797,64.2956 791.964,67.2956 795,70.5C 795.825,81.3414 795.659,92.008 794.5,102.5C 794.666,92.1613 794.5,81.828 794,71.5C 790.558,68.568 787.725,65.2347 785.5,61.5 Z"/></g>
<g><path style="opacity:0.452" fill="#165d5e" d="M 876.5,54.5 C 857.424,54.18 838.424,54.5133 819.5,55.5C 813.258,60.2361 807.424,65.5694 802,71.5C 801.181,89.9068 801.348,108.24 802.5,126.5C 801.168,117.525 800.502,108.191 800.5,98.5C 800.667,89.1667 800.833,79.8333 801,70.5C 806.5,65 812,59.5 817.5,54C 837.338,53.1709 857.004,53.3376 876.5,54.5 Z"/></g>
<g><path style="opacity:0.127" fill="#c417c4" d="M 1133.5,54.5 C 1134.17,54.5 1134.83,54.5 1135.5,54.5C 1141.46,59.9638 1147.3,65.6304 1153,71.5C 1153.17,72.6667 1153.33,73.8333 1153.5,75C 1152.2,91.1944 1152.2,107.361 1153.5,123.5C 1148.48,130.521 1142.48,136.521 1135.5,141.5C 1134.83,141.5 1134.17,141.5 1133.5,141.5C 1138.83,135.833 1144.17,130.167 1149.5,124.5C 1150.12,124.611 1150.62,124.944 1151,125.5C 1151.67,107.5 1151.67,89.5 1151,71.5C 1150.31,70.2617 1149.81,70.2617 1149.5,71.5C 1143.44,66.4428 1138.11,60.7762 1133.5,54.5 Z"/></g>
<g><path style="opacity:0.048" fill="#a63aa7" d="M 138.5,84.5 C 139.434,85.5676 139.768,86.901 139.5,88.5C 139.5,89.1667 139.5,89.8333 139.5,90.5C 138.209,90.7373 137.209,90.404 136.5,89.5C 138.256,88.4479 138.923,86.7812 138.5,84.5 Z"/></g>
<g><path style="opacity:0.628" fill="#9691a0" d="M 139.5,88.5 C 157.237,89.2896 174.904,89.6229 192.5,89.5C 192.5,89.8333 192.5,90.1667 192.5,90.5C 192.5,95.8333 192.5,101.167 192.5,106.5C 192.5,106.833 192.5,107.167 192.5,107.5C 174.833,107.5 157.167,107.5 139.5,107.5C 139.5,107.167 139.5,106.833 139.5,106.5C 156.833,106.5 174.167,106.5 191.5,106.5C 191.5,101.167 191.5,95.8333 191.5,90.5C 174.167,90.5 156.833,90.5 139.5,90.5C 139.5,89.8333 139.5,89.1667 139.5,88.5 Z"/></g>
<g><path style="opacity:0.653" fill="#fe00fe" d="M 192.5,90.5 C 193.812,92.7432 194.478,95.4098 194.5,98.5C 194.478,101.59 193.812,104.257 192.5,106.5C 192.5,101.167 192.5,95.8333 192.5,90.5 Z"/></g>
<g><path style="opacity:0.316" fill="#7c007c" d="M 192.5,90.5 C 192.5,90.1667 192.5,89.8333 192.5,89.5C 193.5,89.5 194.5,89.5 195.5,89.5C 195.5,95.5 195.5,101.5 195.5,107.5C 194.5,107.5 193.5,107.5 192.5,107.5C 192.5,107.167 192.5,106.833 192.5,106.5C 193.812,104.257 194.478,101.59 194.5,98.5C 194.478,95.4098 193.812,92.7432 192.5,90.5 Z"/></g>
<g><path style="opacity:0.014" fill="#3b013b" d="M 611.5,96.5 C 612.166,101.322 612.499,106.322 612.5,111.5C 612.494,116.881 611.828,121.881 610.5,126.5C 610.5,126.167 610.5,125.833 610.5,125.5C 611.494,116.014 611.827,106.348 611.5,96.5 Z"/></g>
<g><path style="opacity:0.182" fill="#fe00ff" d="M 136.5,107.5 C 138.45,112.735 139.117,118.402 138.5,124.5C 136.55,119.265 135.883,113.598 136.5,107.5 Z"/></g>
<g><path style="opacity:0.104" fill="#951d97" d="M 136.5,107.5 C 137.209,106.596 138.209,106.263 139.5,106.5C 139.5,106.833 139.5,107.167 139.5,107.5C 139.5,112.833 139.5,118.167 139.5,123.5C 139.5,123.833 139.5,124.167 139.5,124.5C 139.167,124.5 138.833,124.5 138.5,124.5C 139.117,118.402 138.45,112.735 136.5,107.5 Z"/></g>
<g><path style="opacity:0.675" fill="#7e8d91" d="M 139.5,123.5 C 163.429,123.277 187.429,123.61 211.5,124.5C 211.5,124.833 211.5,125.167 211.5,125.5C 187.328,125.831 163.328,125.498 139.5,124.5C 139.5,124.167 139.5,123.833 139.5,123.5 Z"/></g>
<g><path style="opacity:0.678" fill="#806f8b" d="M 338.5,72.5 C 338.833,72.5 339.167,72.5 339.5,72.5C 339.5,89.8333 339.5,107.167 339.5,124.5C 357.123,124.307 374.456,124.307 391.5,124.5C 391.833,124.5 392.167,124.5 392.5,124.5C 392.5,124.833 392.5,125.167 392.5,125.5C 373.326,125.83 354.326,125.497 335.5,124.5C 335.833,124.5 336.167,124.5 336.5,124.5C 338.486,107.532 339.153,90.1989 338.5,72.5 Z"/></g>
<g><path style="opacity:0.681" fill="#7a868c" d="M 588.5,124.5 C 588.5,124.833 588.5,125.167 588.5,125.5C 570.992,125.83 553.659,125.497 536.5,124.5C 537.167,124.5 537.833,124.5 538.5,124.5C 539.167,124.5 539.833,124.5 540.5,124.5C 556.653,123.97 572.653,123.97 588.5,124.5 Z"/></g>
<g><path style="opacity:0.69" fill="#667376" d="M 617.5,124.5 C 625.698,124.327 634.031,124.327 642.5,124.5C 642.5,124.833 642.5,125.167 642.5,125.5C 635.167,125.5 627.833,125.5 620.5,125.5C 619.791,124.596 618.791,124.263 617.5,124.5 Z"/></g>
<g><path style="opacity:0.659" fill="#92889a" d="M 687.5,124.5 C 687.5,124.833 687.5,125.167 687.5,125.5C 687.5,130.833 687.5,136.167 687.5,141.5C 687.5,141.833 687.5,142.167 687.5,142.5C 663.994,142.831 640.661,142.498 617.5,141.5C 617.833,141.5 618.167,141.5 618.5,141.5C 619.167,141.5 619.833,141.5 620.5,141.5C 642.5,141.5 664.5,141.5 686.5,141.5C 686.5,136.167 686.5,130.833 686.5,125.5C 678.316,125.826 670.316,125.492 662.5,124.5C 663.167,124.5 663.833,124.5 664.5,124.5C 664.833,124.5 665.167,124.5 665.5,124.5C 665.833,124.5 666.167,124.5 666.5,124.5C 673.348,124.145 680.348,124.145 687.5,124.5 Z"/></g>
<g><path style="opacity:0.004" fill="#000000" d="M 692.5,124.5 C 693.478,124.811 694.145,125.478 694.5,126.5C 693.846,128.115 693.346,129.782 693,131.5C 692.503,129.19 692.337,126.857 692.5,124.5 Z"/></g>
<g><path style="opacity:0.678" fill="#656f74" d="M 873.5,124.5 C 873.5,124.833 873.5,125.167 873.5,125.5C 855.659,125.83 837.992,125.497 820.5,124.5C 820.833,124.5 821.167,124.5 821.5,124.5C 822.167,124.5 822.833,124.5 823.5,124.5C 840.265,123.357 856.932,123.357 873.5,124.5 Z"/></g>
<g><path style="opacity:0.672" fill="#60666d" d="M 993.5,112.5 C 994.324,116.312 994.824,120.312 995,124.5C 1011.31,123.554 1027.81,123.554 1044.5,124.5C 1044.5,124.833 1044.5,125.167 1044.5,125.5C 1026.33,125.83 1008.33,125.497 990.5,124.5C 991.167,124.5 991.833,124.5 992.5,124.5C 993.483,120.702 993.817,116.702 993.5,112.5 Z"/></g>
<g><path style="opacity:0.679" fill="#687278" d="M 1129.5,124.5 C 1129.5,124.833 1129.5,125.167 1129.5,125.5C 1110.66,125.83 1091.99,125.497 1073.5,124.5C 1074.5,124.5 1075.5,124.5 1076.5,124.5C 1094.05,123.265 1111.71,123.265 1129.5,124.5 Z"/></g>
<g><path style="opacity:0.671" fill="#818c94" d="M 1232.5,124.5 C 1232.5,124.833 1232.5,125.167 1232.5,125.5C 1214.33,125.83 1196.33,125.497 1178.5,124.5C 1179.17,124.5 1179.83,124.5 1180.5,124.5C 1180.83,124.5 1181.17,124.5 1181.5,124.5C 1198.27,124.135 1215.27,124.135 1232.5,124.5 Z"/></g>
<g><path style="opacity:0.714" fill="#fd00fd" d="M 214.5,125.5 C 215.113,131.271 214.446,136.604 212.5,141.5C 211.887,135.729 212.554,130.396 214.5,125.5 Z"/></g>
<g><path style="opacity:0.098" fill="#462c45" d="M 212.5,124.5 C 213.209,123.596 214.209,123.263 215.5,123.5C 215.5,129.833 215.5,136.167 215.5,142.5C 187.662,142.831 159.995,142.498 132.5,141.5C 133.5,141.5 134.5,141.5 135.5,141.5C 160.833,141.5 186.167,141.5 211.5,141.5C 211.833,141.5 212.167,141.5 212.5,141.5C 214.446,136.604 215.113,131.271 214.5,125.5C 214.158,124.662 213.492,124.328 212.5,124.5 Z"/></g>
<g><path style="opacity:0.209" fill="#7b4a7a" d="M 237.5,141.5 C 238.5,141.5 239.5,141.5 240.5,141.5C 262.5,141.5 284.5,141.5 306.5,141.5C 306.5,135.833 306.5,130.167 306.5,124.5C 308.372,123.205 310.038,123.372 311.5,125C 310.525,130.741 310.192,136.575 310.5,142.5C 285.994,142.831 261.661,142.498 237.5,141.5 Z"/></g>
<g><path style="opacity:0.875" fill="#fe01fe" d="M 307.5,125.5 C 308.812,127.743 309.478,130.41 309.5,133.5C 309.167,136.167 308.833,138.833 308.5,141.5C 307.505,136.208 307.172,130.875 307.5,125.5 Z"/></g>
<g><path style="opacity:0.848" fill="#00adad" d="M 617.5,124.5 C 618.791,124.263 619.791,124.596 620.5,125.5C 618.554,130.396 617.887,135.729 618.5,141.5C 618.167,141.5 617.833,141.5 617.5,141.5C 617.5,135.833 617.5,130.167 617.5,124.5 Z"/></g>
<g><path style="opacity:1" fill="#12fefe" d="M 620.5,125.5 C 620.5,130.833 620.5,136.167 620.5,141.5C 619.833,141.5 619.167,141.5 618.5,141.5C 617.887,135.729 618.554,130.396 620.5,125.5 Z"/></g>
<g><path style="opacity:0.643" fill="#fe00fe" d="M 687.5,125.5 C 688.812,127.743 689.478,130.41 689.5,133.5C 689.478,136.59 688.812,139.257 687.5,141.5C 687.5,136.167 687.5,130.833 687.5,125.5 Z"/></g>
<g><path style="opacity:0.286" fill="#8c048c" d="M 687.5,142.5 C 687.5,142.167 687.5,141.833 687.5,141.5C 688.812,139.257 689.478,136.59 689.5,133.5C 689.478,130.41 688.812,127.743 687.5,125.5C 687.5,125.167 687.5,124.833 687.5,124.5C 688.15,124.196 688.817,123.863 689.5,123.5C 690.496,129.798 690.83,136.132 690.5,142.5C 689.5,142.5 688.5,142.5 687.5,142.5 Z"/></g>
<g><path style="opacity:0.814" fill="#ff31fe" d="M 1044.5,125.5 C 1045.5,125.5 1046.5,125.5 1047.5,125.5C 1047.5,130.833 1047.5,136.167 1047.5,141.5C 1046.5,141.5 1045.5,141.5 1044.5,141.5C 1044.5,136.167 1044.5,130.833 1044.5,125.5 Z"/></g>
<g><path style="opacity:0.124" fill="#550955" d="M 1044.5,142.5 C 1044.5,142.167 1044.5,141.833 1044.5,141.5C 1045.5,141.5 1046.5,141.5 1047.5,141.5C 1047.5,136.167 1047.5,130.833 1047.5,125.5C 1046.5,125.5 1045.5,125.5 1044.5,125.5C 1044.5,125.167 1044.5,124.833 1044.5,124.5C 1045.57,123.566 1046.9,123.232 1048.5,123.5C 1048.5,129.833 1048.5,136.167 1048.5,142.5C 1047.17,142.5 1045.83,142.5 1044.5,142.5 Z"/></g>
<g><path style="opacity:0.975" fill="#f32ef3" d="M 1232.5,124.5 C 1232.83,124.5 1233.17,124.5 1233.5,124.5C 1235.26,125.552 1235.92,127.219 1235.5,129.5C 1235.5,131.5 1235.5,133.5 1235.5,135.5C 1235.5,137.5 1235.5,139.5 1235.5,141.5C 1234.5,141.5 1233.5,141.5 1232.5,141.5C 1232.5,136.167 1232.5,130.833 1232.5,125.5C 1232.5,125.167 1232.5,124.833 1232.5,124.5 Z"/></g>
<g><path style="opacity:0.036" fill="#290629" d="M 1233.5,124.5 C 1234.21,123.596 1235.21,123.263 1236.5,123.5C 1236.79,125.735 1236.46,127.735 1235.5,129.5C 1235.92,127.219 1235.26,125.552 1233.5,124.5 Z"/></g>
<g><path style="opacity:0.826" fill="#ef64ef" d="M 211.5,124.5 C 211.833,124.5 212.167,124.5 212.5,124.5C 213.492,124.328 214.158,124.662 214.5,125.5C 212.554,130.396 211.887,135.729 212.5,141.5C 212.167,141.5 211.833,141.5 211.5,141.5C 211.5,136.167 211.5,130.833 211.5,125.5C 211.5,125.167 211.5,124.833 211.5,124.5 Z"/></g>
<g><path style="opacity:0.961" fill="#de37de" d="M 411.5,71.5 C 412.167,89.5 412.833,107.5 413.5,125.5C 413.5,125.833 413.5,126.167 413.5,126.5C 408.833,131.833 403.833,136.833 398.5,141.5C 397.448,141.649 396.448,141.483 395.5,141C 400.667,135.833 405.833,130.667 411,125.5C 411.5,107.503 411.667,89.5031 411.5,71.5 Z"/></g>
<g><path style="opacity:1" fill="#3cd8d8" d="M 802.5,126.5 C 803.833,126.833 805.167,127.167 806.5,127.5C 811.5,131.833 816.167,136.5 820.5,141.5C 819.5,141.5 818.5,141.5 817.5,141.5C 811.833,137.167 806.833,132.167 802.5,126.5 Z"/></g>
<g><path style="opacity:0.984" fill="#de4bde" d="M 608.5,38.5 C 608.833,38.5 609.167,38.5 609.5,38.5C 609.169,67.6715 609.502,96.6715 610.5,125.5C 610.5,125.833 610.5,126.167 610.5,126.5C 605.833,131.833 600.833,136.833 595.5,141.5C 594.448,141.649 593.448,141.483 592.5,141C 597.667,135.833 602.833,130.667 608,125.5C 608.5,96.5019 608.667,67.5019 608.5,38.5 Z"/></g>
<g><path style="opacity:0.004" fill="#000000" d="M 692.5,132.5 C 693.573,133.251 693.74,134.251 693,135.5C 692.517,134.552 692.351,133.552 692.5,132.5 Z"/></g>
<g><path style="opacity:1" fill="#58aeaf" d="M 1054.5,125.5 C 1055.17,125.5 1055.83,125.5 1056.5,125.5C 1062.58,130.069 1068.24,135.236 1073.5,141C 1093.5,141.5 1113.5,141.667 1133.5,141.5C 1134.17,141.5 1134.83,141.5 1135.5,141.5C 1114,142.663 1092.34,142.829 1070.5,142C 1064.96,136.631 1059.63,131.131 1054.5,125.5 Z"/></g>
<g><path style="opacity:0.028" fill="#3d033d" d="M 1235.5,135.5 C 1236.47,137.607 1236.8,139.941 1236.5,142.5C 1235.17,142.5 1233.83,142.5 1232.5,142.5C 1232.5,142.167 1232.5,141.833 1232.5,141.5C 1233.5,141.5 1234.5,141.5 1235.5,141.5C 1235.5,139.5 1235.5,137.5 1235.5,135.5 Z"/></g>
<g><path style="opacity:0.004" fill="#000000" d="M 692.5,141.5 C 692.897,140.475 693.563,140.308 694.5,141C 693.906,141.464 693.239,141.631 692.5,141.5 Z"/></g>
<g><path style="opacity:0.334" fill="#555a5a" d="M 985.5,140.5 C 986.833,140.833 988.167,141.167 989.5,141.5C 1007.83,141.5 1026.17,141.5 1044.5,141.5C 1044.5,141.833 1044.5,142.167 1044.5,142.5C 1025.16,142.667 1005.83,142.5 986.5,142C 985.944,141.617 985.611,141.117 985.5,140.5 Z"/></g>
<g><path style="opacity:0.614" fill="#396164" d="M 817.5,141.5 C 818.5,141.5 819.5,141.5 820.5,141.5C 838.5,141.5 856.5,141.5 874.5,141.5C 874.5,147.167 874.5,152.833 874.5,158.5C 856.5,158.5 838.5,158.5 820.5,158.5C 819.5,158.5 818.5,158.5 817.5,158.5C 835.993,157.503 854.659,157.17 873.5,157.5C 873.5,152.5 873.5,147.5 873.5,142.5C 854.659,142.83 835.993,142.497 817.5,141.5 Z"/></g>
<g><path style="opacity:1" fill="#13fffe" d="M 874.5,141.5 C 875.814,143.915 876.481,146.748 876.5,150C 876.481,153.252 875.814,156.085 874.5,158.5C 874.5,152.833 874.5,147.167 874.5,141.5 Z"/></g>
<g><path style="opacity:1" fill="#05fefe" d="M 820.5,159.5 C 820.5,164.833 820.5,170.167 820.5,175.5C 819.188,173.257 818.522,170.59 818.5,167.5C 818.522,164.41 819.188,161.743 820.5,159.5 Z"/></g>
<g><path style="opacity:0.813" fill="#3f858b" d="M 817.5,158.5 C 818.5,158.5 819.5,158.5 820.5,158.5C 820.5,158.833 820.5,159.167 820.5,159.5C 819.188,161.743 818.522,164.41 818.5,167.5C 818.522,170.59 819.188,173.257 820.5,175.5C 839.5,175.5 858.5,175.5 877.5,175.5C 878.167,175.5 878.833,175.5 879.5,175.5C 859.007,176.497 838.34,176.831 817.5,176.5C 817.5,170.5 817.5,164.5 817.5,158.5 Z"/></g>
</svg>
