<?xml version="1.0" encoding="UTF-8"?>
<!DOCTYPE svg PUBLIC "-//W3C//DTD SVG 1.1//EN" "http://www.w3.org/Graphics/SVG/1.1/DTD/svg11.dtd">
<svg xmlns="http://www.w3.org/2000/svg" version="1.1" width="1309px" height="190px" style="shape-rendering:geometricPrecision; text-rendering:geometricPrecision; image-rendering:optimizeQuality; fill-rule:evenodd; clip-rule:evenodd" xmlns:xlink="http://www.w3.org/1999/xlink">
<g><path style="opacity:0.207" fill="#2d5153" d="M 312.5,36.5 C 311.833,36.5 311.167,36.5 310.5,36.5C 306.167,36.5 301.833,36.5 297.5,36.5C 296.206,38.0478 295.539,40.0478 295.5,42.5C 295.539,44.9522 296.206,46.9522 297.5,48.5C 297.5,48.8333 297.5,49.1667 297.5,49.5C 296.5,49.5 295.5,49.5 294.5,49.5C 294.5,44.8333 294.5,40.1667 294.5,35.5C 300.69,35.1771 306.69,35.5104 312.5,36.5 Z"/></g>
<g><path style="opacity:0.999" fill="#f7f3f7" d="M 297.5,36.5 C 301.833,36.5 306.167,36.5 310.5,36.5C 310.5,40.8333 310.5,45.1667 310.5,49.5C 306.167,49.5 301.833,49.5 297.5,49.5C 297.5,49.1667 297.5,48.8333 297.5,48.5C 297.5,44.5 297.5,40.5 297.5,36.5 Z"/></g>
<g><path style="opacity:0.999" fill="#ee00ee" d="M 310.5,36.5 C 311.167,36.5 311.833,36.5 312.5,36.5C 313.097,41.294 312.43,45.6273 310.5,49.5C 310.5,45.1667 310.5,40.8333 310.5,36.5 Z"/></g>
<g><path style="opacity:1" fill="#3afffe" d="M 297.5,36.5 C 297.5,40.5 297.5,44.5 297.5,48.5C 296.206,46.9522 295.539,44.9522 295.5,42.5C 295.539,40.0478 296.206,38.0478 297.5,36.5 Z"/></g>
<g><path style="opacity:0.999" fill="#fbfbfb" d="M 416.5,47.5 C 420.5,47.5 424.5,47.5 428.5,47.5C 428.5,51.8333 428.5,56.1667 428.5,60.5C 424.5,60.5 420.5,60.5 416.5,60.5C 416.5,56.1667 416.5,51.8333 416.5,47.5 Z"/></g>
<g><path style="opacity:0.44" fill="#4a5c5c" d="M 1236.5,48.5 C 1236.5,48.8333 1236.5,49.1667 1236.5,49.5C 1232.17,49.5 1227.83,49.5 1223.5,49.5C 1221.59,52.6843 1220.92,56.351 1221.5,60.5C 1220.52,56.7016 1220.18,52.7016 1220.5,48.5C 1225.83,48.5 1231.17,48.5 1236.5,48.5 Z"/></g>
<g><path style="opacity:1" fill="#4ffafa" d="M 414.5,47.5 C 415.167,47.5 415.833,47.5 416.5,47.5C 416.5,51.8333 416.5,56.1667 416.5,60.5C 414.57,56.6273 413.903,52.294 414.5,47.5 Z"/></g>
<g><path style="opacity:0.604" fill="#ac37ac" d="M 428.5,47.5 C 429.833,47.5 431.167,47.5 432.5,47.5C 432.666,51.8461 432.499,56.1794 432,60.5C 431.23,61.5981 430.397,61.5981 429.5,60.5C 429.167,60.5 428.833,60.5 428.5,60.5C 428.5,56.1667 428.5,51.8333 428.5,47.5 Z"/></g>
<g><path style="opacity:1" fill="#2ef5f5" d="M 856.5,49.5 C 856.333,71.5025 856.5,93.5025 857,115.5C 861.37,119.702 865.537,124.036 869.5,128.5C 868.527,129.791 867.527,129.791 866.5,128.5C 862.785,124.119 858.785,120.119 854.5,116.5C 853.844,93.8083 854.511,71.475 856.5,49.5 Z"/></g>
<g><path style="opacity:0.999" fill="#fcfafc" d="M 856.5,49.5 C 860.833,49.5 865.167,49.5 869.5,49.5C 869.174,53.8839 869.508,58.2172 870.5,62.5C 871.107,62.3764 871.44,62.0431 871.5,61.5C 885.167,61.5 898.833,61.5 912.5,61.5C 916.5,66.1667 920.833,70.5 925.5,74.5C 925.667,88.1707 925.5,101.837 925,115.5C 920.63,119.702 916.463,124.036 912.5,128.5C 898.167,128.5 883.833,128.5 869.5,128.5C 865.537,124.036 861.37,119.702 857,115.5C 856.5,93.5025 856.333,71.5025 856.5,49.5 Z M 871.5,75.5 C 884.167,75.5 896.833,75.5 909.5,75.5C 909.5,88.8333 909.5,102.167 909.5,115.5C 909.167,115.5 908.833,115.5 908.5,115.5C 896.678,114.505 884.678,114.172 872.5,114.5C 872.829,101.989 872.495,89.6554 871.5,77.5C 871.5,76.8333 871.5,76.1667 871.5,75.5 Z"/></g>
<g><path style="opacity:0.066" fill="#2c032c" d="M 869.5,49.5 C 869.5,49.1667 869.5,48.8333 869.5,48.5C 870.5,48.5 871.5,48.5 872.5,48.5C 872.817,52.7016 872.483,56.7016 871.5,60.5C 872.08,56.351 871.414,52.6843 869.5,49.5 Z"/></g>
<g><path style="opacity:0.999" fill="#fdfdfe" d="M 1223.5,49.5 C 1227.83,49.5 1232.17,49.5 1236.5,49.5C 1236.5,71.5 1236.5,93.5 1236.5,115.5C 1231.83,119.5 1227.5,123.833 1223.5,128.5C 1209.17,128.5 1194.83,128.5 1180.5,128.5C 1176.54,124.036 1172.37,119.702 1168,115.5C 1167.17,101.821 1167.33,88.1545 1168.5,74.5C 1172.85,70.8123 1176.85,66.8123 1180.5,62.5C 1194.17,62.5 1207.83,62.5 1221.5,62.5C 1223.43,58.6273 1224.1,54.294 1223.5,49.5 Z M 1183.5,75.5 C 1195.83,75.5 1208.17,75.5 1220.5,75.5C 1220.5,88.5 1220.5,101.5 1220.5,114.5C 1208.17,114.5 1195.83,114.5 1183.5,114.5C 1183.5,101.5 1183.5,88.5 1183.5,75.5 Z"/></g>
<g><path style="opacity:0.088" fill="#440044" d="M 1236.5,49.5 C 1236.5,49.1667 1236.5,48.8333 1236.5,48.5C 1237.5,48.5 1238.5,48.5 1239.5,48.5C 1239.83,71.3395 1239.5,94.0061 1238.5,116.5C 1239.16,93.8083 1238.49,71.475 1236.5,49.5 Z"/></g>
<g><path style="opacity:0.256" fill="#1f5d5d" d="M 869.5,48.5 C 869.5,48.8333 869.5,49.1667 869.5,49.5C 865.167,49.5 860.833,49.5 856.5,49.5C 854.511,71.475 853.844,93.8083 854.5,116.5C 853.503,94.0061 853.169,71.3395 853.5,48.5C 858.833,48.5 864.167,48.5 869.5,48.5 Z"/></g>
<g><path style="opacity:0.544" fill="#f927f9" d="M 869.5,49.5 C 871.414,52.6843 872.08,56.351 871.5,60.5C 871.5,60.8333 871.5,61.1667 871.5,61.5C 871.44,62.0431 871.107,62.3764 870.5,62.5C 869.508,58.2172 869.174,53.8839 869.5,49.5 Z"/></g>
<g><path style="opacity:1" fill="#33f7f7" d="M 1223.5,49.5 C 1224.1,54.294 1223.43,58.6273 1221.5,62.5C 1221.5,62.1667 1221.5,61.8333 1221.5,61.5C 1221.5,61.1667 1221.5,60.8333 1221.5,60.5C 1220.92,56.351 1221.59,52.6843 1223.5,49.5 Z"/></g>
<g><path style="opacity:0.493" fill="#f511f5" d="M 1236.5,49.5 C 1238.49,71.475 1239.16,93.8083 1238.5,116.5C 1237.51,116.672 1236.84,116.338 1236.5,115.5C 1236.5,93.5 1236.5,71.5 1236.5,49.5 Z"/></g>
<g><path style="opacity:0.01" fill="#020002" d="M 409.5,74.5 C 409.5,70.1667 409.5,65.8333 409.5,61.5C 409.511,58.9991 410.178,58.8324 411.5,61C 410.858,65.6007 410.191,70.1007 409.5,74.5 Z"/></g>
<g><path style="opacity:0.004" fill="#000000" d="M 332.5,61.5 C 333.077,60.2267 333.743,60.2267 334.5,61.5C 334.03,62.463 333.363,62.463 332.5,61.5 Z"/></g>
<g><path style="opacity:0.162" fill="#263c40" d="M 414.5,47.5 C 413.903,52.294 414.57,56.6273 416.5,60.5C 420.5,60.5 424.5,60.5 428.5,60.5C 428.833,60.5 429.167,60.5 429.5,60.5C 424.36,61.4881 419.026,61.8214 413.5,61.5C 413.181,56.6367 413.514,51.97 414.5,47.5 Z"/></g>
<g><path style="opacity:0.547" fill="#7d898c" d="M 637.5,61.5 C 637.5,61.8333 637.5,62.1667 637.5,62.5C 637.167,62.5 636.833,62.5 636.5,62.5C 613.833,62.5 591.167,62.5 568.5,62.5C 567.206,64.0478 566.539,66.0478 566.5,68.5C 566.539,70.9522 567.206,72.9522 568.5,74.5C 577.167,74.5 585.833,74.5 594.5,74.5C 594.5,74.8333 594.5,75.1667 594.5,75.5C 594.167,75.5 593.833,75.5 593.5,75.5C 584.161,75.6665 574.827,75.4998 565.5,75C 565.381,70.7116 565.381,66.2116 565.5,61.5C 589.5,61.5 613.5,61.5 637.5,61.5 Z"/></g>
<g><path style="opacity:0.999" fill="#f1f2f3" d="M 78.5,62.5 C 97.6595,61.503 116.993,61.1697 136.5,61.5C 136.5,61.8333 136.5,62.1667 136.5,62.5C 136.5,66.5 136.5,70.5 136.5,74.5C 136.5,74.8333 136.5,75.1667 136.5,75.5C 118.833,75.5 101.167,75.5 83.5,75.5C 82.8106,74.2264 81.9772,74.2264 81,75.5C 80.501,79.8206 80.3343,84.1539 80.5,88.5C 81.791,88.7373 82.791,88.404 83.5,87.5C 97.2456,87.1853 110.912,87.5187 124.5,88.5C 128.13,92.631 131.963,96.631 136,100.5C 136.499,105.489 136.666,110.489 136.5,115.5C 136.5,115.833 136.5,116.167 136.5,116.5C 132.167,120.167 128.167,124.167 124.5,128.5C 105.833,128.5 87.1667,128.5 68.5,128.5C 68.5,124.167 68.5,119.833 68.5,115.5C 85.8333,115.5 103.167,115.5 120.5,115.5C 120.833,115.5 121.167,115.5 121.5,115.5C 122.5,115.5 123.5,115.5 124.5,115.5C 124.5,110.833 124.5,106.167 124.5,101.5C 123.209,101.263 122.209,101.596 121.5,102.5C 106.99,102.829 92.6569,102.496 78.5,101.5C 79.2389,101.631 79.9056,101.464 80.5,101C 76.6667,97.1667 72.8333,93.3333 69,89.5C 68.3333,84.5 68.3333,79.5 69,74.5C 72.8333,70.6667 76.6667,66.8333 80.5,63C 79.9056,62.5357 79.2389,62.369 78.5,62.5 Z"/></g>
<g><path style="opacity:1" fill="#fafafa" d="M 158.5,62.5 C 173.833,62.5 189.167,62.5 204.5,62.5C 207.473,66.1396 210.806,69.4729 214.5,72.5C 215.5,72.8333 216.167,73.5 216.5,74.5C 216.667,88.504 216.5,102.504 216,116.5C 211.963,120.369 208.13,124.369 204.5,128.5C 189.167,128.5 173.833,128.5 158.5,128.5C 154.87,124.369 151.037,120.369 147,116.5C 146.333,102.5 146.333,88.5 147,74.5C 151.037,70.631 154.87,66.631 158.5,62.5 Z M 161.5,75.5 C 174.833,75.5 188.167,75.5 201.5,75.5C 201.5,88.8333 201.5,102.167 201.5,115.5C 188.167,114.167 174.833,114.167 161.5,115.5C 161.5,102.167 161.5,88.8333 161.5,75.5 Z"/></g>
<g><path style="opacity:0.318" fill="#c549c4" d="M 204.5,62.5 C 204.5,62.1667 204.5,61.8333 204.5,61.5C 205.552,61.3505 206.552,61.5172 207.5,62C 210.378,65.0396 213.044,68.2062 215.5,71.5C 214.833,71.5 214.5,71.8333 214.5,72.5C 210.806,69.4729 207.473,66.1396 204.5,62.5 Z"/></g>
<g><path style="opacity:0.235" fill="#3b5c5e" d="M 329.5,61.5 C 329.5,61.8333 329.5,62.1667 329.5,62.5C 312.5,62.5 295.5,62.5 278.5,62.5C 277.206,64.0478 276.539,66.0478 276.5,68.5C 276.539,70.9522 277.206,72.9522 278.5,74.5C 284.167,74.5 289.833,74.5 295.5,74.5C 295.5,88.1667 295.5,101.833 295.5,115.5C 289.833,115.5 284.167,115.5 278.5,115.5C 278.167,115.5 277.833,115.5 277.5,115.5C 282.975,114.511 288.642,114.178 294.5,114.5C 294.5,101.5 294.5,88.5 294.5,75.5C 288.167,75.5 281.833,75.5 275.5,75.5C 275.5,70.8333 275.5,66.1667 275.5,61.5C 293.5,61.5 311.5,61.5 329.5,61.5 Z"/></g>
<g><path style="opacity:1" fill="#39fffe" d="M 278.5,62.5 C 278.5,66.5 278.5,70.5 278.5,74.5C 277.206,72.9522 276.539,70.9522 276.5,68.5C 276.539,66.0478 277.206,64.0478 278.5,62.5 Z"/></g>
<g><path style="opacity:0.999" fill="#faf8fa" d="M 278.5,62.5 C 295.5,62.5 312.5,62.5 329.5,62.5C 328.911,66.9707 329.577,70.9707 331.5,74.5C 325.355,75.4902 319.022,75.8235 312.5,75.5C 312.44,74.9569 312.107,74.6236 311.5,74.5C 311.167,81.3333 310.833,88.1667 310.5,95C 310.503,102.201 311.17,109.034 312.5,115.5C 318.167,114.167 323.833,114.167 329.5,115.5C 329.5,119.833 329.5,124.167 329.5,128.5C 312.5,128.5 295.5,128.5 278.5,128.5C 278.5,124.167 278.5,119.833 278.5,115.5C 284.167,115.5 289.833,115.5 295.5,115.5C 296.83,109.034 297.497,102.201 297.5,95C 297.497,87.7991 296.83,80.9658 295.5,74.5C 289.833,74.5 284.167,74.5 278.5,74.5C 278.5,70.5 278.5,66.5 278.5,62.5 Z"/></g>
<g><path style="opacity:0.181" fill="#506e70" d="M 406.5,61.5 C 406.5,61.8333 406.5,62.1667 406.5,62.5C 383.833,62.5 361.167,62.5 338.5,62.5C 337.206,64.0478 336.539,66.0478 336.5,68.5C 336.539,70.9522 337.206,72.9522 338.5,74.5C 347.167,74.5 355.833,74.5 364.5,74.5C 364.5,74.8333 364.5,75.1667 364.5,75.5C 364.167,75.5 363.833,75.5 363.5,75.5C 354.167,75.5 344.833,75.5 335.5,75.5C 335.5,70.8333 335.5,66.1667 335.5,61.5C 359.167,61.5 382.833,61.5 406.5,61.5 Z"/></g>
<g><path style="opacity:1" fill="#3afffe" d="M 338.5,62.5 C 338.5,66.5 338.5,70.5 338.5,74.5C 337.206,72.9522 336.539,70.9522 336.5,68.5C 336.539,66.0478 337.206,64.0478 338.5,62.5 Z"/></g>
<g><path style="opacity:1" fill="#fcfafc" d="M 338.5,62.5 C 361.167,62.5 383.833,62.5 406.5,62.5C 406.5,66.8333 406.5,71.1667 406.5,75.5C 398.167,75.5 389.833,75.5 381.5,75.5C 381.44,74.9569 381.107,74.6236 380.5,74.5C 379.5,92.4877 379.167,110.488 379.5,128.5C 375.167,128.5 370.833,128.5 366.5,128.5C 366.5,128.167 366.5,127.833 366.5,127.5C 367.153,109.468 366.486,91.8017 364.5,74.5C 355.833,74.5 347.167,74.5 338.5,74.5C 338.5,70.5 338.5,66.5 338.5,62.5 Z"/></g>
<g><path style="opacity:1" fill="#f1f1f3" d="M 448.5,62.5 C 467.993,61.5029 487.66,61.1696 507.5,61.5C 507.5,61.8333 507.5,62.1667 507.5,62.5C 506.517,66.2984 506.183,70.2984 506.5,74.5C 488.833,74.5 471.167,74.5 453.5,74.5C 452.195,76.3972 451.529,78.7305 451.5,81.5C 451.833,83.8333 452.167,86.1667 452.5,88.5C 453.107,88.3764 453.44,88.0431 453.5,87.5C 467.344,87.171 481.01,87.5043 494.5,88.5C 498.13,92.631 501.963,96.631 506,100.5C 506.667,105.833 506.667,111.167 506,116.5C 501.963,120.369 498.13,124.369 494.5,128.5C 475.833,128.5 457.167,128.5 438.5,128.5C 438.818,123.968 438.485,119.634 437.5,115.5C 455.402,114.176 473.402,114.176 491.5,115.5C 491.833,115.5 492.167,115.5 492.5,115.5C 493.805,113.603 494.471,111.269 494.5,108.5C 494.471,105.731 493.805,103.397 492.5,101.5C 478.5,101.5 464.5,101.5 450.5,101.5C 446.87,97.369 443.037,93.369 439,89.5C 438.333,84.5 438.333,79.5 439,74.5C 442.833,70.6667 446.667,66.8333 450.5,63C 449.906,62.5357 449.239,62.369 448.5,62.5 Z"/></g>
<g><path style="opacity:0.417" fill="#b900b9" d="M 507.5,61.5 C 508.805,63.3972 509.471,65.7305 509.5,68.5C 509.471,71.2695 508.805,73.6028 507.5,75.5C 507.5,71.1667 507.5,66.8333 507.5,62.5C 507.5,62.1667 507.5,61.8333 507.5,61.5 Z"/></g>
<g><path style="opacity:1" fill="#34fffe" d="M 568.5,62.5 C 568.5,66.5 568.5,70.5 568.5,74.5C 567.206,72.9522 566.539,70.9522 566.5,68.5C 566.539,66.0478 567.206,64.0478 568.5,62.5 Z"/></g>
<g><path style="opacity:1" fill="#fefcfe" d="M 568.5,62.5 C 591.167,62.5 613.833,62.5 636.5,62.5C 636.5,66.5 636.5,70.5 636.5,74.5C 628.167,74.5 619.833,74.5 611.5,74.5C 609.513,92.1356 608.847,110.136 609.5,128.5C 605.167,128.5 600.833,128.5 596.5,128.5C 597.153,110.136 596.487,92.1356 594.5,74.5C 585.833,74.5 577.167,74.5 568.5,74.5C 568.5,70.5 568.5,66.5 568.5,62.5 Z"/></g>
<g><path style="opacity:0.999" fill="#fbfafc" d="M 656.5,62.5 C 672.325,61.5036 688.325,61.1703 704.5,61.5C 708.5,66.1667 712.833,70.5 717.5,74.5C 717.667,88.1707 717.5,101.837 717,115.5C 712.63,119.702 708.463,124.036 704.5,128.5C 689.167,128.5 673.833,128.5 658.5,128.5C 654.833,124.167 650.833,120.167 646.5,116.5C 646.333,102.496 646.5,88.496 647,74.5C 650.833,70.6667 654.667,66.8333 658.5,63C 657.906,62.5357 657.239,62.369 656.5,62.5 Z M 661.5,75.5 C 674.833,75.5 688.167,75.5 701.5,75.5C 701.5,88.5 701.5,101.5 701.5,114.5C 688.167,114.5 674.833,114.5 661.5,114.5C 662.833,101.5 662.833,88.5 661.5,75.5 Z"/></g>
<g><path style="opacity:0.322" fill="#b106b1" d="M 704.5,61.5 C 710.36,64.6829 715.36,69.0162 719.5,74.5C 718.833,74.5 718.167,74.5 717.5,74.5C 712.833,70.5 708.5,66.1667 704.5,61.5 Z"/></g>
<g><path style="opacity:1" fill="#fbf8fb" d="M 736.5,62.5 C 751.658,61.5038 766.991,61.1705 782.5,61.5C 786.463,65.9645 790.63,70.2978 795,74.5C 795.667,88.1667 795.667,101.833 795,115.5C 790.63,119.702 786.463,124.036 782.5,128.5C 769.167,128.5 755.833,128.5 742.5,128.5C 741.5,128.5 740.5,128.5 739.5,128.5C 739.5,132.833 739.5,137.167 739.5,141.5C 735.135,142.773 730.801,142.773 726.5,141.5C 726.333,119.164 726.5,96.8308 727,74.5C 730.833,70.6667 734.667,66.8333 738.5,63C 737.906,62.5357 737.239,62.369 736.5,62.5 Z M 742.5,75.5 C 754.833,75.5 767.167,75.5 779.5,75.5C 779.5,88.5 779.5,101.5 779.5,114.5C 767.167,114.5 754.833,114.5 742.5,114.5C 742.5,101.5 742.5,88.5 742.5,75.5 Z"/></g>
<g><path style="opacity:0.322" fill="#b106b1" d="M 912.5,61.5 C 918.36,64.6829 923.36,69.0162 927.5,74.5C 926.833,74.5 926.167,74.5 925.5,74.5C 920.833,70.5 916.5,66.1667 912.5,61.5 Z"/></g>
<g><path style="opacity:0.999" fill="#fbfafc" d="M 944.5,62.5 C 960.325,61.5036 976.325,61.1703 992.5,61.5C 996.167,65.8333 1000.17,69.8333 1004.5,73.5C 1005.65,87.4252 1005.81,101.425 1005,115.5C 1002.63,117.703 1000.46,120.037 998.5,122.5C 996.167,124.167 994.167,126.167 992.5,128.5C 977.5,128.5 962.5,128.5 947.5,128.5C 943.5,123.833 939.167,119.5 934.5,115.5C 934.333,101.829 934.5,88.1626 935,74.5C 938.833,70.6667 942.667,66.8333 946.5,63C 945.906,62.5357 945.239,62.369 944.5,62.5 Z M 949.5,76.5 C 949.5,76.1667 949.5,75.8333 949.5,75.5C 962.833,75.5 976.167,75.5 989.5,75.5C 989.5,88.5 989.5,101.5 989.5,114.5C 976.5,114.5 963.5,114.5 950.5,114.5C 950.829,101.656 950.495,88.989 949.5,76.5 Z"/></g>
<g><path style="opacity:0.337" fill="#c513c5" d="M 992.5,61.5 C 998.024,64.3465 1002.69,68.3465 1006.5,73.5C 1005.83,73.5 1005.17,73.5 1004.5,73.5C 1000.17,69.8333 996.167,65.8333 992.5,61.5 Z"/></g>
<g><path style="opacity:0.999" fill="#f2f3f5" d="M 1024.5,62.5 C 1040.32,61.5036 1056.32,61.1703 1072.5,61.5C 1076.46,65.9645 1080.63,70.2978 1085,74.5C 1085.5,92.4969 1085.67,110.497 1085.5,128.5C 1081.17,128.5 1076.83,128.5 1072.5,128.5C 1072.83,119.475 1072.5,110.475 1071.5,101.5C 1070.89,101.624 1070.56,101.957 1070.5,102.5C 1056.83,102.5 1043.17,102.5 1029.5,102.5C 1029.44,101.957 1029.11,101.624 1028.5,101.5C 1027.5,110.475 1027.17,119.475 1027.5,128.5C 1022.99,128.736 1018.65,128.736 1014.5,128.5C 1014.33,110.497 1014.5,92.4969 1015,74.5C 1018.83,70.6667 1022.67,66.8333 1026.5,63C 1025.91,62.5357 1025.24,62.369 1024.5,62.5 Z M 1029.5,75.5 C 1043.17,75.5 1056.83,75.5 1070.5,75.5C 1070.5,79.8333 1070.5,84.1667 1070.5,88.5C 1056.91,87.5187 1043.25,87.1853 1029.5,87.5C 1029.76,83.35 1029.76,79.35 1029.5,75.5 Z"/></g>
<g><path style="opacity:0.999" fill="#f3f6f7" d="M 1107.5,61.5 C 1124.5,61.5 1141.5,61.5 1158.5,61.5C 1158.5,61.8333 1158.5,62.1667 1158.5,62.5C 1158.5,66.5 1158.5,70.5 1158.5,74.5C 1158.5,74.8333 1158.5,75.1667 1158.5,75.5C 1142.5,75.5 1126.5,75.5 1110.5,75.5C 1110.17,75.5 1109.83,75.5 1109.5,75.5C 1109.44,74.9569 1109.11,74.6236 1108.5,74.5C 1107.5,92.4877 1107.17,110.488 1107.5,128.5C 1102.99,128.736 1098.65,128.736 1094.5,128.5C 1094.33,110.497 1094.5,92.4969 1095,74.5C 1099.43,70.2447 1103.59,65.9114 1107.5,61.5 Z"/></g>
<g><path style="opacity:0.871" fill="#ff1fff" d="M 1158.5,62.5 C 1160.42,66.0293 1161.09,70.0293 1160.5,74.5C 1159.83,74.5 1159.17,74.5 1158.5,74.5C 1158.5,70.5 1158.5,66.5 1158.5,62.5 Z"/></g>
<g><path style="opacity:0.077" fill="#660166" d="M 1158.5,62.5 C 1158.5,62.1667 1158.5,61.8333 1158.5,61.5C 1159.5,61.5 1160.5,61.5 1161.5,61.5C 1161.5,65.5 1161.5,69.5 1161.5,73.5C 1161.5,74.1667 1161.17,74.5 1160.5,74.5C 1161.09,70.0293 1160.42,66.0293 1158.5,62.5 Z"/></g>
<g><path style="opacity:0.807" fill="#ff66ff" d="M 136.5,62.5 C 137.794,64.0478 138.461,66.0478 138.5,68.5C 138.461,70.9522 137.794,72.9522 136.5,74.5C 136.5,70.5 136.5,66.5 136.5,62.5 Z"/></g>
<g><path style="opacity:0.378" fill="#9a0c9a" d="M 136.5,62.5 C 136.5,62.1667 136.5,61.8333 136.5,61.5C 137.5,61.5 138.5,61.5 139.5,61.5C 139.5,66.1667 139.5,70.8333 139.5,75.5C 138.5,75.5 137.5,75.5 136.5,75.5C 136.5,75.1667 136.5,74.8333 136.5,74.5C 137.794,72.9522 138.461,70.9522 138.5,68.5C 138.461,66.0478 137.794,64.0478 136.5,62.5 Z"/></g>
<g><path style="opacity:0.865" fill="#d80bd8" d="M 329.5,61.5 C 330.5,61.5 331.5,61.5 332.5,61.5C 331.627,65.7685 331.294,70.1018 331.5,74.5C 329.577,70.9707 328.911,66.9707 329.5,62.5C 329.5,62.1667 329.5,61.8333 329.5,61.5 Z"/></g>
<g><path style="opacity:0.629" fill="#d240d1" d="M 406.5,61.5 C 407.5,61.5 408.5,61.5 409.5,61.5C 409.5,65.8333 409.5,70.1667 409.5,74.5C 408.791,75.404 407.791,75.7373 406.5,75.5C 406.5,71.1667 406.5,66.8333 406.5,62.5C 406.5,62.1667 406.5,61.8333 406.5,61.5 Z"/></g>
<g><path style="opacity:0.449" fill="#8a1489" d="M 637.5,61.5 C 638.5,61.5 639.5,61.5 640.5,61.5C 640.5,66.1667 640.5,70.8333 640.5,75.5C 639.5,75.5 638.5,75.5 637.5,75.5C 637.5,71.1667 637.5,66.8333 637.5,62.5C 637.5,62.1667 637.5,61.8333 637.5,61.5 Z"/></g>
<g><path style="opacity:1" fill="#529594" d="M 1221.5,61.5 C 1221.5,61.8333 1221.5,62.1667 1221.5,62.5C 1207.83,62.5 1194.17,62.5 1180.5,62.5C 1175.83,66.1667 1171.17,69.8333 1166.5,73.5C 1169.96,69.5357 1173.63,65.7023 1177.5,62C 1192.16,61.5001 1206.83,61.3334 1221.5,61.5 Z"/></g>
<g><path style="opacity:0.004" fill="#000000" d="M 641.5,69.5 C 642.598,70.6009 642.765,71.9343 642,73.5C 641.51,72.2068 641.343,70.8734 641.5,69.5 Z"/></g>
<g><path style="opacity:0.004" fill="#000000" d="M 141.5,70.5 C 142.525,70.8966 142.692,71.5632 142,72.5C 141.536,71.9056 141.369,71.2389 141.5,70.5 Z"/></g>
<g><path style="opacity:0.827" fill="#508383" d="M 204.5,61.5 C 204.5,61.8333 204.5,62.1667 204.5,62.5C 189.167,62.5 173.833,62.5 158.5,62.5C 153.833,66.1667 149.167,69.8333 144.5,73.5C 147.963,69.5357 151.63,65.7023 155.5,62C 171.83,61.5001 188.163,61.3334 204.5,61.5 Z"/></g>
<g><path style="opacity:0.004" fill="#160a16" d="M 1165.5,74.5 C 1165.5,75.1667 1165.5,75.8333 1165.5,76.5C 1163.19,76.0074 1160.86,75.6741 1158.5,75.5C 1158.5,75.1667 1158.5,74.8333 1158.5,74.5C 1159.17,74.5 1159.83,74.5 1160.5,74.5C 1161.17,74.5 1161.5,74.1667 1161.5,73.5C 1162.96,72.5291 1164.3,72.8624 1165.5,74.5 Z"/></g>
<g><path style="opacity:0.004" fill="#000000" d="M 929.5,73.5 C 930.598,74.6009 930.765,75.9343 930,77.5C 929.51,76.2068 929.343,74.8734 929.5,73.5 Z"/></g>
<g><path style="opacity:0.004" fill="#000707" d="M 1092.5,74.5 C 1092.5,75.1667 1092.5,75.8333 1092.5,76.5C 1091.18,75.0474 1090.34,75.3808 1090,77.5C 1088.85,74.1128 1089.69,73.1128 1092.5,74.5 Z"/></g>
<g><path style="opacity:1" fill="#3fe8e8" d="M 78.5,62.5 C 79.2389,62.369 79.9056,62.5357 80.5,63C 76.6667,66.8333 72.8333,70.6667 69,74.5C 68.3333,79.5 68.3333,84.5 69,89.5C 72.8333,93.3333 76.6667,97.1667 80.5,101C 79.9056,101.464 79.2389,101.631 78.5,101.5C 74.1667,97.8333 70.1667,93.8333 66.5,89.5C 66.3341,84.4889 66.5007,79.4889 67,74.5C 67.7172,73.9558 68.2172,73.2891 68.5,72.5C 71.1667,68.5 74.5,65.1667 78.5,62.5 Z"/></g>
<g><path style="opacity:0.909" fill="#4cf3f3" d="M 158.5,62.5 C 154.87,66.631 151.037,70.631 147,74.5C 146.333,88.5 146.333,102.5 147,116.5C 151.037,120.369 154.87,124.369 158.5,128.5C 152.976,125.654 148.31,121.654 144.5,116.5C 144.5,102.167 144.5,87.8333 144.5,73.5C 149.167,69.8333 153.833,66.1667 158.5,62.5 Z"/></g>
<g><path style="opacity:0.984" fill="#fa05fa" d="M 214.5,72.5 C 214.5,71.8333 214.833,71.5 215.5,71.5C 216.833,72.1667 217.833,73.1667 218.5,74.5C 218.667,88.1707 218.5,101.837 218,115.5C 217.831,101.661 217.331,87.9939 216.5,74.5C 216.167,73.5 215.5,72.8333 214.5,72.5 Z"/></g>
<g><path style="opacity:0.522" fill="#8e869d" d="M 507.5,62.5 C 507.5,66.8333 507.5,71.1667 507.5,75.5C 489.5,75.5 471.5,75.5 453.5,75.5C 453.5,75.1667 453.5,74.8333 453.5,74.5C 471.167,74.5 488.833,74.5 506.5,74.5C 506.183,70.2984 506.517,66.2984 507.5,62.5 Z"/></g>
<g><path style="opacity:0.515" fill="#998aa6" d="M 636.5,62.5 C 636.833,62.5 637.167,62.5 637.5,62.5C 637.5,66.8333 637.5,71.1667 637.5,75.5C 628.833,75.5 620.167,75.5 611.5,75.5C 611.5,75.1667 611.5,74.8333 611.5,74.5C 619.833,74.5 628.167,74.5 636.5,74.5C 636.5,70.5 636.5,66.5 636.5,62.5 Z"/></g>
<g><path style="opacity:0.004" fill="#000000" d="M 721.5,74.5 C 722.525,74.8966 722.692,75.5632 722,76.5C 721.536,75.9056 721.369,75.2389 721.5,74.5 Z"/></g>
<g><path style="opacity:0.004" fill="#000000" d="M 1009.5,74.5 C 1010.83,75.1667 1010.83,75.1667 1009.5,74.5 Z"/></g>
<g><path style="opacity:0.156" fill="#e64be7" d="M 83.5,75.5 C 83.5,79.5 83.5,83.5 83.5,87.5C 82.791,88.404 81.791,88.7373 80.5,88.5C 80.3343,84.1539 80.501,79.8206 81,75.5C 81.9772,74.2264 82.8106,74.2264 83.5,75.5 Z"/></g>
<g><path style="opacity:0.45" fill="#06a3a3" d="M 144.5,73.5 C 144.5,87.8333 144.5,102.167 144.5,116.5C 143.817,102.961 143.15,89.2946 142.5,75.5C 142.855,74.4777 143.522,73.811 144.5,73.5 Z"/></g>
<g><path style="opacity:0.833" fill="#e052e0" d="M 161.5,74.5 C 161.5,74.8333 161.5,75.1667 161.5,75.5C 161.5,88.8333 161.5,102.167 161.5,115.5C 160.5,115.5 159.5,115.5 158.5,115.5C 158.5,101.833 158.5,88.1667 158.5,74.5C 159.5,74.5 160.5,74.5 161.5,74.5 Z"/></g>
<g><path style="opacity:0.46" fill="#44868b" d="M 161.5,75.5 C 161.5,75.1667 161.5,74.8333 161.5,74.5C 175.167,74.5 188.833,74.5 202.5,74.5C 202.5,88.1667 202.5,101.833 202.5,115.5C 202.167,115.5 201.833,115.5 201.5,115.5C 201.5,102.167 201.5,88.8333 201.5,75.5C 188.167,75.5 174.833,75.5 161.5,75.5 Z"/></g>
<g><path style="opacity:1" fill="#48fffe" d="M 364.5,74.5 C 366.486,91.8017 367.153,109.468 366.5,127.5C 364.514,110.532 363.847,93.1989 364.5,75.5C 364.5,75.1667 364.5,74.8333 364.5,74.5 Z"/></g>
<g><path style="opacity:0.469" fill="#a71aa7" d="M 381.5,75.5 C 382.473,93.1198 382.806,110.786 382.5,128.5C 381.5,128.5 380.5,128.5 379.5,128.5C 379.167,110.488 379.5,92.4877 380.5,74.5C 381.107,74.6236 381.44,74.9569 381.5,75.5 Z"/></g>
<g><path style="opacity:1" fill="#28d8d8" d="M 448.5,62.5 C 449.239,62.369 449.906,62.5357 450.5,63C 446.667,66.8333 442.833,70.6667 439,74.5C 438.333,79.5 438.333,84.5 439,89.5C 443.037,93.369 446.87,97.369 450.5,101.5C 449.833,101.5 449.167,101.5 448.5,101.5C 431.167,88.5 431.167,75.5 448.5,62.5 Z"/></g>
<g><path style="opacity:0.358" fill="#046d6d" d="M 593.5,75.5 C 593.833,75.5 594.167,75.5 594.5,75.5C 594.17,93.3412 594.503,111.008 595.5,128.5C 594.503,129.713 593.503,129.546 592.5,128C 593.492,110.577 593.825,93.0769 593.5,75.5 Z"/></g>
<g><path style="opacity:1" fill="#4adddd" d="M 656.5,62.5 C 657.239,62.369 657.906,62.5357 658.5,63C 654.667,66.8333 650.833,70.6667 647,74.5C 646.5,88.496 646.333,102.496 646.5,116.5C 645.833,116.5 645.167,116.5 644.5,116.5C 643.339,102.673 643.173,88.6728 644,74.5C 648.036,70.2964 652.202,66.2964 656.5,62.5 Z"/></g>
<g><path style="opacity:0.729" fill="#ff52ff" d="M 659.5,75.5 C 660.496,88.6562 660.829,101.99 660.5,115.5C 659.17,109.202 658.503,102.535 658.5,95.5C 658.5,88.6581 658.834,81.9914 659.5,75.5 Z"/></g>
<g><path style="opacity:0.455" fill="#801b80" d="M 659.5,75.5 C 659.842,74.6618 660.508,74.3284 661.5,74.5C 661.5,74.8333 661.5,75.1667 661.5,75.5C 662.833,88.5 662.833,101.5 661.5,114.5C 661.5,114.833 661.5,115.167 661.5,115.5C 661.167,115.5 660.833,115.5 660.5,115.5C 660.829,101.99 660.496,88.6562 659.5,75.5 Z"/></g>
<g><path style="opacity:1" fill="#1fd4d4" d="M 736.5,62.5 C 737.239,62.369 737.906,62.5357 738.5,63C 734.667,66.8333 730.833,70.6667 727,74.5C 726.5,96.8308 726.333,119.164 726.5,141.5C 725.5,141.5 724.5,141.5 723.5,141.5C 723.333,119.164 723.5,96.8308 724,74.5C 728.036,70.2964 732.202,66.2964 736.5,62.5 Z"/></g>
<g><path style="opacity:0.409" fill="#428185" d="M 741.5,75.5 C 741.5,75.1667 741.5,74.8333 741.5,74.5C 754.5,74.5 767.5,74.5 780.5,74.5C 780.5,88.1667 780.5,101.833 780.5,115.5C 780.167,115.5 779.833,115.5 779.5,115.5C 779.5,115.167 779.5,114.833 779.5,114.5C 779.5,101.5 779.5,88.5 779.5,75.5C 767.167,75.5 754.833,75.5 742.5,75.5C 742.167,75.5 741.833,75.5 741.5,75.5 Z"/></g>
<g><path style="opacity:0.543" fill="#ad12ad" d="M 782.5,61.5 C 783.552,61.3505 784.552,61.5172 785.5,62C 789.667,66.1667 793.833,70.3333 798,74.5C 798.833,88.5119 798.666,102.512 797.5,116.5C 793.348,120.151 789.348,123.984 785.5,128C 784.552,128.483 783.552,128.649 782.5,128.5C 786.463,124.036 790.63,119.702 795,115.5C 795.667,101.833 795.667,88.1667 795,74.5C 790.63,70.2978 786.463,65.9645 782.5,61.5 Z"/></g>
<g><path style="opacity:0.358" fill="#417e82" d="M 871.5,75.5 C 871.5,75.1667 871.5,74.8333 871.5,74.5C 884.5,74.5 897.5,74.5 910.5,74.5C 910.5,88.1667 910.5,101.833 910.5,115.5C 910.167,115.5 909.833,115.5 909.5,115.5C 909.5,102.167 909.5,88.8333 909.5,75.5C 896.833,75.5 884.167,75.5 871.5,75.5 Z"/></g>
<g><path style="opacity:0.286" fill="#016868" d="M 933.5,73.5 C 932.518,87.4213 932.185,101.421 932.5,115.5C 932.5,115.833 932.5,116.167 932.5,116.5C 931.834,109.508 931.5,102.341 931.5,95C 931.503,87.4675 932.169,80.3008 933.5,73.5 Z"/></g>
<g><path style="opacity:1" fill="#33f7f7" d="M 944.5,62.5 C 945.239,62.369 945.906,62.5357 946.5,63C 942.667,66.8333 938.833,70.6667 935,74.5C 934.5,88.1626 934.333,101.829 934.5,115.5C 933.833,115.5 933.167,115.5 932.5,115.5C 932.185,101.421 932.518,87.4213 933.5,73.5C 936.833,69.5 940.5,65.8333 944.5,62.5 Z"/></g>
<g><path style="opacity:0.227" fill="#f31cf3" d="M 1004.5,73.5 C 1005.17,73.5 1005.83,73.5 1006.5,73.5C 1007.48,87.4213 1007.82,101.421 1007.5,115.5C 1005.17,118.5 1002.5,121.167 999.5,123.5C 999.5,122.833 999.167,122.5 998.5,122.5C 1000.46,120.037 1002.63,117.703 1005,115.5C 1005.81,101.425 1005.65,87.4252 1004.5,73.5 Z"/></g>
<g><path style="opacity:0.065" fill="#3d003d" d="M 1006.5,73.5 C 1007.83,80.1333 1008.5,87.1333 1008.5,94.5C 1008.5,101.675 1008.17,108.675 1007.5,115.5C 1007.82,101.421 1007.48,87.4213 1006.5,73.5 Z"/></g>
<g><path style="opacity:0.502" fill="#1cf2f2" d="M 1070.5,88.5 C 1070.5,84.1667 1070.5,79.8333 1070.5,75.5C 1070.56,74.9569 1070.89,74.6236 1071.5,74.5C 1071.83,76.8333 1072.17,79.1667 1072.5,81.5C 1072.47,84.2695 1071.8,86.6028 1070.5,88.5 Z"/></g>
<g><path style="opacity:0.26" fill="#ce0ace" d="M 1072.5,61.5 C 1073.55,61.3505 1074.55,61.5172 1075.5,62C 1079.35,66.0156 1083.35,69.8489 1087.5,73.5C 1088.67,91.8242 1088.83,110.158 1088,128.5C 1087.02,129.774 1086.19,129.774 1085.5,128.5C 1085.67,110.497 1085.5,92.4969 1085,74.5C 1080.63,70.2978 1076.46,65.9645 1072.5,61.5 Z"/></g>
<g><path style="opacity:0.669" fill="#fe26fe" d="M 1109.5,75.5 C 1110.15,93.5316 1109.49,111.198 1107.5,128.5C 1107.17,110.488 1107.5,92.4877 1108.5,74.5C 1109.11,74.6236 1109.44,74.9569 1109.5,75.5 Z"/></g>
<g><path style="opacity:0.187" fill="#640364" d="M 1109.5,75.5 C 1109.83,75.5 1110.17,75.5 1110.5,75.5C 1110.5,93.5 1110.5,111.5 1110.5,129.5C 1109.21,129.737 1108.21,129.404 1107.5,128.5C 1109.49,111.198 1110.15,93.5316 1109.5,75.5 Z"/></g>
<g><path style="opacity:1" fill="#3ac9c9" d="M 1180.5,62.5 C 1176.85,66.8123 1172.85,70.8123 1168.5,74.5C 1167.33,88.1545 1167.17,101.821 1168,115.5C 1172.37,119.702 1176.54,124.036 1180.5,128.5C 1179.88,128.611 1179.38,128.944 1179,129.5C 1174.65,124.985 1170.15,120.651 1165.5,116.5C 1164.49,103.172 1164.49,89.8392 1165.5,76.5C 1165.5,75.8333 1165.5,75.1667 1165.5,74.5C 1165.5,73.8333 1165.83,73.5 1166.5,73.5C 1171.17,69.8333 1175.83,66.1667 1180.5,62.5 Z"/></g>
<g><path style="opacity:0.635" fill="#059191" d="M 68.5,72.5 C 68.2172,73.2891 67.7172,73.9558 67,74.5C 66.5007,79.4889 66.3341,84.4889 66.5,89.5C 65.3493,84.3497 65.1826,79.0164 66,73.5C 66.6708,72.7476 67.5041,72.4142 68.5,72.5 Z"/></g>
<g><path style="opacity:1" fill="#4ffffe" d="M 202.5,74.5 C 203.83,80.9658 204.497,87.7991 204.5,95C 204.497,102.201 203.83,109.034 202.5,115.5C 202.5,101.833 202.5,88.1667 202.5,74.5 Z"/></g>
<g><path style="opacity:0.983" fill="#3efffe" d="M 295.5,74.5 C 296.83,80.9658 297.497,87.7991 297.5,95C 297.497,102.201 296.83,109.034 295.5,115.5C 295.5,101.833 295.5,88.1667 295.5,74.5 Z"/></g>
<g><path style="opacity:0.688" fill="#e415e5" d="M 312.5,75.5 C 312.697,88.892 312.697,102.225 312.5,115.5C 311.17,109.034 310.503,102.201 310.5,95C 310.833,88.1667 311.167,81.3333 311.5,74.5C 312.107,74.6236 312.44,74.9569 312.5,75.5 Z"/></g>
<g><path style="opacity:0.288" fill="#026161" d="M 363.5,75.5 C 363.833,75.5 364.167,75.5 364.5,75.5C 363.847,93.1989 364.514,110.532 366.5,127.5C 366.5,127.833 366.5,128.167 366.5,128.5C 365.603,129.598 364.77,129.598 364,128.5C 363.5,110.836 363.333,93.1698 363.5,75.5 Z"/></g>
<g><path style="opacity:0.171" fill="#db20dd" d="M 453.5,74.5 C 453.5,74.8333 453.5,75.1667 453.5,75.5C 453.5,79.5 453.5,83.5 453.5,87.5C 453.44,88.0431 453.107,88.3764 452.5,88.5C 452.167,86.1667 451.833,83.8333 451.5,81.5C 451.529,78.7305 452.195,76.3972 453.5,74.5 Z"/></g>
<g><path style="opacity:1" fill="#40fefe" d="M 594.5,74.5 C 596.487,92.1356 597.153,110.136 596.5,128.5C 596.167,128.5 595.833,128.5 595.5,128.5C 594.503,111.008 594.17,93.3412 594.5,75.5C 594.5,75.1667 594.5,74.8333 594.5,74.5 Z"/></g>
<g><path style="opacity:0.499" fill="#9d189e" d="M 611.5,74.5 C 611.5,74.8333 611.5,75.1667 611.5,75.5C 612.486,93.0899 612.819,110.757 612.5,128.5C 611.5,128.5 610.5,128.5 609.5,128.5C 608.847,110.136 609.513,92.1356 611.5,74.5 Z"/></g>
<g><path style="opacity:0.193" fill="#2f4e53" d="M 661.5,75.5 C 661.5,75.1667 661.5,74.8333 661.5,74.5C 675.167,74.5 688.833,74.5 702.5,74.5C 702.5,88.1667 702.5,101.833 702.5,115.5C 688.833,115.5 675.167,115.5 661.5,115.5C 661.5,115.167 661.5,114.833 661.5,114.5C 674.833,114.5 688.167,114.5 701.5,114.5C 701.5,101.5 701.5,88.5 701.5,75.5C 688.167,75.5 674.833,75.5 661.5,75.5 Z"/></g>
<g><path style="opacity:1" fill="#40fffe" d="M 702.5,74.5 C 703.83,80.9658 704.497,87.7991 704.5,95C 704.497,102.201 703.83,109.034 702.5,115.5C 702.5,101.833 702.5,88.1667 702.5,74.5 Z"/></g>
<g><path style="opacity:0.299" fill="#b61bb6" d="M 717.5,74.5 C 718.167,74.5 718.833,74.5 719.5,74.5C 720.661,87.9938 720.827,101.66 720,115.5C 715.833,119.667 711.667,123.833 707.5,128C 706.552,128.483 705.552,128.649 704.5,128.5C 708.463,124.036 712.63,119.702 717,115.5C 717.5,101.837 717.667,88.1707 717.5,74.5 Z"/></g>
<g><path style="opacity:0.536" fill="#ec14ec" d="M 741.5,74.5 C 741.5,74.8333 741.5,75.1667 741.5,75.5C 741.5,88.8333 741.5,102.167 741.5,115.5C 740.17,109.034 739.503,102.201 739.5,95C 739.503,87.7991 740.17,80.9658 741.5,74.5 Z"/></g>
<g><path style="opacity:1" fill="#40fffe" d="M 780.5,74.5 C 781.83,80.9658 782.497,87.7991 782.5,95C 782.497,102.201 781.83,109.034 780.5,115.5C 780.5,101.833 780.5,88.1667 780.5,74.5 Z"/></g>
<g><path style="opacity:0.605" fill="#f812f9" d="M 871.5,74.5 C 871.5,74.8333 871.5,75.1667 871.5,75.5C 871.5,76.1667 871.5,76.8333 871.5,77.5C 871.5,90.1667 871.5,102.833 871.5,115.5C 870.17,109.034 869.503,102.201 869.5,95C 869.503,87.7991 870.17,80.9658 871.5,74.5 Z"/></g>
<g><path style="opacity:0.999" fill="#3efffe" d="M 910.5,74.5 C 911.83,80.9658 912.497,87.7991 912.5,95C 912.497,102.201 911.83,109.034 910.5,115.5C 910.5,101.833 910.5,88.1667 910.5,74.5 Z"/></g>
<g><path style="opacity:0.296" fill="#b519b5" d="M 925.5,74.5 C 926.167,74.5 926.833,74.5 927.5,74.5C 928.661,87.9938 928.827,101.66 928,115.5C 923.833,119.667 919.667,123.833 915.5,128C 914.552,128.483 913.552,128.649 912.5,128.5C 916.463,124.036 920.63,119.702 925,115.5C 925.5,101.837 925.667,88.1707 925.5,74.5 Z"/></g>
<g><path style="opacity:0.703" fill="#f20ff2" d="M 949.5,74.5 C 949.5,74.8333 949.5,75.1667 949.5,75.5C 949.5,75.8333 949.5,76.1667 949.5,76.5C 949.5,89.5 949.5,102.5 949.5,115.5C 948.17,109.034 947.503,102.201 947.5,95C 947.503,87.7991 948.17,80.9658 949.5,74.5 Z"/></g>
<g><path style="opacity:0.168" fill="#355e62" d="M 949.5,75.5 C 949.5,75.1667 949.5,74.8333 949.5,74.5C 963.167,74.5 976.833,74.5 990.5,74.5C 990.5,88.1667 990.5,101.833 990.5,115.5C 990.167,115.5 989.833,115.5 989.5,115.5C 989.5,115.167 989.5,114.833 989.5,114.5C 989.5,101.5 989.5,88.5 989.5,75.5C 976.167,75.5 962.833,75.5 949.5,75.5 Z"/></g>
<g><path style="opacity:1" fill="#29fdfd" d="M 990.5,74.5 C 991.83,80.9658 992.497,87.7991 992.5,95C 992.497,102.201 991.83,109.034 990.5,115.5C 990.5,101.833 990.5,88.1667 990.5,74.5 Z"/></g>
<g><path style="opacity:1" fill="#1fc5c5" d="M 1024.5,62.5 C 1025.24,62.369 1025.91,62.5357 1026.5,63C 1022.67,66.8333 1018.83,70.6667 1015,74.5C 1014.5,92.4969 1014.33,110.497 1014.5,128.5C 1013.6,129.598 1012.77,129.598 1012,128.5C 1011.33,110.5 1011.33,92.5 1012,74.5C 1016.04,70.2964 1020.2,66.2964 1024.5,62.5 Z"/></g>
<g><path style="opacity:1" fill="#08ebeb" d="M 1107.5,61.5 C 1103.59,65.9114 1099.43,70.2447 1095,74.5C 1094.5,92.4969 1094.33,110.497 1094.5,128.5C 1093.32,128.719 1092.32,128.386 1091.5,127.5C 1092.49,110.547 1092.82,93.5474 1092.5,76.5C 1092.5,75.8333 1092.5,75.1667 1092.5,74.5C 1096.64,69.0162 1101.64,64.6829 1107.5,61.5 Z"/></g>
<g><path style="opacity:0.866" fill="#fd34fe" d="M 1182.5,74.5 C 1182.5,88.1667 1182.5,101.833 1182.5,115.5C 1181.17,109.034 1180.5,102.201 1180.5,95C 1180.5,87.7991 1181.17,80.9658 1182.5,74.5 Z"/></g>
<g><path style="opacity:1" fill="#23f7f7" d="M 1221.5,74.5 C 1222.83,80.9658 1223.5,87.7991 1223.5,95C 1223.5,102.201 1222.83,109.034 1221.5,115.5C 1221.5,101.833 1221.5,88.1667 1221.5,74.5 Z"/></g>
<g><path style="opacity:0.205" fill="#ec1ced" d="M 1029.5,75.5 C 1029.76,79.35 1029.76,83.35 1029.5,87.5C 1029.44,88.0431 1029.11,88.3764 1028.5,88.5C 1027.17,83.8333 1027.17,79.1667 1028.5,74.5C 1029.11,74.6236 1029.44,74.9569 1029.5,75.5 Z"/></g>
<g><path style="opacity:0.38" fill="#b126b1" d="M 138.5,116.5 C 138.666,111.489 138.499,106.489 138,101.5C 137.826,106.351 137.326,111.018 136.5,115.5C 136.666,110.489 136.499,105.489 136,100.5C 131.963,96.631 128.13,92.631 124.5,88.5C 124.897,87.475 125.563,87.3083 126.5,88C 130.667,92.1667 134.833,96.3333 139,100.5C 139.817,106.016 139.651,111.35 138.5,116.5 Z"/></g>
<g><path style="opacity:0.694" fill="#be2cbe" d="M 494.5,128.5 C 498.13,124.369 501.963,120.369 506,116.5C 506.667,111.167 506.667,105.833 506,100.5C 501.963,96.631 498.13,92.631 494.5,88.5C 495.117,88.3893 495.617,88.056 496,87.5C 500.333,91.8333 504.667,96.1667 509,100.5C 509.667,105.833 509.667,111.167 509,116.5C 505.167,120.333 501.333,124.167 497.5,128C 496.552,128.483 495.552,128.649 494.5,128.5 Z"/></g>
<g><path style="opacity:0.278" fill="#fd02fd" d="M 138.5,116.5 C 137.833,116.5 137.167,116.5 136.5,116.5C 136.5,116.167 136.5,115.833 136.5,115.5C 137.326,111.018 137.826,106.351 138,101.5C 138.499,106.489 138.666,111.489 138.5,116.5 Z"/></g>
<g><path style="opacity:1" fill="#47efef" d="M 121.5,115.5 C 121.5,111.167 121.5,106.833 121.5,102.5C 122.209,101.596 123.209,101.263 124.5,101.5C 124.5,106.167 124.5,110.833 124.5,115.5C 123.5,115.5 122.5,115.5 121.5,115.5 Z"/></g>
<g><path style="opacity:0.529" fill="#bb13bc" d="M 1029.5,102.5 C 1030.64,111.088 1030.8,119.755 1030,128.5C 1029.02,129.774 1028.19,129.774 1027.5,128.5C 1027.17,119.475 1027.5,110.475 1028.5,101.5C 1029.11,101.624 1029.44,101.957 1029.5,102.5 Z"/></g>
<g><path style="opacity:1" fill="#0ff2f3" d="M 1072.5,128.5 C 1071.35,129.895 1070.35,129.728 1069.5,128C 1070.48,119.585 1070.82,111.085 1070.5,102.5C 1070.56,101.957 1070.89,101.624 1071.5,101.5C 1072.5,110.475 1072.83,119.475 1072.5,128.5 Z"/></g>
<g><path style="opacity:0.512" fill="#397e83" d="M 448.5,101.5 C 449.167,101.5 449.833,101.5 450.5,101.5C 464.5,101.5 478.5,101.5 492.5,101.5C 492.5,106.167 492.5,110.833 492.5,115.5C 492.167,115.5 491.833,115.5 491.5,115.5C 491.5,111.167 491.5,106.833 491.5,102.5C 476.99,102.829 462.657,102.496 448.5,101.5 Z"/></g>
<g><path style="opacity:1" fill="#54fffe" d="M 492.5,101.5 C 493.805,103.397 494.471,105.731 494.5,108.5C 494.471,111.269 493.805,113.603 492.5,115.5C 492.5,110.833 492.5,106.167 492.5,101.5 Z"/></g>
<g><path style="opacity:0.087" fill="#1f1324" d="M 741.5,75.5 C 741.833,75.5 742.167,75.5 742.5,75.5C 742.5,88.5 742.5,101.5 742.5,114.5C 754.833,114.5 767.167,114.5 779.5,114.5C 779.5,114.833 779.5,115.167 779.5,115.5C 766.833,115.5 754.167,115.5 741.5,115.5C 741.5,102.167 741.5,88.8333 741.5,75.5 Z"/></g>
<g><path style="opacity:0.089" fill="#1d1222" d="M 871.5,77.5 C 872.495,89.6554 872.829,101.989 872.5,114.5C 884.678,114.172 896.678,114.505 908.5,115.5C 896.167,115.5 883.833,115.5 871.5,115.5C 871.5,102.833 871.5,90.1667 871.5,77.5 Z"/></g>
<g><path style="opacity:0.087" fill="#1c1221" d="M 949.5,76.5 C 950.495,88.989 950.829,101.656 950.5,114.5C 963.5,114.5 976.5,114.5 989.5,114.5C 989.5,114.833 989.5,115.167 989.5,115.5C 976.167,115.5 962.833,115.5 949.5,115.5C 949.5,102.5 949.5,89.5 949.5,76.5 Z"/></g>
<g><path style="opacity:0.092" fill="#373043" d="M 1182.5,74.5 C 1195.5,74.5 1208.5,74.5 1221.5,74.5C 1221.5,88.1667 1221.5,101.833 1221.5,115.5C 1208.5,115.5 1195.5,115.5 1182.5,115.5C 1182.5,101.833 1182.5,88.1667 1182.5,74.5 Z M 1183.5,75.5 C 1183.5,88.5 1183.5,101.5 1183.5,114.5C 1195.83,114.5 1208.17,114.5 1220.5,114.5C 1220.5,101.5 1220.5,88.5 1220.5,75.5C 1208.17,75.5 1195.83,75.5 1183.5,75.5 Z"/></g>
<g><path style="opacity:1" fill="#46c3c3" d="M 932.5,115.5 C 933.167,115.5 933.833,115.5 934.5,115.5C 939.167,119.5 943.5,123.833 947.5,128.5C 946.211,129.501 944.878,129.334 943.5,128C 939.63,124.298 935.963,120.464 932.5,116.5C 932.5,116.167 932.5,115.833 932.5,115.5 Z"/></g>
<g><path style="opacity:1" fill="#28c9c9" d="M 277.5,115.5 C 277.833,115.5 278.167,115.5 278.5,115.5C 278.5,119.833 278.5,124.167 278.5,128.5C 277.504,128.414 276.671,128.748 276,129.5C 275.833,127.167 275.667,124.833 275.5,122.5C 275.529,119.731 276.195,117.397 277.5,115.5 Z"/></g>
<g><path style="opacity:0.795" fill="#d211d2" d="M 329.5,115.5 C 331.439,119.369 332.439,123.703 332.5,128.5C 331.5,128.5 330.5,128.5 329.5,128.5C 329.5,124.167 329.5,119.833 329.5,115.5 Z"/></g>
<g><path style="opacity:1" fill="#2ad4d4" d="M 437.5,115.5 C 438.485,119.634 438.818,123.968 438.5,128.5C 437.504,128.414 436.671,128.748 436,129.5C 435.833,127.167 435.667,124.833 435.5,122.5C 435.529,119.731 436.195,117.397 437.5,115.5 Z"/></g>
<g><path style="opacity:0.995" fill="#3d9295" d="M 120.5,115.5 C 103.167,115.5 85.8333,115.5 68.5,115.5C 68.5,119.833 68.5,124.167 68.5,128.5C 67.5,128.5 66.5,128.5 65.5,128.5C 65.2,123.901 65.5333,119.401 66.5,115C 84.6714,114.171 102.671,114.338 120.5,115.5 Z"/></g>
<g><path style="opacity:1" fill="#09b0b0" d="M 644.5,116.5 C 645.167,116.5 645.833,116.5 646.5,116.5C 650.833,120.167 654.833,124.167 658.5,128.5C 652.976,125.654 648.31,121.654 644.5,116.5 Z"/></g>
<g><path style="opacity:1" fill="#9f3a9e" d="M 216.5,74.5 C 217.331,87.9939 217.831,101.661 218,115.5C 218.5,101.837 218.667,88.1707 218.5,74.5C 219.83,80.9658 220.497,87.7991 220.5,95C 220.333,101.833 220.167,108.667 220,115.5C 215.833,119.667 211.667,123.833 207.5,128C 206.552,128.483 205.552,128.649 204.5,128.5C 208.13,124.369 211.963,120.369 216,116.5C 216.5,102.504 216.667,88.504 216.5,74.5 Z"/></g>
<g><path style="opacity:0.976" fill="#c136c1" d="M 1236.5,115.5 C 1236.84,116.338 1237.51,116.672 1238.5,116.5C 1234.88,120.119 1231.21,123.785 1227.5,127.5C 1226.31,128.429 1224.98,128.762 1223.5,128.5C 1227.5,123.833 1231.83,119.5 1236.5,115.5 Z"/></g>
<g><path style="opacity:0.396" fill="#b80bb8" d="M 136.5,116.5 C 137.167,116.5 137.833,116.5 138.5,116.5C 134.69,121.654 130.024,125.654 124.5,128.5C 128.167,124.167 132.167,120.167 136.5,116.5 Z"/></g>
<g><path style="opacity:0.537" fill="#ba35ba" d="M 998.5,122.5 C 999.167,122.5 999.5,122.833 999.5,123.5C 998.561,126.241 996.727,128.241 994,129.5C 993.617,128.944 993.117,128.611 992.5,128.5C 994.167,126.167 996.167,124.167 998.5,122.5 Z"/></g>
<g><path style="opacity:0.484" fill="#b503b5" d="M 742.5,128.5 C 742.5,132.833 742.5,137.167 742.5,141.5C 741.5,141.5 740.5,141.5 739.5,141.5C 739.5,137.167 739.5,132.833 739.5,128.5C 740.5,128.5 741.5,128.5 742.5,128.5 Z"/></g>
</svg>
