<?xml version="1.0" encoding="UTF-8"?>
<!DOCTYPE svg PUBLIC "-//W3C//DTD SVG 1.1//EN" "http://www.w3.org/Graphics/SVG/1.1/DTD/svg11.dtd">
<svg xmlns="http://www.w3.org/2000/svg" version="1.1" width="1371px" height="182px" style="shape-rendering:geometricPrecision; text-rendering:geometricPrecision; image-rendering:optimizeQuality; fill-rule:evenodd; clip-rule:evenodd" xmlns:xlink="http://www.w3.org/1999/xlink">
<g><path style="opacity:0.177" fill="#1a3439" d="M 340.5,27.5 C 340.5,26.1667 339.833,25.5 338.5,25.5C 333.5,25.5 328.5,25.5 323.5,25.5C 321.564,29.7147 320.897,34.3814 321.5,39.5C 321.5,39.8333 321.5,40.1667 321.5,40.5C 320.512,35.3595 320.179,30.0262 320.5,24.5C 327.5,24.5 334.5,24.5 341.5,24.5C 341.737,25.791 341.404,26.791 340.5,27.5 Z"/></g>
<g><path style="opacity:1" fill="#00f9f9" d="M 323.5,25.5 C 324.103,30.6186 323.436,35.2853 321.5,39.5C 320.897,34.3814 321.564,29.7147 323.5,25.5 Z"/></g>
<g><path style="opacity:0.999" fill="#f1f3f8" d="M 323.5,25.5 C 328.5,25.5 333.5,25.5 338.5,25.5C 338.5,30.5 338.5,35.5 338.5,40.5C 332.833,40.5 327.167,40.5 321.5,40.5C 321.5,40.1667 321.5,39.8333 321.5,39.5C 323.436,35.2853 324.103,30.6186 323.5,25.5 Z"/></g>
<g><path style="opacity:0.686" fill="#447c81" d="M 1012.5,25.5 C 1012.17,25.5 1011.83,25.5 1011.5,25.5C 1010.83,25.5 1010.17,25.5 1009.5,25.5C 1004.83,25.5 1000.17,25.5 995.5,25.5C 994.195,27.3972 993.529,29.7305 993.5,32.5C 993.529,35.2695 994.195,37.6028 995.5,39.5C 1000.17,39.5 1004.83,39.5 1009.5,39.5C 1009.5,39.8333 1009.5,40.1667 1009.5,40.5C 1003.83,40.5 998.167,40.5 992.5,40.5C 992.5,35.1667 992.5,29.8333 992.5,24.5C 999.354,24.176 1006.02,24.5093 1012.5,25.5 Z"/></g>
<g><path style="opacity:0.993" fill="#4cfbfb" d="M 995.5,25.5 C 995.5,30.1667 995.5,34.8333 995.5,39.5C 994.195,37.6028 993.529,35.2695 993.5,32.5C 993.529,29.7305 994.195,27.3972 995.5,25.5 Z"/></g>
<g><path style="opacity:0.998" fill="#fcfcfe" d="M 995.5,25.5 C 1000.17,25.5 1004.83,25.5 1009.5,25.5C 1009.5,30.1667 1009.5,34.8333 1009.5,39.5C 1004.83,39.5 1000.17,39.5 995.5,39.5C 995.5,34.8333 995.5,30.1667 995.5,25.5 Z"/></g>
<g><path style="opacity:0.998" fill="#d503d5" d="M 338.5,25.5 C 339.833,25.5 340.5,26.1667 340.5,27.5C 340.4,31.7018 340.733,35.5351 341.5,39C 340.756,40.0386 339.756,40.5386 338.5,40.5C 338.5,35.5 338.5,30.5 338.5,25.5 Z"/></g>
<g><path style="opacity:0.921" fill="#fb33fb" d="M 1009.5,25.5 C 1010.17,25.5 1010.83,25.5 1011.5,25.5C 1012.1,30.6186 1011.44,35.2853 1009.5,39.5C 1009.5,34.8333 1009.5,30.1667 1009.5,25.5 Z"/></g>
<g><path style="opacity:0.473" fill="#990299" d="M 1011.5,25.5 C 1011.83,25.5 1012.17,25.5 1012.5,25.5C 1012.5,30.5 1012.5,35.5 1012.5,40.5C 1011.5,40.5 1010.5,40.5 1009.5,40.5C 1009.5,40.1667 1009.5,39.8333 1009.5,39.5C 1011.44,35.2853 1012.1,30.6186 1011.5,25.5 Z"/></g>
<g><path style="opacity:1" fill="#42f2f2" d="M 453.5,38.5 C 454.5,38.5 455.5,38.5 456.5,38.5C 456.5,43.1667 456.5,47.8333 456.5,52.5C 455.5,52.5 454.5,52.5 453.5,52.5C 453.5,47.8333 453.5,43.1667 453.5,38.5 Z"/></g>
<g><path style="opacity:1" fill="#f2f1f5" d="M 456.5,38.5 C 461.167,38.5 465.833,38.5 470.5,38.5C 470.5,43.1667 470.5,47.8333 470.5,52.5C 470.5,52.8333 470.5,53.1667 470.5,53.5C 464.642,53.8222 458.975,53.4889 453.5,52.5C 454.5,52.5 455.5,52.5 456.5,52.5C 456.5,47.8333 456.5,43.1667 456.5,38.5 Z"/></g>
<g><path style="opacity:0.997" fill="#fd10fd" d="M 470.5,38.5 C 471.805,40.3972 472.471,42.7305 472.5,45.5C 472.471,48.2695 471.805,50.6028 470.5,52.5C 470.5,47.8333 470.5,43.1667 470.5,38.5 Z"/></g>
<g><path style="opacity:0.215" fill="#5d2663" d="M 453.5,38.5 C 459.979,37.5093 466.646,37.176 473.5,37.5C 473.5,42.8333 473.5,48.1667 473.5,53.5C 472.5,53.5 471.5,53.5 470.5,53.5C 470.5,53.1667 470.5,52.8333 470.5,52.5C 471.805,50.6028 472.471,48.2695 472.5,45.5C 472.471,42.7305 471.805,40.3972 470.5,38.5C 465.833,38.5 461.167,38.5 456.5,38.5C 455.5,38.5 454.5,38.5 453.5,38.5 Z"/></g>
<g><path style="opacity:0.004" fill="#000000" d="M 448.5,54.5 C 446.863,52.8763 447.197,51.8763 449.5,51.5C 452.582,51.9874 453.082,53.3208 451,55.5C 450.329,54.7476 449.496,54.4142 448.5,54.5 Z"/></g>
<g><path style="opacity:0.014" fill="#050005" d="M 791.5,54.5 C 792.209,53.596 793.209,53.2627 794.5,53.5C 794.821,59.0262 794.488,64.3595 793.5,69.5C 793.821,64.3054 793.487,59.3054 792.5,54.5C 792.167,54.5 791.833,54.5 791.5,54.5 Z"/></g>
<g><path style="opacity:0.023" fill="#090b0c" d="M 1030.5,54.5 C 1011.83,54.5 993.167,54.5 974.5,54.5C 973.5,54.5 972.5,54.5 971.5,54.5C 971.5,59.1667 971.5,63.8333 971.5,68.5C 971.5,68.8333 971.5,69.1667 971.5,69.5C 970.322,68.3381 969.155,67.3381 968,66.5C 967.617,67.056 967.117,67.3893 966.5,67.5C 966.5,63.5 966.5,59.5 966.5,55.5C 968.092,56.6016 968.925,55.935 969,53.5C 969.807,57.449 970.307,57.449 970.5,53.5C 990.674,53.1695 1010.67,53.5029 1030.5,54.5 Z"/></g>
<g><path style="opacity:0.999" fill="#fdfdfe" d="M 143.5,54.5 C 144.167,54.5 144.833,54.5 145.5,54.5C 145.5,59.1667 145.5,63.8333 145.5,68.5C 125.5,68.5 105.5,68.5 85.5,68.5C 84.1883,70.7432 83.5217,73.4098 83.5,76.5C 83.5217,79.5902 84.1883,82.2568 85.5,84.5C 100.833,84.5 116.167,84.5 131.5,84.5C 135.797,89.2979 140.297,93.9645 145,98.5C 145.667,103.833 145.667,109.167 145,114.5C 140.297,119.035 135.797,123.702 131.5,128.5C 110.5,128.5 89.5,128.5 68.5,128.5C 68.5,123.833 68.5,119.167 68.5,114.5C 88.5,114.5 108.5,114.5 128.5,114.5C 129.5,114.5 130.5,114.5 131.5,114.5C 131.5,109.167 131.5,103.833 131.5,98.5C 130.5,98.5 129.5,98.5 128.5,98.5C 113.167,98.5 97.8333,98.5 82.5,98.5C 78.2033,93.7021 73.7033,89.0355 69,84.5C 68.3333,79.1667 68.3333,73.8333 69,68.5C 73.5,64 78,59.5 82.5,55C 102.831,54.5 123.164,54.3334 143.5,54.5 Z"/></g>
<g><path style="opacity:0.112" fill="#470347" d="M 145.5,69.5 C 145.5,69.1667 145.5,68.8333 145.5,68.5C 147.436,64.2853 148.103,59.6186 147.5,54.5C 148.5,58.7322 148.834,63.7322 148.5,69.5C 147.5,69.5 146.5,69.5 145.5,69.5 Z"/></g>
<g><path style="opacity:0.999" fill="#fafafb" d="M 219.5,54.5 C 219.833,54.5 220.167,54.5 220.5,54.5C 224.833,59.5 229.5,64.1667 234.5,68.5C 234.667,83.837 234.5,99.1703 234,114.5C 229.297,119.035 224.797,123.702 220.5,128.5C 203.497,128.667 186.497,128.5 169.5,128C 165,123.5 160.5,119 156,114.5C 155.333,99.1667 155.333,83.8333 156,68.5C 160.5,64 165,59.5 169.5,55C 186.163,54.5001 202.83,54.3334 219.5,54.5 Z M 172.5,69.5 C 187.5,69.5 202.5,69.5 217.5,69.5C 217.5,84.1667 217.5,98.8333 217.5,113.5C 202.5,113.5 187.5,113.5 172.5,113.5C 172.5,98.8333 172.5,84.1667 172.5,69.5 Z"/></g>
<g><path style="opacity:0.741" fill="#cc27cc" d="M 235.5,67.5 C 234.833,67.5 234.5,67.8333 234.5,68.5C 229.5,64.1667 224.833,59.5 220.5,54.5C 221.496,54.5858 222.329,54.2524 223,53.5C 227.374,58.0377 231.541,62.7043 235.5,67.5 Z"/></g>
<g><path style="opacity:0.308" fill="#163a3b" d="M 359.5,54.5 C 340.5,54.5 321.5,54.5 302.5,54.5C 301.195,56.3972 300.529,58.7305 300.5,61.5C 300.529,64.2695 301.195,66.6028 302.5,68.5C 302.5,68.8333 302.5,69.1667 302.5,69.5C 301.5,69.5 300.5,69.5 299.5,69.5C 299.5,64.1667 299.5,58.8333 299.5,53.5C 319.674,53.1695 339.674,53.5029 359.5,54.5 Z"/></g>
<g><path style="opacity:1" fill="#11fefe" d="M 302.5,54.5 C 302.5,59.1667 302.5,63.8333 302.5,68.5C 301.195,66.6028 300.529,64.2695 300.5,61.5C 300.529,58.7305 301.195,56.3972 302.5,54.5 Z"/></g>
<g><path style="opacity:0.999" fill="#fbfcfe" d="M 302.5,54.5 C 321.5,54.5 340.5,54.5 359.5,54.5C 359.5,59.1667 359.5,63.8333 359.5,68.5C 359.5,68.8333 359.5,69.1667 359.5,69.5C 353.167,69.5 346.833,69.5 340.5,69.5C 340.44,68.9569 340.107,68.6236 339.5,68.5C 339.167,76.1667 338.833,83.8333 338.5,91.5C 338.502,99.5303 339.169,107.197 340.5,114.5C 346.833,114.5 353.167,114.5 359.5,114.5C 359.5,119.167 359.5,123.833 359.5,128.5C 340.5,128.5 321.5,128.5 302.5,128.5C 302.5,123.833 302.5,119.167 302.5,114.5C 308.833,114.5 315.167,114.5 321.5,114.5C 322.831,107.197 323.498,99.5303 323.5,91.5C 323.498,83.4697 322.831,75.803 321.5,68.5C 315.167,68.5 308.833,68.5 302.5,68.5C 302.5,63.8333 302.5,59.1667 302.5,54.5 Z"/></g>
<g><path style="opacity:0.772" fill="#fd00fd" d="M 359.5,54.5 C 359.833,54.5 360.167,54.5 360.5,54.5C 361.163,56.6413 361.497,58.9746 361.5,61.5C 361.471,64.2695 360.805,66.6028 359.5,68.5C 359.5,63.8333 359.5,59.1667 359.5,54.5 Z"/></g>
<g><path style="opacity:0.573" fill="#365e61" d="M 443.5,54.5 C 418.833,54.5 394.167,54.5 369.5,54.5C 368.195,56.3972 367.529,58.7305 367.5,61.5C 367.529,64.2695 368.195,66.6028 369.5,68.5C 378.833,68.5 388.167,68.5 397.5,68.5C 397.5,68.8333 397.5,69.1667 397.5,69.5C 387.167,69.5 376.833,69.5 366.5,69.5C 366.5,64.1667 366.5,58.8333 366.5,53.5C 392.339,53.1689 418.005,53.5022 443.5,54.5 Z"/></g>
<g><path style="opacity:1" fill="#15fefe" d="M 369.5,54.5 C 369.5,59.1667 369.5,63.8333 369.5,68.5C 368.195,66.6028 367.529,64.2695 367.5,61.5C 367.529,58.7305 368.195,56.3972 369.5,54.5 Z"/></g>
<g><path style="opacity:0.999" fill="#fbfcfd" d="M 369.5,54.5 C 394.167,54.5 418.833,54.5 443.5,54.5C 444.167,54.5 444.833,54.5 445.5,54.5C 445.5,59.5 445.5,64.5 445.5,69.5C 436.167,69.5 426.833,69.5 417.5,69.5C 416.811,68.2264 415.977,68.2264 415,69.5C 414.5,89.1638 414.333,108.831 414.5,128.5C 409.833,128.5 405.167,128.5 400.5,128.5C 400.5,108.5 400.5,88.5 400.5,68.5C 399.5,68.5 398.5,68.5 397.5,68.5C 388.167,68.5 378.833,68.5 369.5,68.5C 369.5,63.8333 369.5,59.1667 369.5,54.5 Z"/></g>
<g><path style="opacity:0.725" fill="#d83ad7" d="M 445.5,54.5 C 446.5,54.5 447.5,54.5 448.5,54.5C 448.5,59.5 448.5,64.5 448.5,69.5C 447.5,69.5 446.5,69.5 445.5,69.5C 445.5,64.5 445.5,59.5 445.5,54.5 Z"/></g>
<g><path style="opacity:0.999" fill="#f9f9fa" d="M 556.5,54.5 C 556.5,59.1667 556.5,63.8333 556.5,68.5C 556.5,68.8333 556.5,69.1667 556.5,69.5C 536.833,69.5 517.167,69.5 497.5,69.5C 496.791,68.596 495.791,68.2627 494.5,68.5C 494.179,74.0262 494.512,79.3595 495.5,84.5C 496.492,84.6716 497.158,84.3382 497.5,83.5C 513.675,83.1703 529.675,83.5036 545.5,84.5C 544.761,84.369 544.094,84.5357 543.5,85C 547.667,89.1667 551.833,93.3333 556,97.5C 556.667,103.5 556.667,109.5 556,115.5C 551.63,119.702 547.463,124.036 543.5,128.5C 522.5,128.5 501.5,128.5 480.5,128.5C 480.5,123.833 480.5,119.167 480.5,114.5C 500.5,114.5 520.5,114.5 540.5,114.5C 541.812,112.257 542.478,109.59 542.5,106.5C 542.478,103.41 541.812,100.743 540.5,98.5C 525.167,98.5 509.833,98.5 494.5,98.5C 490.203,93.7021 485.703,89.0355 481,84.5C 480.333,79.1667 480.333,73.8333 481,68.5C 485.5,64 490,59.5 494.5,55C 515.164,54.5 535.831,54.3334 556.5,54.5 Z"/></g>
<g><path style="opacity:0.734" fill="#f344f2" d="M 556.5,54.5 C 557.167,54.5 557.833,54.5 558.5,54.5C 559.486,58.97 559.819,63.6367 559.5,68.5C 558.5,68.5 557.5,68.5 556.5,68.5C 556.5,63.8333 556.5,59.1667 556.5,54.5 Z"/></g>
<g><path style="opacity:0.066" fill="#2c042c" d="M 558.5,54.5 C 558.56,53.9569 558.893,53.6236 559.5,53.5C 560.495,58.7921 560.828,64.1254 560.5,69.5C 559.167,69.5 557.833,69.5 556.5,69.5C 556.5,69.1667 556.5,68.8333 556.5,68.5C 557.5,68.5 558.5,68.5 559.5,68.5C 559.819,63.6367 559.486,58.97 558.5,54.5 Z"/></g>
<g><path style="opacity:0.999" fill="#fcfcfd" d="M 699.5,54.5 C 700.167,54.5 700.833,54.5 701.5,54.5C 701.5,59.1667 701.5,63.8333 701.5,68.5C 701.5,68.8333 701.5,69.1667 701.5,69.5C 681.833,69.5 662.167,69.5 642.5,69.5C 641.5,68.1667 640.5,68.1667 639.5,69.5C 638.892,74.9443 639.558,79.9443 641.5,84.5C 656.833,84.5 672.167,84.5 687.5,84.5C 691.833,89.5 696.5,94.1667 701.5,98.5C 701.5,103.833 701.5,109.167 701.5,114.5C 696.5,118.833 691.833,123.5 687.5,128.5C 666.833,128.5 646.167,128.5 625.5,128.5C 625.5,123.833 625.5,119.167 625.5,114.5C 645.5,114.5 665.5,114.5 685.5,114.5C 686.812,112.257 687.478,109.59 687.5,106.5C 687.478,103.41 686.812,100.743 685.5,98.5C 670.167,98.5 654.833,98.5 639.5,98.5C 635.167,93.5 630.5,88.8333 625.5,84.5C 625.334,79.1563 625.501,73.8229 626,68.5C 630.5,64 635,59.5 639.5,55C 659.497,54.5 679.497,54.3334 699.5,54.5 Z"/></g>
<g><path style="opacity:0.538" fill="#fe39fe" d="M 701.5,54.5 C 702.167,54.5 702.833,54.5 703.5,54.5C 704.103,59.6186 703.436,64.2853 701.5,68.5C 701.5,63.8333 701.5,59.1667 701.5,54.5 Z"/></g>
<g><path style="opacity:0.999" fill="#f6f6f8" d="M 790.5,54.5 C 790.5,59.1667 790.5,63.8333 790.5,68.5C 790.5,68.8333 790.5,69.1667 790.5,69.5C 769.833,69.5 749.167,69.5 728.5,69.5C 728.44,68.9569 728.107,68.6236 727.5,68.5C 726.167,73.8333 726.167,79.1667 727.5,84.5C 728.107,84.3764 728.44,84.0431 728.5,83.5C 745.245,83.1676 761.245,83.5009 776.5,84.5C 775.5,84.5 774.5,84.5 773.5,84.5C 773.5,89.1667 773.5,93.8333 773.5,98.5C 774.5,98.5 775.5,98.5 776.5,98.5C 760.675,99.4964 744.675,99.8297 728.5,99.5C 728.44,98.9569 728.107,98.6236 727.5,98.5C 727.167,101.167 726.833,103.833 726.5,106.5C 726.522,109.59 727.188,112.257 728.5,114.5C 749.167,114.5 769.833,114.5 790.5,114.5C 790.5,119.167 790.5,123.833 790.5,128.5C 768.831,128.667 747.164,128.5 725.5,128C 721,123.5 716.5,119 712,114.5C 711.333,99.1667 711.333,83.8333 712,68.5C 716.5,64 721,59.5 725.5,55C 747.164,54.5 768.831,54.3334 790.5,54.5 Z"/></g>
<g><path style="opacity:0.868" fill="#fe23fe" d="M 790.5,54.5 C 790.833,54.5 791.167,54.5 791.5,54.5C 791.833,54.5 792.167,54.5 792.5,54.5C 793.103,59.6186 792.436,64.2853 790.5,68.5C 790.5,63.8333 790.5,59.1667 790.5,54.5 Z"/></g>
<g><path style="opacity:0.076" fill="#012626" d="M 799.5,54.5 C 798.514,58.97 798.181,63.6367 798.5,68.5C 797.186,63.6523 797.186,58.6523 798.5,53.5C 799.107,53.6236 799.44,53.9569 799.5,54.5 Z"/></g>
<g><path style="opacity:0.999" fill="#eff0f2" d="M 877.5,54.5 C 877.5,59.1667 877.5,63.8333 877.5,68.5C 877.5,68.8333 877.5,69.1667 877.5,69.5C 867.833,69.5 858.167,69.5 848.5,69.5C 848.44,68.9569 848.107,68.6236 847.5,68.5C 846.5,88.4889 846.167,108.489 846.5,128.5C 841.5,128.5 836.5,128.5 831.5,128.5C 831.833,108.489 831.5,88.4889 830.5,68.5C 829.893,68.6236 829.56,68.9569 829.5,69.5C 818.986,69.8276 808.653,69.4942 798.5,68.5C 800.436,64.2853 801.103,59.6186 800.5,54.5C 826.264,53.1729 851.931,53.1729 877.5,54.5 Z"/></g>
<g><path style="opacity:0.902" fill="#fe08fe" d="M 877.5,54.5 C 877.833,54.5 878.167,54.5 878.5,54.5C 879.163,56.6413 879.497,58.9746 879.5,61.5C 879.471,64.2695 878.805,66.6028 877.5,68.5C 877.5,63.8333 877.5,59.1667 877.5,54.5 Z"/></g>
<g><path style="opacity:0.24" fill="#480848" d="M 878.5,54.5 C 882.73,53.4738 883.397,53.4738 880.5,54.5C 880.5,55.5 880.5,56.5 880.5,57.5C 880.5,60.5 880.5,63.5 880.5,66.5C 880.5,67.5 880.5,68.5 880.5,69.5C 879.5,69.5 878.5,69.5 877.5,69.5C 877.5,69.1667 877.5,68.8333 877.5,68.5C 878.805,66.6028 879.471,64.2695 879.5,61.5C 879.497,58.9746 879.163,56.6413 878.5,54.5 Z"/></g>
<g><path style="opacity:0.696" fill="#437b82" d="M 886.5,54.5 C 885.837,56.6413 885.503,58.9746 885.5,61.5C 885.529,64.2695 886.195,66.6028 887.5,68.5C 896.833,68.5 906.167,68.5 915.5,68.5C 915.5,68.8333 915.5,69.1667 915.5,69.5C 905.167,69.5 894.833,69.5 884.5,69.5C 884.5,68.1667 884.5,66.8333 884.5,65.5C 884.5,62.8333 884.5,60.1667 884.5,57.5C 884.238,56.0222 884.571,54.6888 885.5,53.5C 886.107,53.6236 886.44,53.9569 886.5,54.5 Z"/></g>
<g><path style="opacity:1" fill="#25fefe" d="M 886.5,54.5 C 886.833,54.5 887.167,54.5 887.5,54.5C 887.5,59.1667 887.5,63.8333 887.5,68.5C 886.195,66.6028 885.529,64.2695 885.5,61.5C 885.503,58.9746 885.837,56.6413 886.5,54.5 Z"/></g>
<g><path style="opacity:0.999" fill="#f1f2f3" d="M 966.5,54.5 C 965.5,54.5 964.5,54.5 963.5,54.5C 963.5,59.1667 963.5,63.8333 963.5,68.5C 964.5,68.5 965.5,68.5 966.5,68.5C 956.347,69.4942 946.014,69.8276 935.5,69.5C 934.833,68.1667 934.167,68.1667 933.5,69.5C 932.503,88.9929 932.17,108.66 932.5,128.5C 927.833,128.5 923.167,128.5 918.5,128.5C 918.5,108.5 918.5,88.5 918.5,68.5C 917.5,68.5 916.5,68.5 915.5,68.5C 906.167,68.5 896.833,68.5 887.5,68.5C 887.5,63.8333 887.5,59.1667 887.5,54.5C 913.833,53.1667 940.167,53.1667 966.5,54.5 Z"/></g>
<g><path style="opacity:0.996" fill="#4eecec" d="M 974.5,54.5 C 974.5,59.1667 974.5,63.8333 974.5,68.5C 973.5,68.5 972.5,68.5 971.5,68.5C 971.5,63.8333 971.5,59.1667 971.5,54.5C 972.5,54.5 973.5,54.5 974.5,54.5 Z"/></g>
<g><path style="opacity:0.999" fill="#fcfcfd" d="M 974.5,54.5 C 993.167,54.5 1011.83,54.5 1030.5,54.5C 1030.5,59.5 1030.5,64.5 1030.5,69.5C 1024.5,69.5 1018.5,69.5 1012.5,69.5C 1011.5,68.1667 1010.5,68.1667 1009.5,69.5C 1009.5,84.1667 1009.5,98.8333 1009.5,113.5C 1016.31,114.491 1023.31,114.825 1030.5,114.5C 1030.5,119.167 1030.5,123.833 1030.5,128.5C 1011.83,128.5 993.167,128.5 974.5,128.5C 974.5,123.833 974.5,119.167 974.5,114.5C 980.5,114.5 986.5,114.5 992.5,114.5C 993.5,114.5 994.5,114.5 995.5,114.5C 995.5,99.1667 995.5,83.8333 995.5,68.5C 994.209,68.2627 993.209,68.596 992.5,69.5C 985.5,69.5 978.5,69.5 971.5,69.5C 971.5,69.1667 971.5,68.8333 971.5,68.5C 972.5,68.5 973.5,68.5 974.5,68.5C 974.5,63.8333 974.5,59.1667 974.5,54.5 Z"/></g>
<g><path style="opacity:0.008" fill="#010001" d="M 1033.5,54.5 C 1034.17,58.8333 1034.83,63.1667 1035.5,67.5C 1035.5,68.8333 1034.83,69.5 1033.5,69.5C 1033.5,64.5 1033.5,59.5 1033.5,54.5 Z"/></g>
<g><path style="opacity:0.998" fill="#fcfdfe" d="M 1105.5,54.5 C 1109.8,59.2979 1114.3,63.9645 1119,68.5C 1119.5,88.4972 1119.67,108.497 1119.5,128.5C 1114.83,128.5 1110.17,128.5 1105.5,128.5C 1106.15,108.139 1105.49,88.1387 1103.5,68.5C 1088.17,68.5 1072.83,68.5 1057.5,68.5C 1055.51,88.1387 1054.85,108.139 1055.5,128.5C 1050.5,128.5 1045.5,128.5 1040.5,128.5C 1040.33,108.497 1040.5,88.4972 1041,68.5C 1046.12,64.3483 1050.95,59.8483 1055.5,55C 1072.16,54.5001 1088.83,54.3334 1105.5,54.5 Z"/></g>
<g><path style="opacity:0.999" fill="#fbfbfc" d="M 1192.5,54.5 C 1196.83,59.5 1201.5,64.1667 1206.5,68.5C 1206.67,93.5022 1206.5,118.502 1206,143.5C 1201.3,148.035 1196.8,152.702 1192.5,157.5C 1176.5,157.5 1160.5,157.5 1144.5,157.5C 1144.5,152.833 1144.5,148.167 1144.5,143.5C 1159.5,143.5 1174.5,143.5 1189.5,143.5C 1190.5,143.5 1191.5,143.5 1192.5,143.5C 1192.5,138.5 1192.5,133.5 1192.5,128.5C 1176.5,128.5 1160.5,128.5 1144.5,128.5C 1140.2,123.702 1135.7,119.035 1131,114.5C 1130.5,99.1703 1130.33,83.837 1130.5,68.5C 1135.3,64.2033 1139.96,59.7033 1144.5,55C 1160.5,54.5001 1176.5,54.3334 1192.5,54.5 Z M 1147.5,69.5 C 1161.5,69.5 1175.5,69.5 1189.5,69.5C 1189.5,84.1667 1189.5,98.8333 1189.5,113.5C 1175.5,113.5 1161.5,113.5 1147.5,113.5C 1147.5,98.8333 1147.5,84.1667 1147.5,69.5 Z"/></g>
<g><path style="opacity:0.808" fill="#b82ab8" d="M 1208.5,67.5 C 1207.51,67.3284 1206.84,67.6618 1206.5,68.5C 1201.5,64.1667 1196.83,59.5 1192.5,54.5C 1193.5,54.5858 1194.33,54.2524 1195,53.5C 1199.7,58.0355 1204.2,62.7021 1208.5,67.5 Z"/></g>
<g><path style="opacity:0.999" fill="#fbfbfd" d="M 1230.5,54.5 C 1251.5,54.5 1272.5,54.5 1293.5,54.5C 1293.5,59.1667 1293.5,63.8333 1293.5,68.5C 1293.5,68.8333 1293.5,69.1667 1293.5,69.5C 1273.5,69.5 1253.5,69.5 1233.5,69.5C 1232.81,68.2264 1231.98,68.2264 1231,69.5C 1230.5,74.4889 1230.33,79.4889 1230.5,84.5C 1231.5,84.5 1232.5,84.5 1233.5,84.5C 1248.83,84.5 1264.17,84.5 1279.5,84.5C 1283.8,89.2979 1288.3,93.9645 1293,98.5C 1293.67,103.833 1293.67,109.167 1293,114.5C 1288.3,119.035 1283.8,123.702 1279.5,128.5C 1258.5,128.5 1237.5,128.5 1216.5,128.5C 1216.5,123.833 1216.5,119.167 1216.5,114.5C 1237.5,114.5 1258.5,114.5 1279.5,114.5C 1279.5,109.167 1279.5,103.833 1279.5,98.5C 1278.5,98.5 1277.5,98.5 1276.5,98.5C 1261.16,98.6666 1245.83,98.4999 1230.5,98C 1226,93.5 1221.5,89 1217,84.5C 1216.33,79.1667 1216.33,73.8333 1217,68.5C 1221.7,63.9645 1226.2,59.2979 1230.5,54.5 Z"/></g>
<g><path style="opacity:0.786" fill="#fe00fe" d="M 1293.5,54.5 C 1294.8,56.3972 1295.47,58.7305 1295.5,61.5C 1295.47,64.2695 1294.8,66.6028 1293.5,68.5C 1293.5,63.8333 1293.5,59.1667 1293.5,54.5 Z"/></g>
<g><path style="opacity:0.136" fill="#321232" d="M 1228.5,54.5 C 1250.99,53.5025 1273.66,53.1692 1296.5,53.5C 1296.5,58.8333 1296.5,64.1667 1296.5,69.5C 1295.5,69.5 1294.5,69.5 1293.5,69.5C 1293.5,69.1667 1293.5,68.8333 1293.5,68.5C 1294.8,66.6028 1295.47,64.2695 1295.5,61.5C 1295.47,58.7305 1294.8,56.3972 1293.5,54.5C 1272.5,54.5 1251.5,54.5 1230.5,54.5C 1229.83,54.5 1229.17,54.5 1228.5,54.5 Z"/></g>
<g><path style="opacity:0.114" fill="#3a033a" d="M 360.5,54.5 C 360.56,53.9569 360.893,53.6236 361.5,53.5C 362.495,58.7921 362.828,64.1254 362.5,69.5C 361.5,69.5 360.5,69.5 359.5,69.5C 359.5,69.1667 359.5,68.8333 359.5,68.5C 360.805,66.6028 361.471,64.2695 361.5,61.5C 361.497,58.9746 361.163,56.6413 360.5,54.5 Z"/></g>
<g><path style="opacity:0.344" fill="#990799" d="M 701.5,69.5 C 701.5,69.1667 701.5,68.8333 701.5,68.5C 703.436,64.2853 704.103,59.6186 703.5,54.5C 704.5,58.7322 704.834,63.7322 704.5,69.5C 703.5,69.5 702.5,69.5 701.5,69.5 Z"/></g>
<g><path style="opacity:1" fill="#00f8f8" d="M 799.5,54.5 C 799.833,54.5 800.167,54.5 800.5,54.5C 801.103,59.6186 800.436,64.2853 798.5,68.5C 798.181,63.6367 798.514,58.97 799.5,54.5 Z"/></g>
<g><path style="opacity:0.935" fill="#ed45ed" d="M 966.5,54.5 C 966.5,54.8333 966.5,55.1667 966.5,55.5C 966.5,59.5 966.5,63.5 966.5,67.5C 966.5,67.8333 966.5,68.1667 966.5,68.5C 965.5,68.5 964.5,68.5 963.5,68.5C 963.5,63.8333 963.5,59.1667 963.5,54.5C 964.5,54.5 965.5,54.5 966.5,54.5 Z"/></g>
<g><path style="opacity:0.58" fill="#f60df6" d="M 145.5,54.5 C 146.167,54.5 146.833,54.5 147.5,54.5C 148.103,59.6186 147.436,64.2853 145.5,68.5C 145.5,63.8333 145.5,59.1667 145.5,54.5 Z"/></g>
<g><path style="opacity:0.435" fill="#a602a6" d="M 792.5,54.5 C 793.487,59.3054 793.821,64.3054 793.5,69.5C 792.5,69.5 791.5,69.5 790.5,69.5C 790.5,69.1667 790.5,68.8333 790.5,68.5C 792.436,64.2853 793.103,59.6186 792.5,54.5 Z"/></g>
<g><path style="opacity:0.43" fill="#cd25cd" d="M 1033.5,54.5 C 1033.5,59.5 1033.5,64.5 1033.5,69.5C 1032.5,69.5 1031.5,69.5 1030.5,69.5C 1030.5,64.5 1030.5,59.5 1030.5,54.5C 1031.8,53.8843 1032.8,53.8843 1033.5,54.5 Z"/></g>
<g><path style="opacity:0.018" fill="#000000" d="M 880.5,57.5 C 881.702,58.4054 883.036,58.4054 884.5,57.5C 884.5,60.1667 884.5,62.8333 884.5,65.5C 883.041,65.4326 881.708,65.7659 880.5,66.5C 880.5,63.5 880.5,60.5 880.5,57.5 Z"/></g>
<g><path style="opacity:0.004" fill="#000000" d="M 1035.5,66.5 C 1036.83,67.1667 1036.83,67.1667 1035.5,66.5 Z"/></g>
<g><path style="opacity:0.004" fill="#000000" d="M 1211.5,67.5 C 1210.83,66.1667 1210.83,66.1667 1211.5,67.5 Z"/></g>
<g><path style="opacity:0.004" fill="#000000" d="M 706.5,67.5 C 707.573,68.2506 707.74,69.2506 707,70.5C 705.272,69.6477 705.105,68.6477 706.5,67.5 Z"/></g>
<g><path style="opacity:0.004" fill="#000000" d="M 1211.5,67.5 C 1212.53,67.8966 1212.69,68.5632 1212,69.5C 1211.54,68.9056 1211.37,68.2389 1211.5,67.5 Z"/></g>
<g><path style="opacity:0.568" fill="#7b8096" d="M 85.5,68.5 C 105.5,68.5 125.5,68.5 145.5,68.5C 145.5,68.8333 145.5,69.1667 145.5,69.5C 125.267,68.8639 105.267,69.5306 85.5,71.5C 85.5,70.5 85.5,69.5 85.5,68.5 Z"/></g>
<g><path style="opacity:1" fill="#26a1a1" d="M 143.5,54.5 C 123.164,54.3334 102.831,54.5 82.5,55C 78,59.5 73.5,64 69,68.5C 68.3333,73.8333 68.3333,79.1667 69,84.5C 73.7033,89.0355 78.2033,93.7021 82.5,98.5C 81.8333,98.5 81.1667,98.5 80.5,98.5C 75.5354,94.0366 70.7021,89.3699 66,84.5C 65.3333,79.1667 65.3333,73.8333 66,68.5C 70.8333,63.6667 75.6667,58.8333 80.5,54C 101.671,53.1707 122.671,53.3373 143.5,54.5 Z"/></g>
<g><path style="opacity:0.551" fill="#058484" d="M 167.5,54.5 C 163.203,59.2979 158.703,63.9645 154,68.5C 153.333,83.8333 153.333,99.1667 154,114.5C 156.454,116.441 158.287,118.775 159.5,121.5C 157.203,119.706 155.037,117.706 153,115.5C 152.333,99.5 152.333,83.5 153,67.5C 157.426,62.5663 162.26,58.233 167.5,54.5 Z"/></g>
<g><path style="opacity:1" fill="#3da6a6" d="M 219.5,54.5 C 202.83,54.3334 186.163,54.5001 169.5,55C 165,59.5 160.5,64 156,68.5C 155.333,83.8333 155.333,99.1667 156,114.5C 160.5,119 165,123.5 169.5,128C 186.497,128.5 203.497,128.667 220.5,128.5C 202.671,129.662 184.671,129.829 166.5,129C 163.961,126.63 161.628,124.13 159.5,121.5C 158.287,118.775 156.454,116.441 154,114.5C 153.333,99.1667 153.333,83.8333 154,68.5C 158.703,63.9645 163.203,59.2979 167.5,54.5C 184.833,53.1667 202.167,53.1667 219.5,54.5 Z"/></g>
<g><path style="opacity:1" fill="#44f2f2" d="M 217.5,113.5 C 217.5,98.8333 217.5,84.1667 217.5,69.5C 218.209,68.596 219.209,68.2627 220.5,68.5C 220.5,83.8333 220.5,99.1667 220.5,114.5C 219.209,114.737 218.209,114.404 217.5,113.5 Z"/></g>
<g><path style="opacity:0.997" fill="#e21ce2" d="M 235.5,67.5 C 236.117,67.6107 236.617,67.944 237,68.5C 237.667,83.8333 237.667,99.1667 237,114.5C 232,119.5 227,124.5 222,129.5C 221.617,128.944 221.117,128.611 220.5,128.5C 224.797,123.702 229.297,119.035 234,114.5C 234.5,99.1703 234.667,83.837 234.5,68.5C 234.5,67.8333 234.833,67.5 235.5,67.5 Z"/></g>
<g><path style="opacity:1" fill="#08fcfc" d="M 321.5,68.5 C 322.831,75.803 323.498,83.4697 323.5,91.5C 323.498,99.5303 322.831,107.197 321.5,114.5C 321.5,99.1667 321.5,83.8333 321.5,68.5 Z"/></g>
<g><path style="opacity:0.482" fill="#dd38dd" d="M 417.5,69.5 C 417.626,89.0172 417.626,108.684 417.5,128.5C 416.5,128.5 415.5,128.5 414.5,128.5C 414.333,108.831 414.5,89.1638 415,69.5C 415.977,68.2264 416.811,68.2264 417.5,69.5 Z"/></g>
<g><path style="opacity:1" fill="#36abab" d="M 556.5,54.5 C 535.831,54.3334 515.164,54.5 494.5,55C 490,59.5 485.5,64 481,68.5C 480.333,73.8333 480.333,79.1667 481,84.5C 485.703,89.0355 490.203,93.7021 494.5,98.5C 493.833,98.5 493.167,98.5 492.5,98.5C 488.859,95.1951 485.192,91.8617 481.5,88.5C 481.315,86.8042 480.481,85.4709 479,84.5C 478.501,79.1771 478.334,73.8437 478.5,68.5C 482.963,63.5354 487.63,58.7021 492.5,54C 514.004,53.1706 535.337,53.3373 556.5,54.5 Z"/></g>
<g><path style="opacity:0.768" fill="#fa7afe" d="M 497.5,69.5 C 495.558,74.0557 494.892,79.0557 495.5,84.5C 494.512,79.3595 494.179,74.0262 494.5,68.5C 495.791,68.2627 496.791,68.596 497.5,69.5 Z"/></g>
<g><path style="opacity:0.389" fill="#ab15ac" d="M 497.5,69.5 C 498.833,74.1667 498.833,78.8333 497.5,83.5C 497.158,84.3382 496.492,84.6716 495.5,84.5C 494.892,79.0557 495.558,74.0557 497.5,69.5 Z"/></g>
<g><path style="opacity:0.665" fill="#fd3eff" d="M 639.5,69.5 C 641.442,74.0557 642.108,79.0557 641.5,84.5C 639.558,79.9443 638.892,74.9443 639.5,69.5 Z"/></g>
<g><path style="opacity:0.785" fill="#2f8a8a" d="M 790.5,54.5 C 768.831,54.3334 747.164,54.5 725.5,55C 721,59.5 716.5,64 712,68.5C 711.333,83.8333 711.333,99.1667 712,114.5C 716.5,119 721,123.5 725.5,128C 747.164,128.5 768.831,128.667 790.5,128.5C 768.337,129.663 746.004,129.83 723.5,129C 718.121,123.956 713.121,118.623 708.5,113C 708.768,98.2007 708.935,83.3673 709,68.5C 713.833,63.6667 718.667,58.8333 723.5,54C 746.004,53.1704 768.337,53.3371 790.5,54.5 Z"/></g>
<g><path style="opacity:0.192" fill="#d419d6" d="M 728.5,69.5 C 729.778,74.1982 729.778,78.8648 728.5,83.5C 728.44,84.0431 728.107,84.3764 727.5,84.5C 726.167,79.1667 726.167,73.8333 727.5,68.5C 728.107,68.6236 728.44,68.9569 728.5,69.5 Z"/></g>
<g><path style="opacity:0.843" fill="#dd07de" d="M 848.5,69.5 C 848.539,89.2066 848.872,108.707 849.5,128C 848.552,128.483 847.552,128.649 846.5,128.5C 846.167,108.489 846.5,88.4889 847.5,68.5C 848.107,68.6236 848.44,68.9569 848.5,69.5 Z"/></g>
<g><path style="opacity:1" fill="#0bdbdb" d="M 915.5,68.5 C 916.5,68.5 917.5,68.5 918.5,68.5C 918.5,88.5 918.5,108.5 918.5,128.5C 917.5,128.5 916.5,128.5 915.5,128.5C 915.5,108.833 915.5,89.1667 915.5,69.5C 915.5,69.1667 915.5,68.8333 915.5,68.5 Z"/></g>
<g><path style="opacity:0.693" fill="#ff4aff" d="M 933.5,69.5 C 934.497,88.9929 934.83,108.66 934.5,128.5C 933.833,128.5 933.167,128.5 932.5,128.5C 932.17,108.66 932.503,88.9929 933.5,69.5 Z"/></g>
<g><path style="opacity:0.336" fill="#ff24ff" d="M 1009.5,69.5 C 1010.83,76.4682 1011.5,83.8016 1011.5,91.5C 1011.5,99.1984 1010.83,106.532 1009.5,113.5C 1009.5,98.8333 1009.5,84.1667 1009.5,69.5 Z"/></g>
<g><path style="opacity:0.674" fill="#fe0bff" d="M 1057.5,68.5 C 1057.5,68.8333 1057.5,69.1667 1057.5,69.5C 1058.15,89.5284 1057.49,109.195 1055.5,128.5C 1054.85,108.139 1055.51,88.1387 1057.5,68.5 Z"/></g>
<g><path style="opacity:0.211" fill="#33565c" d="M 1057.5,69.5 C 1057.5,69.1667 1057.5,68.8333 1057.5,68.5C 1072.83,68.5 1088.17,68.5 1103.5,68.5C 1102.85,88.8613 1103.51,108.861 1105.5,128.5C 1110.17,128.5 1114.83,128.5 1119.5,128.5C 1120.5,128.5 1121.5,128.5 1122.5,128.5C 1116.02,129.491 1109.35,129.824 1102.5,129.5C 1102.5,109.5 1102.5,89.5 1102.5,69.5C 1087.83,69.5 1073.17,69.5 1058.5,69.5C 1058.17,69.5 1057.83,69.5 1057.5,69.5 Z"/></g>
<g><path style="opacity:1" fill="#0bfffe" d="M 1103.5,68.5 C 1105.49,88.1387 1106.15,108.139 1105.5,128.5C 1103.51,108.861 1102.85,88.8613 1103.5,68.5 Z"/></g>
<g><path style="opacity:0.918" fill="#61fafa" d="M 1130.5,68.5 C 1130.33,83.837 1130.5,99.1703 1131,114.5C 1135.7,119.035 1140.2,123.702 1144.5,128.5C 1143.5,128.5 1142.5,128.5 1141.5,128.5C 1140.17,127.833 1139.17,126.833 1138.5,125.5C 1135.94,121.43 1132.77,117.764 1129,114.5C 1128.83,106.833 1128.67,99.1667 1128.5,91.5C 1128.5,83.4697 1129.17,75.803 1130.5,68.5 Z"/></g>
<g><path style="opacity:0.597" fill="#fe18ff" d="M 1144.5,69.5 C 1145.83,76.4682 1146.5,83.8016 1146.5,91.5C 1146.5,99.1984 1145.83,106.532 1144.5,113.5C 1144.5,98.8333 1144.5,84.1667 1144.5,69.5 Z"/></g>
<g><path style="opacity:0.13" fill="#8c198e" d="M 1144.5,69.5 C 1145.5,68.1667 1146.5,68.1667 1147.5,69.5C 1147.5,84.1667 1147.5,98.8333 1147.5,113.5C 1146.5,114.833 1145.5,114.833 1144.5,113.5C 1145.83,106.532 1146.5,99.1984 1146.5,91.5C 1146.5,83.8016 1145.83,76.4682 1144.5,69.5 Z"/></g>
<g><path style="opacity:1" fill="#3eb6b9" d="M 1228.5,54.5 C 1229.17,54.5 1229.83,54.5 1230.5,54.5C 1226.2,59.2979 1221.7,63.9645 1217,68.5C 1216.33,73.8333 1216.33,79.1667 1217,84.5C 1221.5,89 1226,93.5 1230.5,98C 1245.83,98.4999 1261.16,98.6666 1276.5,98.5C 1276.5,98.8333 1276.5,99.1667 1276.5,99.5C 1260.5,99.6666 1244.5,99.4999 1228.5,99C 1223.63,93.9635 1218.63,89.1302 1213.5,84.5C 1213.33,79.1563 1213.5,73.8229 1214,68.5C 1218.7,63.6301 1223.54,58.9634 1228.5,54.5 Z"/></g>
<g><path style="opacity:0.147" fill="#ea26ed" d="M 85.5,68.5 C 85.5,69.5 85.5,70.5 85.5,71.5C 85.5,74.5 85.5,77.5 85.5,80.5C 85.5,81.8333 85.5,83.1667 85.5,84.5C 84.1883,82.2568 83.5217,79.5902 83.5,76.5C 83.5217,73.4098 84.1883,70.7432 85.5,68.5 Z"/></g>
<g><path style="opacity:0.678" fill="#fb68fe" d="M 172.5,69.5 C 171.169,76.4682 170.503,83.8016 170.5,91.5C 170.503,99.1984 171.169,106.532 172.5,113.5C 171.791,114.404 170.791,114.737 169.5,114.5C 169.5,99.1667 169.5,83.8333 169.5,68.5C 170.791,68.2627 171.791,68.596 172.5,69.5 Z"/></g>
<g><path style="opacity:0.381" fill="#df00df" d="M 172.5,69.5 C 172.5,84.1667 172.5,98.8333 172.5,113.5C 171.169,106.532 170.503,99.1984 170.5,91.5C 170.503,83.8016 171.169,76.4682 172.5,69.5 Z"/></g>
<g><path style="opacity:0.98" fill="#f415f5" d="M 340.5,69.5 C 340.558,84.3458 340.558,99.0124 340.5,113.5C 340.5,113.833 340.5,114.167 340.5,114.5C 339.169,107.197 338.502,99.5303 338.5,91.5C 338.833,83.8333 339.167,76.1667 339.5,68.5C 340.107,68.6236 340.44,68.9569 340.5,69.5 Z"/></g>
<g><path style="opacity:1" fill="#28fefe" d="M 397.5,69.5 C 397.5,69.1667 397.5,68.8333 397.5,68.5C 398.5,68.5 399.5,68.5 400.5,68.5C 400.5,88.5 400.5,108.5 400.5,128.5C 398.837,109.021 397.837,89.3546 397.5,69.5 Z"/></g>
<g><path style="opacity:0.361" fill="#085f5f" d="M 478.5,68.5 C 478.334,73.8437 478.501,79.1771 479,84.5C 480.481,85.4709 481.315,86.8042 481.5,88.5C 480.206,87.7101 479.039,86.7101 478,85.5C 477.182,79.6513 477.348,73.9846 478.5,68.5 Z"/></g>
<g><path style="opacity:0.992" fill="#3ca7a7" d="M 699.5,54.5 C 679.497,54.3334 659.497,54.5 639.5,55C 635,59.5 630.5,64 626,68.5C 625.501,73.8229 625.334,79.1563 625.5,84.5C 623.55,79.2649 622.883,73.5982 623.5,67.5C 627.63,62.8688 631.963,58.3688 636.5,54C 657.671,53.1707 678.671,53.3373 699.5,54.5 Z"/></g>
<g><path style="opacity:0.224" fill="#713a7a" d="M 639.5,69.5 C 640.5,68.1667 641.5,68.1667 642.5,69.5C 642.5,74.1667 642.5,78.8333 642.5,83.5C 658.342,83.1704 674.009,83.5037 689.5,84.5C 688.833,84.5 688.167,84.5 687.5,84.5C 672.167,84.5 656.833,84.5 641.5,84.5C 642.108,79.0557 641.442,74.0557 639.5,69.5 Z"/></g>
<g><path style="opacity:0.999" fill="#0ef5f5" d="M 831.5,128.5 C 829.513,109.863 828.846,90.8627 829.5,71.5C 829.5,70.8333 829.5,70.1667 829.5,69.5C 829.56,68.9569 829.893,68.6236 830.5,68.5C 831.5,88.4889 831.833,108.489 831.5,128.5 Z"/></g>
<g><path style="opacity:0.481" fill="#c30fc4" d="M 933.5,69.5 C 934.167,68.1667 934.833,68.1667 935.5,69.5C 935.5,69.8333 935.5,70.1667 935.5,70.5C 935.83,90.0072 935.497,109.341 934.5,128.5C 934.83,108.66 934.497,88.9929 933.5,69.5 Z"/></g>
<g><path style="opacity:0.049" fill="#150c16" d="M 935.5,70.5 C 936.497,89.9929 936.83,109.66 936.5,129.5C 929.313,129.825 922.313,129.491 915.5,128.5C 916.5,128.5 917.5,128.5 918.5,128.5C 923.167,128.5 927.833,128.5 932.5,128.5C 933.167,128.5 933.833,128.5 934.5,128.5C 935.497,109.341 935.83,90.0072 935.5,70.5 Z"/></g>
<g><path style="opacity:1" fill="#41e7e7" d="M 992.5,114.5 C 992.5,114.167 992.5,113.833 992.5,113.5C 992.5,98.8333 992.5,84.1667 992.5,69.5C 993.209,68.596 994.209,68.2627 995.5,68.5C 995.5,83.8333 995.5,99.1667 995.5,114.5C 994.5,114.5 993.5,114.5 992.5,114.5 Z"/></g>
<g><path style="opacity:0.205" fill="#7b3080" d="M 1009.5,69.5 C 1010.5,68.1667 1011.5,68.1667 1012.5,69.5C 1013.69,84.1707 1013.69,98.8374 1012.5,113.5C 1019.5,113.5 1026.5,113.5 1033.5,113.5C 1033.5,113.833 1033.5,114.167 1033.5,114.5C 1032.5,114.5 1031.5,114.5 1030.5,114.5C 1023.31,114.825 1016.31,114.491 1009.5,113.5C 1010.83,106.532 1011.5,99.1984 1011.5,91.5C 1011.5,83.8016 1010.83,76.4682 1009.5,69.5 Z"/></g>
<g><path style="opacity:1" fill="#2dbfbf" d="M 1105.5,54.5 C 1088.83,54.3334 1072.16,54.5001 1055.5,55C 1050.95,59.8483 1046.12,64.3483 1041,68.5C 1040.5,88.4972 1040.33,108.497 1040.5,128.5C 1039.83,128.5 1039.17,128.5 1038.5,128.5C 1038.83,108.591 1038.49,88.7573 1037.5,69C 1042.53,63.6335 1047.87,58.6335 1053.5,54C 1071,53.1715 1088.34,53.3382 1105.5,54.5 Z"/></g>
<g><path style="opacity:0.114" fill="#3e003e" d="M 1057.5,69.5 C 1057.83,69.5 1058.17,69.5 1058.5,69.5C 1058.5,89.5 1058.5,109.5 1058.5,129.5C 1057.5,129.5 1056.5,129.5 1055.5,129.5C 1055.5,129.167 1055.5,128.833 1055.5,128.5C 1057.49,109.195 1058.15,89.5284 1057.5,69.5 Z"/></g>
<g><path style="opacity:0.452" fill="#c331c3" d="M 1122.5,128.5 C 1121.5,128.5 1120.5,128.5 1119.5,128.5C 1119.67,108.497 1119.5,88.4972 1119,68.5C 1114.3,63.9645 1109.8,59.2979 1105.5,54.5C 1106.42,53.6971 1107.42,53.5304 1108.5,54C 1113.33,58.8333 1118.17,63.6667 1123,68.5C 1123.74,88.7652 1123.57,108.765 1122.5,128.5 Z"/></g>
<g><path style="opacity:0.114" fill="#278c8c" d="M 1192.5,54.5 C 1176.5,54.3334 1160.5,54.5001 1144.5,55C 1139.96,59.7033 1135.3,64.2033 1130.5,68.5C 1129.17,75.803 1128.5,83.4697 1128.5,91.5C 1128.67,99.1667 1128.83,106.833 1129,114.5C 1132.77,117.764 1135.94,121.43 1138.5,125.5C 1134.87,122.371 1131.37,119.037 1128,115.5C 1127.33,99.5 1127.33,83.5 1128,67.5C 1132.5,63 1137,58.5 1141.5,54C 1158.67,53.1716 1175.67,53.3383 1192.5,54.5 Z"/></g>
<g><path style="opacity:0.986" fill="#3ce4e5" d="M 1189.5,113.5 C 1189.5,98.8333 1189.5,84.1667 1189.5,69.5C 1190.21,68.596 1191.21,68.2627 1192.5,68.5C 1192.5,83.8333 1192.5,99.1667 1192.5,114.5C 1191.21,114.737 1190.21,114.404 1189.5,113.5 Z"/></g>
<g><path style="opacity:0.893" fill="#e62ce6" d="M 1208.5,67.5 C 1209.83,93.0032 1209.83,118.67 1208.5,144.5C 1203.81,148.855 1199.15,153.188 1194.5,157.5C 1193.83,157.5 1193.17,157.5 1192.5,157.5C 1196.8,152.702 1201.3,148.035 1206,143.5C 1206.5,118.502 1206.67,93.5022 1206.5,68.5C 1206.84,67.6618 1207.51,67.3284 1208.5,67.5 Z"/></g>
<g><path style="opacity:0.373" fill="#f551f7" d="M 1233.5,69.5 C 1233.5,69.8333 1233.5,70.1667 1233.5,70.5C 1233.5,75.1667 1233.5,79.8333 1233.5,84.5C 1232.5,84.5 1231.5,84.5 1230.5,84.5C 1230.33,79.4889 1230.5,74.4889 1231,69.5C 1231.98,68.2264 1232.81,68.2264 1233.5,69.5 Z"/></g>
<g><path style="opacity:0.032" fill="#0a2929" d="M 829.5,71.5 C 828.846,90.8627 829.513,109.863 831.5,128.5C 836.5,128.5 841.5,128.5 846.5,128.5C 840.69,129.49 834.69,129.823 828.5,129.5C 828.17,109.993 828.503,90.6595 829.5,71.5 Z"/></g>
<g><path style="opacity:0.31" fill="#434556" d="M 85.5,80.5 C 86.404,81.209 86.7373,82.209 86.5,83.5C 101.676,83.1706 116.676,83.5039 131.5,84.5C 116.167,84.5 100.833,84.5 85.5,84.5C 85.5,83.1667 85.5,81.8333 85.5,80.5 Z"/></g>
<g><path style="opacity:0.311" fill="#3f394e" d="M 1233.5,70.5 C 1234.48,74.6344 1234.82,78.9677 1234.5,83.5C 1250.34,83.1704 1266.01,83.5037 1281.5,84.5C 1280.83,84.5 1280.17,84.5 1279.5,84.5C 1264.17,84.5 1248.83,84.5 1233.5,84.5C 1233.5,79.8333 1233.5,75.1667 1233.5,70.5 Z"/></g>
<g><path style="opacity:1" fill="#3ac6c6" d="M 623.5,67.5 C 622.883,73.5982 623.55,79.2649 625.5,84.5C 630.5,88.8333 635.167,93.5 639.5,98.5C 638.5,98.5 637.5,98.5 636.5,98.5C 631.369,93.8698 626.369,89.0365 621.5,84C 622.812,79.1973 622.812,74.364 621.5,69.5C 621.855,68.4777 622.522,67.811 623.5,67.5 Z"/></g>
<g><path style="opacity:0.76" fill="#f43df3" d="M 776.5,84.5 C 776.5,89.1667 776.5,93.8333 776.5,98.5C 775.5,98.5 774.5,98.5 773.5,98.5C 773.5,93.8333 773.5,89.1667 773.5,84.5C 774.5,84.5 775.5,84.5 776.5,84.5 Z"/></g>
<g><path style="opacity:0.004" fill="#000000" d="M 1213.5,84.5 C 1213.49,87.0009 1212.82,87.1676 1211.5,85C 1212.09,84.5357 1212.76,84.369 1213.5,84.5 Z"/></g>
<g><path style="opacity:0.275" fill="#4c104c" d="M 1291.5,93.5 C 1292.91,93.9731 1293.57,94.9731 1293.5,96.5C 1292.09,96.0269 1291.43,95.0269 1291.5,93.5 Z"/></g>
<g><path style="opacity:0.004" fill="#000000" d="M 149.5,97.5 C 150.525,97.8966 150.692,98.5632 150,99.5C 149.536,98.9056 149.369,98.2389 149.5,97.5 Z"/></g>
<g><path style="opacity:0.004" fill="#000000" d="M 706.5,97.5 C 707.634,99.9664 707.801,102.633 707,105.5C 706.503,102.854 706.336,100.187 706.5,97.5 Z"/></g>
<g><path style="opacity:0.733" fill="#db12db" d="M 1279.5,84.5 C 1280.17,84.5 1280.83,84.5 1281.5,84.5C 1284.81,87.4778 1288.15,90.4778 1291.5,93.5C 1291.43,95.0269 1292.09,96.0269 1293.5,96.5C 1293.83,96.5 1294.17,96.5 1294.5,96.5C 1295.41,102.441 1295.75,108.441 1295.5,114.5C 1291.19,119.146 1286.86,123.813 1282.5,128.5C 1281.5,128.5 1280.5,128.5 1279.5,128.5C 1283.8,123.702 1288.3,119.035 1293,114.5C 1293.67,109.167 1293.67,103.833 1293,98.5C 1288.3,93.9645 1283.8,89.2979 1279.5,84.5 Z"/></g>
<g><path style="opacity:0.409" fill="#505e6c" d="M 80.5,98.5 C 81.1667,98.5 81.8333,98.5 82.5,98.5C 97.8333,98.5 113.167,98.5 128.5,98.5C 128.5,103.833 128.5,109.167 128.5,114.5C 108.5,114.5 88.5,114.5 68.5,114.5C 68.5,114.167 68.5,113.833 68.5,113.5C 88.1667,113.5 107.833,113.5 127.5,113.5C 127.5,108.833 127.5,104.167 127.5,99.5C 111.658,99.8296 95.9911,99.4963 80.5,98.5 Z"/></g>
<g><path style="opacity:1" fill="#4bf8f8" d="M 128.5,98.5 C 129.5,98.5 130.5,98.5 131.5,98.5C 131.5,103.833 131.5,109.167 131.5,114.5C 130.5,114.5 129.5,114.5 128.5,114.5C 128.5,109.167 128.5,103.833 128.5,98.5 Z"/></g>
<g><path style="opacity:0.597" fill="#ff50ff" d="M 701.5,114.5 C 701.5,109.167 701.5,103.833 701.5,98.5C 701.81,97.2617 702.31,97.2617 703,98.5C 703.167,101.167 703.333,103.833 703.5,106.5C 703.478,109.59 702.812,112.257 701.5,114.5 Z"/></g>
<g><path style="opacity:0.144" fill="#ec1def" d="M 728.5,99.5 C 728.792,104.291 728.792,108.958 728.5,113.5C 728.5,113.833 728.5,114.167 728.5,114.5C 727.188,112.257 726.522,109.59 726.5,106.5C 726.833,103.833 727.167,101.167 727.5,98.5C 728.107,98.6236 728.44,98.9569 728.5,99.5 Z"/></g>
<g><path style="opacity:0.215" fill="#cd15cd" d="M 131.5,128.5 C 135.797,123.702 140.297,119.035 145,114.5C 145.667,109.167 145.667,103.833 145,98.5C 140.297,93.9645 135.797,89.2979 131.5,84.5C 132.117,84.3893 132.617,84.056 133,83.5C 137.708,88.3761 142.541,93.0427 147.5,97.5C 148.663,103.137 148.83,108.804 148,114.5C 142.973,119.527 137.973,124.527 133,129.5C 132.617,128.944 132.117,128.611 131.5,128.5 Z"/></g>
<g><path style="opacity:1" fill="#25fbfb" d="M 540.5,98.5 C 541.812,100.743 542.478,103.41 542.5,106.5C 542.478,109.59 541.812,112.257 540.5,114.5C 540.5,109.167 540.5,103.833 540.5,98.5 Z"/></g>
<g><path style="opacity:0.709" fill="#c823c8" d="M 545.5,84.5 C 550.465,88.9634 555.298,93.6301 560,98.5C 560.667,103.833 560.667,109.167 560,114.5C 555.298,119.37 550.465,124.037 545.5,128.5C 544.833,128.5 544.167,128.5 543.5,128.5C 547.463,124.036 551.63,119.702 556,115.5C 556.667,109.5 556.667,103.5 556,97.5C 551.833,93.3333 547.667,89.1667 543.5,85C 544.094,84.5357 544.761,84.369 545.5,84.5 Z"/></g>
<g><path style="opacity:0.364" fill="#4d7984" d="M 636.5,98.5 C 637.5,98.5 638.5,98.5 639.5,98.5C 654.833,98.5 670.167,98.5 685.5,98.5C 685.5,103.833 685.5,109.167 685.5,114.5C 665.5,114.5 645.5,114.5 625.5,114.5C 624.5,114.5 623.5,114.5 622.5,114.5C 642.424,113.501 663.091,113.167 684.5,113.5C 684.5,108.833 684.5,104.167 684.5,99.5C 668.325,99.8297 652.325,99.4964 636.5,98.5 Z"/></g>
<g><path style="opacity:0.92" fill="#37fffe" d="M 685.5,98.5 C 686.812,100.743 687.478,103.41 687.5,106.5C 687.478,109.59 686.812,112.257 685.5,114.5C 685.5,109.167 685.5,103.833 685.5,98.5 Z"/></g>
<g><path style="opacity:1" fill="#58aeb6" d="M 1276.5,98.5 C 1277.5,98.5 1278.5,98.5 1279.5,98.5C 1279.5,103.833 1279.5,109.167 1279.5,114.5C 1258.5,114.5 1237.5,114.5 1216.5,114.5C 1215.83,114.5 1215.17,114.5 1214.5,114.5C 1235,113.668 1255.66,113.168 1276.5,113C 1275.25,108.532 1275.25,104.032 1276.5,99.5C 1276.5,99.1667 1276.5,98.8333 1276.5,98.5 Z"/></g>
<g><path style="opacity:0.114" fill="#450245" d="M 1294.5,96.5 C 1295.12,96.6107 1295.62,96.944 1296,97.5C 1296.82,103.349 1296.65,109.015 1295.5,114.5C 1295.75,108.441 1295.41,102.441 1294.5,96.5 Z"/></g>
<g><path style="opacity:0.004" fill="#000000" d="M 706.5,108.5 C 707.598,109.601 707.765,110.934 707,112.5C 706.51,111.207 706.343,109.873 706.5,108.5 Z"/></g>
<g><path style="opacity:0.004" fill="#000000" d="M 1035.5,114.5 C 1035.17,114.5 1034.83,114.5 1034.5,114.5C 1034.5,113.833 1034.17,113.5 1033.5,113.5C 1034.3,111.207 1034.97,111.54 1035.5,114.5 Z"/></g>
<g><path style="opacity:0.487" fill="#485763" d="M 492.5,98.5 C 493.167,98.5 493.833,98.5 494.5,98.5C 509.833,98.5 525.167,98.5 540.5,98.5C 540.5,103.833 540.5,109.167 540.5,114.5C 520.5,114.5 500.5,114.5 480.5,114.5C 479.195,116.397 478.529,118.731 478.5,121.5C 478.529,124.269 479.195,126.603 480.5,128.5C 501.5,128.5 522.5,128.5 543.5,128.5C 544.167,128.5 544.833,128.5 545.5,128.5C 523.004,129.663 500.337,129.83 477.5,129C 477.398,124.045 477.398,118.878 477.5,113.5C 498.167,113.5 518.833,113.5 539.5,113.5C 539.5,108.833 539.5,104.167 539.5,99.5C 523.658,99.8296 507.991,99.4963 492.5,98.5 Z"/></g>
<g><path style="opacity:0.479" fill="#5d637a" d="M 728.5,114.5 C 728.5,114.167 728.5,113.833 728.5,113.5C 750.51,113.167 772.51,113.5 794.5,114.5C 794.376,115.107 794.043,115.44 793.5,115.5C 792.791,114.596 791.791,114.263 790.5,114.5C 769.833,114.5 749.167,114.5 728.5,114.5 Z"/></g>
<g><path style="opacity:0.479" fill="#546375" d="M 992.5,113.5 C 992.5,113.833 992.5,114.167 992.5,114.5C 986.5,114.5 980.5,114.5 974.5,114.5C 973.209,114.263 972.209,114.596 971.5,115.5C 970.957,115.44 970.624,115.107 970.5,114.5C 977.803,113.503 985.137,113.169 992.5,113.5 Z"/></g>
<g><path style="opacity:1" fill="#00fbfb" d="M 68.5,114.5 C 68.5,119.167 68.5,123.833 68.5,128.5C 67.1952,126.603 66.5286,124.269 66.5,121.5C 66.5286,118.731 67.1952,116.397 68.5,114.5 Z"/></g>
<g><path style="opacity:0.322" fill="#314f53" d="M 302.5,69.5 C 302.5,69.1667 302.5,68.8333 302.5,68.5C 308.833,68.5 315.167,68.5 321.5,68.5C 321.5,83.8333 321.5,99.1667 321.5,114.5C 315.167,114.5 308.833,114.5 302.5,114.5C 301.195,116.397 300.529,118.731 300.5,121.5C 300.529,124.269 301.195,126.603 302.5,128.5C 321.5,128.5 340.5,128.5 359.5,128.5C 339.674,129.497 319.674,129.83 299.5,129.5C 299.5,124.167 299.5,118.833 299.5,113.5C 306.5,113.5 313.5,113.5 320.5,113.5C 320.5,98.8333 320.5,84.1667 320.5,69.5C 314.5,69.5 308.5,69.5 302.5,69.5 Z"/></g>
<g><path style="opacity:1" fill="#11fffe" d="M 302.5,114.5 C 302.5,119.167 302.5,123.833 302.5,128.5C 301.195,126.603 300.529,124.269 300.5,121.5C 300.529,118.731 301.195,116.397 302.5,114.5 Z"/></g>
<g><path style="opacity:0.831" fill="#fe00fe" d="M 359.5,114.5 C 360.805,116.397 361.471,118.731 361.5,121.5C 361.497,124.025 361.163,126.359 360.5,128.5C 360.167,128.5 359.833,128.5 359.5,128.5C 359.5,123.833 359.5,119.167 359.5,114.5 Z"/></g>
<g><path style="opacity:0.064" fill="#49274f" d="M 340.5,114.5 C 340.5,114.167 340.5,113.833 340.5,113.5C 347.833,113.5 355.167,113.5 362.5,113.5C 362.828,118.875 362.495,124.208 361.5,129.5C 360.893,129.376 360.56,129.043 360.5,128.5C 361.163,126.359 361.497,124.025 361.5,121.5C 361.471,118.731 360.805,116.397 359.5,114.5C 353.167,114.5 346.833,114.5 340.5,114.5 Z"/></g>
<g><path style="opacity:1" fill="#28fefe" d="M 480.5,114.5 C 480.5,119.167 480.5,123.833 480.5,128.5C 479.195,126.603 478.529,124.269 478.5,121.5C 478.529,118.731 479.195,116.397 480.5,114.5 Z"/></g>
<g><path style="opacity:1" fill="#27ecec" d="M 622.5,114.5 C 623.5,114.5 624.5,114.5 625.5,114.5C 625.5,119.167 625.5,123.833 625.5,128.5C 624.209,128.737 623.209,128.404 622.5,127.5C 622.5,123.167 622.5,118.833 622.5,114.5 Z"/></g>
<g><path style="opacity:0.856" fill="#ec1cec" d="M 790.5,114.5 C 791.791,114.263 792.791,114.596 793.5,115.5C 793.5,116.167 793.5,116.833 793.5,117.5C 794.08,121.649 793.414,125.316 791.5,128.5C 791.167,128.5 790.833,128.5 790.5,128.5C 790.5,123.833 790.5,119.167 790.5,114.5 Z"/></g>
<g><path style="opacity:1" fill="#37edec" d="M 974.5,114.5 C 974.5,119.167 974.5,123.833 974.5,128.5C 973.5,128.5 972.5,128.5 971.5,128.5C 971.5,124.833 971.5,121.167 971.5,117.5C 971.5,116.833 971.5,116.167 971.5,115.5C 972.209,114.596 973.209,114.263 974.5,114.5 Z"/></g>
<g><path style="opacity:0.802" fill="#ec28ec" d="M 1030.5,114.5 C 1031.5,114.5 1032.5,114.5 1033.5,114.5C 1033.83,114.5 1034.17,114.5 1034.5,114.5C 1033.57,118.4 1033.24,122.4 1033.5,126.5C 1033.18,128.048 1032.18,128.715 1030.5,128.5C 1030.5,123.833 1030.5,119.167 1030.5,114.5 Z"/></g>
<g><path style="opacity:0.004" fill="#000000" d="M 1035.5,114.5 C 1036.83,115.167 1036.83,115.167 1035.5,114.5 Z"/></g>
<g><path style="opacity:1" fill="#10fafa" d="M 1214.5,114.5 C 1215.17,114.5 1215.83,114.5 1216.5,114.5C 1216.5,119.167 1216.5,123.833 1216.5,128.5C 1214.56,124.285 1213.9,119.619 1214.5,114.5 Z"/></g>
<g><path style="opacity:0.455" fill="#b032b0" d="M 687.5,84.5 C 688.167,84.5 688.833,84.5 689.5,84.5C 694.74,88.233 699.574,92.5663 704,97.5C 704.32,102.023 704.82,106.523 705.5,111C 701.81,117.865 696.81,123.698 690.5,128.5C 689.5,128.5 688.5,128.5 687.5,128.5C 691.833,123.5 696.5,118.833 701.5,114.5C 702.812,112.257 703.478,109.59 703.5,106.5C 703.333,103.833 703.167,101.167 703,98.5C 702.31,97.2617 701.81,97.2617 701.5,98.5C 696.5,94.1667 691.833,89.5 687.5,84.5 Z"/></g>
<g><path style="opacity:0.015" fill="#0b000b" d="M 793.5,117.5 C 794.483,121.298 794.817,125.298 794.5,129.5C 793.209,129.737 792.209,129.404 791.5,128.5C 793.414,125.316 794.08,121.649 793.5,117.5 Z"/></g>
<g><path style="opacity:0.004" fill="#000000" d="M 1213.5,129.5 C 1213.44,130.043 1213.11,130.376 1212.5,130.5C 1211.42,129.635 1211.25,128.635 1212,127.5C 1212.28,128.416 1212.78,129.082 1213.5,129.5 Z"/></g>
<g><path style="opacity:0.136" fill="#293131" d="M 68.5,113.5 C 68.5,113.833 68.5,114.167 68.5,114.5C 67.1952,116.397 66.5286,118.731 66.5,121.5C 66.5286,124.269 67.1952,126.603 68.5,128.5C 89.5,128.5 110.5,128.5 131.5,128.5C 109.673,129.497 87.673,129.831 65.5,129.5C 65.5,124.167 65.5,118.833 65.5,113.5C 66.5,113.5 67.5,113.5 68.5,113.5 Z"/></g>
<g><path style="opacity:0.143" fill="#2b4d4f" d="M 397.5,69.5 C 397.837,89.3546 398.837,109.021 400.5,128.5C 405.167,128.5 409.833,128.5 414.5,128.5C 415.5,128.5 416.5,128.5 417.5,128.5C 411.021,129.491 404.354,129.824 397.5,129.5C 397.5,109.5 397.5,89.5 397.5,69.5 Z"/></g>
<g><path style="opacity:0.139" fill="#2b2b2c" d="M 622.5,127.5 C 623.209,128.404 624.209,128.737 625.5,128.5C 646.167,128.5 666.833,128.5 687.5,128.5C 688.5,128.5 689.5,128.5 690.5,128.5C 667.663,129.829 644.663,129.829 621.5,128.5C 621.624,127.893 621.957,127.56 622.5,127.5 Z"/></g>
<g><path style="opacity:0.138" fill="#242526" d="M 971.5,117.5 C 971.5,121.167 971.5,124.833 971.5,128.5C 972.5,128.5 973.5,128.5 974.5,128.5C 993.167,128.5 1011.83,128.5 1030.5,128.5C 1032.18,128.715 1033.18,128.048 1033.5,126.5C 1035.39,126.018 1037.06,126.685 1038.5,128.5C 1039.17,128.5 1039.83,128.5 1040.5,128.5C 1045.5,128.5 1050.5,128.5 1055.5,128.5C 1055.5,128.833 1055.5,129.167 1055.5,129.5C 1027.17,129.5 998.833,129.5 970.5,129.5C 970.183,125.298 970.517,121.298 971.5,117.5 Z"/></g>
<g><path style="opacity:0.137" fill="#292f30" d="M 1214.5,114.5 C 1213.9,119.619 1214.56,124.285 1216.5,128.5C 1237.5,128.5 1258.5,128.5 1279.5,128.5C 1280.5,128.5 1281.5,128.5 1282.5,128.5C 1259.67,129.498 1236.67,129.831 1213.5,129.5C 1213.18,124.305 1213.51,119.305 1214.5,114.5 Z"/></g>
<g><path style="opacity:0.897" fill="#46a1a1" d="M 1141.5,128.5 C 1142.5,128.5 1143.5,128.5 1144.5,128.5C 1160.5,128.5 1176.5,128.5 1192.5,128.5C 1192.5,133.5 1192.5,138.5 1192.5,143.5C 1191.5,143.5 1190.5,143.5 1189.5,143.5C 1189.5,143.167 1189.5,142.833 1189.5,142.5C 1189.5,138.167 1189.5,133.833 1189.5,129.5C 1173.32,129.83 1157.32,129.496 1141.5,128.5 Z"/></g>
<g><path style="opacity:1" fill="#28fcfc" d="M 1144.5,143.5 C 1144.5,148.167 1144.5,152.833 1144.5,157.5C 1143.2,155.603 1142.53,153.269 1142.5,150.5C 1142.53,147.731 1143.2,145.397 1144.5,143.5 Z"/></g>
<g><path style="opacity:0.321" fill="#4a5f69" d="M 1189.5,142.5 C 1189.5,142.833 1189.5,143.167 1189.5,143.5C 1174.5,143.5 1159.5,143.5 1144.5,143.5C 1143.2,145.397 1142.53,147.731 1142.5,150.5C 1142.53,153.269 1143.2,155.603 1144.5,157.5C 1160.5,157.5 1176.5,157.5 1192.5,157.5C 1193.17,157.5 1193.83,157.5 1194.5,157.5C 1177.01,158.497 1159.34,158.83 1141.5,158.5C 1141.5,153.167 1141.5,147.833 1141.5,142.5C 1157.5,142.5 1173.5,142.5 1189.5,142.5 Z"/></g>
</svg>
